<?xml version="1.0" encoding="utf-8"?>
<svg xmlns="http://www.w3.org/2000/svg" viewBox="0 0 64 64">
  <defs>
    <linearGradient id="a" x1="32" x2="32" y1="4" y2="60" gradientUnits="userSpaceOnUse">
      <stop offset="0" style="stop-color:#4ade80"/>
      <stop offset="1" style="stop-color:#10b981"/>
    </linearGradient>
  </defs>
  <rect width="48" height="56" x="8" y="4" rx="6" style="fill:url(#a)"/>
  <g transform="matrix(1.125, 0, 0, 1.125, -4, -4.070375)">
    <path fill="#f3f4f6" fill-rule="evenodd" d="M20 35.5c0-4.412 3.585-7.993 8-7.993s8 3.581 8 7.993-3.585 7.993-8 7.993-8-3.581-8-7.993m4 1.007c.06-2.309 2.597-3.688 4.567-2.482A3 3 0 0 1 30 36.507c0 1.655-1.344 3-3 3s-3-1.345-3-3" style="stroke-width: 1; transform-origin: 28px 35.5px;"/>
    <path fill="#f3f4f6" d="m33.238 30.846 10.68-10.333h-3.926l-9.322 8.861c.937.332 1.807.83 2.568 1.47" style="stroke-width: 1; transform-origin: 37.294px 25.68px;"/>
    <path fill="#f3f4f6" fill-rule="evenodd" d="m34.983 33.507 1.349-1.613.117-1.516q.736-.037 1.474-.055l.753-.549V28.14l.002-.002 1.609-.025.681-.786.016-1.484L44 24.39l-.007-3.883-.754.002L33 30.846a7.9 7.9 0 0 1 1.983 2.661" opacity=".75" style="stroke-width: 1; transform-origin: 38.5px 27.007px;"/>
  </g>
</svg>