<svg xmlns="http://www.w3.org/2000/svg" viewBox="0 0 64 64">
    <rect width="48" height="56" x="8" y="4" fill="#f3f4f6" rx="6" style="stroke-width:1"/>
    <path d="M29.714 16c-.411 0-.754 1.589-.955 3.86-1.064.29-2.086.72-3.038 1.276-1.755-1.47-3.126-2.358-3.417-2.067l-3.235 3.235c-.291.291.596 1.662 2.067 3.417a12.6 12.6 0 0 0-1.265 3.038c-2.277.2-3.871.543-3.871.955v4.572c0 .411 1.589.754 3.86.955.288 1.066.716 2.09 1.272 3.045-1.468 1.751-2.354 3.12-2.063 3.41l3.235 3.235c.29.29 1.657-.593 3.406-2.058.957.55 1.982.973 3.049 1.256.2 2.277.543 3.871.955 3.871h4.572c.411 0 .754-1.589.955-3.86 1.064-.29 2.086-.72 3.038-1.276 1.755 1.47 3.126 2.358 3.417 2.067l3.235-3.235c.291-.291-.596-1.662-2.067-3.417.553-.953.979-1.974 1.265-3.038 2.277-.2 3.871-.543 3.871-.955v-4.572c0-.411-1.589-.754-3.86-.955a12.6 12.6 0 0 0-1.272-3.045c1.468-1.751 2.354-3.12 2.063-3.41l-3.235-3.235c-.29-.29-1.657.593-3.406 2.058a12.6 12.6 0 0 0-3.049-1.256c-.2-2.277-.543-3.871-.955-3.871zM32 26.286c4.399 0 7.148 4.762 4.948 8.571A5.71 5.71 0 0 1 32 37.714c-4.399 0-7.148-4.762-4.948-8.571A5.71 5.71 0 0 1 32 26.286" style="color:#000;clip-rule:nonzero;display:inline;overflow:visible;visibility:visible;isolation:auto;mix-blend-mode:normal;color-interpolation:sRGB;color-interpolation-filters:linearRGB;solid-color:#000;solid-opacity:1;fill:gray;fill-opacity:1;fill-rule:nonzero;stroke:none;stroke-width:2;stroke-linecap:butt;stroke-linejoin:miter;stroke-miterlimit:4;stroke-dasharray:none;stroke-dashoffset:0;stroke-opacity:1;marker:none;color-rendering:auto;image-rendering:auto;shape-rendering:auto;text-rendering:auto"/>
</svg>
