<svg xmlns="http://www.w3.org/2000/svg" viewBox="0 0 64 64">
    <defs>
        <linearGradient id="a" x1="32" x2="32" y1="4" y2="60" gradientUnits="userSpaceOnUse">
            <stop offset="0" style="stop-color:#4ade80"/>
            <stop offset="1" style="stop-color:#10b981"/>
        </linearGradient>
    </defs>
    <rect width="48" height="56" x="8" y="4" rx="6" style="fill:url(#a)"/>
    <g transform="matrix(1.0909 0 0 1.14286 -5.09 -13.714)">
        <rect width="22" height="28" x="23" y="26" ry="2" style="opacity:.25;fill:#fff;fill-opacity:1;stroke-width:7.99998;stroke-linejoin:bevel"/>
        <path d="M23 33v7h11v-7Zm11 7v7h11v-7Z" style="opacity:.5;fill:#fff;fill-opacity:1;stroke-width:7.99998;stroke-linejoin:bevel"/>
        <path d="M23 40v12c0 1.108.892 2 2 2h18c1.108 0 2-.892 2-2v-5H34v-7z" style="opacity:.7;fill:#fff;fill-opacity:1;stroke-width:3.99998;stroke-linejoin:bevel"/>
        <path d="M24.95 26A1.997 1.997 0 0 0 23 28v5h11v-7zM34 33v7h11v-7z" style="opacity:.3;fill:#fff;fill-opacity:1;stroke-width:3.99998;stroke-linejoin:bevel"/>
    </g>
</svg>
