<svg xmlns="http://www.w3.org/2000/svg" viewBox="0 0 64 64">
    <defs>
        <linearGradient id="b" x1="33.998" x2="33.998" y1="17" y2="45" gradientUnits="userSpaceOnUse">
            <stop offset="0" style="stop-color:#fff"/>
            <stop offset="1" style="stop-color:#fff;stop-opacity:.9"/>
        </linearGradient>
        <linearGradient id="a" x1="32" x2="32" y1="4" y2="60" gradientUnits="userSpaceOnUse">
            <stop offset="0" style="stop-color:#4ade80"/>
            <stop offset="1" style="stop-color:#10b981"/>
        </linearGradient>
    </defs>
    <rect width="48" height="56" x="8" y="4" rx="6" style="fill:url(#a)"/>
    <path d="M30.862 17a3.618 3.618 0 0 0-1.801 6.758h-8.096a.97.97 0 0 0-.965.966v7.131c1.389-2.414 4.872-2.419 6.268-.009a3.62 3.62 0 0 1 .005 3.619c-1.391 2.412-4.871 2.413-6.264.003L20 35.452v8.582c0 .535.43.966.965.966h8.096c-2.419-1.384-2.433-4.869-.024-6.272s5.433.327 5.444 3.115A3.62 3.62 0 0 1 32.658 45h7.616a.965.965 0 0 0 .966-.966v-8.582c1.386 2.415 4.866 2.424 6.265.017l.003-.005a3.62 3.62 0 0 0 .007-3.619c-1.396-2.413-4.881-2.41-6.273.006l-.002.003v-7.13a.965.965 0 0 0-.966-.966h-7.616c2.417-1.385 2.427-4.868.019-6.268a3.6 3.6 0 0 0-1.815-.49" style="fill:url(#b)"/>
</svg>
