<svg xmlns="http://www.w3.org/2000/svg" viewBox="0 0 64 64">
    <defs>
        <clipPath id="a" clipPathUnits="userSpaceOnUse">
            <path d="M471.43 685.929c0 22.097-12.841 40.01-12.841 40.01s-12.842-17.913-12.842-40.01 12.842-40.01 12.842-40.01 12.842 17.913 12.842 40.01" style="color:#000;display:inline;overflow:visible;visibility:visible;fill:#edd400;fill-opacity:1;fill-rule:evenodd;stroke:none;stroke-width:12;marker:none;enable-background:new"/>
        </clipPath>
        <clipPath id="c" clipPathUnits="userSpaceOnUse">
            <path d="M401.43 865.802c0 22.097-12.841 40.01-12.841 40.01s-12.842-17.914-12.842-40.01c0-22.097 12.842-40.01 12.842-40.01s12.842 17.913 12.842 40.01" style="color:#000;display:inline;overflow:visible;visibility:visible;fill:#3465a4;fill-opacity:1;fill-rule:evenodd;stroke:none;stroke-width:12;marker:none;enable-background:new"/>
        </clipPath>
        <clipPath id="e" clipPathUnits="userSpaceOnUse">
            <path d="M348.71 698.726c-22.064 0-39.95-12.86-39.95-12.86s17.886-12.862 39.95-12.862 39.952 12.861 39.952 12.861-17.887 12.861-39.951 12.861" style="color:#000;display:inline;overflow:visible;visibility:visible;fill:#ef2929;fill-opacity:1;fill-rule:evenodd;stroke:none;stroke-width:12;marker:none;enable-background:new"/>
        </clipPath>
        <clipPath id="g" clipPathUnits="userSpaceOnUse">
            <path d="M299.471 763.199c-15.601 15.624-37.33 19.197-37.33 19.197s3.567-21.76 19.17-37.385c15.601-15.625 37.33-19.198 37.33-19.198s-3.568 21.76-19.17 37.386" style="color:#000;display:inline;overflow:visible;visibility:visible;fill:#75507b;fill-opacity:1;fill-rule:evenodd;stroke:none;stroke-width:12;marker:none;enable-background:new"/>
        </clipPath>
        <clipPath id="i" clipPathUnits="userSpaceOnUse">
            <path d="M538.467 738.726c-22.065 0-39.951-12.86-39.951-12.86s17.886-12.862 39.95-12.862 39.952 12.861 39.952 12.861-17.887 12.861-39.951 12.861" style="color:#000;display:inline;overflow:visible;visibility:visible;fill:#65c808;fill-opacity:1;fill-rule:evenodd;stroke:none;stroke-width:12;marker:none;enable-background:new"/>
        </clipPath>
        <clipPath id="k" clipPathUnits="userSpaceOnUse">
            <path d="M515.867 706.72c-15.601 15.625-37.33 19.197-37.33 19.197s3.567-21.76 19.17-37.385c15.601-15.625 37.33-19.197 37.33-19.197s-3.568 21.76-19.17 37.385" style="color:#000;display:inline;overflow:visible;visibility:visible;fill:#afea2c;fill-opacity:1;fill-rule:evenodd;stroke:none;stroke-width:12;marker:none;enable-background:new"/>
        </clipPath>
        <clipPath id="m" clipPathUnits="userSpaceOnUse">
            <path d="M515.867 745.01c15.602 15.625 19.17 37.386 19.17 37.386s-21.729-3.573-37.33-19.197c-15.603-15.625-19.17-37.386-19.17-37.386s21.729 3.573 37.33 19.198" style="color:#000;display:inline;overflow:visible;visibility:visible;fill:#729fcf;fill-opacity:1;fill-rule:evenodd;stroke:none;stroke-width:12;marker:none;enable-background:new"/>
        </clipPath>
        <clipPath id="o" clipPathUnits="userSpaceOnUse">
            <path d="M269.471 688.532c15.602 15.625 19.17 37.385 19.17 37.385s-21.729-3.572-37.33-19.197c-15.603-15.625-19.17-37.385-19.17-37.385s21.729 3.572 37.33 19.197" style="color:#000;display:inline;overflow:visible;visibility:visible;fill:#f57900;fill-opacity:1;fill-rule:evenodd;stroke:none;stroke-width:12;marker:none;enable-background:new"/>
        </clipPath>
        <filter id="b" width="1.494" height="1.159" x="-.247" y="-.079" color-interpolation-filters="sRGB">
            <feGaussianBlur stdDeviation="2.643"/>
        </filter>
        <filter id="d" width="1.494" height="1.159" x="-.247" y="-.079" color-interpolation-filters="sRGB">
            <feGaussianBlur stdDeviation="2.643"/>
        </filter>
        <filter id="f" width="1.159" height="1.493" x="-.079" y="-.246" color-interpolation-filters="sRGB">
            <feGaussianBlur stdDeviation="2.641"/>
        </filter>
        <filter id="h" width="1.24" height="1.24" x="-.12" y="-.12" color-interpolation-filters="sRGB">
            <feGaussianBlur stdDeviation="2.827"/>
        </filter>
        <filter id="j" width="1.159" height="1.493" x="-.079" y="-.246" color-interpolation-filters="sRGB">
            <feGaussianBlur stdDeviation="2.641"/>
        </filter>
        <filter id="l" width="1.24" height="1.24" x="-.12" y="-.12" color-interpolation-filters="sRGB">
            <feGaussianBlur stdDeviation="2.827"/>
        </filter>
        <filter id="n" width="1.24" height="1.24" x="-.12" y="-.12" color-interpolation-filters="sRGB">
            <feGaussianBlur stdDeviation="2.827"/>
        </filter>
        <filter id="p" width="1.24" height="1.24" x="-.12" y="-.12" color-interpolation-filters="sRGB">
            <feGaussianBlur stdDeviation="2.827"/>
        </filter>
    </defs>
    <rect width="48" height="56" x="8" y="4" fill="#f3f4f6" rx="6" style="stroke-width:1"/>
    <g transform="matrix(.15612 0 0 .15587 55.174 68.793)">
        <path d="M-132.472-285.726c0 27.485-15.972 49.766-15.972 49.766s-15.972-22.281-15.972-49.766 15.972-49.766 15.972-49.766 15.972 22.28 15.972 49.766" style="color:#000;display:inline;overflow:visible;visibility:visible;fill:#d5be00;fill-opacity:1;fill-rule:evenodd;stroke:none;stroke-width:12;marker:none;enable-background:new"/>
        <path d="M471.43 685.929c0 22.097-12.841 40.01-12.841 40.01s-12.842-17.913-12.842-40.01 12.842-40.01 12.842-40.01 12.842 17.913 12.842 40.01" clip-path="url(#a)" style="color:#000;display:inline;overflow:visible;visibility:visible;fill:#edd400;fill-opacity:1;fill-rule:evenodd;stroke:none;stroke-width:12;marker:none;filter:url(#b);enable-background:new" transform="matrix(1.24372 0 0 1.24385 -718.801 -1138.922)"/>
        <path d="M-132.472-186.376c0 27.485-15.972 49.766-15.972 49.766s-15.972-22.28-15.972-49.766 15.972-49.766 15.972-49.766 15.972 22.28 15.972 49.766" style="color:#000;display:inline;overflow:visible;visibility:visible;fill:#23446e;fill-opacity:1;fill-rule:evenodd;stroke:none;stroke-width:12;marker:none;enable-background:new"/>
        <path d="M-98.847-220.054c-27.442 0-49.688-15.997-49.688-15.997s22.246-15.997 49.688-15.997 49.688 15.997 49.688 15.997-22.246 15.997-49.688 15.997" style="color:#000;display:inline;overflow:visible;visibility:visible;fill:#56aa07;fill-opacity:1;fill-rule:evenodd;stroke:none;stroke-width:12;marker:none;enable-background:new"/>
        <path d="M-198.041-220.054c-27.442 0-49.688-15.997-49.688-15.997s22.246-15.997 49.688-15.997 49.688 15.997 49.688 15.997-22.246 15.997-49.688 15.997" style="color:#000;display:inline;overflow:visible;visibility:visible;fill:#ca0f0f;fill-opacity:1;fill-rule:evenodd;stroke:none;stroke-width:12;marker:none;enable-background:new"/>
        <path d="M-102.08-259.865c-19.404 19.435-46.428 23.878-46.428 23.878s4.436-27.066 23.84-46.501c19.405-19.435 46.43-23.879 46.43-23.879s-4.437 27.067-23.842 46.502" style="color:#000;display:inline;overflow:visible;visibility:visible;fill:#85b912;fill-opacity:1;fill-rule:evenodd;stroke:none;stroke-width:12;marker:none;enable-background:new"/>
        <path d="M401.43 865.802c0 22.097-12.841 40.01-12.841 40.01s-12.842-17.914-12.842-40.01c0-22.097 12.842-40.01 12.842-40.01s12.842 17.913 12.842 40.01" clip-path="url(#c)" style="color:#000;display:inline;overflow:visible;visibility:visible;fill:#3465a4;fill-opacity:1;fill-rule:evenodd;stroke:none;stroke-width:12;marker:none;filter:url(#d);enable-background:new" transform="matrix(1.24372 0 0 1.24385 -631.74 -1263.307)"/>
        <path d="M348.71 698.726c-22.064 0-39.95-12.86-39.95-12.86s17.886-12.862 39.95-12.862 39.952 12.861 39.952 12.861-17.887 12.861-39.951 12.861" clip-path="url(#e)" style="color:#000;display:inline;overflow:visible;visibility:visible;fill:#ef2929;fill-opacity:1;fill-rule:evenodd;stroke:none;stroke-width:12;marker:none;filter:url(#f);enable-background:new" transform="matrix(1.24372 0 0 1.24385 -631.74 -1089.168)"/>
        <path d="M-172.22-189.614c-19.405 19.435-46.43 23.879-46.43 23.879s4.437-27.067 23.842-46.502 46.428-23.879 46.428-23.879-4.436 27.067-23.84 46.502" style="color:#000;display:inline;overflow:visible;visibility:visible;fill:#593d5e;fill-opacity:1;fill-rule:evenodd;stroke:none;stroke-width:12;marker:none;enable-background:new"/>
        <path d="M-172.22-282.488c19.404 19.435 23.84 46.501 23.84 46.501s-27.024-4.443-46.428-23.878c-19.405-19.435-23.841-46.502-23.841-46.502s27.024 4.444 46.428 23.879" style="color:#000;display:inline;overflow:visible;visibility:visible;fill:#c96300;fill-opacity:1;fill-rule:evenodd;stroke:none;stroke-width:12;marker:none;enable-background:new"/>
        <path d="M299.471 763.199c-15.601 15.624-37.33 19.197-37.33 19.197s3.567-21.76 19.17-37.385c15.601-15.625 37.33-19.198 37.33-19.198s-3.568 21.76-19.17 37.386" clip-path="url(#g)" style="color:#000;display:inline;overflow:visible;visibility:visible;fill:#75507b;fill-opacity:1;fill-rule:evenodd;stroke:none;stroke-width:12;marker:none;filter:url(#h);enable-background:new" transform="matrix(1.24372 0 0 1.24385 -544.68 -1138.922)"/>
        <path d="M-102.08-212.237c19.405 19.435 23.841 46.502 23.841 46.502s-27.024-4.444-46.428-23.879c-19.405-19.435-23.841-46.502-23.841-46.502s27.024 4.444 46.428 23.879" style="color:#000;display:inline;overflow:visible;visibility:visible;fill:#3f7bba;fill-opacity:1;fill-rule:evenodd;stroke:none;stroke-width:12;marker:none;enable-background:new"/>
        <path d="M538.467 738.726c-22.065 0-39.951-12.86-39.951-12.86s17.886-12.862 39.95-12.862 39.952 12.861 39.952 12.861-17.887 12.861-39.951 12.861" clip-path="url(#i)" style="color:#000;display:inline;overflow:visible;visibility:visible;fill:#65c808;fill-opacity:1;fill-rule:evenodd;stroke:none;stroke-width:12;marker:none;filter:url(#j);enable-background:new" transform="matrix(1.24372 0 0 1.24385 -768.55 -1138.922)"/>
        <path d="M515.867 706.72c-15.601 15.625-37.33 19.197-37.33 19.197s3.567-21.76 19.17-37.385c15.601-15.625 37.33-19.197 37.33-19.197s-3.568 21.76-19.17 37.385" clip-path="url(#k)" style="color:#000;display:inline;overflow:visible;visibility:visible;fill:#afea2c;fill-opacity:1;fill-rule:evenodd;stroke:none;stroke-width:12;marker:none;filter:url(#l);enable-background:new" transform="matrix(1.24372 0 0 1.24385 -743.676 -1138.922)"/>
        <path d="M515.867 745.01c15.602 15.625 19.17 37.386 19.17 37.386s-21.729-3.573-37.33-19.197c-15.603-15.625-19.17-37.386-19.17-37.386s21.729 3.573 37.33 19.198" clip-path="url(#m)" style="color:#000;display:inline;overflow:visible;visibility:visible;fill:#729fcf;fill-opacity:1;fill-rule:evenodd;stroke:none;stroke-width:12;marker:none;filter:url(#n);enable-background:new" transform="matrix(1.24372 0 0 1.24385 -743.676 -1138.922)"/>
        <path d="M269.471 688.532c15.602 15.625 19.17 37.385 19.17 37.385s-21.729-3.572-37.33-19.197c-15.603-15.625-19.17-37.385-19.17-37.385s21.729 3.572 37.33 19.197" clip-path="url(#o)" style="color:#000;display:inline;overflow:visible;visibility:visible;fill:#f57900;fill-opacity:1;fill-rule:evenodd;stroke:none;stroke-width:12;marker:none;filter:url(#p);enable-background:new" transform="matrix(1.24372 0 0 1.24385 -507.368 -1138.922)"/>
        <ellipse cx="-149.321" cy="-236.313" rx="22.1" ry="22.163" style="color:#000;display:inline;overflow:visible;visibility:visible;opacity:.1;fill:#fff;fill-opacity:1;fill-rule:evenodd;stroke:none;stroke-width:6.55739;marker:none;enable-background:new"/>
        <ellipse cx="-149.321" cy="-236.313" rx="47.574" ry="47.711" style="color:#000;display:inline;overflow:visible;visibility:visible;opacity:.1;fill:#fff;fill-opacity:1;fill-rule:evenodd;stroke:none;stroke-width:14.1163;marker:none;enable-background:new"/>
        <path d="M-149.328-307.767c-4.15 0-8.2.38-12.156 1.063-1.728 6.374-2.938 13.471-2.938 20.969 0 5.04.53 9.915 1.407 14.5-2.617-3.864-5.66-7.686-9.22-11.25-5.37-5.38-11.322-9.6-17.124-12.907a71.7 71.7 0 0 0-18.406 18.25c3.31 5.852 7.56 11.864 12.968 17.282 3.553 3.557 7.337 6.6 11.188 9.218-4.568-.874-9.418-1.406-14.438-1.406-7.658 0-14.897 1.266-21.375 3.063-.734 4.114-1.156 8.36-1.156 12.687 0 4.525.448 8.928 1.25 13.219 6.454 1.782 13.66 3.031 21.281 3.031 5.009 0 9.848-.535 14.407-1.406a77 77 0 0 0-11.157 9.219c-5.323 5.332-9.524 11.235-12.812 17a71.7 71.7 0 0 0 18.656 18.28c5.67-3.27 11.475-7.403 16.719-12.655 3.559-3.565 6.602-7.387 9.219-11.25-.878 4.584-1.407 9.46-1.407 14.5 0 7.276 1.136 14.177 2.782 20.406 4.005.7 8.107 1.094 12.312 1.094a71.5 71.5 0 0 0 14.156-1.438c1.596-6.137 2.688-12.921 2.688-20.062 0-5.04-.53-9.916-1.406-14.5 2.617 3.864 5.659 7.684 9.218 11.25 4.949 4.956 10.384 8.944 15.75 12.125a71.7 71.7 0 0 0 18.844-19.125c-3.16-5.322-7.1-10.718-12-15.625-3.542-3.548-7.348-6.606-11.187-9.22 4.567.875 9.386 1.407 14.406 1.407 6.91 0 13.49-1.013 19.469-2.531a72 72 0 0 0 1.312-13.719c0-4.503-.424-8.915-1.219-13.187-6.004-1.532-12.616-2.563-19.562-2.563-5.042 0-9.884.525-14.469 1.406 3.858-2.62 7.691-5.654 11.25-9.218 4.985-4.993 8.968-10.495 12.156-15.907a71.7 71.7 0 0 0-18.562-19.093c-5.507 3.223-11.104 7.283-16.188 12.375-3.56 3.565-6.601 7.385-9.218 11.25.877-4.585 1.406-9.46 1.406-14.5 0-7.363-1.166-14.34-2.844-20.625a71.5 71.5 0 0 0-14-1.407" style="color:#000;display:inline;overflow:visible;visibility:visible;opacity:.1;fill:#fff;fill-opacity:1;fill-rule:evenodd;stroke:none;stroke-width:12;marker:none;enable-background:new"/>
    </g>
</svg>
