<svg xmlns="http://www.w3.org/2000/svg" viewBox="0 0 64 64">
    <rect width="48" height="56" x="8" y="4" rx="6" ry="6" style="stroke-width:1;fill:#f3f4f6"/>
    <path d="M22.021 25.308h-1.142V19.6q0-1.2.058-2.244l-1.762 1.445-.623-.746 2.488-1.907h.981zm3.314-4.606q.002-2.35.728-3.502.777-1.2 2.281-1.2 1.548 0 2.276 1.2.774 1.152.774 3.502-.001 2.356-.77 3.559-.732 1.149-2.283 1.15-1.5-.001-2.281-1.15-.726-1.203-.725-3.558m4.87 0c0-1.396-.172-2.365-.517-2.898-.312-.539-.761-.801-1.347-.802-.55.001-1 .263-1.346.802q-.466.746-.464 2.897c0 1.471.152 2.477.464 3.007.342.499.792.754 1.346.753q.884 0 1.347-.798c.343-.542.513-1.521.513-2.957zm2.435 0q-.001-2.35.722-3.503.78-1.2 2.282-1.2 1.556 0 2.279 1.2.775 1.152.776 3.502-.001 2.356-.776 3.559-.725 1.149-2.284 1.15-1.498-.001-2.277-1.15-.723-1.203-.722-3.558m4.867 0c0-1.396-.17-2.365-.513-2.898-.311-.539-.762-.801-1.35-.802-.552.001-1.001.263-1.346.802q-.47.747-.469 2.897 0 2.21.469 3.007c.345.499.794.754 1.346.753.589 0 1.034-.267 1.346-.798.347-.542.517-1.521.517-2.957zm2.438 0q-.001-2.35.722-3.503.778-1.2 2.283-1.2 1.551 0 2.274 1.2.777 1.152.776 3.502 0 2.356-.773 3.559-.728 1.149-2.281 1.15-1.499-.001-2.284-1.15-.717-1.203-.717-3.558m4.869 0c-.001-1.396-.175-2.365-.522-2.898-.31-.539-.759-.801-1.346-.802-.551.001-1 .263-1.347.802q-.462.747-.464 2.897.002 2.21.464 3.007c.344.499.792.754 1.347.753q.885 0 1.346-.798c.346-.542.517-1.521.517-2.957zM18.038 32q0-2.35.722-3.505.775-1.2 2.28-1.202 1.551.004 2.277 1.202.776 1.152.777 3.505-.002 2.349-.773 3.555-.73 1.15-2.281 1.152-1.501-.002-2.283-1.152-.719-1.2-.719-3.555m4.865 0q0-2.098-.517-2.905c-.313-.535-.762-.797-1.346-.801-.552.004-1.001.266-1.348.801q-.468.751-.467 2.905 0 2.202.467 3.003.515.752 1.348.753.885 0 1.346-.797c.345-.541.517-1.522.517-2.959m6.424 4.607h-1.142v-5.709q.001-1.201.055-2.251l-1.762 1.449-.623-.746 2.486-1.908h.986zM32.64 32q-.001-2.35.722-3.505.78-1.198 2.282-1.202 1.556.002 2.279 1.202.775 1.152.776 3.505-.001 2.349-.776 3.555-.725 1.15-2.284 1.152-1.498-.002-2.277-1.152-.723-1.2-.722-3.555m4.867 0q0-2.098-.513-2.905c-.311-.535-.762-.797-1.35-.801-.552.004-1.001.266-1.346.801q-.47.751-.469 2.905 0 2.202.469 3.003.518.752 1.346.753c.589 0 1.034-.266 1.346-.797.347-.541.517-1.522.517-2.959m2.438 0q-.001-2.35.722-3.505.778-1.198 2.283-1.202 1.551.004 2.274 1.202.777 1.152.776 3.505 0 2.349-.773 3.555-.728 1.15-2.281 1.152-1.499-.002-2.284-1.152-.717-1.2-.717-3.555m4.869 0q-.001-2.098-.522-2.905c-.31-.535-.759-.797-1.346-.801-.551.004-1 .266-1.347.801q-.462.751-.464 2.905.002 2.202.464 3.003.515.752 1.347.753.885 0 1.346-.797c.346-.541.517-1.522.517-2.959zM18 43.294q0-2.352.722-3.502.779-1.202 2.279-1.204c1.039 0 1.795.404 2.279 1.204q.774 1.15.775 3.502 0 2.349-.775 3.555-.726 1.152-2.284 1.151-1.491.001-2.274-1.151-.723-1.2-.722-3.555m4.865 0q0-2.1-.514-2.903-.466-.801-1.35-.803-.827.002-1.347.803c-.312.495-.468 1.467-.468 2.903q0 2.206.468 3.004.52.753 1.347.753.884-.002 1.35-.798.514-.81.514-2.954zm2.436 0q-.001-2.352.725-3.502.775-1.202 2.281-1.204 1.551.002 2.273 1.204.781 1.15.779 3.502.002 2.349-.779 3.555-.723 1.152-2.277 1.151-1.5.001-2.277-1.151-.726-1.2-.725-3.555m4.87 0c0-1.4-.176-2.368-.517-2.903q-.47-.801-1.351-.803-.826.002-1.347.803c-.307.495-.462 1.467-.463 2.903q.002 2.206.463 3.004.52.753 1.347.753.885-.002 1.347-.798.518-.81.517-2.954zm6.42 4.607H35.45v-5.709q.001-1.2.053-2.25l-1.761 1.45-.62-.748 2.488-1.908h.981zm3.314-4.607q0-2.352.722-3.502.786-1.202 2.285-1.204 1.552.002 2.274 1.204.776 1.15.776 3.502.002 2.349-.772 3.555-.723 1.152-2.281 1.151-1.5.001-2.284-1.151-.719-1.2-.719-3.555m4.869 0q-.002-2.1-.517-2.903-.464-.801-1.349-.803-.826.002-1.349.803c-.305.495-.461 1.467-.462 2.903q.003 2.206.462 3.004.523.753 1.349.753.884-.002 1.349-.798.513-.81.513-2.954zm0 0" style="stroke-width:1;fill:#71717a"/>
</svg>
