<svg xmlns="http://www.w3.org/2000/svg" viewBox="0 0 64 64">
    <path fill="#f3f4f6" d="M14 4h36c3.313 0 6 2.688 6 6v44a6 6 0 0 1-6 6H14c-3.312 0-6-2.687-6-6V10c0-3.312 2.688-6 6-6m0 0"/>
    <g fill="#71717a">
        <path d="M40.893 17.11q-.35.37-.649.787l-.528.707-.185-.13c-.264-.18-.521-.217-.761-.11-.16.073-.544.574-3.087 3.965a158.544 160.714 0 0 0-2.907 3.93c0 .022.648.536 1.425 1.13l1.428 1.104 1.895-2.532c1.04-1.393 1.912-2.519 1.932-2.503.067.05.182 1.147.157 1.5a4.228 4.286 0 0 1-.157.769c-.132.407-.148.436-2.502 3.582-1.3 1.742-2.382 3.219-2.4 3.282-.056.163 0 .461.121.636.202.293.702.39.983.18.201-.146 4.855-6.425 5.008-6.755.43-.933.529-2.138.264-3.319a8.456 8.571 0 0 0-.38-1.243c-.041-.088.03-.205.463-.786.412-.557.503-.716.511-.863.022-.31-.074-.485-.37-.72l-.282-.221.562-.754c.458-.623.558-.787.565-.933.03-.62-.602-1.021-1.106-.7"/>
        <path d="M28.074 32.486c-3.345 4.47-3.82 5.132-4.13 5.7-.615 1.135-1.283 2.863-1.733 4.441-.29 1.013-.302.925.095.712 1.23-.666 2.836-1.741 3.769-2.54.92-.783 1.074-.98 4.955-6.17l3.745-4.993-1.442-1.104c-.788-.608-1.445-1.106-1.458-1.102-.011 0-1.721 2.277-3.801 5.056m3.736 6.525a2.516 2.55 0 0 0-1.536 1.218q-.18.364-.298.754-.074.246-.16.493c-.042.054-1.148.322-1.8.436-1.528.272-1.945.372-2.093.514-.294.276-.067.553.35.432.112-.043.582-.13 1.036-.215a36 36 0 0 0 1.549-.312q.363-.108.747-.14a4.228 4.286 0 0 1-.16.713l-.187.681-.417.18q-.378.172-.726.398c-.52.348-.624.787-.256 1.071.198.151.755.147 1.102 0 .306-.141.48-.339.72-.853.122-.263.225-.407.3-.423.066-.025.614-.13 1.225-.255l1.24-.26c.12-.03.128-.025.094.089q-.1.227-.227.443a1.163 1.179 0 0 0-.19.464c0 .176.145.348.264.305a.317.321 0 0 1 .133-.041q.148-.08.273-.205c.226-.205.78-1.227.78-1.436 0-.108.082-.138.132-.053.016.029.148.082.28.112.199.054.257.092.257.185 0 .175.28.43.536.476a1.2 1.2 0 0 0 .71-.12c.095-.044.1-.027.067.12-.1.225-.22.444-.36.645a9.09 9.214 0 0 0-.924 1.82c-.096.335-.053.582.119.7.153.1.405.053.541-.089q.569-1.018.983-2.11a2.22 2.25 0 0 1 .624-.957c.313-.331.412-.415.346-.285-.112.246-.103.427.016.544.26.243.64 0 .966-.599.199-.364.344-.468 1.066-.815l.38-.172-.042.2q-.11.372-.289.712c-.255.562-.31.917-.156 1.218.11.21.222.214.735.038.71-.243 1.635-.8 1.878-1.122.326-.452.426-.891.227-1.028-.211-.156-.322-.094-.587.295a3.382 3.429 0 0 1-1.196 1.147c-.199.105-.372.176-.389.155q.29-.917.66-1.803a1.163 1.179 0 0 0 .091-.323c0-.162-.197-.338-.359-.338a3.91 3.964 0 0 0-.814.338c-.759.386-.708.418-.519-.305.12-.444.078-.566-.186-.59-.251-.03-.36.063-.59.482a3.3 3.3 0 0 1-.731.882c-.507.473-.528.486-.648.407-.177-.131-.277-.11-.71.107-.422.214-.561.243-.67.113-.09-.103.05-.162.826-.313.748-.146.838-.188.838-.348 0-.25-.197-.492-.565-.656-.64-.285-.71-.306-.987-.235-.301.084-.743.514-.809.787-.058.28-.248.2-.248-.113a.951.964 0 0 0-.248-.514c-.186-.13-.495.154-.726.67l-.181.401-.41.088c-.536.12-2.085.43-2.291.472-.136.025-.16.025-.128-.066l.152-.557c.175-.694.223-.79.476-.879q.799-.315 1.573-.685.296-.19.557-.42c.562-.532.649-1.022.248-1.382a1.585 1.607 0 0 0-.318-.225 2.431 2.464 0 0 0-.958-.058Zm.714.77c.111.117.111.122.012.343a1.205 1.221 0 0 1-.42.427c-.339.236-1.396.67-1.438.59-.041-.128.298-.9.521-1.146.285-.336.371-.369.83-.343.292.029.412.05.495.137m-3.63 4.693c-.069.137-.26.242-.363.2-.12-.05-.086-.12.104-.222q.382-.195.264.03Zm0 0"/>
    </g>
</svg>
