<svg xmlns="http://www.w3.org/2000/svg" xmlns:xlink="http://www.w3.org/1999/xlink" viewBox="0 0 64 64">
    <defs>
        <linearGradient id="a">
            <stop offset="0" style="stop-color:#ecb224;stop-opacity:1"/>
            <stop offset="1" style="stop-color:#ffd46d;stop-opacity:1"/>
        </linearGradient>
        <linearGradient xlink:href="#a" id="b" x1="14" x2="50" y1="4" y2="60" gradientUnits="userSpaceOnUse"/>
    </defs>
    <path d="M14 4h24l6 10 10 6v36c0 2.216-1.784 4-4 4H14c-2.216 0-4-1.784-4-4V8c0-2.216 1.784-4 4-4" style="fill:url(#b);fill-opacity:1;stroke-width:1;stroke-linecap:round;stroke-linejoin:round"/>
    <path d="M19 4v2h2V4Zm2 2v2h2V6Zm0 2h-2v2h2zm0 2v2h2v-2zm0 2h-2v2h2zm0 2v2h2v-2zm0 2h-2v2h2zm0 2v2h2v-2zm0 2h-2v2h2zm0 2v2h2v-2zm0 2h-2v2h2zm0 2v2h2v-2zm0 2h-2v2h2zm0 2v2h2v-2zm0 2h-2v2h2zm0 2v2h2v-2zm-2 4v5c0 .554.446 1 1 1h2c.554 0 1-.446 1-1v-5zm1 3h2v2h-2z" style="opacity:.8;fill:#fff;fill-opacity:1;stroke-width:8;stroke-linecap:round;stroke-linejoin:round"/>
    <path d="M54 20H42c-2.216 0-4-1.784-4-4V4l8 8z" style="fill:#ffe9b8;fill-opacity:1;stroke-width:1;stroke-linecap:round;stroke-linejoin:round"/>
</svg>
