<svg xmlns="http://www.w3.org/2000/svg" viewBox="0 0 64 64">
    <path fill="#f3f4f6" d="M14 4h36c3.313 0 6 2.688 6 6v44a6 6 0 0 1-6 6H14c-3.312 0-6-2.687-6-6V10c0-3.312 2.688-6 6-6m0 0"/>
    <path fill="#71717a" d="M31.645 23.902a7.95 7.95 0 0 0-3.747.895l.582 1.617q1.418-.762 2.895-.762 1.165 0 1.773.606c.407.402.625.953.602 1.527.004.375-.09.746-.266 1.074a4.4 4.4 0 0 1-.656.942q-.4.454-.848.898-.45.426-.855.946a5.2 5.2 0 0 0-.672 1.07c-.168.414-.25.855-.246 1.3 0 .333.031.645.09.946h1.75a1.3 1.3 0 0 1-.024-.246v-.25c-.003-.457.098-.91.293-1.32.192-.407.434-.77.72-1.098q.426-.521.94-.988c.512-.47.657-.645.942-.985q.423-.511.719-1.105c.203-.426.3-.895.289-1.367a4.3 4.3 0 0 0-.2-1.254 2.9 2.9 0 0 0-.675-1.211 3.6 3.6 0 0 0-1.32-.875 5.3 5.3 0 0 0-2.086-.36m-5.954 4.196L16 32.203v1.793l9.691 4.106.582-1.727-7.964-3.277 7.964-3.274Zm12.622 0-.586 1.726 7.96 3.274-7.96 3.277.582 1.727L48 33.996v-1.793Zm-7.028 8.996a1.39 1.39 0 0 0-1.098.445q-.408.45-.406 1.059c0 .609.133.75.403 1.05s.636.454 1.097.45c.692-.004.832-.153 1.102-.45q.408-.45.406-1.054t-.406-1.055a1.39 1.39 0 0 0-1.098-.445"/>
</svg>
