<?xml version="1.0" encoding="utf-8"?>
<svg xmlns="http://www.w3.org/2000/svg" viewBox="0 0 64 64">
  <defs>
    <linearGradient id="a" x1=".5" x2=".5" y1="0" y2="1">
      <stop offset="0" style="stop-color:#f6ad55"/>
      <stop offset="1" style="stop-color:#ed8936"/>
    </linearGradient>
  </defs>
  <rect width="48" height="56" x="8" y="4" fill="url(#a)" rx="6"/>
  <path fill="url(#a)" d="M16 4h32c4.415 0 8 3.585 8 8v40c0 4.415-3.585 8-8 8H16c-4.415 0-8-3.585-8-8V12c0-4.415 3.585-8 8-8" style="visibility: hidden;"/>
  <g transform="matrix(0.984832, 0, 0, 0.984832, 0.485352, 0.288205)">
    <path fill="#00758a" d="M 47.224 33.033 L 32.356 33.033 L 29.921 41.433 L 26.968 41.433 C 26.896 41.434 26.832 41.386 26.813 41.316 L 21.483 22.562 L 25.194 22.562 L 27.156 29.472 L 30.86 29.472 L 27.881 19.001 L 16.769 19.001 L 23.387 42.294 C 23.845 43.892 25.305 44.996 26.968 45.001 L 32.602 45.001 L 35.037 36.602 L 43.669 36.602 L 43.669 41.277 C 43.672 41.321 43.655 41.364 43.624 41.394 C 43.593 41.425 43.551 41.442 43.507 41.439 L 37.336 41.439 L 36.3 45.001 L 43.507 45.001 C 44.504 45.001 45.437 44.612 46.143 43.906 C 46.844 43.209 47.236 42.26 47.231 41.271 L 47.231 33.033 L 47.224 33.033 Z" style="fill:#fff;stroke-width:.4;fill-opacity:.8"/>
    <path fill="#f29111" d="M 46.214 29.472 L 47.224 29.472 L 47.224 22.731 C 47.226 21.743 46.834 20.795 46.136 20.096 C 45.44 19.392 44.491 18.997 43.501 19.001 L 36.436 19.001 L 33.392 29.472 L 46.214 29.472 Z M 39.11 22.562 L 43.507 22.562 C 43.598 22.558 43.673 22.633 43.669 22.724 L 43.669 25.91 L 38.139 25.91 L 39.117 22.556 L 39.11 22.562 Z" style="fill:#fff;stroke-width:.4"/>
  </g>
</svg>