<svg xmlns="http://www.w3.org/2000/svg" viewBox="0 0 64 64">
    <defs>
        <linearGradient id="b" x1="32" x2="32" y1="14.921" y2="48.921" gradientTransform="translate(-1.882 -1.799)scale(1.05882)" gradientUnits="userSpaceOnUse">
            <stop offset="0" style="stop-color:#fde047;stop-opacity:.9"/>
            <stop offset="1" style="stop-color:#fde047;stop-opacity:.8"/>
        </linearGradient>
        <linearGradient id="c" x1="31.995" x2="31.995" y1="17.971" y2="45.971" gradientTransform="translate(-4.58 -4.553)scale(1.1433)" gradientUnits="userSpaceOnUse">
            <stop offset="0" style="stop-color:#555"/>
            <stop offset="1" style="stop-color:#333"/>
        </linearGradient>
        <linearGradient id="a" x1="32" x2="32" y1="4" y2="60" gradientUnits="userSpaceOnUse">
            <stop offset="0" style="stop-color:#10b981"/>
            <stop offset="1" style="stop-color:#059669"/>
        </linearGradient>
    </defs>
    <rect width="48" height="56" x="8" y="4" rx="6" ry="6" style="stroke-width:1;fill:url(#a)"/>
    <g transform="translate(7.111 7.111)scale(.77778)">
        <path d="M18.235 14.001v4.203H14v2.117h4.235v2.118H14v2.117h4.235v2.118H14v2.118h4.235v2.117H14v2.118h4.235v2.118H14v2.117h4.235v2.118H14v2.118h4.235v2.117H14v2.118h4.235V50h2.118v-4.267h2.118V50h2.117v-4.267h2.118V50h2.118v-4.267h2.117V50h2.118v-4.267h2.117V50h2.118v-4.267h2.118V50h2.117v-4.267h2.118V50h2.118v-4.267H50v-2.118h-4.235v-2.117H50V39.38h-4.235v-2.118H50v-2.117h-4.235v-2.118H50v-2.118h-4.235v-2.117H50v-2.118h-4.235v-2.118H50v-2.117h-4.235v-2.118H50v-2.117h-4.235V14h-2.118v4.204h-2.118V14h-2.117v4.204h-2.118V14h-2.118v4.204h-2.117V14h-2.118v4.204h-2.117V14h-2.118v4.204h-2.118V14h-2.117v4.204h-2.118V14zm2.118 6.32h2.118v2.118h-2.118zm4.235 0h2.118v2.118h-2.118zm4.236 0h2.117v2.118h-2.117zm4.235 0h2.117v2.118h-2.117zm4.235 0h2.118v2.118h-2.118zm4.235 0h2.118v2.118h-2.118zm-21.176 4.235h2.118v2.118h-2.118zm4.235 0h2.118v2.118h-2.118zm4.236 0h2.117v2.118h-2.117zm4.235 0h2.117v2.118h-2.117zm4.235 0h2.118v2.118h-2.118zm4.235 0h2.118v2.118h-2.118zm-21.176 4.236h2.118v2.117h-2.118zm4.235 0h2.118v2.117h-2.118zm4.236 0h2.117v2.117h-2.117zm4.235 0h2.117v2.117h-2.117zm4.235 0h2.118v2.117h-2.118zm4.235 0h2.118v2.117h-2.118zm-21.176 4.235h2.118v2.118h-2.118zm4.235 0h2.118v2.118h-2.118zm4.236 0h2.117v2.118h-2.117zm4.235 0h2.117v2.118h-2.117zm4.235 0h2.118v2.118h-2.118zm4.235 0h2.118v2.118h-2.118zm-21.176 4.235h2.118v2.118h-2.118zm4.235 0h2.118v2.118h-2.118zm4.236 0h2.117v2.118h-2.117zm4.235 0h2.117v2.118h-2.117zm4.235 0h2.118v2.118h-2.118zm4.235 0h2.118v2.118h-2.118zm-21.176 4.236h2.118v2.117h-2.118zm4.235 0h2.118v2.117h-2.118zm4.236 0h2.117v2.117h-2.117zm4.235 0h2.117v2.117h-2.117zm4.235 0h2.118v2.117h-2.118zm4.235 0h2.118v2.117h-2.118zm0 0" style="fill:url(#b)"/>
        <rect width="32" height="32.013" x="16" y="15.993" rx="6" ry="6" style="fill:url(#c)"/>
    </g>
</svg>
