<svg xmlns="http://www.w3.org/2000/svg" viewBox="0 0 64 64">
    <rect width="48" height="56" x="8" y="4" fill="#f3f4f6" rx="6" style="stroke-width:1"/>
    <path fill-rule="evenodd" d="M31.14 18a3.477 3.477 0 0 0-3.478 3.476 1.72 1.72 0 0 1-1.732 1.713 1.56 1.56 0 0 1-.805-.229l-.017-.008a3.5 3.5 0 0 0-4.752 1.285l-.904 1.484-.009.018a3.5 3.5 0 0 0 1.267 4.755l.004.003c1.158.663 1.165 2.33.011 3.001l-.011.005a3.487 3.487 0 0 0-1.271 4.745v.003l.855 1.473.002.004a3.49 3.49 0 0 0 4.754 1.348l.011-.008a1.73 1.73 0 0 1 1.305-.175h.004c.44.119.816.409 1.043.804l.006.013c.146.245.226.525.228.811A3.5 3.5 0 0 0 31.14 46h1.711a3.5 3.5 0 0 0 3.487-3.472v-.007a1.723 1.723 0 0 1 1.725-1.731c.289.011.577.09.829.233a3.497 3.497 0 0 0 4.752-1.271l.893-1.491.007-.01a3.47 3.47 0 0 0-1.269-4.76 1.72 1.72 0 0 1-.629-2.363l.002-.007a1.7 1.7 0 0 1 .623-.624l.007-.003a3.49 3.49 0 0 0 1.363-4.527 1 1 0 0 0-.093-.228l-.851-1.478a3.5 3.5 0 0 0-4.755-1.284l-.011.007a1.72 1.72 0 0 1-2.365-.616v-.004a1.57 1.57 0 0 1-.228-.81v.036A3.49 3.49 0 0 0 32.851 18zm0 1.75h1.711a1.74 1.74 0 0 1 1.738 1.787v.034c.004.592.17 1.174.471 1.682a3.47 3.47 0 0 0 4.75 1.243 1.727 1.727 0 0 1 2.369.64L43 26.559l.03.061c.48.829.196 1.887-.633 2.363a3.4 3.4 0 0 0-1.263 1.264v.003a3.477 3.477 0 0 0 1.267 4.759 1.733 1.733 0 0 1 .633 2.356v.007l-.896 1.492-.008.01a1.72 1.72 0 0 1-2.366.632l-.004-.004a3.5 3.5 0 0 0-1.663-.463h-.017a3.484 3.484 0 0 0-3.491 3.489c0 .958-.782 1.73-1.738 1.722H31.14a1.725 1.725 0 0 1-1.74-1.736v-.01a3.4 3.4 0 0 0-.469-1.678 3.454 3.454 0 0 0-4.734-1.275 1.733 1.733 0 0 1-2.37-.674l-.004-.017-.864-1.484a1.715 1.715 0 0 1 .631-2.354c2.318-1.346 2.318-4.693 0-6.039v-.005a1.724 1.724 0 0 1-.631-2.365l.903-1.484.011-.017a1.723 1.723 0 0 1 2.367-.642 3.4 3.4 0 0 0 1.675.468h.011a3.497 3.497 0 0 0 3.485-3.438v-.017a1.723 1.723 0 0 1 1.729-1.733m.856 7c-2.887 0-5.249 2.362-5.249 5.25s2.362 5.25 5.249 5.25c2.888 0 5.251-2.362 5.251-5.25s-2.363-5.25-5.251-5.25m0 1.75c1.944 0 3.5 1.557 3.5 3.5s-1.556 3.5-3.5 3.5a3.49 3.49 0 0 1-3.5-3.5c0-1.943 1.559-3.5 3.5-3.5" clip-rule="evenodd" color="#000" style="font-feature-settings:normal;font-variant-alternates:normal;font-variant-caps:normal;font-variant-east-asian:normal;font-variant-ligatures:normal;font-variant-numeric:normal;font-variant-position:normal;font-variation-settings:normal;inline-size:0;isolation:auto;mix-blend-mode:normal;shape-margin:0;text-decoration-color:#000;text-decoration-line:none;text-decoration-style:solid;text-indent:0;text-orientation:mixed;text-transform:none;white-space:normal;stroke-width:1;fill:#71717a"/>
</svg>
