<svg xmlns="http://www.w3.org/2000/svg" viewBox="0 0 64 64">
    <path fill="#f3f4f6" d="M14 4h36c3.313 0 6 2.688 6 6v44a6 6 0 0 1-6 6H14c-3.312 0-6-2.687-6-6V10c0-3.312 2.688-6 6-6m0 0"/>
    <path fill="#4b5563" d="M39.059 19.73q-.331.346-.614.735l-.5.66-.175-.121c-.25-.168-.493-.203-.72-.102-.152.067-.515.535-2.921 3.7a150 150 0 0 0-2.75 3.668c0 .02.613.5 1.348 1.054l1.351 1.031 1.793-2.363c.984-1.3 1.809-2.351 1.828-2.336.063.047.172 1.07.149 1.399a4 4 0 0 1-.149.718c-.125.38-.14.407-2.367 3.344-1.23 1.625-2.254 3.004-2.27 3.063-.054.152 0 .43.114.593.191.274.664.364.93.168.19-.136 4.593-5.996 4.738-6.304.406-.871.5-1.996.25-3.098a8 8 0 0 0-.36-1.16c-.039-.082.028-.192.438-.734.39-.52.476-.668.484-.805.02-.29-.07-.453-.351-.672l-.266-.207.531-.703c.434-.582.528-.735.535-.871.028-.578-.57-.953-1.046-.653"/>
    <path fill="#4b5563" d="M26.93 34.082c-3.164 4.172-3.614 4.79-3.907 5.32-.582 1.059-1.214 2.672-1.64 4.145-.274.945-.285.863.09.664 1.164-.621 2.683-1.625 3.566-2.371.871-.73 1.016-.914 4.688-5.758l3.543-4.66-1.364-1.031c-.746-.567-1.367-1.032-1.379-1.028-.011 0-1.629 2.125-3.597 4.719m3.535 6.09a2.38 2.38 0 0 0-1.453 1.137q-.17.339-.282.703-.07.23-.152.46c-.039.051-1.086.301-1.703.407-1.445.254-1.84.348-1.98.48-.278.258-.063.516.332.403.105-.04.55-.121.98-.2.43-.074 1.09-.207 1.465-.292q.344-.1.707-.13a4 4 0 0 1-.152.665l-.176.636-.395.168q-.358.16-.687.371c-.492.325-.59.735-.242 1 .187.141.714.137 1.043 0 .289-.132.453-.316.68-.796.116-.246.214-.38.284-.395.063-.023.582-.121 1.16-.238l1.172-.242c.114-.028.122-.024.09.082q-.095.212-.215.414a1.1 1.1 0 0 0-.18.433c0 .164.137.325.25.285a.3.3 0 0 1 .126-.039q.14-.074.258-.191c.214-.191.738-1.145.738-1.34 0-.101.078-.129.125-.05.015.027.14.077.265.105.188.05.243.086.243.172 0 .164.265.402.507.445.23.031.465-.008.672-.113.09-.04.094-.024.063.113-.094.21-.207.414-.34.602a8.6 8.6 0 0 0-.875 1.699c-.09.312-.05.543.113.652.145.094.383.05.512-.082q.538-.95.93-1.969a2.1 2.1 0 0 1 .59-.894c.296-.309.39-.387.328-.266-.106.23-.098.399.015.508.246.227.606 0 .914-.559.188-.34.325-.437 1.008-.761l.36-.16-.04.187q-.104.346-.273.664c-.242.524-.293.856-.148 1.137.105.195.21.199.695.035.672-.227 1.547-.746 1.777-1.047.309-.422.403-.832.215-.96-.2-.145-.305-.087-.555.276a3.2 3.2 0 0 1-1.132 1.07c-.188.098-.352.165-.368.145q.275-.856.625-1.683a1.1 1.1 0 0 0 .086-.301c0-.152-.187-.316-.34-.316a3.7 3.7 0 0 0-.77.316c-.718.36-.67.39-.491-.285.113-.414.074-.528-.176-.551-.238-.027-.34.059-.559.45-.18.312-.414.593-.691.823-.48.442-.5.454-.613.38-.168-.122-.262-.102-.672.1-.399.2-.531.227-.633.106-.086-.097.047-.152.781-.293.707-.136.793-.175.793-.324 0-.234-.187-.46-.535-.613-.605-.266-.672-.285-.934-.219-.285.078-.703.48-.765.735-.055.261-.235.187-.235-.106a.9.9 0 0 0-.234-.48c-.176-.121-.469.144-.687.625l-.172.375-.387.082c-.508.113-1.973.402-2.168.441-.129.023-.152.023-.121-.062l.144-.52c.165-.648.211-.738.45-.82q.756-.294 1.488-.64.28-.176.527-.392c.532-.496.614-.953.235-1.289a1.5 1.5 0 0 0-.301-.21 2.3 2.3 0 0 0-.906-.055Zm.676.719c.105.109.105.113.011.32a1.14 1.14 0 0 1-.398.398c-.32.22-1.32.625-1.36.551-.039-.12.282-.84.493-1.07.27-.313.351-.344.785-.32.277.027.39.046.469.128m-3.434 4.38c-.066.128-.246.226-.344.187-.113-.047-.082-.113.098-.207q.362-.182.25.027Zm0 0"/>
</svg>
