<svg xmlns="http://www.w3.org/2000/svg" viewBox="0 0 64 64">
    <path fill="#f3f4f6" d="M14 4h36c3.313 0 6 2.688 6 6v44a6 6 0 0 1-6 6H14c-3.312 0-6-2.687-6-6V10c0-3.312 2.688-6 6-6m0 0"/>
    <path fill="#71717a" d="M31.7 23.003a9 9 0 0 0-4.2.994l.652 1.797q1.59-.846 3.246-.846 1.307 0 1.987.674c.456.446.701 1.058.675 1.696.006.417-.101.829-.299 1.193q-.297.572-.735 1.048-.448.505-.949.997a9 9 0 0 0-.959 1.051q-.45.55-.754 1.19c-.187.459-.28.949-.276 1.444 0 .37.036.717.102 1.05h1.961a1.5 1.5 0 0 1-.027-.273v-.277a3.36 3.36 0 0 1 .329-1.467c.215-.453.486-.855.806-1.22q.479-.58 1.055-1.098c.573-.522.736-.715 1.056-1.093q.473-.57.805-1.229c.228-.472.336-.993.324-1.52a4.7 4.7 0 0 0-.224-1.393 3.2 3.2 0 0 0-.757-1.346 4 4 0 0 0-1.479-.971 6 6 0 0 0-2.339-.401m-.403 14.66a1.57 1.57 0 0 0-1.231.494 1.7 1.7 0 0 0-.456 1.177c0 .677.15.833.452 1.166s.714.506 1.231.5c.775-.004.932-.17 1.235-.5a1.66 1.66 0 0 0 .454-1.169q-.001-.672-.454-1.174a1.56 1.56 0 0 0-1.231-.494"/>
    <path d="m24.395 27.599-5.247 4.373 5.247 4.373a1.034 1.034 0 0 1-1.323 1.586l-6.2-5.169a1.03 1.03 0 0 1 0-1.585l6.2-5.166a1.035 1.035 0 0 1 1.323 1.588m22.734 3.578-6.201-5.166a1.034 1.034 0 0 0-1.323 1.588l5.245 4.373-5.245 4.373a1.03 1.03 0 0 0 .269 1.767c.356.139.761.071 1.054-.181l6.201-5.169a1.03 1.03 0 0 0 0-1.585" style="stroke-width:1;fill:#71717a"/>
</svg>
