<?xml version="1.0" encoding="utf-8"?>
<svg xmlns="http://www.w3.org/2000/svg" viewBox="0 0 16.933 16.933">
  <rect width="48" height="56" x="8" y="4" fill="#f5f5f5" rx="6" transform="scale(.26458)"/>
  <path fill="#eb577a" d="M 11.11 4.762 C 10.981 4.766 10.853 4.779 10.725 4.8 L 7.959 5.223 C 7.291 5.365 7.293 5.41 7.291 5.973 L 7.291 10.552 L 7.207 10.493 C 6.992 10.336 6.732 10.251 6.465 10.25 C 6.085 10.25 5.857 10.396 5.72 10.588 C 5.583 10.78 5.537 11.022 5.537 11.208 C 5.537 11.434 5.614 11.675 5.781 11.858 C 5.948 12.041 6.205 12.17 6.574 12.17 C 6.992 12.168 7.284 12.054 7.45 11.826 C 7.58 11.647 7.653 11.408 7.678 11.113 L 7.687 11.002 C 7.69 10.943 7.689 10.834 7.689 10.834 L 7.689 7.33 C 7.689 6.83 7.689 6.8 8.357 6.685 L 10.325 6.377 C 10.994 6.289 10.994 6.35 10.994 6.726 L 10.994 9.943 C 10.968 9.923 10.94 9.904 10.912 9.886 C 10.697 9.729 10.437 9.644 10.17 9.643 C 9.79 9.643 9.563 9.789 9.425 9.98 C 9.304 10.163 9.24 10.38 9.242 10.601 C 9.241 10.84 9.328 11.071 9.486 11.251 C 9.653 11.434 9.91 11.562 10.279 11.562 C 10.697 11.561 10.989 11.447 11.155 11.219 C 11.285 11.039 11.358 10.801 11.383 10.506 L 11.383 10.505 L 11.392 10.395 C 11.395 10.336 11.395 10.227 11.395 10.227 L 11.395 5.349 C 11.395 4.91 11.392 4.765 11.11 4.762"/>
</svg>