<svg xmlns="http://www.w3.org/2000/svg" viewBox="0 0 64 64">
    <rect width="48" height="56" x="8" y="4" rx="6" ry="6" style="stroke-width:1;fill:#f3f4f6"/>
    <path d="M47.955 39.245c0 5.953-6.446 9.672-11.6 6.697a7.73 7.73 0 0 1-3.867-6.697c0-5.952 6.443-9.674 11.599-6.697a7.74 7.74 0 0 1 3.868 6.697m-3.885-.757-5.155-2.834a.86.86 0 0 0-1.272.755v5.672a.86.86 0 0 0 1.272.756l5.155-2.835a.86.86 0 0 0 .042-1.489z" style="stroke-width:1;fill:#5b21b6" transform="translate(-3.109 -1.098)scale(1.03448)"/>
    <path d="M27.678 17.037a.786.786 0 0 0-1.022.756v15.579c-2.813-2.738-7.533-1.405-8.501 2.4A5.2 5.2 0 0 0 18 37.071c.151 3.938 4.508 6.234 7.843 4.134a5.12 5.12 0 0 0 2.387-4.528V25.156l9.207 2.835a.79.79 0 0 0 1.023-.756v-3.967a3.94 3.94 0 0 0-2.77-3.777l-8.027-2.454z" style="stroke-width:1;fill:#5b21b6"/>
</svg>
