<svg xmlns="http://www.w3.org/2000/svg" viewBox="0 0 64 64">
    <rect width="48" height="56" x="8" y="4" fill="#f3f4f6" rx="6"/>
    <path fill-rule="evenodd" stroke-width="1.002" d="M24 45.996C37.004 52 43 38 32 32c-10.996-5.996-5-20 8-14" style="fill-opacity:.3;fill:#0ea5e9;stroke:#6366f1"/>
    <path stroke="#f34f17" stroke-linejoin="round" d="M22.5 25.996c0 .832-.672 1.5-1.5 1.5s-1.5-.668-1.5-1.5a1.5 1.5 0 0 1 3 0Zm22 12a1.5 1.5 0 1 1-3 0 1.5 1.5 0 0 1 3 0Zm0 0" style="fill:#f34f17"/>
    <path d="M38.5 16.5h3v3h-3Zm-8 13.996h3v3h-3Zm-8 14h3v3h-3Zm0 0" style="stroke:#6366f1;fill:#6366f1"/>
</svg>
