<svg xmlns="http://www.w3.org/2000/svg" viewBox="0 0 64 64">
    <path fill="#f3f4f6" d="M14 4h36c3.313 0 6 2.688 6 6v44a6 6 0 0 1-6 6H14c-3.312 0-6-2.687-6-6V10c0-3.312 2.688-6 6-6m0 0"/>
    <path fill="#8f76e4" fill-opacity=".251" fill-rule="evenodd" stroke-width="1.002" d="M24 45.996C37.004 52 43 38 32 32c-10.996-5.996-5-20 8-14" style="stroke:#71717a"/>
    <path stroke="#f34f17" stroke-linejoin="round" d="M22.5 25.996c0 .832-.672 1.5-1.5 1.5s-1.5-.668-1.5-1.5a1.5 1.5 0 0 1 3 0Zm22 12a1.5 1.5 0 1 1-3 0 1.5 1.5 0 0 1 3 0Zm0 0" style="fill:#f34f17"/>
    <path fill="#f3f4f6" d="M38.5 16.5h3v3h-3Zm-8 13.996h3v3h-3Zm-8 14h3v3h-3Zm0 0" style="stroke:#71717a"/>
</svg>
