<svg xmlns="http://www.w3.org/2000/svg" viewBox="0 0 64 64">
    <defs>
        <linearGradient id="a">
            <stop offset="0" style="stop-color:#60a5fa"/>
            <stop offset="1" style="stop-color:#3b82f6"/>
        </linearGradient>
        <linearGradient id="b" x1="32" x2="32" y1="4" y2="60" gradientUnits="userSpaceOnUse" href="#a"/>
    </defs>
    <rect width="48" height="56" x="8" y="4" rx="6" ry="6" style="fill:url(#b)"/>
    <path d="M18 28c-.554 0-1 .446-1 1s.446 1 1 1h12c.554 0 1-.446 1-1s-.446-1-1-1zm0 4c-.554 0-1 .446-1 1s.446 1 1 1h12c.554 0 1-.446 1-1s-.446-1-1-1zm0 4c-.554 0-1 .446-1 1s.446 1 1 1h12c.554 0 1-.446 1-1s-.446-1-1-1zm0 4c-.554 0-1 .446-1 1s.446 1 1 1h28c.554 0 1-.446 1-1s-.446-1-1-1zm0 4c-.554 0-1 .446-1 1s.446 1 1 1h28c.554 0 1-.446 1-1s-.446-1-1-1zm0 4c-.554 0-1 .446-1 1s.446 1 1 1h12c.554 0 1-.446 1-1s-.446-1-1-1z" style="fill:#fff;stroke-width:2" transform="translate(0 -7)"/>
    <path d="M35 28c-1.108 0-2 .892-2 2v6c0 1.108.892 2 2 2h10c1.108 0 2-.892 2-2v-6c0-1.108-.892-2-2-2zm2 3 6 5h-8zm7-1a1 1 0 1 1 0 2 1 1 0 0 1 0-2" style="stroke-width:2;fill:#fff" transform="translate(0 -7)"/>
</svg>
