<?xml version="1.0" encoding="utf-8"?>
<svg xmlns="http://www.w3.org/2000/svg" width="64" height="64" viewBox="0 0 64 64">
  <defs>
    <linearGradient gradientUnits="userSpaceOnUse" x1="66.214" y1="0.432" x2="66.214" y2="56.432" id="gradient-0" gradientTransform="matrix(1, 0, 0, 1, -34.213998, 3.568)">
      <stop offset="0" style="stop-color: rgb(255, 255, 255); stop-opacity: 0.1;"/>
      <stop offset="1" style="stop-opacity: 0.2;"/>
    </linearGradient>
  </defs>
  <rect width="48" height="56" x="8" y="4" rx="6" ry="6" style="fill: rgb(91, 79, 75);"/>
  <rect width="48" height="56" x="8" y="4" rx="6" ry="6" style="stroke-width: 1; fill: url(&quot;#gradient-0&quot;);"/>
  <path fill="#f5f5f5" d="M32 5v1.002h-2.003V5zm1.999 22.001v6.5a.5.5 0 0 1-.498.499H30.5a.5.5 0 0 1-.356-.143.5.5 0 0 1-.143-.356v-6.5zm-1.001 3.998h-1.999v2.004h2.006zM32 6.002h2.003v1.999H32zm0 1.999v2.003h-2.003V8.001zm0 2.003h2.003V12H32zM32 12v2.003h-2.003V12zm0 2.003h2.003v1.999H32zm0 1.999v2h-2.003v-2.003zm0 2h2.003v1.999H32zm0 1.999v2.003h-2.003v-2.003zm0 2.003h2.003V24H32zM32 24v2.003h-2.003V24z"/>
</svg>