<svg xmlns="http://www.w3.org/2000/svg" viewBox="0 0 64 64">
    <rect width="48" height="56" x="8" y="4" fill="#f3f4f6" rx="6" style="stroke-width:1"/>
    <path d="M25 18.968c-1.36.156-1.785.32-2.687.875-.895.548-1.313 1.393-1.313 2.563v6.562c0 .698-.328 1.155-.875 1.5-.538.338-2.007.563-3.125.563v2c2.203 0 4 .73 4 2.124v6.188c0 1.283.413 2.242 1.25 2.813.845.577 1.119.79 2.75.874h2v-2.062h-2c-.69-.165-.953-.185-1.375-.5S23 41.708 23 41.093v-6.375c0-.614-.228-2.417-2.125-2.687v-.126C22.772 31.614 23 30.158 23 29.282v-6.376c0-.614.203-1.004.625-1.312.43-.315.609-.424 1.375-.562l2-.064v-2zm12 0v2l2 .063c.766.138.944.247 1.375.562.422.308.625.698.625 1.313v6.375c0 .877.228 2.332 2.125 2.624v.126c-1.897.27-2.125 2.073-2.125 2.687v6.375c0 .615-.203 1.06-.625 1.375s-.685.335-1.375.5h-2v2.063h2c1.631-.086 1.905-.298 2.75-.876.837-.57 1.25-1.53 1.25-2.812v-6.187c0-1.396 1.797-2.125 4-2.126v-2c-1.118 0-2.587-.224-3.125-.562-.547-.345-.875-.802-.875-1.5v-6.562c0-1.17-.418-2.015-1.312-2.563-.903-.555-1.329-.72-2.688-.875zm-5 6c-1.54 0-2.502 1.667-1.732 3 .357.619 1.017 1 1.732 1 1.54 0 2.502-1.666 1.732-3a2 2 0 0 0-1.732-1m0 10c-1.54 0-2.502 1.667-1.732 3 .357.619 1.017 1 1.732 1-.057.669-.07 1.336-.5 2 .764-.423 2.5-2.556 2.5-4a2 2 0 0 0-2-2" style="stroke-width:2;fill:#71717a"/>
</svg>
