<svg xmlns="http://www.w3.org/2000/svg" viewBox="0 0 64 64">
    <path fill="#f3f4f6" d="M14 4h36c3.313 0 6 2.688 6 6v44a6 6 0 0 1-6 6H14c-3.312 0-6-2.687-6-6V10c0-3.312 2.688-6 6-6m0 0"/>
    <path fill="#3b82f6" d="M43.371 36.406q-.135 2.84-1.535 5.032c-.934 1.445-2.246 2.566-3.945 3.363Q35.366 46 32.109 46q-5.369.002-8.453-3.5-3.081-3.493-3.082-9.875v-1.344q0-4.003 1.383-6.992 1.395-3.017 4.02-4.644 2.619-1.646 6.058-1.645c3.309 0 5.961.871 7.969 2.617q3.012 2.603 3.422 7.184h-6.543q-.076-2.49-1.258-3.574-1.173-1.085-3.59-1.086-2.448 0-3.59 1.836-1.141 1.833-1.199 5.859v1.922q0 4.357 1.086 6.23 1.102 1.87 3.781 1.871 2.262 0 3.457-1.066 1.197-1.073 1.274-3.387Zm0 0"/>
</svg>
