<svg xmlns="http://www.w3.org/2000/svg" viewBox="0 0 64 64">
    <path fill="#f3f4f6" d="M14 4h36c3.313 0 6 2.688 6 6v44a6 6 0 0 1-6 6H14c-3.312 0-6-2.687-6-6V10c0-3.312 2.688-6 6-6m0 0"/>
    <path fill="none" stroke="#888" stroke-dasharray="1.88" stroke-width=".5" d="M44.25 25.758a13.748 13.748 0 0 1-22.469 15.445c-4.617-5.129-4.722-12.887-.242-18.133 4.273-5.007 11.461-6.25 17.137-3.09q.415.23.812.489"/>
    <path fill="#1a7fd4" d="M43 32.004c0 6.074-4.926 11-11 11-6.078 0-11-4.926-11-11C21 25.926 25.922 21 32 21c6.074 0 11 4.926 11 11.004m0 0"/>
    <path fill="#f3f4f6" d="M39 27.504a2.5 2.5 0 1 1-5 0 2.5 2.5 0 1 1 5 0m0 0"/>
    <path fill="#1a7fd4" d="M45 21.5a2.5 2.5 0 1 1-5 0 2.5 2.5 0 0 1 5 0m0 0"/>
</svg>
