<svg xmlns="http://www.w3.org/2000/svg" viewBox="0 0 64 64">
    <path fill="#f3f4f6" d="M14 4h36c3.313 0 6 2.688 6 6v44a6 6 0 0 1-6 6H14c-3.312 0-6-2.687-6-6V10c0-3.312 2.688-6 6-6m0 0"/>
    <path fill="#3f51b5" fill-rule="evenodd" d="M35.762 33.75s1.152.348 1.824.684c.336.171.648.394.922.66q.252.271.422.605L43.52 44h-8.368l-3.422-6.297s-.703-1.21-1.132-1.558c-.364-.293-.516-.395-.871-.395H27.98v8.246h-7.5v-24h11.625c4.125 0 9.57 1.238 9.57 6.883 0 5.648-5.913 6.871-5.913 6.871m-7.785-9.25v5.996h3.562s2.762 0 2.941-2.93c.192-3.062-2.945-3.062-2.945-3.062Zm0 0"/>
</svg>
