<svg xmlns="http://www.w3.org/2000/svg" width="64" height="64" viewBox="0 0 64 64">
    <defs>
        <linearGradient id="a" x1="32" x2="32" y1="4" y2="60" gradientUnits="userSpaceOnUse">
            <stop offset="0" style="stop-color:#2dd4bf"/>
            <stop offset="1" style="stop-color:#14b8a6"/>
        </linearGradient>
        <linearGradient id="b" x1="32" x2="32" y1="18.305" y2="45.695" gradientUnits="userSpaceOnUse">
            <stop offset="0" style="stop-color:#fff"/>
            <stop offset="1" style="stop-color:#fff;stop-opacity:.9"/>
        </linearGradient>
    </defs>
    <rect width="48" height="56" x="8" y="4" rx="6" ry="6" style="fill:url(#a)"/>
    <path d="M39.119 21.189a5.1 5.1 0 0 0 2.018-2.884c.187.813.18 1.658-.021 2.467-.254.665-.648 1.265-.953 1.908a25 25 0 0 1 5.213-3.36c-.551 1.702-2.082 2.731-3.208 4.037.218.468.32 1.131.915 1.268.923.299 1.906.36 2.859.177 1.043-.357 1.538-1.438 2.058-2.327v1.68a18 18 0 0 1-.665 1.999c.228.626.467 1.249.665 1.883v1.089c-.244.421-.505.83-.758 1.245a6 6 0 0 0-1.221-1.329 4.6 4.6 0 0 0-2.117-.142 3.67 3.67 0 0 0 2.76 1.68c-.411.424-.759 1.044-1.407 1.108-1.876.283-3.667-.577-5.534-.571-.322.023-.808.027-.897.425 0 .841.248 1.662.217 2.502-.067 1.439-.585 2.82-.605 4.261a15.8 15.8 0 0 0 .959 3.943 53 53 0 0 1-1.787-.298c-.114.238-.21.481-.297.726.347.531.788.994 1.303 1.366-.07.145-.209.435-.276.581l-.655.158q-.224.422-.458.845a5.06 5.06 0 0 0-2.516.069q-.797-.32-1.588-.648c.33-.843.488-1.743.465-2.647-.322-1.123-1.829-1.125-2.286-2.147a7.1 7.1 0 0 1-1.169-3.26c-.941-.495-1.664-1.396-2.744-1.601-.055.468-.095.938-.175 1.403a6.9 6.9 0 0 1-1.542 2.752l.138 1.446q.593.556 1.181 1.114-.782.475-1.631.816-.962.117-1.929.088l-.889-.874c.314-.964.36-1.995.131-2.982.195-.458.372-.929.543-1.396a6.36 6.36 0 0 1-3.442.235 5.86 5.86 0 0 1-3.762-4.952 4.41 4.41 0 0 1 1.609-3.737 7.3 7.3 0 0 0-.275 2.991 3.47 3.47 0 0 0 2.859 2.82 3.97 3.97 0 0 0 2.242-.736 8.55 8.55 0 0 1 .414-4.726 6.32 6.32 0 0 1 4.101-3.042 4.84 4.84 0 0 0 2.3-1.79 12 12 0 0 1 1.748-1.521q-.39-.377-.777-.754a2.46 2.46 0 0 0 1.636-1.956c1.468-.343 2.917-.756 4.368-1.156a4.3 4.3 0 0 0 1.618.693c.362.396.565 1.323 1.258 1.061m-4.319 15.279c.048.879-.055 1.905.771 2.465 0-.864-.053-1.724-.115-2.585z" style="stroke-width:2.505;fill:url(#b)"/>
</svg>
