<svg xmlns="http://www.w3.org/2000/svg" viewBox="0 0 64 64">
    <path fill="#f3f4f6" d="M14 4h36c3.313 0 6 2.688 6 6v44a6 6 0 0 1-6 6H14c-3.312 0-6-2.687-6-6V10c0-3.312 2.688-6 6-6m0 0"/>
    <path fill="#da1636" d="M23.492 17.5v29h5.02c.02-3.777-.035-7.559.035-11.34.125-1.773.223-4.035 1.914-5.008a4.15 4.15 0 0 1 3.2-.332c1.503.492 1.757 2.426 1.823 3.817.02 4.293 0 8.578.012 12.863h4.996c-.008-4.816.035-9.684 0-14.5-.05-2.418-1.039-5.07-3.36-6.176-1.98-.941-4.316-.66-6.327.102-.946.36-2.258 2.11-2.258 2.11l-.04-10.536Zm0 0"/>
</svg>
