<svg xmlns="http://www.w3.org/2000/svg" viewBox="0 0 64 64">
    <path fill="#f3f4f6" d="M14 4h36c3.313 0 6 2.688 6 6v44a6 6 0 0 1-6 6H14c-3.312 0-6-2.687-6-6V10c0-3.312 2.688-6 6-6m0 0"/>
    <path fill="#71717a" d="M32 17c-8.277 0-15 6.723-15 14.996 0 8.277 6.723 15 15 15 8.273 0 15-6.723 15-15C47 23.723 40.273 17 32 17m0 1.5c7.453 0 13.5 6.043 13.5 13.496 0 7.457-6.047 13.5-13.5 13.5-7.457 0-13.5-6.043-13.5-13.5C18.5 24.543 24.543 18.5 32 18.5"/>
    <path fill="#71717a" d="M31 29.677V40h2V29.677zM32 24c-1.155 0-1.876 1.29-1.299 2.323.268.479.763.773 1.299.773 1.155 0 1.876-1.29 1.299-2.321A1.49 1.49 0 0 0 32 24"/>
</svg>
