<svg xmlns="http://www.w3.org/2000/svg" viewBox="0 0 64 64">
    <path fill="#f3f4f6" d="M14 4h36c3.313 0 6 2.688 6 6v44a6 6 0 0 1-6 6H14c-3.312 0-6-2.687-6-6V10c0-3.312 2.688-6 6-6m0 0"/>
    <path fill="#eab305" d="M35.355 35.973c.852 1.398 1.965 2.422 3.938 2.422 1.652.003 2.71-.825 2.71-1.965 0-1.371-1.085-1.856-2.905-2.653l-1-.43c-2.88-1.222-4.801-2.761-4.801-6.011 0-2.996 2.285-5.273 5.848-5.273 2.539 0 4.367.878 5.68 3.19l-3.11 1.997c-.684-1.223-1.422-1.707-2.57-1.707-1.172 0-1.907.742-1.907 1.707 0 1.2.739 1.688 2.457 2.426l.992.43c3.395 1.453 5.31 2.937 5.31 6.273 0 3.59-2.825 5.559-6.614 5.559-3.711 0-6.106-1.766-7.278-4.083Zm-14.105.343c.625 1.114 1.195 2.055 2.57 2.055 1.309 0 2.137-.512 2.137-2.508V22.29h3.992v13.629c0 4.133-2.422 6.012-5.96 6.012-3.196 0-5.048-1.653-5.989-3.64Zm0 0"/>
</svg>
