<svg xmlns="http://www.w3.org/2000/svg" viewBox="0 0 64 64">
    <path fill="#f3f4f6" d="M14 4h36c3.313 0 6 2.688 6 6v44a6 6 0 0 1-6 6H14c-3.312 0-6-2.687-6-6V10c0-3.312 2.688-6 6-6m0 0"/>
    <path fill="#1a7fd4" d="M41.426 22.941c1.011.254 1.785.704 2.492 1.438.371.394.914 1.11.96 1.285.013.047-1.722 1.211-2.776 1.867-.04.028-.192-.14-.36-.394-.515-.746-1.05-1.07-1.875-1.125-1.21-.082-1.992.55-1.984 1.61 0 .308.047.491.172.745.261.551.758.88 2.312 1.551 2.856 1.23 4.082 2.043 4.836 3.195.852 1.285 1.043 3.336.465 4.864-.633 1.664-2.203 2.789-4.414 3.164-.684.12-2.305.101-3.043-.036-1.602-.28-3.121-1.074-4.059-2.113-.37-.406-1.086-1.465-1.039-1.539q.175-.129.367-.234l1.48-.856 1.15-.664.238.356c.34.508 1.074 1.215 1.511 1.449 1.278.672 3.024.574 3.891-.195.348-.297.54-.739.516-1.2a1.5 1.5 0 0 0-.297-1.011c-.309-.446-.946-.82-2.742-1.598-2.059-.89-2.95-1.437-3.758-2.316a5.3 5.3 0 0 1-1.098-1.993 7.9 7.9 0 0 1-.066-2.55c.422-1.985 1.925-3.375 4.093-3.786.704-.132 2.336-.082 3.028.086M32.05 24.61l.015 1.637H26.87v14.762H23.2V26.246h-5.195v-1.601c0-.891.016-1.63.039-1.649.02-.027 3.184-.039 7.016-.035l6.976.02Zm0 0"/>
</svg>
