<svg xmlns="http://www.w3.org/2000/svg" viewBox="0 0 64 64">
    <path fill="#f3f4f6" d="M14 4h36c3.313 0 6 2.688 6 6v44a6 6 0 0 1-6 6H14c-3.312 0-6-2.687-6-6V10c0-3.312 2.688-6 6-6m0 0"/>
    <path fill="#f03e3e" fill-rule="evenodd" d="m38.668 20.54.242.32-1.172 4.495-.441.079-2.836-4.5.21-.395Zm-9.336 0 .2.401-3.337 4.754-.441-.113-.668-4.754.25-.289Zm11.863.089 5 6.5-.195.41h-7l-.238-.328 2.004-6.504Zm-9 0 4.996 6.5-.187.41H27l-.191-.41 5-6.5Zm-9.386 0 .43.082 2 6.504-.235.324h-7l-.195-.41ZM46 28.539l.184.422-13 14.504-.407-.27 5.996-14.5.227-.152Zm-8.996 0 .226.348-4.996 12.5h-.464l-5-12.5.226-.348Zm-12 0 .226.152 6 14.5-.414.266-13-14.496.188-.418Zm0 0"/>
</svg>
