<svg xmlns="http://www.w3.org/2000/svg" viewBox="0 0 64 64">
    <path fill="#f3f4f6" d="M14 4h36c3.313 0 6 2.688 6 6v44a6 6 0 0 1-6 6H14c-3.312 0-6-2.687-6-6V10c0-3.312 2.688-6 6-6m0 0"/>
    <path fill="#31c6b7" d="M31.656 28.25c-1.398.355-2.347.617-3.722.973-.332.09-.356.113-.641-.223a3 3 0 0 0-1.043-.844c-1.395-.683-2.746-.48-4.008.336a4.71 4.71 0 0 0-2.258 4.207 3.475 3.475 0 0 0 2.985 3.48c1.511.2 2.773-.331 3.77-1.46.198-.246.374-.508.597-.82h-4.281c-.465 0-.575-.29-.418-.665.285-.687.82-1.84 1.129-2.418a.6.6 0 0 1 .55-.351h8.075c-.043.598-.043 1.195-.133 1.793a9.4 9.4 0 0 1-1.813 4.344c-1.597 2.105-3.683 3.41-6.316 3.765-2.172.285-4.188-.133-5.961-1.465a6.95 6.95 0 0 1-2.816-4.914c-.286-2.418.425-4.586 1.886-6.492a9.83 9.83 0 0 1 6.196-3.836c2.082-.379 4.074-.137 5.87 1.086 1.176.774 2.016 1.836 2.571 3.121.129.2.043.309-.223.38Zm0 0"/>
    <path fill="#31c6b7" d="M38.992 40.5c-2.02-.043-3.855-.621-5.406-1.95a6.97 6.97 0 0 1-2.395-4.277c-.398-2.503.29-4.718 1.793-6.691 1.618-2.125 3.567-3.234 6.207-3.7 2.254-.394 4.383-.175 6.313 1.134 1.75 1.195 2.832 2.812 3.125 4.937.379 2.992-.492 5.426-2.547 7.512a10.2 10.2 0 0 1-5.32 2.832c-.602.113-1.196.137-1.774.203Zm5.27-8.953c-.02-.285-.02-.508-.067-.727-.398-2.195-2.414-3.437-4.515-2.949-2.067.465-3.39 1.777-3.88 3.856a3.644 3.644 0 0 0 2.036 4.187c1.219.527 2.441.465 3.61-.133 1.753-.906 2.706-2.328 2.816-4.234"/>
</svg>
