<svg xmlns="http://www.w3.org/2000/svg" viewBox="0 0 64 64">
    <path fill="#f3f4f6" d="M14 4h36c3.313 0 6 2.688 6 6v44a6 6 0 0 1-6 6H14c-3.312 0-6-2.687-6-6V10c0-3.312 2.688-6 6-6m0 0"/>
    <path fill="#71717a" d="M19.504 18.004V20H21c.695 0 1.262-.043 1.813.129.554.176.996.664 1.222 1.383.453 1.441.465 4.039.465 9.5 0 2.078-.016 3.644-.047 4.988h.024l-.008.508c-.035 2.125-.094 4.277-.215 5.02a2.76 2.76 0 0 1-1.617 2.167c-.516.2-1.059.301-1.61.305-.703.031-1.168.008-1.523 0v2H33.5v-2c-.363.008-.852.023-1.52 0-1.25-.055-1.964-.437-2.52-.988-.37-.371-.628-.875-.753-1.676-.129-.8-.176-2.938-.203-4.828V33H30c2.047 0 3.73.453 4.684 1.7l.039.042.02.051c.655 1.402.726 2.898.737 4.203h2.02V26.004h-2.004v.578c0 1.543-.555 2.723-1.547 3.438-1 .718-2.433 1.492-3.949.984h-1.496v-11H33c3.969 0 5.668-.027 6.754.605l.043.028.035.035c1.277 1.137 1.965 2.36 2.309 3.664.304 1.148.343 2.367.347 3.668h2.008v-10Zm0 0"/>
</svg>
