<svg xmlns="http://www.w3.org/2000/svg" viewBox="0 0 64 64">
    <path fill="#f3f4f6" d="M14 4h36c3.313 0 6 2.688 6 6v44a6 6 0 0 1-6 6H14c-3.312 0-6-2.687-6-6V10c0-3.312 2.688-6 6-6m0 0"/>
    <path fill="#7839b7" d="m16.707 43 7.332-11-7.332-10.996h5.5L29.543 32l-7.336 11Zm0 0"/>
    <path fill="#8c59d9" d="m24.04 43 7.335-11-7.332-10.996h5.5L44.207 43h-5.5l-4.578-6.879L29.547 43Zm0 0"/>
    <path fill="#8f76e4" d="m39.195 32.996 2.664 4.008h5.43v-4.008Zm-4.008-6L37.856 31h9.434v-4.004Zm0 0"/>
</svg>
