<svg xmlns="http://www.w3.org/2000/svg" viewBox="0 0 64 64">
    <path fill="#f3f4f6" d="M14 4h36c3.313 0 6 2.688 6 6v44a6 6 0 0 1-6 6H14c-3.312 0-6-2.687-6-6V10c0-3.312 2.688-6 6-6m0 0"/>
    <path fill="#7839b7" d="m29.055 45.5-.578-24.594q-2.533.95-3.957 2.973-1.407 2.021-1.407 5.027 0 .686.07 1.125.09.422.176.684.09.246.16.387a.5.5 0 0 1 .086.25 7 7 0 0 1-1.652-.176 3.2 3.2 0 0 1-1.21-.602 2.65 2.65 0 0 1-.74-1.07q-.245-.668-.245-1.652-.001-1.195.508-2.356a9.2 9.2 0 0 1 1.425-2.2 13 13 0 0 1 2.125-1.913q1.232-.879 2.622-1.512 1.406-.648 2.917-1.004a13 13 0 0 1 3.04-.367q.404-.001.738.016.352.017.703.054l.316 22.149 7.578-22.043h2.512l-10 26.82Zm0 0"/>
</svg>
