<svg xmlns="http://www.w3.org/2000/svg" viewBox="0 0 64 64">
    <rect width="48" height="56" x="8" y="4" rx="6" ry="6" style="stroke-width:1;fill:#f3f4f6"/>
    <path fill="#71717a" d="M33.998 18v1.004h12V18zm0 3.004V22h12v-.996zm0 2.996v1h12v-1zm0 3v1.004h12V27zm0 3v1.004h12V30zm-15.996 3.004V34h27.996v-.996zm0 2.996v1h27.996v-1zm0 3v1.004h27.996V39zm0 3.004V43h27.996v-.996zm0 3V46h15.996v-.996zM24.143 17l-4.935 13h-1.207v1h3.497v-1h-1.121l1.172-3.004h5.797L28.514 30h-1.512v1h5.02v-1h-1.387l-4.934-13zm.3 2.25 2.555 6.754h-5.062zm0 0" style="stroke-width:1"/>
</svg>
