<svg xmlns="http://www.w3.org/2000/svg" viewBox="0 0 64 64">
    <path fill="#f3f4f6" d="M14 4h36c3.313 0 6 2.688 6 6v44a6 6 0 0 1-6 6H14c-3.312 0-6-2.687-6-6V10c0-3.312 2.688-6 6-6m0 0"/>
    <path fill="#666" d="M32 17a.41.41 0 0 0-.367.191l-.781 1.262-.368.035-1.011-1.082c-.203-.218-.621-.14-.723.14l-.516 1.388-.359.109-1.2-.863c-.245-.176-.632-.016-.679.28l-.242 1.462-.328.176-1.348-.614c-.27-.125-.621.11-.61.407l.048 1.484-.282.234-1.445-.34c-.289-.07-.59.227-.52.52l.34 1.445-.234.282-1.484-.047c-.297-.012-.532.34-.407.61l.614 1.35-.176.325-1.461.238c-.297.051-.453.438-.285.68l.87 1.203-.112.36-1.387.515c-.277.102-.36.52-.14.723l1.081 1.011-.035.368-1.258.78c-.258.157-.258.583 0 .735l1.258.785.035.364-1.082 1.011c-.218.203-.136.621.14.727l1.388.516.113.355-.871 1.203c-.172.242-.012.633.285.68l1.46.238.177.328-.614 1.348c-.125.273.11.625.407.613l1.484-.05.234.28-.34 1.446c-.07.289.227.59.52.52l1.445-.34.282.234-.047 1.484c-.012.301.34.536.61.407l1.347-.614.328.18.238 1.457c.051.297.438.453.68.285l1.203-.87.36.112.515 1.387c.102.277.52.36.723.14l1.011-1.081.368.035.78 1.262c.157.254.583.254.735 0l.785-1.262.364-.035 1.011 1.082c.203.218.621.136.727-.14l.516-1.388.355-.113 1.203.871c.242.172.629.012.68-.285l.238-1.457.328-.18 1.348.614c.273.129.621-.106.613-.407l-.05-1.484.28-.234 1.446.34c.293.07.59-.227.52-.52l-.34-1.445.234-.282 1.484.051c.301.012.536-.34.407-.613l-.614-1.348.18-.328 1.457-.238c.3-.047.457-.438.285-.68l-.867-1.203.11-.355 1.386-.516c.281-.106.36-.524.14-.727l-1.081-1.011.035-.364 1.262-.785c.254-.152.254-.578 0-.734l-1.262-.781-.035-.368 1.082-1.011c.218-.203.14-.621-.14-.723l-1.388-.516-.109-.359.867-1.2c.172-.245.012-.632-.285-.679l-1.46-.242-.177-.324.614-1.352c.129-.27-.106-.621-.407-.61l-1.484.048-.234-.282.34-1.445c.07-.289-.227-.59-.52-.52l-1.445.34-.282-.234.051-1.484c.012-.301-.34-.532-.613-.407l-1.348.614-.328-.176-.238-1.461c-.051-.297-.438-.457-.68-.285l-1.203.867-.355-.11-.516-1.386c-.106-.281-.52-.36-.727-.14l-1.011 1.081-.364-.035-.785-1.262A.42.42 0 0 0 32 17m-.047 2.645c.445 0 .89.296.89.89 0 1.188-1.78 1.188-1.78 0 0-.594.445-.89.89-.89m2.07 1.468a10.97 10.97 0 0 1 7.516 5.352l-1.05 2.375a.813.813 0 0 0 .413 1.074l2.024.898c.066.633.07 1.27.023 1.907H41.82c-.113 0-.156.078-.156.187v.512c0 1.223-.687 1.488-1.285 1.55-.574.067-1.211-.238-1.285-.59-.34-1.901-.91-2.304-1.797-3.007 1.105-.7 2.254-1.734 2.254-3.117 0-1.496-1.024-2.434-1.723-2.899a4.5 4.5 0 0 0-2.355-.703H23.824a11.05 11.05 0 0 1 6.14-3.539l1.372 1.442a.807.807 0 0 0 1.148.023Zm-12.707 6.602c.446 0 .891.3.891.894 0 1.184-1.781 1.184-1.781 0 0-.593.445-.894.89-.894m21.274.043c.445 0 .89.297.89.89 0 1.188-1.78 1.188-1.78 0 0-.593.44-.89.89-.89m-19.403.351H24.5v6.95h-3.062a11.8 11.8 0 0 1-.352-4.336l1.922-.852a.816.816 0 0 0 .414-1.074Zm5.926 0h4.055c.195 0 1.355.075 1.355.946 0 .718-.89 1.078-1.62 1.078h-3.79Zm0 4.614h3.239c.257 0 1.386.363 1.746 1.804.113.442.359 1.883.527 2.344.172.516.86 1.625 1.586 1.625h4.637c-.313.414-.653.73-1.024 1.102l-1.879-.407a.8.8 0 0 0-.613.114.8.8 0 0 0-.352.511l-.449 2.09a11 11 0 0 1-9.156-.043l-.445-2.09a.8.8 0 0 0-.356-.511.8.8 0 0 0-.613-.114l-1.844.399c-.34-.356-.66-.66-.953-1.05H32V35.03h-2.887Zm-3.765 7.558c.445 0 .89.297.89.89 0 1.192-1.781 1.192-1.785 0 0-.593.445-.894.895-.894Zm13.21.04c.446 0 .895.3.895.89 0 1.191-1.785 1.191-1.785 0 0-.59.445-.89.89-.89"/>
</svg>
