<svg xmlns="http://www.w3.org/2000/svg" viewBox="0 0 64 64">
    <path fill="#f3f4f6" d="M14 4h36c3.313 0 6 2.688 6 6v44a6 6 0 0 1-6 6H14c-3.312 0-6-2.687-6-6V10c0-3.312 2.688-6 6-6m0 0"/>
    <path fill="#71717a" d="M35.852 23.004v.59h.394c1.043 0 1.402.129 1.762.664L41.5 29.55l-3.137 4.59c-.265.379-.832 1.254-2.746 1.254v.585l2.117-.074c.703 0 1.746.02 2.43.074v-.585c-.867-.016-1.215-.563-1.215-.907 0-.164.063-.218.196-.425l2.707-4.004 2.98 4.55c.04.075.113.141.113.196 0 .226-.433.57-1.25.59v.585c.664-.054 2.063-.074 2.785-.074l2.47.074v-.585h-.352c-.985 0-1.407-.118-1.801-.708l-4.004-6.039 2.59-3.8c.414-.61 1.094-1.239 2.785-1.254v-.59l-2.117.074c-.762 0-1.676-.02-2.434-.074v.59c.758.015 1.176.422 1.176.86 0 .19-.023.265-.156.468l-2.196 3.176-2.43-3.645a.7.7 0 0 1-.12-.273c0-.227.398-.57 1.214-.586v-.59c-.664.055-2.062.074-2.785.074Zm-20.446 0-.355 4.27h.469c.265-3.055.543-3.684 3.414-3.684.34 0 .828 0 1.02.035.394.078.429.273.429.71v10.22c0 .644-.008.98-2.004.941h-.781v.586c.777-.055 2.738-.074 3.609-.074.875 0 2.828.02 3.605.074v-.586h-.78c-1.997 0-1.962-.297-1.962-.941V24.34c0-.38-.027-.63.313-.707.207-.035.738-.035 1.097-.035 2.868 0 3.149.625 3.41 3.683h.473l-.355-4.273Zm10.18 5v.586h.469c1.465 0 1.492.18 1.492.863v10.055c0 .68-.027.902-1.492.902h-.47v.586h10.942l.825-4.902h-.512c-.473 2.926-.89 4.312-4.156 4.312h-2.512c-.89 0-.942-.152-.942-.781v-5.102h1.692c1.84 0 2.078.622 2.078 2.23h.469v-5.058H33c0 1.633-.238 2.235-2.078 2.235H29.23v-4.598c0-.621.051-.742.946-.742h2.43c2.902 0 3.421 1.008 3.722 3.644h.473l-.547-4.23Zm0 0"/>
</svg>
