<svg xmlns="http://www.w3.org/2000/svg" viewBox="0 0 64 64">
    <path fill="#f3f4f6" d="M14 4h36c3.313 0 6 2.688 6 6v44a6 6 0 0 1-6 6H14c-3.312 0-6-2.687-6-6V10c0-3.312 2.688-6 6-6m0 0"/>
    <path fill="#234db8" d="M17.75 39.39c-.887-.195-1.379-.542-1.664-1.171-.133-.293-.152-.508-.184-2.285-.039-1.864-.047-1.98-.203-2.301-.199-.414-.594-.625-1.246-.68L14 32.918v-1.742l.477-.051c.648-.066 1.035-.27 1.226-.64.137-.258.156-.43.176-1.4.047-2.675.066-2.952.187-3.25.164-.378.461-.683.832-.858.66-.34 1.036-.403 2.848-.438l1.7-.039.023 4.914c.02 4.75.027 4.922.16 5.191.25.504.426.579 1.336.579h.793l.043.312c.027.172.043.496.043.723v.414l-.614.086q-.622.075-1.25.05c-1.12-.07-1.812-.456-2.183-1.23-.348-.719-.379-1.16-.379-5.441l-.004-3.95-.367.047c-.531.075-.797.22-.945.524-.11.226-.133.508-.165 2.043-.035 1.668-.042 1.804-.19 2.11-.208.429-.388.589-1 .913l-.505.274.406.152c.47.152.86.484 1.09.922.157.32.164.433.2 2.152.039 1.969.062 2.098.433 2.383.176.11.379.168.582.172l.55.035V39.5l-.737-.008c-.32 0-.778-.047-1.016-.101m26.75-.715v-.82h.492c.457 0 .793-.184.965-.532.125-.258.145-.48.176-2.105.035-1.707.047-1.836.191-2.117.188-.36.48-.594 1.063-.864l.441-.203-.406-.168a2.27 2.27 0 0 1-1.098-.96c-.144-.266-.156-.419-.191-2.11-.035-1.66-.047-1.84-.18-2.067-.168-.296-.5-.48-.965-.539l-.492-.039V24.5l.86.047c1.55.09 2.32.52 2.652 1.414.09.242.12.719.156 2.305.04 1.824.055 2.015.184 2.242.183.328.675.574 1.23.625l.422.039v1.746l-.453.035c-.582.047-.996.277-1.195.66-.133.262-.149.446-.188 2.246-.047 2.106-.078 2.332-.45 2.825-.35.468-1.39.808-2.476.812H44.5Zm-17.281-1.86-.598-.105a4.54 4.54 0 0 1-1.875-.945c-.723-.707-1.121-1.578-1.258-2.774-.156-1.351.121-2.71.754-3.648a3.68 3.68 0 0 1 2.262-1.535c.476-.106 1.512-.106 1.996 0a3.28 3.28 0 0 1 2.242 1.742c.367.707.485 1.273.485 2.304v.868h-5.754l.03.265c.114.875.329 1.336.84 1.793.438.387.825.508 1.65.508a5.15 5.15 0 0 0 2.218-.492l.426-.203.285 1.472-.469.22a8 8 0 0 1-1.015.359c-.528.136-1.852.242-2.22.171m2.093-5.843c-.078-.922-.562-1.559-1.328-1.75-1.199-.29-2.21.507-2.425 1.91l-.047.3h3.836Zm4.465 5.816c-1.043-.121-2.16-.492-2.101-.707.02-.062.074-.414.117-.773.047-.36.098-.66.113-.66.016 0 .153.062.305.14.816.422 2.43.688 3.09.5.629-.172.972-.77.758-1.305-.149-.351-.47-.547-1.75-1.07-1.22-.5-1.672-.77-2.086-1.223-.703-.777-.672-2.367.062-3.113.64-.644 1.469-.883 2.95-.832 1.011.04 1.546.145 2.308.453l.277.11-.242.687-.258.707c-.008.008-.265-.074-.574-.187-1.75-.63-3.129-.387-3.129.554 0 .442.406.73 1.738 1.23 1.454.548 2.122.997 2.47 1.66.171.333.187.438.187 1.15 0 .718-.02.824-.192 1.187a2.65 2.65 0 0 1-1.777 1.379c-.504.133-1.61.191-2.27.113Zm6.746 0a6 6 0 0 1-1.671-.406l-.426-.172.101-.762c.059-.422.114-.773.121-.789q.164.04.305.125c.817.422 2.434.692 3.09.508.437-.121.785-.469.832-.832.082-.637-.273-.945-1.852-1.566-2.027-.805-2.62-1.477-2.539-2.875.067-1.184.707-1.883 2.004-2.196.367-.082.719-.101 1.496-.074 1.02.035 1.407.105 2.196.402l.402.153-.246.687-.262.703a7 7 0 0 1-.722-.226c-1.239-.418-2.23-.403-2.723.039-.191.172-.227.258-.227.527 0 .531.25.711 1.871 1.332 2.008.766 2.579 1.422 2.508 2.875-.039.817-.218 1.274-.683 1.719a2.8 2.8 0 0 1-1.305.715 7.8 7.8 0 0 1-2.27.113"/>
</svg>
