<svg xmlns="http://www.w3.org/2000/svg" viewBox="0 0 64 64">
    <path fill="#f3f4f6" d="M14 4h36c3.313 0 6 2.688 6 6v44a6 6 0 0 1-6 6H14c-3.312 0-6-2.687-6-6V10c0-3.312 2.688-6 6-6m0 0"/>
    <path d="M35.357 35.973c.852 1.399 1.966 2.422 3.939 2.422 1.653.004 2.709-.824 2.709-1.965 0-1.371-1.084-1.855-2.905-2.653l-.999-.43c-2.88-1.222-4.803-2.762-4.803-6.012 0-2.996 2.285-5.273 5.849-5.273 2.54 0 4.367.878 5.68 3.19l-3.11 1.998c-.683-1.223-1.422-1.708-2.57-1.708-1.172 0-1.907.743-1.907 1.708 0 1.2.74 1.688 2.457 2.426l.992.429C44.085 31.559 46 33.044 46 36.379c0 3.592-2.826 5.56-6.615 5.56-3.711 0-6.106-1.766-7.279-4.084zm-14.107.344c.625 1.114 1.196 2.054 2.57 2.054 1.31 0 2.138-.512 2.138-2.507V22.289h3.992v13.63c0 4.134-2.422 6.014-5.96 6.014-3.197 0-5.048-1.653-5.99-3.641zm0 0" style="fill:#eab308"/>
</svg>
