<svg xmlns="http://www.w3.org/2000/svg" viewBox="0 0 64 64">
    <path fill="#f3f4f6" d="M14 4h36c3.313 0 6 2.688 6 6v44a6 6 0 0 1-6 6H14c-3.312 0-6-2.687-6-6V10c0-3.312 2.688-6 6-6m0 0"/>
    <path fill="none" stroke="#71717a" stroke-linejoin="round" stroke-width="1.999" d="M45 23c0 2.762-5.82 5-13 5-7.176 0-12.996-2.238-12.996-5s5.82-5 12.996-5c7.18 0 13 2.238 13 5Zm0 0"/>
    <path fill="none" stroke="#71717a" stroke-width="1.999" d="M19 22.75V41"/>
    <path fill="none" stroke="#71717a" stroke-linejoin="round" stroke-width="1.999" d="M45 28.996c0 1.79-2.477 3.438-6.5 4.332-4.023.895-8.98.895-13.004 0-4.023-.894-6.5-2.543-6.5-4.332M45 35c-.004 1.785-2.48 3.434-6.5 4.328-4.023.89-8.98.89-13.004 0-4.02-.894-6.496-2.543-6.5-4.328M45 40.996c0 1.79-2.477 3.438-6.5 4.332-4.023.895-8.98.895-13.004 0-4.023-.894-6.5-2.543-6.5-4.332"/>
    <path fill="none" stroke="#71717a" stroke-width="1.999" d="M45 22.75V41"/>
</svg>
