<svg xmlns="http://www.w3.org/2000/svg" viewBox="0 0 64 64">
    <path fill="#f3f4f6" d="M14 4h36c3.313 0 6 2.688 6 6v44a6 6 0 0 1-6 6H14c-3.312 0-6-2.687-6-6V10c0-3.312 2.688-6 6-6m0 0"/>
    <path fill="#e97cc8" d="M43.555 33.797a6.6 6.6 0 0 0-2.899.672c-.297-.59-.597-1.117-.648-1.504-.059-.45-.13-.723-.059-1.262.074-.539.387-1.305.38-1.36-.009-.058-.067-.331-.712-.34-.64-.003-1.199.126-1.262.294-.062.172-.187.55-.27.953-.112.582-1.284 2.668-1.96 3.766a3.9 3.9 0 0 1-.441-1.102c-.063-.453-.13-.727-.063-1.262.07-.535.39-1.304.383-1.359-.008-.059-.07-.34-.715-.344-.64 0-1.195.121-1.262.293-.062.172-.132.567-.265.953-.13.387-1.7 3.871-2.11 4.77-.207.46-.386.832-.515 1.082l-.024.047-.175.332v.004c-.09.16-.184.304-.227.304-.04 0-.102-.418.008-.992.234-1.207.793-3.09.785-3.156 0-.035.105-.363-.363-.531-.453-.172-.621.113-.657.113-.039 0-.074.098-.074.098s.512-2.118-.973-2.118c-.921 0-2.195 1.012-2.824 1.926l-2.156 1.172c-.34.191-.7.383-1.031.566l-.07-.078c-1.79-1.906-5.098-3.261-4.954-5.828.051-.933.371-3.386 6.352-6.367 4.918-2.426 8.836-1.754 9.516-.266.968 2.13-2.102 6.082-7.18 6.653-1.945.215-2.961-.528-3.219-.813-.27-.289-.308-.308-.41-.25-.164.09-.059.348 0 .504.148.399.777 1.098 1.836 1.445.933.301 3.207.473 5.96-.593 3.079-1.192 5.49-4.508 4.782-7.282-.707-2.82-5.383-3.75-9.809-2.175-2.628.937-5.48 2.406-7.53 4.328-2.438 2.277-2.825 4.258-2.669 5.09.57 2.945 4.633 4.86 6.254 6.28l-.219.122c-.812.406-3.914 2.023-4.683 3.738-.88 1.938.14 3.332.812 3.516 2.086.582 4.235-.461 5.383-2.176 1.152-1.722 1.012-3.953.48-4.976l-.023-.036.633-.375q.582-.344 1.176-.66a7.6 7.6 0 0 0-.414 2.13c-.086 1.097.363 2.527.957 3.085.261.246.57.254.77.254.687 0 .995-.574 1.343-1.254.422-.832.8-1.793.8-1.793s-.472 2.606.813 2.606c.469 0 .946-.606 1.153-.918v.004l.035-.055.078-.125v-.012c.183-.324.605-1.07 1.23-2.3.805-1.59 1.586-3.579 1.586-3.579s.067.485.309 1.29c.14.476.43.995.664 1.495-.188.266-.3.41-.3.41l.003.008q-.227.301-.496.625c-.637.758-1.398 1.63-1.504 1.88-.121.304-.094.519.14.69.169.13.477.15.786.13a3.8 3.8 0 0 0 1.172-.266 4 4 0 0 0 1.011-.531 2.26 2.26 0 0 0 .973-1.996 4.1 4.1 0 0 0-.371-1.41l.172-.247c.984-1.441 1.754-3.023 1.754-3.023s.07.48.308 1.285c.114.418.356.86.567 1.29-.93.757-1.504 1.632-1.707 2.202-.367 1.067-.082 1.543.465 1.657.242.054.593-.063.851-.176a3.7 3.7 0 0 0 1.078-.559c.63-.46 1.23-1.101 1.196-1.972a3.8 3.8 0 0 0-.27-1.172 6.05 6.05 0 0 1 3.102-.352c2.785.328 3.332 2.063 3.23 2.797-.101.73-.691 1.125-.883 1.246-.195.121-.258.164-.238.254.02.129.113.121.277.098.227-.04 1.461-.59 1.512-1.938.09-1.715-1.547-3.59-4.441-3.574M22.094 41.03c-.926 1.004-2.211 1.387-2.766 1.067-.598-.344-.363-1.828.774-2.895.691-.648 1.578-1.25 2.168-1.617l.57-.344.066-.039.14-.086c.419 1.52.017 2.856-.956 3.914Zm6.722-4.57c-.32.785-.996 2.789-1.402 2.676-.352-.09-.566-1.61-.074-3.114.254-.757.785-1.656 1.098-2.003.5-.563 1.058-.747 1.19-.52.169.297-.616 2.469-.812 2.96m5.543 2.653c-.132.075-.261.117-.32.086-.039-.023.059-.117.059-.117s.699-.75.972-1.09q.24-.298.543-.695v.074c0 .899-.863 1.5-1.25 1.742Zm4.286-.972c-.106-.075-.086-.305.246-1.036.23-.472.554-.89.953-1.23q.093.286.093.543c-.007 1.125-.812 1.547-1.296 1.723Zm0 0"/>
</svg>
