<svg xmlns="http://www.w3.org/2000/svg" viewBox="0 0 64 64">
    <rect width="48" height="56" x="8" y="4" rx="6" ry="6" style="stroke-width:1;fill:#f3f4f6"/>
    <path d="M24.395 27.527 19.148 31.9l5.247 4.373a1.034 1.034 0 0 1-1.323 1.586l-6.2-5.169a1.03 1.03 0 0 1 0-1.585l6.2-5.166a1.035 1.035 0 0 1 1.323 1.588m22.734 3.578-6.201-5.166a1.034 1.034 0 0 0-1.323 1.588L44.85 31.9l-5.245 4.373a1.03 1.03 0 0 0 .269 1.767c.356.139.761.071 1.054-.181l6.201-5.169a1.03 1.03 0 0 0 0-1.585M36.487 19.562a1.033 1.033 0 0 0-1.325.619l-8.266 22.732a1.031 1.031 0 0 0 1.069 1.436c.411-.044.754-.331.873-.729l8.264-22.734a1.024 1.024 0 0 0-.615-1.324" style="stroke-width:1;fill:#3b82f6"/>
</svg>
