<svg xmlns="http://www.w3.org/2000/svg" viewBox="0 0 64 64">
    <rect width="48" height="56" x="8" y="4" fill="#f3f4f6" rx="6"/>
    <path fill="#71717a" d="M32 17c-8.277 0-15 6.723-15 14.996 0 8.277 6.723 15 15 15 8.273 0 15-6.723 15-15C47 23.723 40.273 17 32 17m0 1.5c7.453 0 13.5 6.043 13.5 13.496 0 7.457-6.047 13.5-13.5 13.5-7.457 0-13.5-6.043-13.5-13.5C18.5 24.543 24.543 18.5 32 18.5"/>
    <path d="M47.5 31.996c0 4.241-1.765 8.179-4.544 10.957S36.239 47.496 32 47.496a15.58 15.58 0 0 1-10.957-4.543c-2.778-2.778-4.543-6.717-4.543-10.957 0-4.239 1.764-8.176 4.543-10.954S27.76 16.5 32 16.5c4.239 0 8.177 1.764 10.956 4.542S47.5 27.757 47.5 31.996m-5.251-10.247C39.596 19.097 36.034 17.5 32 17.5c-4.036 0-7.598 1.597-10.25 4.249s-4.25 6.213-4.25 10.247c0 4.036 1.597 7.598 4.25 10.25s6.214 4.25 10.25 4.25c4.034 0 7.596-1.597 10.249-4.25s4.251-6.214 4.251-10.25c0-4.034-1.598-7.595-4.251-10.247M32 18c3.829 0 7.392 1.594 9.898 4.099A14.08 14.08 0 0 1 46 31.996c0 3.831-1.595 7.394-4.102 9.9a14.1 14.1 0 0 1-9.898 4.1 14.1 14.1 0 0 1-9.9-4.1 14.1 14.1 0 0 1-4.1-9.9c0-3.829 1.594-7.391 4.1-9.896A14.1 14.1 0 0 1 32 18m-9.193 4.807C20.427 25.186 19 28.372 19 31.996c0 3.626 1.427 6.813 3.807 9.193s5.566 3.807 9.193 3.807c3.624 0 6.811-1.427 9.191-3.807S45 35.623 45 31.996c0-3.624-1.428-6.81-3.809-9.189C38.811 20.428 35.624 19 32 19c-3.626 0-6.813 1.427-9.193 3.807" style="fill:#71717a"/>
    <path fill="#71717a" d="M31 29.677V40h2V29.677zM32 24c-1.155 0-1.876 1.29-1.299 2.323.268.479.763.773 1.299.773 1.155 0 1.876-1.29 1.299-2.321A1.49 1.49 0 0 0 32 24"/>
    <path d="M33.5 40.5h-3V29.177h3Zm-2-10.323V39.5h1v-9.323Zm2.236-5.644c.319.653.304 1.487-.001 2.033-.307.548-1.016 1.03-1.735 1.03-.664 0-1.377-.457-1.736-1.029-.32-.654-.305-1.491 0-2.037.307-.548 1.019-.986 1.738-1.03.668.038 1.382.464 1.734 1.033m-1.737-.033c-.435-.043-.663.163-.861.518-.2.357-.257.682 0 1.061.177.386.454.517.863.517.436 0 .664-.163.863-.518.2-.357.257-.681 0-1.059-.169-.381-.449-.552-.864-.519Z" style="fill:#71717a"/>
</svg>
