<svg xmlns="http://www.w3.org/2000/svg" width="64" height="64" viewBox="0 0 64 64">
    <defs>
        <linearGradient id="a" x1="32" x2="32" y1="4" y2="60" gradientUnits="userSpaceOnUse">
            <stop offset="0" style="stop-color:#2dd4bf"/>
            <stop offset="1" style="stop-color:#0d9488"/>
        </linearGradient>
    </defs>
    <rect width="48" height="56" x="8" y="4" rx="6" ry="6" style="fill:url(#a)"/>
    <path d="M40.09 32.855h1.477V31.44H40.09v-1.537h-1.477v1.537h-1.476v1.415h1.476v1.538h1.477zM26.686 31.44h-4.429v1.415h4.429zM47 32.148c0-3.958-3.305-7.146-7.382-7.146a7 7 0 0 0-1.121.06c-3.189.473-5.317 2.717-6.498 4.489-1.179-1.772-3.304-4.016-6.5-4.489a7 7 0 0 0-1.121-.06c-4.069 0-7.378 3.188-7.378 7.146s3.309 7.162 7.381 7.162q.563.007 1.118-.077c3.193-.471 5.319-2.716 6.497-4.485 1.181 1.769 3.308 4.014 6.497 4.485q.56.076 1.122.06c4.017-.06 7.382-3.248 7.382-7.145zm-21.909 4.549a3.6 3.6 0 0 1-.769.056c-2.658 0-4.84-2.065-4.84-4.605s2.182-4.606 4.899-4.606q.388-.014.77.06c3.011.413 4.841 3.364 5.433 4.546-.652 1.18-2.481 4.077-5.493 4.549m8.279-4.549c.629-1.182 2.411-4.133 5.422-4.546q.381-.073.765-.06c2.717 0 4.902 2.066 4.902 4.606s-2.185 4.605-4.841 4.605a3.6 3.6 0 0 1-.769-.056c-3.068-.472-4.9-3.369-5.479-4.549" style="fill:#fff;fill-opacity:1;stroke-width:.371"/>
</svg>
