<svg xmlns="http://www.w3.org/2000/svg" viewBox="0 0 64 64">
    <path fill="#f3f4f6" d="M14 4h36c3.313 0 6 2.688 6 6v44a6 6 0 0 1-6 6H14c-3.312 0-6-2.687-6-6V10c0-3.312 2.688-6 6-6m0 0"/>
    <path fill="#dd4f37" fill-rule="evenodd" d="M35 17c1.258 4.953-4.434 6.45-6.488 9.531-1.399 2.102.691 4.364 3.531 6.926-1.105-2.508-4.867-4.7 0-8.543 6.074-4.8 2.96-7.914 2.96-7.914Zm3.762 6.129s-10.27 2.566-5.367 8.215c1.449 1.664-.38 3.164-.38 3.164s3.672-1.895 1.989-4.27c-1.578-2.215-2.785-3.316 3.758-7.105Zm1.816 10.094a3.4 3.4 0 0 0-1.133.203c-.32.113-.484.37-.484.37s.2-.077.64-.171c1.82-.379 4.422 2.43-1.206 5.355-.024.07-.114.149-.114.149 6.696-1.762 5.239-5.91 2.297-5.906m-12.058.289a10.6 10.6 0 0 0-4.63 1.117c-3.078 1.488 7.622 2.168 13.153.71.578-.394 1.371-.734 1.371-.734s-2.262.407-4.52.594c-2.757.235-5.726.281-7.21.078-3.524-.472 1.93-1.761 1.93-1.761l-.098-.004Zm-1.176 3.402c-5.078 1.688 2.828 3.598 9.926 1.523a3.4 3.4 0 0 1-1.23-.753c-3.47.671-5.477.648-8.013.386-1.968-.203-.683-1.156-.683-1.156m.718 3.29c-4.609 1.284 2.805 3.944 8.68 1.433-.96-.38-1.652-.805-1.652-.805-2.621.492-3.832.527-6.211.262-1.965-.227-.817-.895-.817-.895Zm-3.203 2.171c-2.07.066-6.125 1.93-2.418 2.531 11.973 1.938 21.825-.875 18.723-2.277 0 0 .848.7-.937 1.242-3.387 1.027-14.11 1.336-17.086.035-1.067-.46.937-1.105 1.57-1.246.656-.14 1.031-.113 1.031-.113-.183-.133-.504-.18-.883-.172m18.207 1.781s-.379.969-4.468 1.739c-4.614.87-10.301.77-13.672.21 0 0 .691.57 4.242.801 5.402.348 13.7-.191 13.898-2.75"/>
</svg>
