<svg xmlns="http://www.w3.org/2000/svg" viewBox="0 0 64 64">
    <path fill="#f3f4f6" d="M14 4h36c3.313 0 6 2.688 6 6v44a6 6 0 0 1-6 6H14c-3.312 0-6-2.687-6-6V10c0-3.312 2.688-6 6-6m0 0"/>
    <path fill="#71717a" d="M32.195 39.922a7.4 7.4 0 0 1-2.828-.543 6.8 6.8 0 0 1-2.25-1.55q-.966-1.008-1.512-2.477-.539-1.512-.539-3.41.002-1.86.582-3.29.62-1.471 1.625-2.48a6.4 6.4 0 0 1 2.325-1.547 7.1 7.1 0 0 1 2.754-.547c1.261 0 2.285.184 3.058.547q1.199.502 1.625.813l-.734 1.738q-.586-.305-1.512-.656-.89-.387-2.437-.387-2.132 0-3.567 1.512-1.394 1.511-1.394 4.296.001 2.87 1.355 4.414 1.396 1.512 3.758 1.512 1.664-.001 2.594-.347.965-.387 1.398-.657l.652 1.856q-.498.31-1.777.773-1.277.429-3.176.43m12.934-7.938c0 2.215-.363 4.192-1.086 5.922q-1.085 2.596-2.902 4.414a12.4 12.4 0 0 1-4.184 2.75Q34.596 46 32 46t-4.996-.93a13 13 0 0 1-4.184-2.75q-1.78-1.816-2.863-4.414-1.085-2.596-1.086-5.926 0-3.292 1.086-5.886 1.083-2.632 2.863-4.414a12.5 12.5 0 0 1 4.184-2.711A13.2 13.2 0 0 1 32 18c1.73 0 3.383.32 4.957.969a12 12 0 0 1 4.184 2.71q1.817 1.782 2.902 4.415 1.085 2.594 1.086 5.886Zm-2.29 0q.001-2.679-.812-4.882-.81-2.21-2.242-3.758a9.7 9.7 0 0 0-3.45-2.438q-1.972-.85-4.335-.851c-1.578 0-3.031.28-4.371.847a9.7 9.7 0 0 0-3.41 2.438c-.957 1.031-1.703 2.285-2.246 3.758-.543 1.468-.813 3.097-.813 4.879q0 2.669.813 4.882.815 2.208 2.246 3.793a10.4 10.4 0 0 0 3.41 2.438q2.01.855 4.371.855 2.366 0 4.34-.855a10.2 10.2 0 0 0 3.45-2.438q1.433-1.585 2.241-3.793.814-2.21.813-4.882Zm0 0"/>
</svg>
