<svg xmlns="http://www.w3.org/2000/svg" style="fill-rule:evenodd;clip-rule:evenodd;stroke-linejoin:round;stroke-miterlimit:2" viewBox="0 0 64 64">
    <defs>
        <linearGradient id="b" x1="33.001" x2="33.001" y1="21" y2="44.001" gradientUnits="userSpaceOnUse">
            <stop offset="0" style="stop-color:#fff"/>
            <stop offset="1" style="stop-color:#fff;stop-opacity:.9"/>
        </linearGradient>
        <linearGradient id="a" x1="32" x2="32" y1="7.988" y2="56.011" gradientUnits="userSpaceOnUse">
            <stop offset="0" style="stop-color:#525252"/>
            <stop offset="1" style="stop-color:#262626"/>
        </linearGradient>
    </defs>
    <rect width="56" height="48.023" x="4" y="7.988" rx="6" ry="6" style="fill:url(#a)"/>
    <path d="M56 45.08h-3v-4h3zm0-7.16h-3v-3.84h3zm-1.5 13c-.83 0-1.5-.67-1.5-1.5v-1.34h3v1.34c0 .83-.67 1.5-1.5 1.5M56 31.08h-3v-4h3zm0-7.15h-3v-3.85h3zm0-6.85h-3v-2.5c0-.82.68-1.5 1.5-1.5s1.5.68 1.5 1.5zm-48 28h3v-4H8zm0-7.16h3v-3.84H8zm1.5 13c.83 0 1.5-.67 1.5-1.5v-1.34H8v1.34c0 .83.67 1.5 1.5 1.5M8 31.08l3-.01v-3.99H8zm0-7.15 3-.01v-3.84H8zm0-6.85h3v-2.5c0-.82-.68-1.5-1.5-1.5s-1.5.68-1.5 1.5z" style="fill:#f3f4f6;fill-opacity:.3"/>
    <path d="M23.96 21c-.53 0-.96.45-.96.98v21.04c0 .34.18.66.47.84s.66.19.95.02L42.5 32.86a.987.987 0 0 0 0-1.72l-16.27-9.02-1.8-1a1 1 0 0 0-.47-.12" style="fill-opacity:.9;fill-rule:nonzero;fill:url(#b)"/>
</svg>
