<svg xmlns="http://www.w3.org/2000/svg" viewBox="0 0 64 64">
    <defs>
        <linearGradient id="a" x1=".5" x2=".5" y1="0" y2="1">
            <stop offset="0" style="stop-color:#9ca3af"/>
            <stop offset="1" style="stop-color:#6b7280"/>
        </linearGradient>
    </defs>
    <rect width="48" height="56" x="8" y="4" rx="6" ry="6" style="fill:url(#a)"/>
    <path d="M32 18c-6.627 0-12 2.687-12 6s5.373 6 12 6c6.628 0 12-2.686 12-6s-5.372-6-12-6m10.618 11.204C39.962 30.976 36.084 31.998 32 32c-4.072-.002-7.941-1.017-10.597-2.781-.91.857-1.392 1.811-1.403 2.781 0 3.314 5.373 6 12 6 6.628 0 12-2.686 12-6 .001-.974-.474-1.934-1.382-2.796m-.012 7.992C39.955 38.969 36.082 39.994 32 40c-4.075-.006-7.943-1.027-10.593-2.796-.917.861-1.399 1.821-1.407 2.796 0 3.314 5.373 6 12 6 6.628 0 12-2.686 12-6 0-.977-.479-1.94-1.394-2.804" style="stroke-width:8.05;stroke-linecap:round;stroke-linejoin:round;fill-opacity:1;fill:#fff"/>
</svg>
