<svg xmlns="http://www.w3.org/2000/svg" viewBox="0 0 64 64">
    <rect width="48" height="56" x="8" y="4" fill="#f3f4f6" rx="6"/>
    <path fill="#71717a" d="M20 24.001c-1.539-.035-2.539 1.61-1.799 2.96A2 2 0 0 0 19.999 28c1.539-.034 2.464-1.722 1.665-3.038A2 2 0 0 0 20 24.001m8 0c-1.539-.035-2.539 1.61-1.799 2.96A2 2 0 0 0 27.999 28c1.539-.034 2.464-1.722 1.665-3.038A2 2 0 0 0 28 24.001m8 0c-1.539-.035-2.539 1.61-1.799 2.96A2 2 0 0 0 35.999 28c1.539-.034 2.464-1.722 1.665-3.038A2 2 0 0 0 36 24.001m8 0c-1.539-.035-2.539 1.61-1.799 2.96A2 2 0 0 0 43.999 28c1.539-.034 2.464-1.722 1.665-3.038A2 2 0 0 0 44 24.001m-24 8c-1.539-.035-2.539 1.61-1.799 2.96A2 2 0 0 0 19.999 36c1.539-.034 2.464-1.722 1.665-3.038A2 2 0 0 0 20 32.001m8 0c-1.539-.035-2.539 1.61-1.799 2.96A2 2 0 0 0 27.999 36c1.539-.034 2.464-1.722 1.665-3.038A2 2 0 0 0 28 32.001m8 0c-1.539-.035-2.539 1.61-1.799 2.96A2 2 0 0 0 35.999 36c1.539-.034 2.464-1.722 1.665-3.038A2 2 0 0 0 36 32.001m8 0c-1.539-.035-2.539 1.61-1.799 2.96A2 2 0 0 0 43.999 36c1.539-.034 2.464-1.722 1.665-3.038A2 2 0 0 0 44 32.001m-24 8c-1.539-.035-2.539 1.61-1.799 2.96A2 2 0 0 0 19.999 44c1.539-.034 2.464-1.722 1.665-3.038A2 2 0 0 0 20 40.001m8 0c-1.539-.035-2.539 1.61-1.799 2.96A2 2 0 0 0 27.999 44c1.539-.034 2.464-1.722 1.665-3.038A2 2 0 0 0 28 40.001m8 0c-1.539-.035-2.539 1.61-1.799 2.96A2 2 0 0 0 35.999 44c1.539-.034 2.464-1.722 1.665-3.038A2 2 0 0 0 36 40.001m8 0c-1.539-.035-2.539 1.61-1.799 2.96A2 2 0 0 0 43.999 44c1.539-.034 2.464-1.722 1.665-3.038A2 2 0 0 0 44 40.001m-24 8c-1.539-.035-2.539 1.61-1.799 2.96A2 2 0 0 0 19.999 52c1.539-.034 2.464-1.722 1.665-3.038A2 2 0 0 0 20 48.001m8 0c-1.539-.035-2.539 1.61-1.799 2.96A2 2 0 0 0 27.999 52c1.539-.034 2.464-1.722 1.665-3.038A2 2 0 0 0 28 48.001m8 0c-1.539-.035-2.539 1.61-1.799 2.96A2 2 0 0 0 35.999 52c1.539-.034 2.464-1.722 1.665-3.038A2 2 0 0 0 36 48.001" style="stroke-width:1"/>
    <circle cx="20" cy="26" r="2.5" fill="#f03e3e" style="stroke-width:1" vector-effect="non-scaling-stroke"/>
    <path d="M25.342 10h13.316c.741 0 1.342.601 1.342 1.342v.316c0 .741-.601 1.342-1.342 1.342H25.342A1.34 1.34 0 0 1 24 11.658v-.316c0-.741.601-1.342 1.342-1.342" style="stroke:none;stroke-miterlimit:10;fill:#71717a"/>
</svg>
