<svg xmlns="http://www.w3.org/2000/svg" width="16" height="16" viewBox="0 0 16 16"><g fill="gray" color="gray"><path d="M2.5 0c.277 0 .5.223.5.5v14c0 .277-.223.5-.5.5h-1a.5.5 0 0 1-.5-.5V.5c0-.277.223-.5.5-.5zm3 3c.277 0 .5.223.5.5V7H5c-.139 0-.276.005-.406.031l-.125.031a2 2 0 0 0-.47.22V3.5a.5.5 0 0 1 .5-.5zm3 3c.277 0 .5.223.5.5V7H7v-.5c0-.277.223-.5.5-.5zm3.5 4.719V14.5c0 .277-.223.5-.5.5h-1a.5.5 0 0 1-.5-.5V11h1c.183 0 .363-.017.531-.063q.048-.014.094-.03c.133-.044.256-.12.375-.188m-8 0c.072.041.142.092.219.125a2 2 0 0 0 .25.093 2 2 0 0 0 .53.063h1v3.5c0 .277-.222.5-.5.5h-1a.5.5 0 0 1-.5-.5zM9 11v3.5c0 .277-.223.5-.5.5h-1a.5.5 0 0 1-.5-.5V11zm5.5 1c.277 0 .5.223.5.5v2c0 .277-.223.5-.5.5h-1a.5.5 0 0 1-.5-.5v-2c0-.277.223-.5.5-.5z" opacity=".35" overflow="visible"/><path d="M11 8a1 1 0 1 1 0 2 1 1 0 0 1 0-2M8 8a1 1 0 1 1 0 2 1 1 0 0 1 0-2M5 8a1 1 0 1 1 0 2 1 1 0 0 1 0-2" overflow="visible"/></g></svg>