<svg xmlns="http://www.w3.org/2000/svg" width="16" height="16" viewBox="0 0 16 16"><g fill="gray"><path d="M2.5 0c.277 0 .5.223.5.5V10H1V.5c0-.277.223-.5.5-.5zm3 3c.277 0 .5.223.5.5V10H4V3.5c0-.277.223-.5.5-.5zm3 3c.277 0 .5.223.5.5v8c0 .277-.223.5-.5.5h-1a.5.5 0 0 1-.5-.5v-8c0-.277.223-.5.5-.5zm3 3c.277 0 .5.223.5.5v5c0 .277-.223.5-.5.5h-1a.5.5 0 0 1-.5-.5v-5c0-.277.223-.5.5-.5zm3 3c.277 0 .5.223.5.5v2c0 .277-.223.5-.5.5h-1a.5.5 0 0 1-.5-.5v-2c0-.277.223-.5.5-.5z" color="gray" opacity=".35" overflow="visible"/><path d="M5 11v1c0 .277-.1.538-.281.72l-.781.78.78.782A1 1 0 0 1 5 15v1H4c-.276 0-.538-.1-.719-.282l-.781-.78-.781.78A1.02 1.02 0 0 1 1 16H0v-1c0-.277.1-.538.281-.72l.782-.78-.782-.782A1.02 1.02 0 0 1 0 12v-1h1c.276 0 .538.1.719.28l.781.782s.473-.58.781-.781C3.497 11.14 3.724 11 4 11z"/></g></svg>