<svg xmlns="http://www.w3.org/2000/svg" width="16" height="16"><path fill="gray" d="M5.469 3 1.832 13h1.065L4 9.965V10h2.035A5 5 0 0 1 6 9.5a5 5 0 0 1 .035-.5H4.35l1.818-5h.664l.754 2.074a4.5 4.5 0 0 1 .858-.566L7.53 3zm4.025 5.398A1.5 1.5 0 0 0 9 9.5a1.5 1.5 0 0 0 1.438 1.492z"/><path fill="gray" d="M10.5 6A3.5 3.5 0 0 0 7 9.5a3.5 3.5 0 0 0 3.5 3.5 3.5 3.5 0 0 0 2.656-1.22A2 2 0 0 0 15 13v-1c-.554 0-1-.446-1-1V6h-1v1.053A3.5 3.5 0 0 0 10.5 6m0 1A2.5 2.5 0 0 1 13 9.5a2.5 2.5 0 0 1-2.5 2.5A2.5 2.5 0 0 1 8 9.5 2.5 2.5 0 0 1 10.5 7"/></svg>