<svg xmlns="http://www.w3.org/2000/svg" width="16" height="16" viewBox="0 0 16 16">
    <path d="M4.075 5.743 1.367 8l2.708 2.257a.533.533 0 1 1-.683.819l-3.2-2.667a.533.533 0 0 1 0-.819l3.2-2.667a.533.533 0 1 1 .683.82M15.809 7.59l-3.201-2.667a.534.534 0 0 0-.682.82L14.634 8l-2.708 2.257a.533.533 0 1 0 .682.819l3.201-2.667a.534.534 0 0 0 0-.819m-5.493-5.958a.534.534 0 0 0-.684.319L5.366 13.685a.534.534 0 1 0 1.002.364l4.267-11.734a.53.53 0 0 0-.319-.683" style="stroke-width:1;fill:gray"/>
</svg>
