<svg xmlns="http://www.w3.org/2000/svg" width="16" height="16"><path fill="gray" d="M6.432 6c-.86 0-1.568.708-1.568 1.568s.708 1.569 1.568 1.569S8 8.429 8 7.568C8 6.708 7.292 6 6.432 6m0 1A.56.56 0 0 1 7 7.568c0 .32-.248.569-.568.569a.56.56 0 0 1-.568-.569A.56.56 0 0 1 6.432 7M9 8v1h2V8zm-4 2v1h6v-1zm0 2v1h4v-1z" font-family="sans-serif" font-weight="400" overflow="visible" style="font-feature-settings:normal;font-variant-alternates:normal;font-variant-caps:normal;font-variant-ligatures:normal;font-variant-numeric:normal;font-variant-position:normal;isolation:auto;mix-blend-mode:normal;shape-padding:0;text-decoration-color:#000;text-decoration-line:none;text-decoration-style:solid;text-indent:0;text-orientation:mixed;text-transform:none"/><path fill="currentColor" d="M4 0C2.338 0 1 1.338 1 3v10c0 1.662 1.338 3 3 3h8c1.662 0 3-1.338 3-3V4l-4-4zm0 1h6v2c0 1.108.892 2 2 2h2v8c0 1.108-.892 2-2 2H4c-1.108 0-2-.892-2-2V3c0-1.108.892-2 2-2" class="ColorScheme-Text" color="gray"/></svg>