<svg xmlns="http://www.w3.org/2000/svg" width="16" height="16" viewBox="0 0 16 16"><path fill="gray" d="m9 4 1 1-1 1h3c.555 0 1-.445 1-1s-.445-1-1-1zm3 3-1 1 1 1h-2c-.555 0-1-.445-1-1s.445-1 1-1zm-2 3 2 2s1-.445 1-1-.445-1-1-1zM5 2a3 3 0 0 0-3 3 3 3 0 0 0 1.48 2.586L.53 15.83A.5.5 0 0 0 .5 16h1.033l2.885-8.057A3 3 0 0 0 5 8a3 3 0 0 0 .584-.057L8.467 16H9.5a.5.5 0 0 0-.03-.17L6.52 7.588A3 3 0 0 0 8 5a3 3 0 0 0-3-3m0 1a2 2 0 0 1 2 2 2 2 0 0 1-2 2 2 2 0 0 1-2-2 2 2 0 0 1 2-2"/><rect width="1" height="2" x="4.5" y="1" fill="gray" rx="0" ry="0"/><path fill="gray" d="m5 5 4 11"/><rect width="10" height="1" y="11" fill="gray" rx=".5" ry=".5"/><path fill="gray" d="M7 0v1h7c.554 0 1 .446 1 1v12c0 .554-.446 1-1 1H8.636v1H14c1.108 0 2-.892 2-2V2c0-1.108-.892-2-2-2z"/></svg>