<svg xmlns="http://www.w3.org/2000/svg" width="16" height="16" viewBox="0 0 16 16"><path fill="gray" fill-rule="evenodd" d="M8 0C4.134 0 1 1.567 1 3.5v9C1 14.433 4.134 16 8 16s7-1.567 7-3.5v-9C15 1.567 11.866 0 8 0m0 1c3.314 0 6 1.12 6 2.5S11.314 6 8 6 2 4.88 2 3.5 4.686 1 8 1M2 5.297C3.263 6.352 5.54 6.999 8 7c2.46-.001 4.737-.648 6-1.703v2.699c0 1.38-2.686 2.5-6 2.5s-6-1.12-6-2.5zm0 4.49c1.26 1.057 3.538 1.706 6 1.709 2.457 0 4.734-.644 6-1.698V12.5c0 1.38-2.686 2.5-6 2.5s-6-1.12-6-2.5z"/></svg>