<svg xmlns="http://www.w3.org/2000/svg" width="16" height="16" viewBox="0 0 16 16"><path fill="gray" d="M9.617.957c1.367 1.863 1.996 4.121 1.445 6.106a5 5 0 0 1-.175.539c-.067-.043-.149-.09-.25-.153L3.945 1.99l.067.98s1.75 1.996 2.886 3.187c-1.015-.582-4.976-3.25-4.976-3.25l.094 1.082s5.265 4.477 6.98 5.875c-1.648 1.02-3.988 1.094-6.332 0-.586-.273-1.133-.582-1.602-.972a9.63 9.63 0 0 0 4.336 3.695C7.668 13.555 12 12 12 12h1l2 2v-2s.113-.547-1.187-2.324c.023-.082.042-.16.062-.242.785-2.996-1.094-6.575-4.258-8.477m0 0"/></svg>