<svg xmlns="http://www.w3.org/2000/svg" width="16" height="16"><path fill="gray" d="M8.568 10.33c-.466-.064-1.047-.104-1.533.275-.403.316-.777.714-1.105 1.018-.329.304-.652.44-.586.44H2v1h3.344c.582 0 .901-.368 1.265-.706s.732-.72 1.043-.964c.107-.084.407-.124.78-.073.372.052.705.18 1.1.18.146 0 .217.035.325.127s.231.254.366.447c.134.194.28.417.498.621s.544.383.92.383H14v-1h-2.36c-.098 0-.14-.021-.238-.113-.099-.092-.22-.262-.359-.463-.14-.201-.298-.433-.537-.637a1.52 1.52 0 0 0-.975-.365c-.033 0-.496-.106-.963-.17M6.432 5.864c-.86 0-1.568.707-1.568 1.568 0 .86.708 1.568 1.568 1.568S8 8.292 8 7.432s-.708-1.568-1.568-1.568m0 .999c.32 0 .569.249.569.569S6.751 8 6.432 8a.56.56 0 0 1-.569-.568c0-.32.25-.57.57-.57z"/><path fill="gray" d="M4 0C2.338 0 1 1.338 1 3v10c0 1.662 1.338 3 3 3h8c1.662 0 3-1.338 3-3V4l-4-4zm0 1h6v2c0 1.108.892 2 2 2h2v8c0 1.108-.892 2-2 2H4c-1.108 0-2-.892-2-2V3c0-1.108.892-2 2-2" class="ColorScheme-Text"/></svg>