<svg xmlns="http://www.w3.org/2000/svg" xmlns:xlink="http://www.w3.org/1999/xlink" viewBox="0 0 64 64">
    <defs>
        <linearGradient xlink:href="#a" id="b" x1="16" x2="16" y1="30" y2="2" gradientTransform="scale(2)" gradientUnits="userSpaceOnUse"/>
        <linearGradient id="a">
            <stop offset="0" style="stop-color:#cc883b"/>
            <stop offset="1" style="stop-color:#e8c69e"/>
        </linearGradient>
    </defs>
    <rect width="56" height="56" x="4" y="4" rx="12" style="fill:url(#b);stroke-width:2"/>
    <path d="M37 30c-12.457 7.76-15 9.646-15 14v2c0 2.216 1.784 4 4 4h22c2.216 0 4-1.784 4-4v-2c0-4.354-2.543-6.24-15-14" style="opacity:.6;fill:#fff;stroke-width:3.65148"/>
    <path d="M37 14c-4.97 0-9 2.925-9 9s4.03 13 9 13 9-6.925 9-13-4.03-9-9-9" style="fill:#fff;stroke-width:2.48746"/>
    <path d="M16 4C9.352 4 4 9.352 4 16v32c0 6.648 5.352 12 12 12z" style="opacity:.3;fill:#000;stroke-width:2"/>
</svg>
