<svg xmlns="http://www.w3.org/2000/svg" xml:space="preserve" style="fill-rule:evenodd;clip-rule:evenodd;stroke-linejoin:round;stroke-miterlimit:2" viewBox="0 0 86 86">
    <path d="M21.333 5.333H64c8.831 0 16 7.17 16 16V64c0 8.831-7.169 16-16 16H21.333c-8.83 0-16-7.169-16-16V21.333c0-8.83 7.17-16 16-16" style="fill:url(#a);fill-rule:nonzero"/>
    <path d="M24.667 18.667a3.6 3.6 0 0 0 0 7.2c19.262 0 34.8 15.537 34.8 34.8a3.6 3.6 0 0 0 7.2 0c0-23.154-18.847-42-42-42m0 16.8a3.6 3.6 0 0 0 0 7.2c9.984 0 18 8.016 18 18a3.6 3.6 0 0 0 7.2 0c0-13.875-11.326-25.2-25.2-25.2m1.2 16.8a7.2 7.2 0 1 0 .001 14.401 7.2 7.2 0 0 0-.001-14.401" style="fill:#fff;fill-rule:nonzero"/>
    <defs>
        <linearGradient id="a" x1="0" x2="1" y1="0" y2="0" gradientTransform="matrix(0 74.66667 74.66667 0 42.667 5.333)" gradientUnits="userSpaceOnUse">
            <stop offset="0" style="stop-color:#ffbb75;stop-opacity:1"/>
            <stop offset="1" style="stop-color:#f68200;stop-opacity:1"/>
        </linearGradient>
    </defs>
</svg>
