<svg xmlns="http://www.w3.org/2000/svg" xml:space="preserve" style="fill-rule:evenodd;clip-rule:evenodd" viewBox="0 0 86 86">
    <path d="M21.332 5.333h42.669c8.83 0 15.999 7.17 15.999 15.999v42.669C80 72.831 72.831 80 64.001 80H21.332c-8.829 0-15.999-7.169-15.999-15.999V21.332c0-8.829 7.17-15.999 15.999-15.999" style="fill:#0f3612;fill-rule:nonzero"/>
    <path d="M21.332 5.333h42.669c8.83 0 15.999 7.17 15.999 15.999v42.669C80 72.831 72.831 80 64.001 80H21.332c-8.829 0-15.999-7.169-15.999-15.999V21.332c0-8.829 7.17-15.999 15.999-15.999" style="fill:url(#a);fill-rule:nonzero"/>
    <circle cx="42.667" cy="42.667" r="29.333" style="fill:none;stroke:#81dc8a;stroke-opacity:.9;stroke-width:2.67px"/>
    <path d="M52.411 60.121c-2.707-5.1-6.028-9.862-9.626-14.362-3.689 4.616-7.388 9.257-10.381 14.366h-6.4c3.628-6.61 8.436-12.462 13.092-18.358L26.528 25.208h6.995l9.408 12.195 8.653-12.195h6.621L46.691 41.384c4.485 6.052 9.172 12.029 12.644 18.737z" style="fill:#81dc8a;fill-opacity:.9;fill-rule:nonzero"/>
    <defs>
        <linearGradient id="a" x1="0" x2="1" y1="0" y2="0" gradientTransform="rotate(-88.792 62.186 18.212)scale(74.385)" gradientUnits="userSpaceOnUse">
            <stop offset="0" style="stop-color:#010101;stop-opacity:.1"/>
            <stop offset="1" style="stop-color:#fff;stop-opacity:.2"/>
        </linearGradient>
    </defs>
</svg>
