<svg xmlns="http://www.w3.org/2000/svg" xmlns:xlink="http://www.w3.org/1999/xlink" width="64" height="64" viewBox="0 0 64 64">
    <defs>
        <linearGradient xlink:href="#a" id="b" x1="16" x2="16" y1="30" y2="2" gradientTransform="scale(2)" gradientUnits="userSpaceOnUse"/>
        <linearGradient id="a">
            <stop offset="0" style="stop-color:#96a3ad;stop-opacity:1"/>
            <stop offset="1" style="stop-color:#c4c8cd;stop-opacity:1"/>
        </linearGradient>
    </defs>
    <rect width="56" height="56" x="4" y="4" rx="12" style="fill:url(#b);stroke-width:2"/>
    <path d="M20 14c-3.324 0-6 2.676-6 6v24c0 3.324 2.676 6 6 6s6-2.676 6-6V20c0-3.324-2.676-6-6-6m5.063 0C26.819 15.426 28 17.584 28 20v2h8.25c-.148-2.186 2.496-4 4-4 1.36 0 2 .024 2 2v2h2.438c2.455-1.2 3.558-3.939 3.558-5.375 0-1.47-4.767-2.625-7.371-2.625ZM28 24v8.621c5.532 5.322 16.25 4.816 16.25 4.816s.706-3.038-3.812-8.058L35.699 24Zm10 5.066L41 32c-3.598.33-3.934-1.174-3-2.934" style="fill:#fff;stroke-width:2"/>
</svg>
