<svg xmlns="http://www.w3.org/2000/svg" xmlns:xlink="http://www.w3.org/1999/xlink" width="64" height="64" viewBox="0 0 64 64">
    <defs>
        <linearGradient xlink:href="#a" id="b" x1="16" x2="16" y1="30" y2="2" gradientTransform="scale(2)" gradientUnits="userSpaceOnUse"/>
        <linearGradient id="a">
            <stop offset="0" style="stop-color:#3ec90e;stop-opacity:1"/>
            <stop offset="1" style="stop-color:#75db10;stop-opacity:1"/>
        </linearGradient>
    </defs>
    <rect width="56" height="56" x="4" y="4" rx="12" style="fill:url(#b);stroke-width:2"/>
    <path d="M14 26v10.168c-1.168.41-2 1.52-2 2.832v3c0 1.662 1.338 3 3 3s3-1.338 3-3v-3a2.99 2.99 0 0 0-2-2.832V26Z" style="opacity:.5;fill:#fff;stroke:none;stroke-width:4.23392;stroke-linecap:round;stroke-linejoin:round;stroke-dasharray:none;stroke-opacity:1"/>
    <path d="M32 16a1.43 1.25 0 0 0-.676.146L12.746 24.9a1.43 1.25 0 0 0 0 2.198l18.578 8.754a1.43 1.25 0 0 0 1.352 0l18.578-8.754a1.43 1.25 0 0 0 0-2.198l-18.578-8.754A1.43 1.25 0 0 0 32 16M20.098 32.766A8 8 0 0 0 20 34v8c0 4.432 3.568 6 8 6h8c4.432 0 8-1.568 8-6v-8c0-.42-.036-.832-.098-1.234l-10.375 4.886-.004.004c-.98.46-2.067.46-3.046 0l-.004-.004z" style="color:#000;fill:#fff;stroke:none;stroke-width:2.6734;stroke-linecap:round;stroke-linejoin:round;-inkscape-stroke:none"/>
</svg>
