<svg xmlns="http://www.w3.org/2000/svg" xmlns:xlink="http://www.w3.org/1999/xlink" width="64" height="64" viewBox="0 0 64 64">
    <defs>
        <linearGradient xlink:href="#a" id="b" x1="16" x2="16" y1="30" y2="2" gradientTransform="scale(2)" gradientUnits="userSpaceOnUse"/>
        <linearGradient id="a">
            <stop offset="0" style="stop-color:#0091f9;stop-opacity:1"/>
            <stop offset="1" style="stop-color:#41bbff;stop-opacity:1"/>
        </linearGradient>
    </defs>
    <rect width="56" height="56" x="4" y="4" rx="12" style="fill:url(#b);stroke-width:2"/>
    <path d="M30.271 19.962a4 4 0 0 0-3.305 6.61l18 22a4 4 0 0 0 6.047-5.235l-18-22a4 4 0 0 0-2.742-1.375" style="color:#000;fill:#ddf3fe;fill-opacity:1;stroke-width:4;stroke-linecap:round;stroke-linejoin:round;-inkscape-stroke:none"/>
    <path d="M36.724 14.048c-6.569.024-9.912 1.903-11.242 3.219-1.703 1.684-3.477 3.443-3.922 3.883-.962.952 0 3.657-1.406 5.195a3.4 3.4 0 0 1-1.61.875l-.53-.531a2.48 2.48 0 0 0-3.516 0l-1.758 1.758a2.48 2.48 0 0 0 0 3.515l5.273 5.266a2.47 2.47 0 0 0 3.508 0l1.758-1.758a2.47 2.47 0 0 0 0-3.508l-.602-.601c.025-.593.406-1.366 1.18-2.086 1.777-1.83 3.667-1.905 4.555-.953.37.293 1.554 1.695 1.554 1.695l5.68-5.625-1.352-1.688c-1.702-1.684.07-3.39.07-3.39 4.813-4.686 11.556-3.36 11.556-3.36l.07-.937c-3.632-.705-6.695-.978-9.266-.969" style="fill:#fff;stroke-width:4"/>
</svg>
