<svg xmlns="http://www.w3.org/2000/svg" xmlns:xlink="http://www.w3.org/1999/xlink" width="64" height="64" viewBox="0 0 64 64">
    <defs>
        <linearGradient xlink:href="#a" id="b" x1="16" x2="16" y1="30" y2="2" gradientTransform="scale(2)" gradientUnits="userSpaceOnUse"/>
        <linearGradient id="a">
            <stop offset="0" style="stop-color:#0091f9;stop-opacity:1"/>
            <stop offset="1" style="stop-color:#41bbff;stop-opacity:1"/>
        </linearGradient>
    </defs>
    <rect width="56" height="56" x="4" y="4" rx="12" style="fill:url(#b);stroke-width:2"/>
    <path d="M18 14a4 4 0 1 0 0 8 4 4 0 0 0 0-8m14 0a4 4 0 1 0 0 8 4 4 0 0 0 0-8m14 0a4 4 0 1 0 0 8 4 4 0 0 0 0-8M18 28a4 4 0 1 0 0 8 4 4 0 0 0 0-8m14 0a4 4 0 1 0 0 8 4 4 0 0 0 0-8m14 0a4 4 0 1 0 0 8 4 4 0 0 0 0-8M18 42a4 4 0 1 0 0 8 4 4 0 0 0 0-8m14 0a4 4 0 1 0 0 8 4 4 0 0 0 0-8m14 0a4 4 0 1 0 0 8 4 4 0 0 0 0-8" style="fill:#fff;fill-opacity:1;stroke-width:36;stroke-linecap:round;stroke-linejoin:round"/>
</svg>
