<svg xmlns="http://www.w3.org/2000/svg" xmlns:xlink="http://www.w3.org/1999/xlink" viewBox="0 0 64 64">
    <defs>
        <linearGradient xlink:href="#a" id="b" x1="16" x2="16" y1="30" y2="2" gradientTransform="scale(2)" gradientUnits="userSpaceOnUse"/>
        <linearGradient id="a">
            <stop offset="0" style="stop-color:#2d7ff3"/>
            <stop offset="1" style="stop-color:#2cdbfa"/>
        </linearGradient>
    </defs>
    <rect width="56" height="56" x="4" y="4" rx="12" style="fill:url(#b);stroke-width:2"/>
    <path d="M27.142 17c-.47 1.509-.559 1.437-.704 3.05-.749.67-.849 1.432-.816 2.172.035.805.59 1.33 1.24 1.367.808-.003 1.278-.796 1.352-1.567.087-.904-.068-1.492-.716-1.957-.017-1.223-.068-1.515-.356-3.065m-3.733 1.522c-.47 1.51-.559 1.437-.704 3.05-.749.67-.849 1.432-.816 2.173.035.804.588 1.33 1.238 1.366.807-.002 1.277-.796 1.352-1.567.087-.904-.066-1.494-.714-1.96-.016-1.223-.067-1.512-.356-3.062m7.26 0c-.29 1.55-.34 1.84-.357 3.062-.648.466-.8 1.056-.714 1.96.075.77.545 1.565 1.352 1.567.65-.037 1.203-.562 1.238-1.366.033-.741-.067-1.503-.816-2.173-.145-1.613-.233-1.54-.704-3.05m3.858 2.573c-.289 1.55-.34 1.839-.357 3.062-.647.465-.8 1.055-.713 1.96.074.77.544 1.564 1.351 1.567.65-.037 1.203-.562 1.239-1.367.032-.74-.068-1.503-.817-2.173-.145-1.613-.233-1.54-.703-3.05m-15.002.447c-.47 1.509-.558 1.436-.703 3.05-.75.67-.85 1.429-.817 2.17.036.804.59 1.332 1.241 1.369.807-.003 1.277-.8 1.352-1.57.087-.904-.069-1.492-.716-1.957-.017-1.223-.068-1.513-.357-3.062m7.2 3.989c-1.196.02-1.967.668-3.914 2.243-2.69 1.645-3.496 2.554-3.535 4.966-.042 2.667 3.408 3.526 6.185 2.344.847-.36 2.672-.39 3.647.038 2.027.656 5.62.232 5.678-2.688.115-2.447-1.444-3.139-3.811-4.66-1.415-1.376-2.121-2.149-4.007-2.24a4 4 0 0 0-.243-.003" style="fill:#fff;stroke-width:1.28616"/>
    <path d="M26.744 12.002q-.405.008-.812.037a15 15 0 0 0-9.536 4.356c-5.856 5.857-5.856 15.353 0 21.21 5.587 5.558 14.522 5.844 20.454.657l11.78 11.781a1 1 0 0 0 1.415 0 1 1 0 0 0 0-1.414L38.287 36.87c5.196-5.941 4.899-14.893-.68-20.476a15 15 0 0 0-10.863-4.393M27.002 14a13 13 0 0 1 9.191 3.809c5.076 5.076 5.076 13.306 0 18.382s-13.306 5.076-18.382 0-5.076-13.306 0-18.382A13 13 0 0 1 27.002 14" style="fill:#d7f2fd;stroke-width:1.875;stroke-linecap:round;stroke-linejoin:round"/>
</svg>
