<svg xmlns="http://www.w3.org/2000/svg" viewBox="0 0 64 64">
    <defs>
        <linearGradient id="a">
            <stop offset="0" style="stop-color:#59e389"/>
            <stop offset="1" style="stop-color:#3584e3"/>
        </linearGradient>
        <linearGradient id="b" x1="39.941" x2="39.941" y1="12" y2="68" gradientTransform="translate(-7.941 -8)" gradientUnits="userSpaceOnUse" href="#a"/>
    </defs>
    <rect width="55.882" height="56" x="4.059" y="4" rx="12" ry="12" style="fill:url(#b)"/>
    <g fill="none" stroke-linecap="round" stroke-linejoin="round" stroke-width="1.818">
        <path stroke="#deddda" d="M17.455 13.364h-3.182A2.273 2.273 0 0 0 12 15.636v2.273m34.545-4.545h3.182A2.273 2.273 0 0 1 52 15.636v2.273M17.455 51.09h-3.182A2.273 2.273 0 0 1 12 48.819v-2.273m34.545 4.544h3.182A2.273 2.273 0 0 0 52 48.819v-2.273"/>
        <path stroke="#fff" d="M17.455 12.91h-3.182A2.273 2.273 0 0 0 12 15.181v2.273m34.545-4.544h3.182A2.273 2.273 0 0 1 52 15.181v2.273M17.455 50.636h-3.182A2.273 2.273 0 0 1 12 48.364V46.09m34.545 4.546h3.182A2.273 2.273 0 0 0 52 48.364V46.09"/>
    </g>
    <path fill="#fff" d="M23.025 18.364h17.95a5.57 5.57 0 0 1 5.57 5.57v17.95a5.57 5.57 0 0 1-5.57 5.57h-17.95a5.57 5.57 0 0 1-5.57-5.57v-17.95a5.57 5.57 0 0 1 5.57-5.57m0 0"/>
    <path fill="#c0bfbc" d="M43.818 25.182a4.092 4.092 0 0 1-8.182 0 4.092 4.092 0 0 1 8.182 0M22.91 23.818h7.272a1.817 1.817 0 1 1 0 3.637h-7.273a1.817 1.817 0 1 1 0-3.637m0 0"/>
    <path fill="#deddda" d="M23.044 32h17.912a2.863 2.863 0 0 1 2.862 2.862v6.094a2.863 2.863 0 0 1-2.862 2.862H23.044a2.863 2.863 0 0 1-2.862-2.862v-6.094A2.863 2.863 0 0 1 23.044 32m0 0"/>
    <path fill="#c0bfbc" d="M22.91 34.727h10.908a.909.909 0 1 1 0 1.818H22.91a.909.909 0 1 1 0-1.818m0 4.546h10.908a.909.909 0 1 1 0 1.818H22.91a.909.909 0 1 1 0-1.818m15-5.455h2.726a1.817 1.817 0 1 1 0 3.637H37.91a1.817 1.817 0 1 1 0-3.637m0 0"/>
    <path fill="#5e5c64" d="M37.91 34.273A1.364 1.364 0 1 1 37.907 37a1.364 1.364 0 0 1 .001-2.728m0 0"/>
    <path fill="#3584e4" d="M37.91 38.364h2.726a1.817 1.817 0 1 1 0 3.636H37.91a1.817 1.817 0 1 1 0-3.636m0 0"/>
    <path fill="#fff" d="M40.636 38.818a1.364 1.364 0 1 1 0 2.728 1.364 1.364 0 0 1 0-2.728m0 0"/>
</svg>
