<svg xmlns="http://www.w3.org/2000/svg" xmlns:xlink="http://www.w3.org/1999/xlink" width="64" height="64" viewBox="0 0 64 64">
    <defs>
        <linearGradient id="a">
            <stop offset="0" style="stop-color:#eaebed;stop-opacity:1"/>
            <stop offset="1" style="stop-color:#f9fafa;stop-opacity:1"/>
        </linearGradient>
        <linearGradient xlink:href="#a" id="b" x1="16" x2="16" y1="30" y2="2" gradientTransform="scale(2)" gradientUnits="userSpaceOnUse"/>
    </defs>
    <rect width="56" height="56" x="4" y="4" rx="12" style="fill:url(#b);stroke-width:2"/>
    <path d="M40.947 17a2 2 0 0 0-1.037.322l-20 13a2 2 0 0 0 .225 3.48l25 12a2 2 0 0 0 2.826-2.195l-5-25A2 2 0 0 0 40.947 17m-1.33 5.285 3.637 18.178-18.18-8.725Z" style="fill:#353535;stroke-width:2"/>
    <path d="M41 14a5 5 0 0 0-5 5 5 5 0 0 0 5 5 5 5 0 0 0 5-5 5 5 0 0 0-5-5m-19 8a10 10 0 0 0-10 10 10 10 0 0 0 10 10 10 10 0 0 0 10-10 10 10 0 0 0-10-10m23 14a7 7 0 0 0-7 7 7 7 0 0 0 7 7 7 7 0 0 0 7-7 7 7 0 0 0-7-7" style="fill:#fe7d2a;stroke-width:2"/>
</svg>
