<svg xmlns="http://www.w3.org/2000/svg" xmlns:xlink="http://www.w3.org/1999/xlink" viewBox="0 0 64 64">
    <defs>
        <linearGradient xlink:href="#a" id="b" x1="16" x2="16" y1="30" y2="2" gradientTransform="scale(2)" gradientUnits="userSpaceOnUse"/>
        <linearGradient id="a">
            <stop offset="0" style="stop-color:#393e53"/>
            <stop offset="1" style="stop-color:#797d96"/>
        </linearGradient>
    </defs>
    <rect width="56" height="56" x="4" y="4" rx="12" style="fill:url(#b);stroke-width:2"/>
    <path d="M32 16v2h6v28h-6v2h14v-2h-6V18h6v-2zm-16 8a4 4 0 0 0-4 4v8a4 4 0 0 0 4 4h20v-2H16a2 2 0 0 1-2-2v-8a2 2 0 0 1 2-2h20v-2zm26 0v2h6a2 2 0 0 1 2 2v8a2 2 0 0 1-2 2h-6v2h6a4 4 0 0 0 4-4v-8a4 4 0 0 0-4-4zm-24 6v4h14v-4z" style="display:inline;fill:#fff;fill-opacity:1;stroke:none;stroke-width:2"/>
</svg>
