<svg xmlns="http://www.w3.org/2000/svg" viewBox="0 0 64 64">
    <defs>
        <linearGradient id="a" x1="32" x2="32" y1="4" y2="60" gradientUnits="userSpaceOnUse">
            <stop offset="0" style="stop-color:#f3f4f6"/>
            <stop offset="1" style="stop-color:#e5e7eb"/>
        </linearGradient>
    </defs>
    <rect width="56" height="56" x="4" y="4" rx="12" style="fill:url(#a);stroke-width:1"/>
    <path fill="#3584e4" d="M26.273 34.439h11.454c4.57 0 8.273 3.722 8.273 8.31s-3.704 8.313-8.273 8.313H26.273c-4.568 0-8.273-3.72-8.273-8.313s3.705-8.31 8.273-8.31m0 0"/>
    <path fill="#f5f5f5" d="M43.455 42.75c0 3.176-2.566 5.755-5.728 5.755s-5.726-2.579-5.726-5.756 2.565-5.755 5.726-5.755 5.728 2.58 5.728 5.755m0 0"/>
    <path fill="#1c71d8" d="M26.273 34.439c-4.583 0-8.273 3.706-8.273 8.31q.001.323.027.64c.325-4.303 3.879-7.673 8.246-7.673h11.454c4.367 0 7.923 3.37 8.246 7.673a8.245 8.126 0 0 0 .027-.64c0-4.604-3.688-8.31-8.273-8.31zm0 0"/>
    <path fill="#99c1f1" d="M36.378 34.578H26.46c-1.91 0-3.46 1.559-3.46 3.479v9.964c0 1.919 1.55 3.478 3.46 3.478h9.918a3.47 3.47 0 0 0 3.462-3.478v-9.964a3.47 3.47 0 0 0-3.462-3.479m0 0" style="stroke-width:1.131" transform="translate(0 -21.56)"/>
    <path fill="#62a0ea" d="M36.375 34.578a3.464 3.464 0 0 1 3.465 3.479v1.3a3.464 3.464 0 0 0-3.465-3.478H26.46A3.46 3.46 0 0 0 23 39.357v-1.3a3.46 3.46 0 0 1 3.46-3.479zm0 0" style="stroke-width:1.131" transform="translate(0 -21.56)"/>
    <path fill="#1c71d8" d="M40.488 34.499a1.94 1.94 0 0 0-1.375.574l-7.694 7.729-2.512-2.524a1.937 1.937 0 0 0-2.746 0 1.957 1.957 0 0 0 0 2.76l3.885 3.905a1.936 1.936 0 0 0 2.748 0l9.067-9.111a1.954 1.954 0 0 0-1.373-3.333m0 0" style="stroke-width:1.131" transform="translate(0 -21.56)"/>
</svg>
