<svg xmlns="http://www.w3.org/2000/svg" xmlns:xlink="http://www.w3.org/1999/xlink" viewBox="0 0 64 64">
    <defs>
        <linearGradient xlink:href="#a" id="e" x1="16" x2="16" y1="30" y2="2" gradientTransform="scale(2)" gradientUnits="userSpaceOnUse"/>
        <linearGradient id="a">
            <stop offset="0" style="stop-color:#c6cdd1"/>
            <stop offset="1" style="stop-color:#e0e5e7"/>
        </linearGradient>
        <linearGradient xlink:href="#b" id="f" x1="17" x2="29.453" y1="12" y2="24.979" gradientTransform="scale(2)" gradientUnits="userSpaceOnUse"/>
        <linearGradient id="b">
            <stop offset="0" style="stop-color:#000"/>
            <stop offset="1" style="stop-color:#000;stop-opacity:0"/>
        </linearGradient>
        <linearGradient xlink:href="#c" id="g" x1="2" x2="2" y1="30" y2="7.428" gradientTransform="scale(2)" gradientUnits="userSpaceOnUse"/>
        <linearGradient id="c">
            <stop offset="0" style="stop-color:#663079"/>
            <stop offset="1" style="stop-color:#10a585"/>
        </linearGradient>
        <linearGradient xlink:href="#b" id="h" x1="-3.622" x2="-3.622" y1="8.485" y2="16.485" gradientTransform="translate(-1.06 -.354)" gradientUnits="userSpaceOnUse"/>
        <linearGradient xlink:href="#b" id="i" x1="1.052" x2="1.052" y1="-25.146" y2="-33.146" gradientUnits="userSpaceOnUse"/>
        <linearGradient xlink:href="#b" id="j" x1="-1.547" x2="-1.547" y1="-20.614" y2="-28.614" gradientUnits="userSpaceOnUse"/>
        <linearGradient xlink:href="#d" id="k" x1="4" x2="4" y1="6" y2="4" gradientTransform="matrix(1.5 0 0 1.5 -1 .5)" gradientUnits="userSpaceOnUse"/>
        <linearGradient id="d">
            <stop offset="0" style="stop-color:#1d1e1e"/>
            <stop offset="1" style="stop-color:#44484c"/>
        </linearGradient>
        <linearGradient xlink:href="#d" id="l" x1="12" x2="12" y1="9" y2="7" gradientTransform="matrix(2 0 0 2 -5 -4)" gradientUnits="userSpaceOnUse"/>
        <linearGradient xlink:href="#d" id="m" x1="12" x2="12" y1="15" y2="12" gradientTransform="translate(-2 -2)scale(1.66667)" gradientUnits="userSpaceOnUse"/>
        <linearGradient xlink:href="#d" id="n" x1="20.5" x2="20.5" y1="19" y2="15" gradientTransform="matrix(1.5 0 0 1.5 -.75 -1.5)" gradientUnits="userSpaceOnUse"/>
    </defs>
    <rect width="56" height="56" x="4" y="4" rx="12" style="fill:url(#e);stroke-width:2"/>
    <path d="M37.2 21.602 18.862 43.555 28.352 60H38c15.906 0 20.812-2.963 21.797-15.8z" style="opacity:.2;fill:url(#f);fill-opacity:1;stroke-width:2;stroke-linecap:round;stroke-linejoin:round;paint-order:stroke fill markers"/>
    <path d="M4.059 14.8q-.06.593-.059 1.2v32c0 6.648 5.352 12 12 12h32a11.973 11.973 0 0 0 11.984-11.402c-11.333-.327-29.205-3.9-30.847-8.008-2.863-7.157 7.158-8.59 5.726-15.746C33.24 17.563 16.491 14.84 4.06 14.8" style="fill:url(#g);fill-opacity:1;stroke-width:2;stroke-linecap:round;stroke-linejoin:round"/>
    <path d="M4.059 14.8q-.019.202-.032.403c12.11.784 27.885 1.896 29.434 9.64 1.43 7.158-7.25 8.528-4.387 15.684 2.274 5.684 18.635 8.585 30.77 9.418q.154-.95.156-1.945v-.445c-11.91-.4-27.298-1.563-29.46-6.97-2.864-7.156 5.754-8.584 4.323-15.741C33.185 16.452 18.898 14.95 4.06 14.8" style="fill:#1d1e1e;fill-opacity:1;stroke-width:2"/>
    <path d="M-4.682 8.131h3v8h-3z" style="opacity:.2;fill:url(#h);fill-opacity:1;stroke-linecap:round;stroke-linejoin:round;paint-order:stroke fill markers" transform="rotate(-45)scale(2)"/>
    <path d="M1.052-33.146h5v8h-5z" style="opacity:.2;fill:url(#i);fill-opacity:1;stroke-linecap:round;stroke-linejoin:round;paint-order:stroke fill markers" transform="rotate(135)scale(2)"/>
    <path d="M-4.547-28.614h3v8h-3z" style="opacity:.2;fill:url(#j);fill-opacity:1;stroke-linecap:round;stroke-linejoin:round;paint-order:stroke fill markers" transform="rotate(135)scale(2)"/>
    <g transform="scale(2)">
        <circle cx="3.5" cy="8" r="1.5" style="fill:url(#k);fill-opacity:1;stroke-width:1.5;stroke-linecap:round;stroke-linejoin:round;paint-order:stroke fill markers"/>
        <circle cx="17" cy="12" r="2" style="fill:url(#l);fill-opacity:1;stroke-width:2;stroke-linecap:round;stroke-linejoin:round;paint-order:stroke fill markers"/>
        <circle cx="15.5" cy="20.5" r="2.5" style="fill:url(#m);fill-opacity:1;stroke-width:1.66667;stroke-linecap:round;stroke-linejoin:round;paint-order:stroke fill markers"/>
        <circle cx="27" cy="24" r="3" style="fill:url(#n);fill-opacity:1;stroke-width:1.5;stroke-linecap:round;stroke-linejoin:round;paint-order:stroke fill markers"/>
    </g>
    <g transform="scale(2)">
        <circle cx="3.5" cy="8" r=".5" style="fill:#fff;stroke-linecap:round;stroke-linejoin:round;paint-order:stroke fill markers"/>
        <circle cx="17" cy="12" r="1" style="fill:#fff;stroke-linecap:round;stroke-linejoin:round;paint-order:stroke fill markers"/>
        <circle cx="15.5" cy="20.5" r="1.5" style="fill:#fff;stroke-linecap:round;stroke-linejoin:round;paint-order:stroke fill markers"/>
        <circle cx="27" cy="24" r="2" style="fill:#fff;stroke-linecap:round;stroke-linejoin:round;paint-order:stroke fill markers"/>
    </g>
</svg>
