<svg xmlns="http://www.w3.org/2000/svg" xmlns:xlink="http://www.w3.org/1999/xlink" width="64" height="64" viewBox="0 0 64 64">
    <defs>
        <linearGradient id="a">
            <stop offset="0" style="stop-color:#eaebed;stop-opacity:1"/>
            <stop offset="1" style="stop-color:#f9fafa;stop-opacity:1"/>
        </linearGradient>
        <linearGradient xlink:href="#a" id="g" x1="16" x2="16" y1="30" y2="2" gradientTransform="scale(2)" gradientUnits="userSpaceOnUse"/>
        <linearGradient xlink:href="#b" id="h" x1="14" x2="14" y1="14" y2="10" gradientTransform="matrix(3.33333 0 0 5.5 5.333 -26)" gradientUnits="userSpaceOnUse"/>
        <linearGradient id="b">
            <stop offset="0" style="stop-color:#c6cdd1;stop-opacity:1"/>
            <stop offset="1" style="stop-color:#e5e6e7;stop-opacity:1"/>
        </linearGradient>
        <linearGradient xlink:href="#c" id="i" x1="3.636" x2="3.636" y1="7.754" y2="5.243" gradientTransform="matrix(1.48623 0 0 1.59281 10.596 16.65)" gradientUnits="userSpaceOnUse"/>
        <linearGradient id="c">
            <stop offset="0" style="stop-color:#06a370;stop-opacity:1"/>
            <stop offset="1" style="stop-color:#22d1b0;stop-opacity:1"/>
        </linearGradient>
        <linearGradient xlink:href="#d" id="j" x1="7.33" x2="7.33" y1="5.048" y2="4.271" gradientTransform="matrix(5.97088 0 0 10.29146 -19.767 -22.955)" gradientUnits="userSpaceOnUse"/>
        <linearGradient id="d">
            <stop offset="0" style="stop-color:#c61423;stop-opacity:1"/>
            <stop offset="1" style="stop-color:#dc2b41;stop-opacity:1"/>
        </linearGradient>
        <linearGradient xlink:href="#c" id="k" x1="5" x2="5" y1="8.111" y2="1" gradientTransform="matrix(2 0 0 2.25 10 10.75)" gradientUnits="userSpaceOnUse"/>
        <linearGradient xlink:href="#c" id="l" x1="9" x2="9" y1="8" y2="3" gradientTransform="matrix(2 0 0 1.85714 10 12.429)" gradientUnits="userSpaceOnUse"/>
        <linearGradient xlink:href="#d" id="m" x1="11" x2="11" y1="8" y2="5" gradientTransform="matrix(2 0 0 2.5 14 8.5)" gradientUnits="userSpaceOnUse"/>
        <linearGradient xlink:href="#c" id="n" x1="16" x2="16" y1="15" y2="8" gradientTransform="matrix(2 0 0 2 0 -1)" gradientUnits="userSpaceOnUse"/>
        <linearGradient xlink:href="#c" id="o" x1="20" x2="20" y1="15" y2="7" gradientTransform="matrix(2 0 0 2 0 -1)" gradientUnits="userSpaceOnUse"/>
        <linearGradient xlink:href="#d" id="p" x1="22" x2="22" y1="15" y2="9" gradientTransform="matrix(2 0 0 2.14286 0 -3.286)" gradientUnits="userSpaceOnUse"/>
        <linearGradient xlink:href="#e" id="q" x1="2" x2="2" y1="3.5" y2="12.5" gradientTransform="matrix(2.66667 0 0 2.6 10.667 4.7)" gradientUnits="userSpaceOnUse"/>
        <linearGradient id="e">
            <stop offset="0" style="stop-color:#f39c12;stop-opacity:1"/>
            <stop offset="1" style="stop-color:#f5ab35;stop-opacity:1"/>
        </linearGradient>
        <linearGradient xlink:href="#f" id="r" x1="16" x2="35" y1="32" y2="51" gradientUnits="userSpaceOnUse"/>
        <linearGradient id="f">
            <stop offset="0" style="stop-color:#000;stop-opacity:1"/>
            <stop offset="1" style="stop-color:#000;stop-opacity:0"/>
        </linearGradient>
    </defs>
    <rect width="56" height="56" x="4" y="4" rx="12" style="fill:url(#g);stroke-width:2"/>
    <path d="M12 29h40v22H12z" style="fill:url(#h);fill-opacity:1;stroke-width:4.28174;stroke-linecap:round;stroke-linejoin:round;paint-order:stroke fill markers"/>
    <path d="M16 25h4v6h-4z" style="fill:url(#i);fill-opacity:1;stroke-width:1.5386;stroke-linecap:round;stroke-linejoin:round;paint-order:stroke fill markers"/>
    <path d="M24 21h4v10h-4z" style="fill:url(#j);fill-opacity:1;stroke-width:7.83894;stroke-linecap:round;stroke-linejoin:round;paint-order:stroke fill markers"/>
    <path d="M20 13h4v18h-4z" style="fill:url(#k);fill-opacity:1;stroke-width:7.37556;stroke-linecap:round;stroke-linejoin:round;paint-order:stroke fill markers"/>
    <path d="M28 18h4v13h-4z" style="fill:url(#l);fill-opacity:1;stroke-width:5.39169;stroke-linecap:round;stroke-linejoin:round;paint-order:stroke fill markers"/>
    <path d="M36 21h4v10h-4z" style="fill:url(#m);fill-opacity:1;stroke-width:5.14452;stroke-linecap:round;stroke-linejoin:round;paint-order:stroke fill markers"/>
    <path d="M16 34v3h4v-3zm5 0v3h4v-3zm6 0v3h13v-3zm15 0v3h6v-3zm-26 4v3h4v-3zm5 0v3h4v-3zm6 0v3h13v-3zm15 0v3h6v-3zm-26 4v3h4v-3zm5 0v3h4v-3zm6 0v3h13v-3zm15 0v3h6v-3zm-26 4v3h4v-3zm5 0v3h4v-3zm6 0v3h13v-3zm15 0v3h6v-3z" style="fill:#eff0f1;fill-opacity:1;stroke-width:2.3094;stroke-linecap:round;stroke-linejoin:round;paint-order:stroke fill markers"/>
    <path d="M17 35v1h1v-1zm5 0v1h1v-1zm6 0v1h3v-1zm15 4v1h1v-1zm-26 4v1h1v-1zm5 4v1h1v-1zm21 0v1h3v-1z" style="fill:#4d4d4d;stroke-width:.39223;stroke-linecap:round;stroke-linejoin:round;paint-order:stroke fill markers"/>
    <path d="M12 50h40v1H12z" style="opacity:.1;fill:#2e3132;fill-opacity:1;stroke-width:1.82574;stroke-linecap:round;stroke-linejoin:round;paint-order:stroke fill markers"/>
    <path d="M32 15h4v16h-4z" style="fill:url(#n);fill-opacity:1;stroke-width:2;stroke-linecap:round;stroke-linejoin:round;paint-order:stroke fill markers"/>
    <path d="M40 13h4v18h-4z" style="fill:url(#o);fill-opacity:1;stroke-width:2;stroke-linecap:round;stroke-linejoin:round;paint-order:stroke fill markers"/>
    <path d="M44 16h4v15h-4z" style="fill:url(#p);fill-opacity:1;stroke-width:2.0702;stroke-linecap:round;stroke-linejoin:round;paint-order:stroke fill markers"/>
    <path d="M16 32v-3c2 0 2-2.2 4-2.2s1.5 2.6 4 2.6 2-3.4 4-3.4 2-4.4 4-4.4 2 5.2 4 5.2 2-2.8 4-2.8 2-5 4-5 2 7 4 7v6z" style="fill:url(#q);fill-opacity:1;stroke-width:2.63314"/>
    <path d="M16 31h32v1H16z" style="opacity:.3;fill:#2e3132;stroke-width:1.41421;stroke-linecap:round;stroke-linejoin:round;paint-order:stroke fill markers"/>
    <path d="M43 35v1h3v-1zm-15 4v1h2v-1zm3 0v1h2v-1zm-9 4v1h1v-1zm6 0v1h3v-1zm-11 4v1h2v-1z" style="fill:#258e52;fill-opacity:1;stroke-width:1.41421;stroke-linecap:round;stroke-linejoin:round;paint-order:stroke fill markers"/>
    <path d="M17 39v1h2v-1zm5 0v1h1v-1zm21 4v1h2v-1zm-15 4v1h8v-1zm9 0v1h1v-1z" style="fill:#c0392b;fill-opacity:1;stroke-width:1.41421;stroke-linecap:round;stroke-linejoin:round;paint-order:stroke fill markers"/>
    <path d="M16 32h32l4 4v15H35Z" style="opacity:.2;fill:url(#r);stroke-linecap:round;stroke-linejoin:round;paint-order:stroke fill markers"/>
</svg>
