<svg xmlns="http://www.w3.org/2000/svg" viewBox="0 0 64 64">
    <defs>
        <linearGradient id="b" x1="16" x2="16" y1="30" y2="2" gradientTransform="scale(2)" gradientUnits="userSpaceOnUse" href="#a"/>
        <linearGradient id="a">
            <stop offset="0" style="stop-color:#272727"/>
            <stop offset="1" style="stop-color:#5d5d5d"/>
        </linearGradient>
    </defs>
    <rect width="56" height="56" x="4" y="4" rx="12" style="fill:url(#b);stroke-width:2"/>
    <path fill="#989898" d="M20.868 27.702c5.644-5.627 13.81-6.65 18.382-2.39-5.252-4.107-12.994-1.007-13.936 5.581-.942 6.589 5.622 11.723 11.815 9.242a8.65 8.65 0 0 0 4.643-4.402l7.976 8.015c-6.235 8.25-17.786 10.324-26.515 4.762-2.207 2.626-3.973 3.349-7.771 3.49 3.057-2.593 3.136-5.5 1.702-9.54a20 20 0 0 1-1.23-2.2c-.457-4.135 1.262-8.88 4.95-12.558z"/>
    <path fill="#8dd0ff" d="M33.89 12c6.62 0 12.5 3.238 16.11 8.22l-8.26 8.236a8.7 8.7 0 0 0-2.507-3.144c-4.556-4.26-12.721-3.237-18.365 2.405-3.689 3.663-5.265 8.487-4.95 12.526C9.711 27.107 19.325 11.998 33.89 12"/>
</svg>
