<svg xmlns="http://www.w3.org/2000/svg" viewBox="0 0 64 64">
    <defs>
        <linearGradient id="c" x1="46.015" x2="46.015" y1="18.924" y2="43.952" gradientUnits="userSpaceOnUse">
            <stop offset="0" stop-color="#636bcf"/>
            <stop offset="1" stop-color="#593edb"/>
        </linearGradient>
        <linearGradient id="d" x1="32.734" x2="32.734" y1="14.169" y2="49.545" gradientUnits="userSpaceOnUse">
            <stop offset="0" stop-color="#7b83eb"/>
            <stop offset="1" stop-color="#6356f5"/>
        </linearGradient>
        <linearGradient id="f" x1="15.354" x2="15.354" y1="20.19" y2="45.552" gradientTransform="translate(8.828 8.466)scale(.72414)" gradientUnits="userSpaceOnUse">
            <stop offset="0" stop-color="#545dde"/>
            <stop offset="1" stop-color="#3d38c7" stop-opacity=".965"/>
        </linearGradient>
        <linearGradient id="a" x1="32" x2="32" y1="4" y2="60" gradientUnits="userSpaceOnUse">
            <stop offset="0" style="stop-color:#f3f4f6"/>
            <stop offset="1" style="stop-color:#e5e7eb"/>
        </linearGradient>
        <filter id="e" width="1.311" height="1.311" x="-.156" y="-.156" color-interpolation-filters="sRGB">
            <feGaussianBlur stdDeviation="1.879"/>
        </filter>
    </defs>
    <rect width="56" height="56" x="4" y="4" rx="12" style="stroke-width:1;fill:url(#a)"/>
    <g transform="translate(1.524 1.869)scale(.95234)">
        <path fill="url(#c)" d="M46.027 15.708a4.707 4.707 0 1 0 .191 9.412 4.707 4.707 0 0 0-.191-9.412m-5.31 11.586a1.47 1.47 0 0 0-1.473 1.475v.492c5.629 1.012 0 5.841 0 8.762v.848h.01a6.88 6.88 0 0 0 13.738 0h.01V28.769c0-.817-.658-1.475-1.475-1.475z"/>
        <path fill="url(#d)" d="M33.088 11.362a6.88 6.88 0 0 0-6.88 6.881 6.88 6.88 0 0 0 6.88 6.88 6.88 6.88 0 0 0 6.88-6.88 6.88 6.88 0 0 0-6.88-6.881m-8.114 15.933a2.38 2.38 0 0 0-2.386 2.387v11.932h.004a10.5 10.5 0 0 0 10.496 10.303 10.5 10.5 0 0 0 10.498-10.303h.002V29.682a2.38 2.38 0 0 0-2.387-2.387H24.973z"/>
        <rect width="21" height="21" x="11" y="22.625" filter="url(#e)" opacity=".25" rx="1.977" ry="1.977"/>
        <rect width="21" height="21" x="11" y="21.5" fill="url(#f)" rx="4" ry="4"/>
        <path fill="#f5f5f5" d="M16.069 25.847v3.62h3.621v9.414h3.621v-9.415h3.622v-3.619H16.07z"/>
    </g>
</svg>
