<svg xmlns="http://www.w3.org/2000/svg" style="fill-rule:evenodd;clip-rule:evenodd;stroke-linejoin:round;stroke-miterlimit:2" viewBox="0 0 64 64">
    <rect width="56" height="56" x="4" y="-60" rx="12" ry="12" style="fill:url(#a)" transform="scale(1 -1)"/>
    <defs>
        <linearGradient id="c" x1="32" x2="32" y1="13.42" y2="50.581" gradientTransform="translate(-.333 -.333)scale(1.01039)" gradientUnits="userSpaceOnUse">
            <stop offset="0" style="stop-color:#fff"/>
            <stop offset="1" style="stop-color:#fff;stop-opacity:.9"/>
        </linearGradient>
        <linearGradient id="b">
            <stop offset="0" style="stop-color:#0091f9"/>
            <stop offset="1" style="stop-color:#41bbff"/>
        </linearGradient>
        <linearGradient id="a" x1="32" x2="32" y1="4" y2="60" gradientTransform="translate(0 -64)" gradientUnits="userSpaceOnUse" href="#b"/>
    </defs>
    <path d="M49.309 13.228c-.666.028-1.28.37-1.655.922-.389.573-9.546 14.085-10.726 16.117-.589 1.016-1.255 2.667-1.808 4.176l4.761 2.79c1.037-1.23 2.143-2.633 2.741-3.664 1.192-2.057 8.356-16.693 8.66-17.315.701-1.43-.38-3.091-1.973-3.026m-34.374 16.09a.18.18 0 0 0-.13.033c-1.43 1.036-2.376 2.918-2.301 4.578.04.883.38 2.11 1.777 2.943.751.447 1.967.539 3.142.631 1.158.09 2.355.184 2.722.634.099.124.14.284.113.44-.081.822-.48 1.633-.867 2.415-.728 1.48-1.482 3.008-.18 4.706 1.145 1.49 2.662 1.49 4.222 1.48l.386-.003c.681 0 1.465.021 2.178.268.507.197.764.605.883 1.412.09.495.313.885.603 1.178.043-.227.143-.445.299-.627.765-.906.616-1.751.232-3.426-.178-.779-.374-1.644-.424-2.583a4.7 4.7 0 0 0-1.208-.243 5 5 0 0 0-.215-.005c-.606 0-1.367.135-2.104.263-.656.115-1.276.221-1.708.221-.304 0-.411-.054-.445-.084-.367-.461.166-1.713.393-2.251q.072-.16.131-.324c.368-1.084.638-2.24.128-3.337-.425-.911-1.415-1.637-2.52-1.847-.38-.082-.77-.12-1.16-.111-.387 0-.802.024-1.203.048-.412.025-.837.05-1.243.05-1.402 0-2.209-.319-2.696-1.065-.905-1.438.181-4.012 1.298-5.083a.182.182 0 0 0-.078-.306zm19.619 6.166a5 5 0 0 0-.778.158c-1.243.355-3.039 1.377-4.545 4.225-1.197 2.261-.755 4.198-.366 5.904.372 1.633.666 2.924-.428 4.215a.45.45 0 0 0 .259.737l.031.005c2.766.346 6.906-1.285 9.458-5.688 1.161-2 1.659-3.921 1.442-5.559a5 5 0 0 0-.312-1.209z" style="fill:url(#c);stroke-width:1"/>
</svg>
