<svg xmlns="http://www.w3.org/2000/svg" viewBox="0 0 64 64">
    <defs>
        <linearGradient id="a" x1="32" x2="32" y1="4" y2="60" gradientUnits="userSpaceOnUse">
            <stop offset="0" style="stop-opacity:.2;stop-color:#fff"/>
            <stop offset="1" style="stop-opacity:.1"/>
        </linearGradient>
        <linearGradient id="b" x1="32" x2="32" y1="14.997" y2="49.003" gradientTransform="translate(-1.778 -1.778)scale(1.05556)" gradientUnits="userSpaceOnUse">
            <stop offset="0" style="stop-color:#fff"/>
            <stop offset="1" style="stop-color:#fff;stop-opacity:.9"/>
        </linearGradient>
    </defs>
    <path fill="#4581e1" fill-rule="evenodd" d="M31 4v30l28.999-19C60 8.929 54.623 4 48 4z"/>
    <path fill="#80b7fa" fill-rule="evenodd" d="m32.023 4-16.022-.001C9.378 4 4 8.929 4 15l28 18z"/>
    <path fill="#d1e993" fill-rule="evenodd" d="M31 30v30h16.999C54.622 60 60 54.623 60 48v-2z"/>
    <path fill="#69b356" fill-rule="evenodd" d="M59.999 14.258 32 32l27.999 15z"/>
    <path fill="#fdbc4d" fill-rule="evenodd" d="M32 30 4 45.869v2.496a11.82 11.82 0 0 0 12 11.844L32.023 60z"/>
    <path fill="#de6547" fill-rule="evenodd" d="M4.001 14.258V47L32 32z"/>
    <path fill="#2f2f2f" d="M45.414 37.798c.837.836 1.602 2.518 1.602 3.839 0 1.262-.765 2.933-1.602 3.77-.844.841-2.519 1.607-3.775 1.607-1.325 0-3.007-.766-3.844-1.607a2.5 2.5 0 0 1-.49-.625c.071.278.071.557.071.837 0 1.256-.696 2.933-1.6 3.771-.843.837-2.445 1.608-3.773 1.608s-2.935-.771-3.773-1.608c-.905-.838-1.607-2.515-1.607-3.771 0-.282 0-.559.068-.765-.208.206-.347.419-.483.552-.839.842-2.514 1.608-3.842 1.608-1.33 0-2.937-.766-3.774-1.608-.843-.837-1.607-2.507-1.607-3.77 0-1.321.764-3.003 1.607-3.839.139-.139.347-.349.625-.491-.278.069-.552.069-.838.069-1.256 0-2.934-.694-3.771-1.607C13.776 34.93 13 33.322 13 31.995c0-1.319.776-2.931 1.608-3.762.837-.915 2.515-1.611 3.771-1.611.286 0 .56 0 .771.071-.211-.213-.419-.351-.558-.491-.843-.836-1.607-2.517-1.607-3.846 0-1.255.764-2.93 1.607-3.763.837-.842 2.517-1.611 3.774-1.611 1.328 0 3.003.769 3.842 1.611.136.134.343.342.483.624-.068-.282-.068-.561-.068-.836 0-1.26.702-2.934 1.607-3.771.838-.843 2.445-1.608 3.773-1.608s2.93.765 3.773 1.608c.904.837 1.6 2.511 1.6 3.771 0 .275 0 .554-.071.765.212-.211.352-.419.49-.553.837-.842 2.519-1.611 3.844-1.611 1.256 0 2.931.769 3.775 1.611.837.833 1.602 2.507 1.602 3.763 0 1.328-.765 3.009-1.602 3.845-.139.14-.351.351-.629.492.278-.072.557-.072.84-.072 1.251 0 2.93.697 3.762 1.611.844.832 1.613 2.444 1.613 3.763 0 1.327-.769 2.935-1.613 3.773-.832.913-2.511 1.607-3.762 1.607-.283 0-.562 0-.775-.069.213.215.425.352.564.492" style="stroke-width:1.056"/>
    <path d="M16 4h32c6.623 0 12 5.377 12 12v32c0 6.623-5.377 12-12 12H16C9.377 60 4 54.623 4 48V16C4 9.377 9.377 4 16 4" style="fill:url(#a)"/>
    <path d="M37.509 34.265h6.779c.608.676 1.434 1.055 2.42 1.055 1.804 0 3.236-1.512 3.236-3.325 0-1.803-1.432-3.315-3.236-3.315-.986 0-1.812.458-2.42 1.055h-6.779l4.821-4.82h.077c1.809 0 3.241-1.511 3.241-3.325a3.22 3.22 0 0 0-3.241-3.236c-1.812 0-3.319 1.434-3.319 3.236v.078l-4.826 4.83V19.71c.676-.603 1.055-1.433 1.055-2.411 0-1.812-1.506-3.247-3.314-3.247-1.813 0-3.319 1.435-3.319 3.247 0 .978.451 1.808 1.055 2.411v6.788l-4.827-4.83v-.078c0-1.802-1.434-3.236-3.313-3.236a3.223 3.223 0 0 0-3.247 3.236c0 1.814 1.433 3.325 3.247 3.325h.077l4.821 4.82h-6.784c-.603-.597-1.434-1.055-2.416-1.055-1.808 0-3.241 1.512-3.241 3.315 0 1.813 1.433 3.325 3.241 3.325.982 0 1.813-.379 2.416-1.055h6.784l-4.821 4.82h-.077c-1.814 0-3.247 1.434-3.247 3.32a3.22 3.22 0 0 0 3.247 3.241c1.807 0 3.313-1.434 3.313-3.241v-.073l4.827-4.83v6.789c-.676.602-1.055 1.432-1.055 2.41 0 1.812 1.506 3.247 3.319 3.247 1.808 0 3.314-1.435 3.314-3.247 0-.978-.446-1.808-1.055-2.41v-6.789l4.826 4.83v.073c0 1.807 1.434 3.241 3.319 3.241a3.22 3.22 0 0 0 3.241-3.241c0-1.886-1.432-3.32-3.241-3.32h-.077z" style="fill:url(#b);stroke-width:1.056"/>
</svg>
