<svg xmlns="http://www.w3.org/2000/svg" viewBox="0 0 64 64">
    <defs>
        <linearGradient id="b" x1="199.997" x2="296.665" y1="214.302" y2="307.573" gradientTransform="translate(-68 -73.21)scale(.40001)" gradientUnits="userSpaceOnUse">
            <stop offset="0" stop-color="#62a0ea"/>
            <stop offset="1" stop-color="#1a5fb4"/>
        </linearGradient>
        <linearGradient id="a" x1="32" x2="32" y1="4" y2="60" gradientUnits="userSpaceOnUse">
            <stop offset="0" style="stop-color:#f3f4f6"/>
            <stop offset="1" style="stop-color:#e5e7eb"/>
        </linearGradient>
    </defs>
    <rect width="56" height="56" x="4" y="4" rx="12" style="stroke-width:1;fill:url(#a)"/>
    <path fill="url(#b)" d="M31.306 12.901a2.446 2.446 0 0 0-.737 3.387c4.044 6.263 4.999 10.985 4.586 15.127-1.674 7.925-5.312 9.533-8.491 9.533-3.105 0-2.273-5.11.059-6.604 1.394-.87 3.178-1.435 4.547-1.435a2.453 2.453 0 0 0 2.457-2.449 2.454 2.454 0 0 0-2.457-2.451c-1.599 0-3.167.337-4.633.909.299-1.412.41-2.937.024-4.559-.588-2.461-2.277-4.815-5.214-7.094a2.457 2.457 0 0 0-3.448.425 2.444 2.444 0 0 0 .432 3.438c2.391 1.858 3.179 3.233 3.45 4.365.271 1.131.052 2.344-.489 4.013-.695 2.248-1.5 4.254-1.851 6.178-.175.948-.189 1.979-.233 2.802-1.722-1.678-2.396-3.894-2.396-7.132a2.455 2.455 0 0 0-2.459-2.449A2.453 2.453 0 0 0 12 31.354c0 4.424 1.292 8.632 4.76 11.439 3.136 2.988 11.116 1.883 11.116 6.682 0 1.355 1.981 2.013 3.338 2.013 1.391 0 3.143-.93 3.143-2.013 0-5.445 5.737-8.754 15.185-8.739A2.455 2.455 0 0 0 52 38.288a2.454 2.454 0 0 0-2.451-2.453 32 32 0 0 0-1.898.059c1.057-2.486 1.525-5.22 1.429-8.173a2.453 2.453 0 0 0-2.535-2.368 2.453 2.453 0 0 0-2.378 2.529c.128 3.868-.015 7.322-2.897 9.143-.82.517-1.773.965-2.675.965.701-1.907 1.232-3.919 1.448-6.09.139-1.386.153-3.031-.004-4.309-.246-1.978-.543-4.226.209-5.917.675-1.456 2.188-2.068 4.408-2.068a2.454 2.454 0 0 0 2.456-2.448 2.454 2.454 0 0 0-2.456-2.451c-3.299 0-5.803 1.736-7.22 3.836a41 41 0 0 0-2.735-4.907 2.46 2.46 0 0 0-3.395-.735" style="stroke-width:.369;fill:url(#b)"/>
</svg>
