<svg xmlns="http://www.w3.org/2000/svg" viewBox="0 0 64 64">
    <defs>
        <filter id="c" width="1.219" height="1.213" x="-.11" y="-.106" color-interpolation-filters="sRGB">
            <feGaussianBlur stdDeviation=".402"/>
        </filter>
        <filter id="b" width="1.195" height="1.242" x="-.098" y="-.121" color-interpolation-filters="sRGB">
            <feGaussianBlur stdDeviation=".416"/>
        </filter>
        <linearGradient id="a" x1="32" x2="32" y1="4" y2="60" gradientUnits="userSpaceOnUse">
            <stop offset="0" style="stop-color:#f3f4f6"/>
            <stop offset="1" style="stop-color:#e5e7eb"/>
        </linearGradient>
    </defs>
    <rect width="56" height="56" x="4" y="4" rx="12" style="stroke-width:1;fill:url(#a)"/>
    <g stroke-width="1.556">
        <path fill="#97c33d" d="M25.81 24.992c-.395 7.113-6.814 11.623-10.732 11.623a3.077 3.077 0 1 0 0 6.154c7.993 0 16.508-7.187 16.887-17.737a6.13 6.13 0 0 1-3.04.814 6.13 6.13 0 0 1-3.113-.853z"/>
        <path d="M24.731 31.514c-1.338 1.826-3.06 3.21-4.767 4.065 1.532 1.772 3.353 3.216 5.414 4.199a18.6 18.6 0 0 0 4.819-4.943c-2.03-.423-3.927-1.593-5.466-3.321" filter="url(#b)" opacity=".1" transform="translate(-1.056 .441)scale(.98902)"/>
        <path fill="#3f96b9" d="M18.257 21.496a4.62 4.62 0 0 1-3.18 1.274 4.62 4.62 0 0 1-2.951-1.067c.82 9.762 7.566 17.99 16.797 17.99a3.077 3.077 0 1 0 0-6.154c-5.2 0-9.953-5.09-10.667-12.043z"/>
        <path fill="#196260" d="M16.312 14.798a3.11 3.11 0 0 0-3.111 3.111 3.11 3.11 0 0 0 3.111 3.111 3.11 3.11 0 0 0 3.111-3.11 3.11 3.11 0 0 0-3.111-3.112m0 1.556a1.556 1.556 0 0 1 1.556 1.555 1.556 1.556 0 0 1-1.556 1.556 1.556 1.556 0 0 1-1.556-1.556 1.556 1.556 0 0 1 1.556-1.555" style="paint-order:normal" transform="translate(-1.056 .441)scale(.98902)"/>
        <path fill="#3f96b9" d="M30.312 14.798a4.667 4.667 0 0 0-4.667 4.667 4.667 4.667 0 0 0 4.667 4.666 4.667 4.667 0 0 0 4.667-4.666 4.667 4.667 0 0 0-4.667-4.667m0 1.556a3.11 3.11 0 0 1 3.111 3.11 3.11 3.11 0 0 1-3.111 3.112 3.11 3.11 0 0 1-3.111-3.111 3.11 3.11 0 0 1 3.111-3.111m0 1.555a1.556 1.556 0 0 0-1.556 1.556 1.556 1.556 0 0 0 1.556 1.555 1.556 1.556 0 0 0 1.556-1.555 1.556 1.556 0 0 0-1.556-1.556" style="paint-order:normal" transform="translate(-1.056 .441)scale(.98902)"/>
        <path fill="#5d7dbd" d="M34.273 16.615c.525.924.803 2.015.805 3.078a6.13 6.13 0 0 1-.869 3.136c4.908.666 10.1 6.094 10.1 9.171a3.077 3.077 0 1 0 6.154 0c0-7.693-9.231-15.385-16.19-15.385"/>
        <path d="M48.444 23.201c-2.038.674-3.956 1.856-5.633 3.36 1.82 1.8 3.056 3.847 3.056 5.347 0 .121.024.236.037.353 1.769-1.808 4.004-3.196 5.712-3.421-.593-1.999-1.72-3.92-3.172-5.639" filter="url(#c)" opacity=".1" transform="translate(-1.056 .441)scale(.98902)"/>
        <path fill="#196260" d="M48.923 21.23c-7.345 0-14.192 7.693-15.145 14.39a7.7 7.7 0 0 1 2.837-.543 7.7 7.7 0 0 1 3.395.8c.294-3.877 5.835-8.492 8.913-8.492a3.077 3.077 0 1 0 0-6.153z"/>
        <path fill="#5d7dbd" d="M36.616 36.615a6.15 6.15 0 0 0-6.154 6.154 6.15 6.15 0 0 0 6.154 6.154 6.15 6.15 0 0 0 6.153-6.154 6.15 6.15 0 0 0-6.153-6.154m0 1.539a4.616 4.616 0 0 1 4.616 4.615 4.616 4.616 0 0 1-4.616 4.615A4.616 4.616 0 0 1 32 42.77a4.616 4.616 0 0 1 4.616-4.615m0 1.539a3.076 3.076 0 0 0-3.077 3.075 3.076 3.076 0 0 0 3.077 3.078 3.076 3.076 0 0 0 3.077-3.077 3.076 3.076 0 0 0-3.076-3.076zm0 1.538a1.54 1.54 0 0 1 1.539 1.538 1.54 1.54 0 0 1-1.54 1.538 1.54 1.54 0 0 1-1.537-1.538 1.54 1.54 0 0 1 1.538-1.538"/>
    </g>
</svg>
