<svg xmlns="http://www.w3.org/2000/svg" enable-background="new 0 0 1024 1024" image-rendering="optimizeSpeed" viewBox="0 0 64 64">
    <defs>
        <linearGradient id="c">
            <stop offset="0" stop-color="#f5f5f5"/>
            <stop offset="1" stop-color="#00e6e7" stop-opacity="0"/>
        </linearGradient>
        <linearGradient id="b">
            <stop offset="0" stop-opacity="0"/>
            <stop offset="1" stop-color="#0087be"/>
        </linearGradient>
        <linearGradient id="a">
            <stop offset="0"/>
            <stop offset="1" stop-opacity="0"/>
        </linearGradient>
        <linearGradient id="d" x1="7.937" x2="7.937" y1="15.081" y2="1.852" gradientTransform="translate(0 .032)scale(3.7795)" gradientUnits="userSpaceOnUse">
            <stop offset="0" stop-color="#292929"/>
            <stop offset="1" stop-color="#4d4d4d"/>
        </linearGradient>
        <linearGradient id="e" x1="94.143" x2="98.838" y1="25.985" y2="29.167" gradientTransform="translate(-65.429 1.71)" gradientUnits="userSpaceOnUse" href="#a"/>
        <linearGradient id="h" x1="25.952" x2="32.666" y1="25.495" y2="30.692" gradientTransform="translate(.121 .063)" gradientUnits="userSpaceOnUse" href="#b"/>
        <linearGradient id="i" x1="28.076" x2="41.086" y1="21.353" y2="45.804" gradientTransform="translate(.121 .063)" gradientUnits="userSpaceOnUse" href="#c"/>
        <filter id="g" width="1.038" height="1.064" x="-.019" y="-.032" color-interpolation-filters="sRGB">
            <feGaussianBlur stdDeviation=".248"/>
        </filter>
        <filter id="f" width="1.038" height="1.064" x="-.019" y="-.032" color-interpolation-filters="sRGB">
            <feGaussianBlur stdDeviation=".248"/>
        </filter>
    </defs>
    <rect width="56" height="56" x="4" y="4" fill="url(#d)" rx="12" ry="12"/>
    <path fill="url(#e)" fill-rule="evenodd" d="m32.59 37.122.002.004h10.351a.68.68 0 0 0 .478-.195c.015-.014.155-.148.362-.371v.006l3.459-3.459a.685.685 0 0 0 0-.968l-3.27-3.27c-.3-.326-.521-.525-.54-.544a.68.68 0 0 0-.489-.206h-7.777l-13.392-9.376a.684.684 0 0 0-.953.167l-4.38 6.257a.685.685 0 0 0 .167.953L32.147 37c.134.094.29.133.443.122" clip-rule="evenodd" filter="url(#f)" opacity=".2"/>
    <path fill-rule="evenodd" d="m32.59 28.025.002-.004h10.351a.68.68 0 0 1 .478.195c.015.014.155.147.362.37v-.005l3.459 3.458c.266.267.266.7 0 .968l-3.27 3.27c-.3.327-.521.525-.54.544a.68.68 0 0 1-.489.206h-7.777l-13.392 9.377a.684.684 0 0 1-.953-.167l-4.38-6.257a.685.685 0 0 1 .167-.953l15.539-10.88a.68.68 0 0 1 .442-.122z" clip-rule="evenodd" filter="url(#g)" opacity=".2"/>
    <path fill="#88d9d9" fill-rule="evenodd" d="M32.708 36.498a.68.68 0 0 1-.44-.122l-15.54-10.88a.685.685 0 0 1-.167-.953l4.381-6.257a.683.683 0 0 1 .953-.168l13.397 9.38h7.772a.7.7 0 0 1 .49.206c.018.02.226.207.513.517l3.295 3.296c.267.267.267.7 0 .968l-3.465 3.464v-.004c-.203.22-.34.351-.355.365a.68.68 0 0 1-.478.195h-10.35z" clip-rule="evenodd"/>
    <path fill="url(#h)" fill-rule="evenodd" d="M32.708 36.498a.68.68 0 0 1-.44-.122l-15.54-10.88a.685.685 0 0 1-.167-.953l4.381-6.257a.683.683 0 0 1 .953-.168l13.397 9.38h7.772a.7.7 0 0 1 .49.206c.018.02.226.207.513.517l3.295 3.296c.267.267.267.7 0 .968l-3.465 3.464v-.004c-.203.22-.34.351-.355.365a.68.68 0 0 1-.478.195h-10.35z" clip-rule="evenodd" opacity=".15"/>
    <path fill="#00e6e7" fill-rule="evenodd" d="m32.71 27.503.003-.004h10.351c.186 0 .355.074.478.194.015.014.155.148.362.371v-.006l3.459 3.459c.266.267.266.7 0 .968l-3.27 3.27c-.3.326-.521.524-.54.543a.68.68 0 0 1-.489.207h-7.777l-13.392 9.377a.684.684 0 0 1-.953-.168l-4.38-6.257a.685.685 0 0 1 .167-.953l15.539-10.88a.68.68 0 0 1 .442-.121" clip-rule="evenodd"/>
    <path fill="url(#i)" fill-rule="evenodd" d="m32.71 27.503.003-.004h10.351c.186 0 .355.074.478.194.015.014.155.148.362.371v-.006l3.459 3.459c.266.267.266.7 0 .968l-3.27 3.27c-.3.326-.521.524-.54.543a.68.68 0 0 1-.489.207h-7.777l-13.392 9.377a.684.684 0 0 1-.953-.168l-4.38-6.257a.685.685 0 0 1 .167-.953l15.539-10.88a.68.68 0 0 1 .442-.121" clip-rule="evenodd"/>
</svg>
