<svg xmlns="http://www.w3.org/2000/svg" viewBox="0 0 64 64">
    <defs>
        <linearGradient id="a" x1="7.937" x2="7.937" y1="15.081" y2="1.852" gradientTransform="translate(0 .031)scale(3.7796)" gradientUnits="userSpaceOnUse">
            <stop offset="0" stop-color="#15a368"/>
            <stop offset="1" stop-color="#3fe366"/>
        </linearGradient>
        <linearGradient id="b" x1="32" x2="32" y1="12" y2="49.679" gradientUnits="userSpaceOnUse">
            <stop offset="0" style="stop-color:#fff"/>
            <stop offset="1" style="stop-color:#fff;stop-opacity:.9"/>
        </linearGradient>
    </defs>
    <rect width="56" height="56" x="4" y="4" fill="url(#a)" rx="12" style="stroke-width:1"/>
    <path d="M52 30.839c0 10.405-8.954 18.84-20 18.84a21 21 0 0 1-8.911-1.981l-7.477 1.54c-1.629.336-3.165-1.163-2.765-2.698l.202-.776 1.494-5.747A18 18 0 0 1 12 30.839C12 20.435 20.955 12 32 12s20 8.434 20 18.839m-33.713-9.661 14.416.685-17.705 7.821q-.04.53-.041 1.06c0 8.885 7.591 16.087 16.956 16.087 6.102-.001 11.732-3.112 14.744-8.146l-14.388-.684 16.601-7.333c-.044-8.854-7.623-16.011-16.957-16.011-5.374.002-10.43 2.421-13.626 6.521" style="fill:url(#b)"/>
</svg>
