<svg xmlns="http://www.w3.org/2000/svg" viewBox="0 0 64 64">
    <defs>
        <linearGradient id="b" x1="30.358" x2="30.358" y1="10.276" y2="50.276" gradientTransform="matrix(.92806 0 0 .92432 3.827 4.015)" gradientUnits="userSpaceOnUse">
            <stop offset="0" style="stop-color:#fff"/>
            <stop offset="1" style="stop-color:#fff;stop-opacity:.9"/>
        </linearGradient>
        <linearGradient id="a" x1="32" x2="32" y1="4" y2="60" gradientUnits="userSpaceOnUse">
            <stop offset="0" style="stop-color:#0ea5e9"/>
            <stop offset="1" style="stop-color:#0369a1"/>
        </linearGradient>
    </defs>
    <rect width="56" height="56" x="4" y="4" rx="12" style="stroke-width:2;fill-opacity:1;fill:url(#a)"/>
    <path d="M25.68 50.338c-.683-.215-.954-.391-1.867-1.218-1.056-.953-2.571-2.925-2.658-3.457-.099-.6-.238-.854-.477-.854-.46 0-1.591-1.065-2.96-2.783-1.106-1.387-2.025-2.492-2.484-2.995-.739-.806-1-1.287-1.164-2.134-.224-1.159.063-1.931 1.217-3.29q.503-.597.954-1.232c1.572-2.287 2.713-3.589 3.251-3.719.383-.089.525-.225.466-.446-.07-.264.342-1.391.588-1.606.188-.169 1.112-1.386 2.037-2.683.538-.757 1.235-1.437 1.73-1.687s.521-.288.609-.833c.079-.492.496-1.269.797-1.481.108-.078.26-.258.336-.4.217-.408 1.901-2.37 3.585-4.178 1.137-1.221 1.907-1.821 2.342-1.828.472-.007 1.457.686 2.453 1.729 1.742 1.816 2.061 2.284 2.061 3.017 0 .326.04.374.411.484.226.068.534.256.689.419 1.586 1.678 2.867 3.51 2.959 4.225.08.628.206.84.501.84.316 0 .976.635 1.951 1.876.827 1.056.871 1.114 1.882 2.521q.606.84 1.27 1.639c.718.839 1.96 2.691 1.96 2.923 0 .095.271.422.603.726.334.303.756.766.941 1.033.308.441.336.554.337 1.347.002 1.056-.224 1.556-1.182 2.638q-.674.759-1.335 1.53c-.431.503-.866.89-1.159 1.031-.256.124-.467.295-.467.38 0 .269-.503 1.157-.986 1.744-.257.308-.572.711-.707.89-.132.18-.518.628-.86.995-.342.369-.791.897-.999 1.173-1.206 1.62-2.315 2.72-3.059 3.038-.24.102-.695.317-1.013.48l-.576.295-5.773-.008c-4.33-.004-5.88-.04-6.204-.141m9.417-1.546c0-.105-1.004-.707-1.557-.938a5.4 5.4 0 0 1-.865-.476c-.557-.382-2.36-1.365-4.087-2.231a8 8 0 0 1-.765-.459c-.723-.487-1.676-.88-2.265-.929-.486-.042-.678.01-1.577.436-1.416.666-1.569 1.001-.79 1.726.258.243.742.796 1.074 1.232.691.907 1.072 1.197 1.964 1.498.591.198.927.214 4.753.218 2.263.002 4.115-.033 4.115-.077m3.712-.684c.152-.066.595-.55.984-1.071.39-.52.828-1.042.973-1.154.144-.113.508-.535.808-.937.3-.401.731-.932.963-1.181.385-.422.515-.674.347-.674-.04 0-.542.29-1.115.645-.577.354-1.079.642-1.124.642-.044 0-.278.16-.527.357-.512.404-1.502 1.037-1.626 1.037-.174 0-2.312 1.344-2.315 1.456-.002.064.347.313.776.553.822.458 1.362.553 1.856.328m-2.991-2.675c.342-.191.817-.5 1.055-.689.236-.188.866-.581 1.398-.873a45 45 0 0 0 2.835-1.711c.254-.165.663-.422.905-.57.244-.149.458-.324.479-.387.036-.108-.742-.529-4.219-2.283-1.386-.698-1.406-.703-2.26-.698-.833.005-.9.028-2.027.617-.644.336-1.298.702-1.455.812-.157.108-1.203.673-2.328 1.247-2.371 1.214-2.913 1.537-2.783 1.654.051.045.626.362 1.275.704 2.421 1.267 2.709 1.425 3.54 1.928 1.416.859 2.365.924 3.585.249m-13.134-2.449c.315-.176.647-.321.735-.321.552 0-.245-.526-2.698-1.78-1.001-.512-1.97-1.044-2.153-1.183-.183-.142-.389-.252-.457-.252-.249 0-.109.28.42.857.3.324.88 1.029 1.29 1.569s.905 1.083 1.099 1.204c.505.325 1.079.293 1.765-.093m4.778-2.548c.678-.339 1.497-.787 1.821-.996a10 10 0 0 1 1.026-.573c.405-.181.694-.327 2.796-1.41.475-.243.861-.513.861-.595 0-.083-.778-.535-1.829-1.059-1.007-.502-1.998-1.015-2.206-1.141-.43-.26-1.389-.748-2.269-1.154-.937-.43-1.859-.391-2.843.119-.413.215-.99.508-1.281.652a14 14 0 0 0-1.076.609c-.3.191-1.321.744-2.269 1.231q-1.015.523-2.028 1.05c-.438.229-.396.258 2.244 1.588.65.33 1.33.712 1.514.851.184.136.884.52 1.56.847 1.132.547 1.291.595 1.988.597.713.002.833-.033 1.991-.615m17.974-.351c.232-.122.723-.639 1.619-1.712.796-.944 1.01-1.267 1.168-1.75.183-.558.05-.781-.985-1.675-1.08-.932-2.067-1.344-3.011-1.259-.659.06-1.449.385-2.205.904-.229.157-1.21.686-2.182 1.178-.972.49-1.789.912-1.817.939-.083.081.205.379.364.379.079 0 .327.125.553.276.223.153.649.389.945.527 1.656.76 2.844 1.353 3.207 1.599.224.154.454.279.509.279s.258.095.452.212c.381.233 1.049.281 1.383.103m-27.509-4.653c.63-.324 1.278-.682 1.436-.793.285-.201 3.104-1.682 3.95-2.075.952-.441 1.096-.562.94-.789-.044-.065-.807-.465-1.694-.892-1.427-.687-1.663-.768-2.045-.71-.562.089-.761.265-1.501 1.347-.345.497-.782 1.076-.978 1.281-.411.433-2.309 3.075-2.309 3.213 0 .345.813.13 2.201-.581m19.47-.284c.363-.184.684-.365.712-.404.057-.076 1.287-.717 3.171-1.652.62-.306 1.131-.615 1.132-.684.003-.21-.497-.505-2.831-1.683-1.219-.615-2.354-1.214-2.515-1.33-.802-.561-1.247-.71-2.132-.71-.7 0-.971.054-1.465.283-.33.153-.668.344-.75.421-.214.2-.769.506-2.627 1.441-.888.444-1.646.843-1.685.882-.183.175.346.495 2.76 1.674 1.422.695 2.608 1.299 2.636 1.343.032.047.371.233.754.417.99.471 1.909.472 2.84.002m7.385-3.838c0-.056-.115-.236-.253-.405-.499-.595-2.615-3.421-3.017-4.026-.471-.706-.878-1.033-1.398-1.115-.29-.048-.596.058-1.613.555-.689.34-1.252.653-1.252.699 0 .043-.108.106-.242.141-.213.055-.222.082-.081.219.089.085.912.535 1.831 1.001q1.056.53 2.097 1.095c1.243.724 3.593 1.918 3.793 1.928.074.005.135-.039.135-.092M27.94 30.09c.474-.223 1.005-.515 1.186-.649.177-.132 1.072-.616 1.99-1.076.916-.46 1.717-.88 1.774-.936.169-.157-.25-.424-2.313-1.475q-1.172-.59-2.33-1.206l-1.291-.723c-.939-.529-1.522-.619-1.995-.307-.152.1-.512.528-.794.952-.282.421-.663.918-.845 1.102-.495.497-1.676 2.24-1.676 2.48 0 .199.307.42 1.291.929.503.261 1.046.561 1.209.667s.573.31.916.453c.914.385 1.752.321 2.878-.211m8.759-4.671c.438-.241.809-.437.824-.437.017 0 .334-.186.711-.415.903-.543.953-.822.282-1.576q-.434-.496-.811-1.035c-1.361-2.039-1.508-2.076-3.752-.92-.821.421-1.516.797-1.548.829-.09.106-.551.359-1.658.917-.587.295-1.084.589-1.104.651s.337.3.798.525c.46.224 1.029.54 1.268.698.464.314 2.123 1.135 2.474 1.225.118.029.553.037.968.014.639-.034.874-.106 1.548-.476m-8.002-3.507c.177-.124 1.215-.681 2.311-1.242 3.071-1.567 3.657-1.91 3.724-2.186.047-.183-.07-.418-.459-.927-.581-.764-1.98-2.115-2.188-2.115-.192 0-1.568 1.313-2.19 2.085q-.467.58-.968 1.133c-.246.27-.545.615-.663.773-.117.155-.542.693-.942 1.194-1.027 1.287-.958 1.6.353 1.541.501-.022.793-.096 1.022-.256" style="fill:url(#b)"/>
</svg>
