<svg xmlns="http://www.w3.org/2000/svg" viewBox="0 0 64 64">
    <defs>
        <linearGradient id="c" x1="29.508" x2="29.508" y1="12.5" y2="51.5" gradientTransform="translate(.308 2.461)scale(.92305)" gradientUnits="userSpaceOnUse">
            <stop offset="0" style="stop-color:#fff"/>
            <stop offset="1" style="stop-color:#fff;stop-opacity:.8"/>
        </linearGradient>
        <linearGradient id="b" x1="16" x2="16" y1="30" y2="2" gradientTransform="scale(2)" gradientUnits="userSpaceOnUse" href="#a"/>
        <linearGradient id="a">
            <stop offset="0" style="stop-color:#272727"/>
            <stop offset="1" style="stop-color:#5d5d5d"/>
        </linearGradient>
    </defs>
    <rect width="56" height="56" x="4" y="4" rx="12" style="stroke-width:2;fill:url(#b)"/>
    <path d="M40.733 14.001c-.768-.006-1.531.037-1.987.131-4.767.969-8.244 4.903-8.515 9.636l-.045.754-3.437 4.982-3.439 4.977h-.521c-1.232 0-2.693.43-3.879 1.144l-.201.123-7.455-3.088L4 29.656v9.506l2.633 1.087c1.558.652 4.167 1.732 5.792 2.405 1.626.678 2.966 1.261 2.978 1.301.249.945.691 1.945 1.192 2.695.424.62 1.489 1.653 2.172 2.1 2.629 1.71 6.01 1.663 8.635-.121 1.009-.684 2.175-2.064 2.64-3.117.431-.979.706-2.173.707-3.078v-.445l9.951-7.082.658-.046c4.804-.332 8.714-3.825 9.604-8.575.171-.915.172-2.841.002-3.712-.832-4.284-3.974-7.494-8.234-8.407-.467-.102-1.232-.159-1.997-.165zm-.008 3.361a7.07 7.07 0 0 1 5.834 3.17 7.04 7.04 0 0 1-.899 8.888c-1.102 1.106-2.497 1.796-4.084 2.023-2.608.373-5.314-.869-6.805-3.115-2.154-3.248-1.26-7.63 1.997-9.792a7 7 0 0 1 3.956-1.174zm-.101 1.7c-.528.005-1.053.059-1.405.161a5.53 5.53 0 0 0-3.792 3.858c-.186.68-.171 2.093.032 2.796.565 1.959 2.105 3.395 4.128 3.849.625.141 1.898.09 2.56-.101a5.4 5.4 0 0 0 3.374-2.862c.408-.852.501-1.284.502-2.333.002-.754-.023-1.004-.151-1.446a5.52 5.52 0 0 0-3.857-3.793c-.341-.09-.863-.137-1.391-.129M22.873 36.186a5.9 5.9 0 0 1 2.784.625 6.055 6.055 0 0 1 3.037 7.462c-.657 1.88-2.304 3.368-4.238 3.837-.542.13-1.702.218-2.106.159q-2.47-.367-3.935-2.068c-.459-.536-.943-1.301-.87-1.378.019-.012.743.266 1.61.627 2.48 1.029 2.545 1.049 3.398 1.09.895.041 1.356-.057 2.188-.466 1.094-.538 1.947-1.598 2.269-2.824.156-.58.152-1.585-.002-2.157-.279-1.041-1.102-2.163-1.958-2.664-.187-.11-1.231-.566-2.324-1.022l-1.987-.826.369-.105a6.6 6.6 0 0 1 1.765-.29" style="stroke-width:.584;fill:url(#c)"/>
</svg>
