<svg xmlns="http://www.w3.org/2000/svg" viewBox="0 0 64 64">
    <path d="M15.999 3.97h32.002C54.623 3.97 60 9.347 60 15.97v32c0 6.623-5.377 12-11.999 12H15.999C9.377 59.97 4 54.593 4 47.97v-32c0-6.623 5.377-12 11.999-12" style="fill:#3d8bff"/>
    <path d="M15.999 3.97h32.002C54.623 3.97 60 9.347 60 15.97v32c0 6.623-5.377 12-11.999 12H15.999C9.377 59.97 4 54.593 4 47.97v-32c0-6.623 5.377-12 11.999-12" style="fill:url(#a)"/>
    <path d="M31.57 13h-.042c-2.329 0-4.245 1.916-4.245 4.245v2.612h-6.856A3.456 3.456 0 0 0 17 23.285v6.516h2.57c2.523-.01 4.609 2.051 4.629 4.574l.002.055v.017c0 2.529-2.081 4.61-4.61 4.61H17v6.513A3.456 3.456 0 0 0 20.427 49h6.516v-2.591c0-2.529 2.081-4.61 4.61-4.61h.017l.055.004V41.8c2.523.02 4.584 2.106 4.574 4.629V49h6.513a3.455 3.455 0 0 0 3.43-3.43v-6.855h2.615c2.328 0 4.243-1.915 4.243-4.243v-.044l-.002-.053c-.028-2.375-1.903-4.232-4.286-4.232h-2.57v-6.858a3.457 3.457 0 0 0-3.428-3.428h-6.859v-2.609c0-2.323-1.907-4.237-4.23-4.246z" style="fill:#f5f5f5"/>
    <path d="M31.625 13.002v21.373h21.373c-.004-2.323-1.917-4.232-4.24-4.232h-2.615v-6.858a3.456 3.456 0 0 0-3.428-3.427h-6.86v-2.616c0-2.322-1.908-4.235-4.23-4.24m-7.427 21.373.002.055v.017c0 2.529-2.081 4.61-4.61 4.61H17v6.513A3.456 3.456 0 0 0 20.428 49h6.514v-2.59c0-2.529 2.081-4.61 4.61-4.61h.018l.055.002v-7.427z" style="fill:#3d8bff;fill-opacity:.35"/>
    <defs>
        <linearGradient id="a" x1="0" x2="1" y1="0" y2="0" gradientTransform="matrix(-.56 56 -56 -.56 32 3.97)" gradientUnits="userSpaceOnUse">
            <stop offset="0" style="stop-color:#fff;stop-opacity:.1"/>
            <stop offset="1" style="stop-color:#000;stop-opacity:.1"/>
        </linearGradient>
    </defs>
</svg>
