<svg xmlns="http://www.w3.org/2000/svg" viewBox="0 0 64 64">
    <defs>
        <linearGradient id="b" x1="16" x2="16" y1="30" y2="2" gradientTransform="scale(2)" gradientUnits="userSpaceOnUse" href="#a"/>
        <linearGradient id="a">
            <stop offset="0" style="stop-color:#0091f9"/>
            <stop offset="1" style="stop-color:#41bbff"/>
        </linearGradient>
    </defs>
    <rect width="56" height="56" x="4" y="4" rx="12" ry="12" style="fill:url(#b);stroke-width:2"/>
    <path d="M50.772 34.484a9.7 9.7 0 0 1 1.332 2.69 10 10 0 0 1 .463 3.026 10.1 10.1 0 0 1-.9 4.214 11.2 11.2 0 0 1-2.477 3.473 11.6 11.6 0 0 1-3.685 2.342 11.8 11.8 0 0 1-4.463.845q-3.364 0-6.04-1.587c-.496.069-.995.118-1.498.156a22 22 0 0 1-1.507.048q-3.93-.002-7.381-1.406c-2.296-.941-4.307-2.22-6.039-3.847a17.7 17.7 0 0 1-4.069-5.721q-1.483-3.283-1.483-7.012c0-.482.024-.94.075-1.364.046-.423.11-.855.175-1.288q-1.844-2.559-1.842-5.505a9.8 9.8 0 0 1 .902-4.144 10.4 10.4 0 0 1 2.47-3.386c1.052-.96 2.284-1.715 3.683-2.269 1.403-.553 2.89-.823 4.466-.823 1.134 0 2.198.133 3.21.405 1.01.275 1.957.658 2.83 1.158.494-.07 1-.12 1.498-.159.506-.03 1.011-.05 1.505-.05 2.629 0 5.097.459 7.405 1.369 2.303.904 4.318 2.156 6.05 3.744a17.8 17.8 0 0 1 4.088 5.543q1.482 3.159 1.481 6.768.005 1.33-.25 2.78zm-9.73 5.47c.81-1.066 1.21-2.318 1.21-3.757q-.001-1.698-.67-2.856-.695-1.156-1.958-1.927c-.774-.499-1.78-.941-3.012-1.337a156 156 0 0 0-3.94-.926l-1.523-.347a20 20 0 0 1-.977-.227 7 7 0 0 1-.761-.227 13 13 0 0 1-.704-.277 3.6 3.6 0 0 1-1.164-.77q-.358-.405-.358-1.077.002-.98 1.163-1.756 1.312-.724 3.22-.7c1.47 0 2.504.217 3.087.652a5.5 5.5 0 0 1 1.649 1.903q.513.825 1.052 1.23c.343.263.82.404 1.42.423.674 0 1.233-.224 1.703-.675q.688-.628.668-1.426c0-.617-.175-1.223-.516-1.807-.338-.549-.907-1.133-1.691-1.753a10.2 10.2 0 0 0-2.879-1.325 14 14 0 0 0-1.904-.376 18 18 0 0 0-2.21-.123q-3.06 0-5.162.748c-1.504.52-2.644 1.233-3.416 2.16q-1.158 1.32-1.158 3.176c0 1.302.374 2.361 1.112 3.178q1.114 1.323 3.022 2.004c1.21.483 2.755.907 4.651 1.272.71.168 1.33.31 1.878.417.54.106 1.03.227 1.458.359q1.214.327 1.965 1.113.803.68.803 1.76c0 .996-.489 1.802-1.454 2.417-.912.63-2.145.941-3.698.919-1.244 0-2.144-.143-2.715-.434-.709-.323-1.231-.733-1.575-1.221a8 8 0 0 1-1.064-1.843c-.244-.634-.574-1.112-1.004-1.435-.402-.327-.872-.489-1.423-.489-.704 0-1.285.197-1.744.583-.46.439-.68.953-.67 1.53q.003 1.51 1.11 3.02a7.65 7.65 0 0 0 2.82 2.43q2.521 1.299 6.324 1.323c2.069 0 3.912-.307 5.516-.92 1.575-.7 2.75-1.565 3.517-2.605z" style="stroke-width:1;fill:#fff"/>
</svg>
