<svg xmlns="http://www.w3.org/2000/svg" width="64" height="64" viewBox="0 0 64 64">
    <path fill="#16a34a" fill-rule="evenodd" d="M60 16v32c0 6.63-5.38 12.01-12 12.01H16C9.37 60.01 4 54.63 4 48V16C4 9.38 9.37 4 16 4h32c6.62 0 12 5.38 12 12"/>
    <linearGradient id="a" x1=".5" x2=".5" y1="0" y2="1" gradientTransform="matrix(56 0 0 56.01 4 4)" gradientUnits="userSpaceOnUse">
        <stop offset="0%" stop-opacity=".2" style="stop-color:#fef9c3"/>
        <stop offset="100%" stop-opacity="0" style="stop-color:#fef9c3"/>
    </linearGradient>
    <path fill="url(#a)" fill-rule="evenodd" d="M60 16v32c0 6.63-5.38 12.01-12 12.01H16C9.37 60.01 4 54.63 4 48V16C4 9.38 9.37 4 16 4h32c6.62 0 12 5.38 12 12"/>
    <path fill="#fff" d="M32 12c-11.045 0-20 8.435-20 18.839a18 18 0 0 0 2.543 9.178l-1.494 5.747-.202.776c-.4 1.535 1.136 3.034 2.765 2.698l7.477-1.54A21 21 0 0 0 32 49.679c11.046 0 20-8.435 20-18.84S43.046 12 32 12" opacity=".9"/>
    <g opacity=".9">
        <linearGradient id="b" x1=".5" x2=".5" y1="0" y2="1" gradientTransform="matrix(33.913 0 0 32.174 14.957 14.657)" gradientUnits="userSpaceOnUse">
            <stop offset="0%" style="stop-color:#16a34a"/>
            <stop offset="100%" style="stop-color:#34c640"/>
        </linearGradient>
        <path fill="url(#b)" d="M31.913 14.657c-5.374.002-10.43 2.421-13.626 6.521l14.416.685-17.705 7.821q-.04.53-.041 1.06c0 8.885 7.591 16.087 16.956 16.087 6.102-.001 11.732-3.112 14.744-8.146l-14.388-.684 16.601-7.333c-.044-8.854-7.623-16.011-16.957-16.011"/>
    </g>
</svg>
