<svg xmlns="http://www.w3.org/2000/svg" viewBox="0 0 64 64">
    <defs>
        <linearGradient id="a" x1="32" x2="32" y1="4" y2="60" gradientUnits="userSpaceOnUse">
            <stop offset="0" style="stop-opacity:.2;stop-color:#fff"/>
            <stop offset="1" style="stop-opacity:.1"/>
        </linearGradient>
    </defs>
    <path fill="#4581e1" fill-rule="evenodd" d="M31 4v30l28.999-19C60 8.929 54.623 4 48 4z"/>
    <path fill="#80b7fa" fill-rule="evenodd" d="m32.023 4-16.022-.001C9.378 4 4 8.929 4 15l28 18z"/>
    <path fill="#d1e993" fill-rule="evenodd" d="M31 30v30h16.999C54.622 60 60 54.623 60 48v-2z"/>
    <path fill="#69b356" fill-rule="evenodd" d="M59.999 14.258 32 32l27.999 15z"/>
    <path fill="#fdbc4d" fill-rule="evenodd" d="M32 30 4 45.869v2.496a11.82 11.82 0 0 0 12 11.844L32.023 60z"/>
    <path fill="#de6547" fill-rule="evenodd" d="M4.001 14.258V47L32 32z"/>
    <path fill="#2f2f2f" d="M45.402 37.794c.836.836 1.601 2.514 1.601 3.836 0 1.26-.765 2.928-1.601 3.765-.842.841-2.515 1.606-3.77 1.606-1.326 0-3.004-.765-3.841-1.606a2.5 2.5 0 0 1-.49-.625c.072.279.072.557.072.836 0 1.255-.697 2.933-1.601 3.77-.841.836-2.442 1.605-3.769 1.605s-2.933-.769-3.77-1.605c-.903-.837-1.605-2.515-1.605-3.77 0-.28 0-.557.067-.764-.207.207-.346.418-.481.552-.841.842-2.514 1.607-3.841 1.607s-2.933-.765-3.769-1.607c-.842-.837-1.606-2.504-1.606-3.765 0-1.322.764-3 1.606-3.836.139-.14.346-.351.625-.491-.279.068-.553.068-.837.068-1.255 0-2.933-.693-3.769-1.605-.832-.838-1.606-2.443-1.606-3.77 0-1.318.774-2.928 1.606-3.759.836-.914 2.514-1.61 3.769-1.61.284 0 .558 0 .769.071-.211-.211-.418-.35-.557-.49-.842-.836-1.606-2.514-1.606-3.842 0-1.254.764-2.928 1.606-3.76.836-.841 2.514-1.61 3.769-1.61 1.327 0 3 .769 3.841 1.61.135.135.342.342.481.625-.067-.283-.067-.562-.067-.836 0-1.26.702-2.933 1.605-3.769.837-.842 2.443-1.606 3.77-1.606s2.928.764 3.769 1.606c.904.836 1.601 2.509 1.601 3.769 0 .274 0 .553-.072.764.211-.211.351-.418.49-.553.837-.841 2.515-1.61 3.841-1.61 1.255 0 2.928.769 3.77 1.61.836.832 1.601 2.505 1.601 3.76 0 1.327-.765 3.005-1.601 3.841-.14.14-.351.351-.63.491.279-.072.558-.072.841-.072 1.25 0 2.928.697 3.76 1.61.841.832 1.61 2.442 1.61 3.76 0 1.327-.769 2.932-1.61 3.77-.832.912-2.51 1.605-3.76 1.605-.283 0-.562 0-.774-.068.212.213.423.351.563.492"/>
    <path d="M16 4h32c6.623 0 12 5.377 12 12v32c0 6.623-5.377 12-12 12H16C9.377 60 4 54.623 4 48V16C4 9.377 9.377 4 16 4" style="fill:url(#a)"/>
    <path fill="#fff" d="M37.219 34.146h6.422c.576.64 1.359.999 2.293.999 1.709 0 3.066-1.432 3.066-3.15 0-1.708-1.357-3.14-3.066-3.14-.934 0-1.717.434-2.293.999h-6.422l4.567-4.566h.073c1.714 0 3.071-1.432 3.071-3.15a3.05 3.05 0 0 0-3.071-3.066c-1.716 0-3.144 1.359-3.144 3.066v.074l-4.572 4.576v-6.431c.64-.571.999-1.358.999-2.284 0-1.717-1.426-3.076-3.139-3.076-1.718 0-3.144 1.359-3.144 3.076 0 .926.427 1.713.999 2.284v6.431l-4.573-4.576v-.074c0-1.707-1.358-3.066-3.139-3.066a3.055 3.055 0 0 0-3.076 3.066c0 1.718 1.358 3.15 3.076 3.15h.073l4.568 4.566H20.36c-.572-.565-1.359-.999-2.289-.999-1.713 0-3.071 1.432-3.071 3.14 0 1.718 1.358 3.15 3.071 3.15.93 0 1.717-.359 2.289-.999h6.427l-4.568 4.566h-.073c-1.718 0-3.076 1.359-3.076 3.145a3.05 3.05 0 0 0 3.076 3.071c1.712 0 3.139-1.359 3.139-3.071v-.069l4.573-4.576v6.432c-.64.57-.999 1.357-.999 2.283 0 1.717 1.426 3.076 3.144 3.076 1.713 0 3.139-1.359 3.139-3.076 0-.926-.422-1.713-.999-2.283v-6.432l4.572 4.576v.069c0 1.712 1.358 3.071 3.144 3.071a3.05 3.05 0 0 0 3.071-3.071c0-1.786-1.357-3.145-3.071-3.145h-.073z"/>
</svg>
