<svg xmlns="http://www.w3.org/2000/svg" viewBox="0 0 64 64">
    <defs>
        <linearGradient id="b" x1="8.229" x2="8.229" y1="3.516" y2="13.525" gradientTransform="translate(-.368 -.368)scale(1.0435)" gradientUnits="userSpaceOnUse">
            <stop offset="0" stop-color="#f095cf"/>
            <stop offset="1" stop-color="#ec5d8a"/>
        </linearGradient>
        <linearGradient id="c" x1="8.466" x2="3.175" y1="9.26" y2="9.26" gradientUnits="userSpaceOnUse">
            <stop offset="0"/>
            <stop offset="1" stop-opacity="0"/>
        </linearGradient>
        <linearGradient id="a" x1="16" x2="16" y1="30" y2="2" gradientTransform="scale(2)" gradientUnits="userSpaceOnUse">
            <stop offset="0" style="stop-color:#272727"/>
            <stop offset="1" style="stop-color:#5d5d5d"/>
        </linearGradient>
    </defs>
    <rect width="56" height="56" x="4" y="4" rx="12" style="stroke-width:2;fill:url(#a)"/>
    <g transform="translate(.003 .001)scale(3.77923)">
        <rect width="12.7" height="12.7" x="2.117" y="2.117" fill="url(#b)" rx="2.117" ry="2.117"/>
        <path fill="#f5f5f5" d="M11.575 6.35a.066.066 0 0 0-.066.066v.397c0 .037.03.066.066.066h.132c.037 0 .066-.03.066-.066v-.397a.066.066 0 0 0-.066-.066zm-1.243.515a.07.07 0 0 0-.047.02l-.094.093a.066.066 0 0 0 0 .093l.28.28a.066.066 0 0 0 .094 0l.094-.093a.066.066 0 0 0 0-.093l-.28-.28a.07.07 0 0 0-.047-.02m2.618 0a.07.07 0 0 0-.046.02l-.28.28a.066.066 0 0 0 0 .093l.093.094a.066.066 0 0 0 .094 0l.28-.28a.066.066 0 0 0 0-.094l-.093-.094a.07.07 0 0 0-.047-.019zm-1.309.543a.926.926 0 1 0 0 1.852.926.926 0 0 0 0-1.852m-1.918.794a.066.066 0 0 0-.066.066V8.4c0 .037.03.067.066.067h.397c.036 0 .066-.03.066-.067v-.132a.066.066 0 0 0-.066-.066zm3.44 0a.066.066 0 0 0-.067.066V8.4c0 .037.03.067.066.067h.397c.037 0 .066-.03.066-.067v-.132a.066.066 0 0 0-.066-.066zm-2.644 1.095a.07.07 0 0 0-.047.02l-.28.28a.066.066 0 0 0 0 .094l.093.093a.066.066 0 0 0 .093 0l.28-.28a.066.066 0 0 0 0-.094l-.093-.093a.07.07 0 0 0-.046-.02m2.244 0a.07.07 0 0 0-.046.02l-.094.093a.066.066 0 0 0 0 .094l.28.28a.066.066 0 0 0 .095 0l.093-.093a.066.066 0 0 0 0-.094l-.28-.28a.07.07 0 0 0-.048-.02m-1.188.492a.066.066 0 0 0-.066.067v.396c0 .037.03.067.066.067h.132c.037 0 .066-.03.066-.067v-.396a.066.066 0 0 0-.066-.067z" color="#000" overflow="visible" style="isolation:auto;mix-blend-mode:normal"/>
        <path fill="url(#c)" d="M8.466 2.117v12.7h-4.14a2.204 2.204 0 0 1-2.21-2.209V4.325c0-1.223.986-2.208 2.21-2.208z" opacity=".15"/>
        <path fill="#f5f5f5" d="M5.414 6.35A1.984 1.984 0 0 0 3.44 8.334a1.984 1.984 0 0 0 1.984 1.984 2 2 0 0 0 1.014-.279 2 2 0 0 1-.22.015 1.72 1.72 0 0 1-1.72-1.72 1.72 1.72 0 0 1 1.72-1.72 2 2 0 0 1 .22.015 2 2 0 0 0-1.014-.28h-.01z"/>
    </g>
</svg>
