<svg xmlns="http://www.w3.org/2000/svg" xmlns:xlink="http://www.w3.org/1999/xlink" viewBox="0 0 64 64">
    <defs>
        <linearGradient xlink:href="#a" id="b" x1="16" x2="16" y1="30" y2="2" gradientTransform="scale(2)" gradientUnits="userSpaceOnUse"/>
        <linearGradient id="a">
            <stop offset="0" style="stop-color:#0091f9"/>
            <stop offset="1" style="stop-color:#41bbff"/>
        </linearGradient>
    </defs>
    <rect width="56" height="56" x="4" y="4" rx="12" style="fill:url(#b);stroke-width:2"/>
    <rect width="42" height="7" x="11" y="11" rx="2" style="opacity:.5;fill:#fff;stroke-width:8;stroke-linecap:round;stroke-linejoin:round"/>
    <rect width="16" height="3" x="24" y="13" rx="1.5" style="fill:#fff;stroke-width:4;stroke-linecap:round;stroke-linejoin:round"/>
    <path d="M13 22c-1.108 0-2 .892-2 2v4c0 1.108.892 2 2 2h4c1.108 0 2-.892 2-2v-4c0-1.108-.892-2-2-2zm0 12c-1.108 0-2 .892-2 2v4c0 1.108.892 2 2 2h4c1.108 0 2-.892 2-2v-4c0-1.108-.892-2-2-2z" style="fill:#fff;stroke-width:4;stroke-linecap:round;stroke-linejoin:round"/>
</svg>
