<svg xmlns="http://www.w3.org/2000/svg" xmlns:xlink="http://www.w3.org/1999/xlink" width="64" height="64" viewBox="0 0 64 64">
    <defs>
        <linearGradient id="a">
            <stop offset="0" style="stop-color:#eaebed;stop-opacity:1"/>
            <stop offset="1" style="stop-color:#f9fafa;stop-opacity:1"/>
        </linearGradient>
        <linearGradient xlink:href="#a" id="d" x1="16" x2="16" y1="30" y2="2" gradientTransform="scale(2)" gradientUnits="userSpaceOnUse"/>
        <linearGradient xlink:href="#b" id="e" x1="3.704" x2="8.996" y1="5.159" y2="5.159" gradientUnits="userSpaceOnUse"/>
        <linearGradient id="b">
            <stop offset="0" style="stop-color:#db3328;stop-opacity:1"/>
            <stop offset="1" style="stop-color:#e53d30;stop-opacity:1"/>
        </linearGradient>
        <linearGradient xlink:href="#c" id="f" x1="4.402" x2="5.99" y1="4.299" y2="7.474" gradientUnits="userSpaceOnUse"/>
        <linearGradient id="c">
            <stop offset="0" style="stop-color:#32a651;stop-opacity:1"/>
            <stop offset="1" style="stop-color:#279847;stop-opacity:1"/>
        </linearGradient>
    </defs>
    <rect width="56" height="56" x="4" y="4" rx="12" style="fill:url(#d);stroke-width:2"/>
    <path d="M6.35 1.852a4.5 4.5 0 0 0-3.895 2.25l.147 2.623 1.8.75L6.35 6.35V4.101h3.895A4.5 4.5 0 0 0 6.35 1.852" style="fill:url(#e);fill-opacity:1;stroke-width:.0175699" transform="translate(3.765 3.765)scale(4.4465)"/>
    <path d="M1.852 6.35a4.5 4.5 0 0 0 4.498 4.498l1.973-1.055-.025-2.319L6.35 6.35 4.402 7.474 2.455 4.102a4.5 4.5 0 0 0-.603 2.248" style="fill:url(#f);fill-opacity:1;stroke-width:.0175699" transform="translate(3.765 3.765)scale(4.4465)"/>
    <path d="m6.35 6.35 1.948 1.124-1.948 3.374A4.498 4.498 0 0 0 10.245 4.1H6.35Z" style="fill:#fbbf12;stroke-width:.0175699" transform="translate(3.765 3.765)scale(4.4465)"/>
    <path d="M8.599 6.35a2.249 2.249 0 1 1-4.498 0 2.249 2.249 0 0 1 4.498 0" style="fill:#fff;stroke-width:.0175699" transform="translate(3.765 3.765)scale(4.4465)"/>
    <path d="M8.15 6.35a1.8 1.8 0 1 1-3.6 0 1.8 1.8 0 0 1 3.6 0" style="fill:#4688f4;fill-opacity:1;stroke-width:.0172995" transform="translate(3.765 3.765)scale(4.4465)"/>
    <path d="M12.946 38a20 20 0 0 0 19.055 14 20 20 0 0 0 19.054-14Z" style="fill:#414342;fill-opacity:1;stroke-width:2;stroke-linecap:round;stroke-linejoin:round"/>
    <path d="M22.625 40v7.041h2.666q.56 0 1.042-.254.492-.254.778-.706.297-.462.298-1.033 0-.58-.336-1.013a1.8 1.8 0 0 0-.865-.61v-.039q.442-.207.696-.59.266-.386.265-.899.001-.538-.274-.97a1.93 1.93 0 0 0-.75-.682 2.1 2.1 0 0 0-.989-.245Zm11.715.61v1.417h-.874v.759h.874v2.94q.001.354.1.6a1.2 1.2 0 0 0 .726.696q.266.1.572.101.235 0 .384-.029.159-.031.307-.1v-.817a1.03 1.03 0 0 1-.552.168q-.355 0-.543-.216-.158-.197-.158-.61v-2.733h1.22v-.76h-1.22V40.61zm-10.889.187h1.744q.345 0 .6.168.266.168.403.433.147.254.145.518.002.277-.145.543-.147.255-.422.423a1.14 1.14 0 0 1-.62.168h-1.705zm7.133 1.071q-.727.001-1.278.365a2.47 2.47 0 0 0-.855.976q-.297.608-.298 1.335.001.758.317 1.369a2.42 2.42 0 0 0 2.181 1.287q.788-.001 1.34-.355c.374-.237.667-.554.884-.961l-.706-.346q-.521.904-1.484.903-.414 0-.798-.197a1.6 1.6 0 0 1-.62-.586q-.246-.394-.278-.965h3.968a1 1 0 0 0 .028-.255q0-.748-.297-1.33a2.1 2.1 0 0 0-.827-.903q-.54-.336-1.277-.337m8.597 0q-.63 0-1.152.255c-.341.17-.61.41-.807.71l.634.472a1.37 1.37 0 0 1 .557-.5q.354-.187.778-.187.6-.002.994.34.394.337.394.899v.303a2.2 2.2 0 0 0-.6-.226 3.4 3.4 0 0 0-.836-.096q-.916 0-1.518.451-.6.442-.6 1.24c0 .32.083.608.24.864q.236.375.668.59.433.217.984.217.54 0 .97-.255.436-.255.654-.62h.038v.716h.798v-3.174q0-.925-.591-1.456-.58-.541-1.605-.543m-8.607.76q.511 0 .846.215.345.216.504.529c.105.21.16.424.173.634h-3.06q.128-.62.533-.994.413-.385 1.004-.385m-7.123 1.21h1.85q.372 0 .657.177c.19.112.342.262.447.452q.156.276.154.572.001.293-.154.576a1.2 1.2 0 0 1-1.066.63H23.45zm15.817.677q.385.001.73.1.345.098.581.255 0 .433-.216.798a1.63 1.63 0 0 1-.581.576 1.5 1.5 0 0 1-.788.221q-.482-.002-.797-.26a.82.82 0 0 1-.312-.667q-.002-.454.34-.74.355-.284 1.043-.283" style="font-size:4px;font-family:&quot;Google Sans&quot;;-inkscape-font-specification:&quot;Google Sans&quot;;text-align:center;text-anchor:middle;fill:#fff;stroke-width:.375516;stroke-linecap:round;stroke-linejoin:round"/>
</svg>
