<svg xmlns="http://www.w3.org/2000/svg" viewBox="0 0 64 64">
    <defs>
        <linearGradient id="a" x1="32" x2="32" y1="12" y2="60" gradientUnits="userSpaceOnUse">
            <stop offset="0" style="stop-color:#fff"/>
            <stop offset="1" style="stop-color:#eee"/>
        </linearGradient>
    </defs>
    <rect width="56" height="56" x="4" y="4" rx="12" ry="12" style="fill:#99c1f1"/>
    <g style="filter:none">
        <rect width="56" height="48" x="4" y="12" rx="12" ry="12" style="fill:url(#a)"/>
        <path fill="#99c1f1" d="M47.584 36.422h-7.09c-1.366 0-2.474 1.131-2.474 2.524v7.228c0 1.392 1.108 2.523 2.474 2.523h7.09c1.366 0 2.475-1.131 2.475-2.523v-7.228c0-1.393-1.109-2.524-2.475-2.524m0 0" style="stroke-width:1.131" transform="translate(.523 .05)"/>
        <path fill="#62a0ea" d="M47.582 36.422c1.373 0 2.477 1.126 2.477 2.524v.943c0-1.397-1.104-2.523-2.477-2.523h-7.088c-1.371 0-2.474 1.126-2.474 2.523v-.943c0-1.398 1.103-2.524 2.474-2.524zm0 0" style="stroke-width:1.131" transform="translate(.523 .05)"/>
        <path fill="#1c71d8" d="M50.522 36.365c-.369 0-.722.15-.983.416l-5.5 5.607-1.796-1.831a1.37 1.37 0 0 0-1.963 0 1.434 1.434 0 0 0 0 2.002l2.777 2.833a1.37 1.37 0 0 0 1.965 0l6.482-6.609a1.434 1.434 0 0 0 0-2.002 1.38 1.38 0 0 0-.982-.416m0 0" style="stroke-width:1.131" transform="translate(.523 .05)"/>
        <g fill-rule="evenodd">
            <path fill="#3584e4" d="M20.02 36.473h8.335c3.325 0 6.02 2.748 6.02 6.137s-2.695 6.137-6.02 6.137H20.02C16.696 48.747 14 46 14 42.61s2.696-6.137 6.02-6.137m0 0"/>
            <path fill="#f5f5f5" d="M32.523 42.61c0 2.346-1.867 4.25-4.168 4.25s-4.167-1.904-4.167-4.25 1.867-4.25 4.167-4.25 4.168 1.905 4.168 4.25m0 0"/>
            <path fill="#1c71d8" d="M20.02 36.473c-3.335 0-6.02 2.737-6.02 6.137q.001.238.02.472c.236-3.177 2.822-5.665 6-5.665h8.335c3.178 0 5.765 2.488 6 5.665a6 6 0 0 0 .02-.472c0-3.4-2.684-6.137-6.02-6.137zm0 0"/>
            <path fill="#d1d1d1" d="M15.853 25.615h33.34c1.024 0 1.852.844 1.852 1.888s-.828 1.888-1.852 1.888h-33.34c-1.024 0-1.852-.844-1.852-1.888s.828-1.888 1.852-1.888m0 0"/>
            <path fill="#767676" d="M15.853 25.615h17.596c1.024 0 1.852.844 1.852 1.888s-.828 1.888-1.852 1.888H15.853c-1.024 0-1.852-.844-1.852-1.888s.828-1.888 1.852-1.888m0 0"/>
            <path fill="#ababab" d="M35.764 23.254c2.046 0 3.705 1.69 3.705 3.776v1.416c0 2.086-1.659 3.777-3.705 3.777s-3.704-1.69-3.704-3.776V27.03c0-2.086 1.658-3.777 3.704-3.777m0 0"/>
            <path fill="silver" d="M39.469 27.03c0 2.086-1.659 3.777-3.705 3.777s-3.704-1.69-3.704-3.776 1.658-3.777 3.704-3.777 3.705 1.69 3.705 3.776m0 0"/>
        </g>
    </g>
</svg>
