<svg xmlns="http://www.w3.org/2000/svg" xmlns:xlink="http://www.w3.org/1999/xlink" viewBox="0 0 64 64">
    <defs>
        <linearGradient xlink:href="#a" id="f" x1="16" x2="16" y1="30" y2="2" gradientTransform="scale(2)" gradientUnits="userSpaceOnUse"/>
        <linearGradient id="a">
            <stop offset="0" style="stop-color:#272727"/>
            <stop offset="1" style="stop-color:#5d5d5d"/>
        </linearGradient>
        <linearGradient xlink:href="#b" id="g" x1="12" x2="7.5" y1="13" y2="4" gradientTransform="matrix(3.77778 0 0 3.8 3.667 1.6)" gradientUnits="userSpaceOnUse"/>
        <linearGradient id="b">
            <stop offset="0" style="stop-color:#e7e7e7"/>
            <stop offset="1" style="stop-color:#fff"/>
        </linearGradient>
        <linearGradient xlink:href="#c" id="h" x1="4" x2="7" y1="8.25" y2="11.723" gradientTransform="translate(-1.667 -6.334)scale(4.66667)" gradientUnits="userSpaceOnUse"/>
        <linearGradient id="c">
            <stop offset="0" style="stop-color:#fb6363"/>
            <stop offset="1" style="stop-color:#fb9f63"/>
        </linearGradient>
        <linearGradient xlink:href="#d" id="i" x1="8" x2="11" y1="9.987" y2="10" gradientTransform="translate(-4.333 -6.334)scale(4.66667)" gradientUnits="userSpaceOnUse"/>
        <linearGradient id="d">
            <stop offset="0" style="stop-color:#6bcc3b"/>
            <stop offset="1" style="stop-color:#abcc3b"/>
        </linearGradient>
        <linearGradient xlink:href="#e" id="j" x1="6" x2="7.5" y1="4.875" y2="7.5" gradientTransform="matrix(4.33333 0 0 4.28571 -.5 -2.144)" gradientUnits="userSpaceOnUse"/>
        <linearGradient id="e">
            <stop offset="0" style="stop-color:#355afb"/>
            <stop offset="1" style="stop-color:#63b7fb"/>
        </linearGradient>
    </defs>
    <rect width="56" height="56" x="4" y="4" rx="12" style="fill:url(#f);stroke-width:2"/>
    <path d="M31.48 13.044a3.091 3.166 0 0 0-.983.359l-13.91 7.91A3.091 3.166 0 0 0 15 24.086V39.92a3.091 3.166 0 0 0 1.588 2.77l13.909 7.91a3.091 3.166 0 0 0 3.006 0l13.91-7.91A3.091 3.166 0 0 0 49 39.919V24.085a3.091 3.166 0 0 0-1.588-2.771l-13.909-7.911a3.091 3.166 0 0 0-2.022-.359" style="color:#000;fill:url(#g);fill-opacity:1;stroke-width:6.25664;stroke-linecap:round;stroke-linejoin:round"/>
    <path d="M17 24v16.333l14 8.038V32.167Z" style="fill:url(#h);fill-opacity:1;stroke-width:9.33332;stroke-linecap:round;stroke-linejoin:round"/>
    <path d="m47 24-14 8.167v16.205l14-8.039z" style="fill:url(#i);fill-opacity:1;stroke-width:9.33334;stroke-linecap:round;stroke-linejoin:round"/>
    <path d="m32 15-13 7.5L32 30l13-7.5Z" style="fill:url(#j);fill-opacity:1;stroke-width:8.61894;stroke-linecap:round;stroke-linejoin:round"/>
</svg>
