<svg xmlns="http://www.w3.org/2000/svg" xmlns:xlink="http://www.w3.org/1999/xlink" viewBox="0 0 64 64">
    <defs>
        <linearGradient xlink:href="#a" id="c" x1="16" x2="16" y1="30" y2="2" gradientTransform="scale(2)" gradientUnits="userSpaceOnUse"/>
        <linearGradient xlink:href="#b" id="d" x1="37" x2="9" y1="37" y2="9" gradientTransform="translate(9.59 9.59)scale(.26786)" gradientUnits="userSpaceOnUse"/>
        <linearGradient id="b">
            <stop offset="0" style="stop-color:#96d36f"/>
            <stop offset="1" style="stop-color:#85ca73"/>
        </linearGradient>
        <linearGradient id="a">
            <stop offset="0" style="stop-color:#0c8f61"/>
            <stop offset="1" style="stop-color:#3bb298"/>
        </linearGradient>
    </defs>
    <rect width="56" height="56" x="4" y="4" rx="12" style="fill:url(#c);stroke-width:2"/>
    <rect width="30" height="30" x="30.962" y="-14.293" rx="4" style="opacity:.2;fill:#000;stroke-width:1.07143" transform="rotate(45)"/>
    <g transform="rotate(45 84.92 10.08)scale(4)">
        <rect width="7.5" height="7.5" x="12" y="12" rx="1" style="fill:url(#d);fill-opacity:1;stroke-width:.267857"/>
        <path d="M13 13c-.554 0-1 .446-1 1v.5c0-.554.446-1 1-1h5.5c.554 0 1 .446 1 1V14c0-.554-.446-1-1-1z" style="opacity:.6;fill:#fff;fill-opacity:1;stroke-width:.5"/>
        <path d="M13 16c-.277 0-.5.223-.5.5v.5c0-.277.223-.5.5-.5h2c.277 0 .5.223.5.5v-.5c0-.277-.223-.5-.5-.5Zm0 .75c-.277 0-.5.223-.5.5v1.25c0 .277.223.5.5.5h2c.277 0 .5-.223.5-.5v-1.25c0-.277-.223-.5-.5-.5zm3.5-.75c-.277 0-.5.223-.5.5v.5c0-.277.223-.5.5-.5h2c.277 0 .5.223.5.5v-.5c0-.277-.223-.5-.5-.5Zm0 .75c-.277 0-.5.223-.5.5v1.25c0 .277.223.5.5.5h2c.277 0 .5-.223.5-.5v-1.25c0-.277-.223-.5-.5-.5z" style="opacity:.6;fill:#fff;stroke-width:.5"/>
        <path d="M12.75 17v.75h1.125V17Zm1.375 0v.75h1.125V17Zm-1.375 1v.75h1.125V18Zm1.375 0v.75h1.125V18Z" style="fill:#4a4a4a;fill-opacity:1;stroke-width:.216506"/>
    </g>
</svg>
