<svg xmlns="http://www.w3.org/2000/svg" width="64" height="64" viewBox="0 0 16.933 16.933">
    <defs>
        <linearGradient id="a" x1="37.737" x2="37.737" y1="62.067" y2="39.79" gradientTransform="translate(-28 -40.225)" gradientUnits="userSpaceOnUse">
            <stop offset="0" stop-color="#089"/>
            <stop offset="1" stop-color="#6f6"/>
        </linearGradient>
        <linearGradient id="b" x1="8.202" x2="8.202" y1="4.233" y2="12.7" gradientUnits="userSpaceOnUse">
            <stop offset="0" stop-color="#f5f5f5"/>
            <stop offset="1" stop-color="#c0f6cc"/>
        </linearGradient>
    </defs>
    <rect width="14.816" height="14.816" x="1.058" y="1.058" fill="url(#a)" rx="3.44"/>
    <path fill="url(#b)" d="M8.149 3.704a.635.635 0 1 0 0 1.27s.118-.006.394.086c.277.093.66.28 1.062.68.401.402.588.785.68 1.062s.086.395.086.395a.635.635 0 1 0 1.27 0s-.006-.36-.151-.797a4 4 0 0 0-.987-1.557 4 4 0 0 0-1.558-.987c-.437-.146-.796-.152-.796-.152m-.635 1.588s-.359.006-.796.152a4 4 0 0 0-1.558.986 4 4 0 0 0-.986 1.558c-.146.437-.152.796-.152.796a.635.635 0 1 0 1.27 0s-.006-.117.086-.394a2.7 2.7 0 0 1 .68-1.062 2.7 2.7 0 0 1 1.062-.68c.277-.092.394-.086.394-.086a.635.635 0 1 0 0-1.27m4.753 2.214a.635.635 0 0 0-.626.643s.007.118-.086.395a2.7 2.7 0 0 1-.68 1.061 2.7 2.7 0 0 1-1.062.68c-.276.093-.394.087-.394.087a.635.635 0 1 0 0 1.27s.359-.007.796-.152a4 4 0 0 0 1.558-.987c.551-.551.84-1.12.986-1.558s.152-.796.152-.796a.635.635 0 0 0-.644-.643m-6.35 1.587a.635.635 0 0 0-.625.644s.006.358.152.796c.145.437.435 1.006.986 1.558.551.55 1.12.84 1.558.986s.796.152.796.152a.635.635 0 1 0 0-1.27s-.117.006-.394-.086a2.7 2.7 0 0 1-1.062-.68 2.7 2.7 0 0 1-.68-1.062c-.092-.277-.086-.394-.086-.394a.635.635 0 0 0-.645-.644"/>
</svg>
