<svg xmlns="http://www.w3.org/2000/svg" viewBox="0 0 64 64">
    <defs>
        <linearGradient id="a" x1="37.737" x2="37.737" y1="62.067" y2="39.79" gradientTransform="translate(-105.829 -152.034)scale(3.7796)" gradientUnits="userSpaceOnUse">
            <stop offset="0" stop-color="#089"/>
            <stop offset="1" stop-color="#6f6"/>
        </linearGradient>
        <linearGradient id="b" x1="8.202" x2="8.202" y1="4.233" y2="12.7" gradientTransform="scale(3.7796)" gradientUnits="userSpaceOnUse">
            <stop offset="0" stop-color="#f5f5f5"/>
            <stop offset="1" stop-color="#c0f6cc"/>
        </linearGradient>
    </defs>
    <path fill="url(#a)" d="M17 4h29.996c7.18 0 13 5.82 13 13v29.996c0 7.18-5.82 13-13 13H17c-7.18 0-13-5.82-13-13V17C4 9.82 9.82 4 17 4m0 0"/>
    <path fill="url(#b)" d="M30.8 14a2.4 2.4 0 1 0 0 4.8s.446-.023 1.49.325c1.046.352 2.495 1.059 4.015 2.57 1.515 1.52 2.222 2.965 2.57 4.012s.324 1.496.324 1.496a2.4 2.4 0 0 0 2.399 2.399A2.4 2.4 0 0 0 44 27.203s-.023-1.363-.574-3.015a15.1 15.1 0 0 0-3.73-5.883 15.14 15.14 0 0 0-5.887-3.73C32.156 14.022 30.8 14 30.8 14m-2.403 6s-1.355.023-3.007.574a15.1 15.1 0 0 0-5.887 3.73 15.1 15.1 0 0 0-3.727 5.887c-.554 1.653-.574 3.008-.574 3.008a2.4 2.4 0 0 0 2.399 2.403A2.4 2.4 0 0 0 20 33.199s-.02-.441.328-1.488a10.2 10.2 0 0 1 2.57-4.016 10.25 10.25 0 0 1 4.012-2.57c1.047-.348 1.488-.324 1.488-.324a2.4 2.4 0 1 0 0-4.801m17.965 8.371A2.393 2.393 0 0 0 44 30.801s.023.445-.328 1.492a10.2 10.2 0 0 1-2.57 4.012 10.25 10.25 0 0 1-4.012 2.57c-1.043.352-1.488.328-1.488.328a2.4 2.4 0 1 0 0 4.8s1.355-.026 3.007-.577a15.05 15.05 0 0 0 5.887-3.73c2.082-2.083 3.176-4.231 3.727-5.887.554-1.657.574-3.008.574-3.008a2.38 2.38 0 0 0-.703-1.73 2.4 2.4 0 0 0-1.73-.7m-24 5.996A2.4 2.4 0 0 0 20 36.801s.023 1.355.574 3.008c.551 1.652 1.645 3.804 3.73 5.89 2.083 2.078 4.231 3.176 5.887 3.727 1.657.55 3.008.574 3.008.574a2.4 2.4 0 1 0 0-4.8s-.441.023-1.488-.325a10.2 10.2 0 0 1-4.016-2.57 10.3 10.3 0 0 1-2.57-4.012c-.348-1.047-.324-1.492-.324-1.492a2.38 2.38 0 0 0-.703-1.73 2.4 2.4 0 0 0-1.735-.704"/>
</svg>
