<svg xmlns="http://www.w3.org/2000/svg" viewBox="0 0 64 64">
    <defs>
        <linearGradient id="a" x1="32" x2="32" y1="4" y2="60" gradientUnits="userSpaceOnUse">
            <stop offset="0" style="stop-color:#fcd34d"/>
            <stop offset="1" style="stop-color:#f59e0b"/>
        </linearGradient>
    </defs>
    <rect width="56" height="56" x="4" y="4" rx="12" style="fill:url(#a)"/>
    <path d="M17.506 22c-1.616 0-2.626 1.75-1.819 3.15a2.1 2.1 0 0 0 1.819 1.049c11.233 0 20.295 9.06 20.295 20.296 0 1.615 1.749 2.625 3.149 1.817A2.1 2.1 0 0 0 42 46.495C42 32.99 31.008 22 17.506 22m0 9.797c-1.616 0-2.626 1.751-1.819 3.151a2.1 2.1 0 0 0 1.819 1.048c5.803-.015 10.513 4.694 10.498 10.499 0 1.615 1.748 2.625 3.147 1.817a2.1 2.1 0 0 0 1.052-1.817c0-8.092-6.606-14.698-14.697-14.698m.7 9.798c-3.233 0-5.254 3.5-3.637 6.3a4.2 4.2 0 0 0 3.637 2.099c3.231 0 5.252-3.499 3.637-6.299a4.2 4.2 0 0 0-3.637-2.1" style="fill:#fff;fill-rule:nonzero;stroke-width:1"/>
</svg>
