<svg xmlns="http://www.w3.org/2000/svg" style="fill-rule:evenodd;clip-rule:evenodd;stroke-linejoin:round;stroke-miterlimit:2" viewBox="0 0 64 64">
    <rect width="56" height="56" x="4" y="4" rx="12" style="stroke-width:2;fill:url(#a)"/>
    <defs>
        <linearGradient id="a" x1="32" x2="32" y1="4" y2="60" gradientUnits="userSpaceOnUse">
            <stop offset="0" style="stop-color:#fcd34d"/>
            <stop offset="1" style="stop-color:#fb923c"/>
        </linearGradient>
    </defs>
    <path d="M18.506 14.003c-2.077 0-3.376 2.249-2.337 4.049a2.7 2.7 0 0 0 2.337 1.35c14.443 0 26.095 11.65 26.095 26.095 0 2.078 2.25 3.376 4.049 2.337A2.7 2.7 0 0 0 50 45.497c0-17.362-14.133-31.494-31.494-31.494m0 12.597c-2.077 0-3.376 2.249-2.337 4.049a2.7 2.7 0 0 0 2.337 1.35 13.46 13.46 0 0 1 13.498 13.498c0 2.078 2.25 3.376 4.049 2.337a2.7 2.7 0 0 0 1.35-2.337c0-10.404-8.494-18.897-18.897-18.897m.9 12.598c-4.155 0-6.752 4.499-4.675 8.099a5.4 5.4 0 0 0 4.676 2.699c4.156 0 6.754-4.499 4.676-8.099a5.4 5.4 0 0 0-4.677-2.699" style="fill:#fff;fill-rule:nonzero;stroke-width:1"/>
</svg>
