<svg xmlns="http://www.w3.org/2000/svg" image-rendering="optimizeSpeed" viewBox="0 0 64 64">
    <defs>
        <linearGradient id="c" x1="29.532" x2="29.532" y1="15.029" y2="49.05" gradientTransform="translate(.126 .666)scale(.99727)" gradientUnits="userSpaceOnUse">
            <stop offset="0" stop-color="#45ca7e"/>
            <stop offset="1" stop-color="#309c3a"/>
        </linearGradient>
        <linearGradient id="a" x1="32" x2="32" y1="4" y2="60" gradientTransform="translate(0 .001)" gradientUnits="userSpaceOnUse">
            <stop offset="0" style="stop-color:#f3f4f6"/>
            <stop offset="1" style="stop-color:#e5e7eb"/>
        </linearGradient>
    </defs>
    <rect width="56" height="56" x="4" y="4" rx="12" style="stroke-width:1;fill:url(#a)"/>
    <path fill="url(#c)" d="M32 13a19 19 0 0 0-19 19 19 19 0 0 0 2.284 8.995l-.035-.028c.958 2.25.888 2.863.737 4.742-.105 1.31-.46 2.647-.904 3.4-.402.681-.725 1.386-.725 1.565 0 .555 3.202.36 6.037-.366 3.152-.807 3.597-.89 5.959-.169l.073.024.301.09-.026-.02A19 19 0 0 0 32 51a19 19 0 0 0 19-19 19 19 0 0 0-19-19"/>
    <path fill="#f5f5f5" d="M39.126 40.368c1.424-.68 2.087-1.534 2.315-2.983.174-1.105.094-1.388-2.073-2.431-2.755-1.327-2.585-1.333-3.772.14-.739.918-1.056 1.215-1.296 1.215-2.807-.759-5.664-2.952-6.573-5.831 0-.123.299-.574.664-1.003 1.074-1.258 1.075-1.29.138-3.6-1.08-2.659-1.445-2.64-2.62-2.69-1.204-.049-1.585.142-2.346 1.18-.788 1.075-1.07 1.939-1.063 3.265.009 1.683.56 3.034 2.158 5.283 2.742 3.86 5.418 5.956 9.272 7.261 2.357.799 3.816.853 5.196.194"/>
</svg>
