<svg xmlns="http://www.w3.org/2000/svg" xml:space="preserve" style="fill-rule:evenodd;clip-rule:evenodd;stroke-linejoin:round;stroke-miterlimit:2" viewBox="0 0 86 86">
    <path d="M80 64V21.333c0-8.83-7.169-16-16-16H21.333c-8.83 0-16 7.17-16 16V64c0 8.831 7.17 16 16 16H64c8.831 0 16-7.169 16-16" style="fill:url(#a)"/>
    <path d="M42.667 16C27.939 16 16 27.939 16 42.667s11.939 26.666 26.667 26.666 26.666-11.938 26.666-26.666S57.395 16 42.667 16m-8.183 13.336c.436-.016.893.081 1.32.323l18.855 10.664c1.789 1.01 1.789 3.674 0 4.685L35.805 55.672c-1.712.965-3.802-.32-3.805-2.341V32c.003-1.516 1.176-2.616 2.484-2.664" style="fill:#fff;fill-rule:nonzero"/>
    <defs>
        <linearGradient id="a" x1="0" x2="1" y1="0" y2="0" gradientTransform="matrix(0 74.66667 74.66667 0 42.667 5.333)" gradientUnits="userSpaceOnUse">
            <stop offset="0" style="stop-color:#38c4f2;stop-opacity:1"/>
            <stop offset="1" style="stop-color:#1872f6;stop-opacity:1"/>
        </linearGradient>
    </defs>
</svg>
