<svg xmlns="http://www.w3.org/2000/svg" viewBox="0 0 64 64">
    <defs>
        <linearGradient id="a" x1="37.737" x2="37.737" y1="62.067" y2="39.79" gradientTransform="translate(-105.83 -152.037)scale(3.7797)" gradientUnits="userSpaceOnUse">
            <stop offset="0" stop-color="#089"/>
            <stop offset="1" stop-color="#6f6"/>
        </linearGradient>
        <linearGradient id="b" x1="8.202" x2="8.202" y1="4.233" y2="12.7" gradientTransform="translate(-.001)scale(3.7797)" gradientUnits="userSpaceOnUse">
            <stop offset="0" stop-color="#fff"/>
            <stop offset="1" stop-color="#c0f6cc"/>
        </linearGradient>
    </defs>
    <rect width="56" height="56" x="4" y="4" fill="url(#a)" rx="12" ry="12" style="stroke-width:3.78"/>
    <path fill="url(#b)" d="M30.8 13.999c-1.848 0-3.003 2-2.079 3.6a2.4 2.4 0 0 0 2.079 1.2s.446-.022 1.489.325c1.047.352 2.495 1.059 4.014 2.571 1.516 1.519 2.223 2.967 2.57 4.014.352 1.047.325 1.493.325 1.493 0 1.847 2 3.002 3.6 2.078a2.4 2.4 0 0 0 1.201-2.078s-.023-1.361-.571-3.013a15.2 15.2 0 0 0-3.731-5.885 15.16 15.16 0 0 0-5.889-3.73c-1.651-.552-3.008-.575-3.008-.575m-2.4 6.002s-1.357.023-3.009.575a15.16 15.16 0 0 0-5.889 3.727 15.2 15.2 0 0 0-3.726 5.888c-.552 1.652-.575 3.009-.575 3.009 0 1.848 2 3.002 3.6 2.078a2.4 2.4 0 0 0 1.2-2.078s-.022-.442.325-1.489a10.24 10.24 0 0 1 2.57-4.014 10.24 10.24 0 0 1 4.015-2.57c1.046-.348 1.489-.326 1.489-.326 1.847 0 3.002-2 2.078-3.6a2.4 2.4 0 0 0-2.078-1.2m17.965 8.368a2.4 2.4 0 0 0-2.366 2.431s.026.446-.326 1.493a10.2 10.2 0 0 1-2.57 4.01 10.24 10.24 0 0 1-4.014 2.57c-1.043.352-1.489.329-1.489.329-1.848 0-3.002 2-2.079 3.6a2.4 2.4 0 0 0 2.079 1.2s1.357-.026 3.009-.574a15.2 15.2 0 0 0 5.888-3.731c2.083-2.082 3.175-4.233 3.727-5.889.552-1.651.575-3.008.575-3.008a2.4 2.4 0 0 0-2.434-2.431m-24.001 5.999a2.4 2.4 0 0 0-2.363 2.434s.023 1.353.575 3.009c.548 1.651 1.644 3.802 3.727 5.888 2.082 2.079 4.233 3.175 5.888 3.727 1.652.552 3.009.575 3.009.575 1.848 0 3.002-2 2.078-3.6A2.4 2.4 0 0 0 33.2 45.2s-.442.023-1.489-.325a10.2 10.2 0 0 1-4.014-2.57 10.2 10.2 0 0 1-2.57-4.014c-.348-1.047-.326-1.489-.326-1.489a2.4 2.4 0 0 0-2.437-2.434" style="stroke-width:3.78"/>
</svg>
