<svg xmlns="http://www.w3.org/2000/svg" viewBox="0 0 64 64">
    <defs>
        <linearGradient id="c" x1="30" x2="30" y1="13" y2="50" gradientUnits="userSpaceOnUse">
            <stop offset="0" stop-color="#ff6033"/>
            <stop offset="1" stop-color="#f51414"/>
        </linearGradient>
        <linearGradient id="d" x1="33" x2="33" y1="43" y2="26" gradientUnits="userSpaceOnUse">
            <stop offset="0" stop-color="#1371c3"/>
            <stop offset="1" stop-color="#33c4ff"/>
        </linearGradient>
        <linearGradient id="a" x1="32" x2="32" y1="4" y2="60" gradientTransform="translate(0 .001)" gradientUnits="userSpaceOnUse">
            <stop offset="0" style="stop-color:#f3f4f6"/>
            <stop offset="1" style="stop-color:#e5e7eb"/>
        </linearGradient>
    </defs>
    <rect width="56" height="56" x="4" y="4" rx="12" style="stroke-width:1;fill:url(#a)"/>
    <path fill="url(#c)" d="M14.75 12C13.226 12 12 13.275 12 14.857v30C12 49.143 17.5 52 20.25 52H23V14.857C23 13.274 21.774 12 20.25 12zm14.092 0C27.267 12 26 13.226 26 14.75v5.5c0 1.524 1.267 2.75 2.842 2.75h17.053C50.158 23 53 17.5 53 14.75V12z" transform="matrix(.95 0 0 .95 1.125 1.6)"/>
    <path fill="url(#d)" d="M27.321 26A1.291 1.141 0 0 0 26 27.143V41.86a1.291 1.141 0 0 0 1.936.987l14.419-7.36a1.291 1.141 0 0 0 0-1.975l-14.42-7.36a1.291 1.141 0 0 0-.614-.153z" transform="matrix(.95 0 0 .95 1.125 1.6)"/>
</svg>
