<svg xmlns="http://www.w3.org/2000/svg" xmlns:xlink="http://www.w3.org/1999/xlink" viewBox="0 0 64 64">
    <defs>
        <linearGradient id="e" x1="7.937" x2="7.937" y1="15.081" y2="1.852" gradientTransform="scale(3.7796)" gradientUnits="userSpaceOnUse">
            <stop offset="0" stop-color="#767574"/>
            <stop offset="1" stop-color="#d1e7ee"/>
        </linearGradient>
        <linearGradient id="f" x1="8.229" x2="8.229" y1="3.516" y2="13.525" gradientTransform="translate(-1.39 -1.39)scale(3.94401)" gradientUnits="userSpaceOnUse">
            <stop offset="0" stop-color="#f095cf"/>
            <stop offset="1" stop-color="#ec5d8a"/>
        </linearGradient>
        <linearGradient id="c" x1="48.625" x2="14.693" y1="34.754" y2="29.004" gradientUnits="userSpaceOnUse">
            <stop offset="0" stop-color="#e32b68"/>
            <stop offset="1" stop-color="#eb5184" stop-opacity="0"/>
        </linearGradient>
        <linearGradient id="i" x1="-10.502" x2="-10.507" y1="9.693" y2="10.175" gradientTransform="rotate(255.75)scale(3.7796)" gradientUnits="userSpaceOnUse">
            <stop offset="0" stop-color="#161616"/>
            <stop offset=".507" stop-color="#554251"/>
            <stop offset="1" stop-color="#302f2f"/>
        </linearGradient>
        <linearGradient id="j" x1="-11.36" x2="-8.974" y1="9.948" y2="9.948" gradientTransform="rotate(255.75)scale(3.7796)" gradientUnits="userSpaceOnUse">
            <stop offset="0" stop-color="#161616"/>
            <stop offset=".041" stop-color="#272727"/>
            <stop offset=".961" stop-color="#3c3c3c"/>
            <stop offset="1" stop-color="#2a2a2a"/>
        </linearGradient>
        <linearGradient id="k" x1="8.463" x2="12.084" y1="2.164" y2="7.365" gradientTransform="scale(3.7796)" gradientUnits="userSpaceOnUse">
            <stop offset="0" stop-color="#2a2a2a"/>
            <stop offset=".129" stop-color="#393939"/>
            <stop offset=".169" stop-color="#604c59"/>
            <stop offset=".578" stop-color="#4b3f46"/>
            <stop offset=".632" stop-color="#242224"/>
            <stop offset=".684" stop-color="#5e425a"/>
            <stop offset="1" stop-color="#2e2a2e"/>
        </linearGradient>
        <clipPath id="b">
            <path d="M0 0h64v64H0z"/>
        </clipPath>
        <clipPath id="d">
            <path d="M0 0h64v64H0z"/>
        </clipPath>
        <mask id="g">
            <g filter="url(#a)">
                <path fill-opacity=".35" d="M-6.4-6.4h76.8v76.8H-6.4z"/>
            </g>
        </mask>
        <mask id="l">
            <g filter="url(#a)">
                <path fill-opacity=".35" d="M-6.4-6.4h76.8v76.8H-6.4z"/>
            </g>
        </mask>
        <g id="h" clip-path="url(#b)">
            <path fill="url(#c)" d="M11.633 11.07A7.97 7.97 0 0 0 9 17v29.348c6.406 3.484 13.629 5.32 20.98 5.34 7.149-.016 14.184-1.75 20.461-5.051L41.72 12.14a32.7 32.7 0 0 1-14.035 3.195c-5.649-.016-11.192-1.484-16.051-4.266"/>
        </g>
        <g id="m" clip-path="url(#d)">
            <path d="M30.992 7.25a1.285 1.285 0 0 0-.015 1.492l14.062 19.985c.414.585.856.515 1.293.222a1.16 1.16 0 0 0 .457-.554c-.09.156-.215.285-.363.382-.434.297-.88.368-1.293-.222L31.07 8.578c-.27-.39-.3-.898-.082-1.32Zm0 0"/>
        </g>
        <filter id="a" width="100%" height="100%" x="0%" y="0%">
            <feColorMatrix color-interpolation-filters="sRGB" values="0 0 0 0 1 0 0 0 0 1 0 0 0 0 1 0 0 0 1 0"/>
        </filter>
    </defs>
    <path fill="url(#e)" d="M17 3.969h30c7.18 0 13 5.82 13 13v30c0 7.18-5.82 13.004-13 13.004H17c-7.18 0-13-5.825-13-13.004v-30c0-7.18 5.82-13 13-13m0 0"/>
    <path fill="url(#f)" d="M16.352 8h31.3a8.35 8.35 0 0 1 8.352 8.352v31.3a8.35 8.35 0 0 1-8.352 8.352h-31.3A8.35 8.35 0 0 1 8 47.652v-31.3A8.35 8.35 0 0 1 16.352 8m0 0"/>
    <path d="M17 5A11.946 11.946 0 0 0 5.031 16.969v30a11.94 11.94 0 0 0 3.496 8.472A11.94 11.94 0 0 0 17 58.937h30A11.943 11.943 0 0 0 58.973 46.97v-30A11.943 11.943 0 0 0 47 5Zm0 3h30a8.97 8.97 0 0 1 6.348 2.621 8.95 8.95 0 0 1 2.629 6.348v30a8.96 8.96 0 0 1-8.973 8.968H17a8.96 8.96 0 0 1-8.969-8.969v-30a8.95 8.95 0 0 1 2.625-6.343A8.97 8.97 0 0 1 17 8"/>
    <g mask="url(#g)">
        <use xlink:href="#h"/>
    </g>
    <path fill="url(#i)" d="M49.742 47.164 40.88 12.27l1.937-.493 8.864 34.895Zm0 0"/>
    <path fill="url(#j)" d="m46.07 32.598-2.218-8.739 1.878-.476 2.22 8.738Zm0 0"/>
    <path fill="url(#k)" d="M31.277 6.965c.282-.188.625-.254.957-.188.332.07.621.266.809.551l13.586 20.309c.398.597.125 1.02-.3 1.312-.434.293-.876.363-1.286-.226L30.98 8.743a1.265 1.265 0 0 1 .297-1.778"/>
    <g mask="url(#l)">
        <use xlink:href="#m"/>
    </g>
</svg>
