<svg xmlns="http://www.w3.org/2000/svg" viewBox="0 0 64 64">
    <defs>
        <linearGradient id="c" x1="287.89" x2="325.21" y1="471.55" y2="471.55" gradientTransform="matrix(1.0715 0 0 1.11118 -248.747 -426.46)" gradientUnits="userSpaceOnUse">
            <stop offset="0" stop-color="#2a2c2f"/>
            <stop offset="1" stop-color="#424649"/>
        </linearGradient>
        <linearGradient id="a">
            <stop offset="0" style="stop-color:#49892f"/>
            <stop offset="1" style="stop-color:#89da62"/>
        </linearGradient>
        <linearGradient id="b" x1="8.459" x2="8.459" y1="1.057" y2="15.867" gradientTransform="translate(-64.002 -64.014)scale(3.78327)" gradientUnits="userSpaceOnUse" href="#a"/>
    </defs>
    <rect width="56" height="56.03" x="-60" y="-60.015" rx="12" ry="12" style="fill:url(#b);stroke-width:3.783" transform="scale(-1)"/>
    <rect width="40.005" height="40" x="59.962" y="60.006" fill="url(#c)" rx="6" ry="6" style="stroke-width:4.724;fill-opacity:.9" transform="rotate(90 .02 111.985)scale(-1 1)"/>
    <path fill="#f55" d="M18.285 18.267h10.002v1.251H18.285z" style="stroke-width:4.724"/>
    <path fill="#fff" d="M18.285 20.766h3.751v1.253h-3.751zm4.999 0h4.998v1.253h-4.998zm11.253 21.252v1.253h-3.751v1.247H47.04v-1.247h-1.253v-1.253h-1.251v1.253h-2.5v-1.253h-1.247v1.253h-1.252v-1.253h-1.253v1.253h-2.499v-1.253z" style="stroke-width:4.724"/>
</svg>
