<svg xmlns="http://www.w3.org/2000/svg" viewBox="0 0 64 64">
    <defs>
        <linearGradient id="a" x1="65.411" x2="65.411" y1="3.153" y2="59.155" gradientTransform="translate(-33.411 .846)" gradientUnits="userSpaceOnUse">
            <stop offset="0" style="stop-opacity:.1;stop-color:#fff"/>
            <stop offset="1" style="stop-opacity:.1"/>
        </linearGradient>
    </defs>
    <rect width="56" height="56" x="4" y="4" rx="12" style="fill:#f5f5f5;stroke-width:1"/>
    <rect width="56" height="56" x="4" y="4" rx="12" style="stroke-width:1;fill:url(#a)"/>
    <g stroke-width=".457">
        <path fill="#ed333b" d="m50.154 20.14-.005-2.726c0-2.642-1.919-4.034-4.043-4.034l-23.802-.754H21.08v15.026h1.224l23.802-.753c2.124 0 4.043-1.391 4.043-4.033z"/>
        <path fill="#a51d2d" d="M22.304 13.706v12.866a1.08 1.08 0 0 1-1.079 1.08h-.29a1.08 1.08 0 0 1-1.08-1.08V13.706a1.08 1.08 0 0 1 1.08-1.079h.29c.596 0 1.08.483 1.08 1.08m27.846 4.868-.003-1.161c0-.654-.118-1.23-.326-1.728H25.897c-.654 0-1.184.447-1.184.999v.892c0 .551.53.998 1.184.998z"/>
        <path fill="#c01c28" d="m50.15 18.129-.001-.716c0-.653-.118-1.23-.326-1.727H25.897c-.385.007-.74.141-.954.41.002.321.005.638.005 1.252 0 .466.513.781 1.161.781z"/>
        <path fill="#a51d2d" d="M50.151 21.704H25.896c-.653 0-1.183.447-1.183.999v.891c0 .552.53 1 1.183 1h23.926a4.5 4.5 0 0 0 .327-1.728z"/>
        <path fill="#c01c28" d="M50.151 21.704H25.896c-.384.008-.74.141-.954.41.003.321.005.638.005 1.252 0 .467.514.781 1.162.781h23.866c.111-.388.173-.814.173-1.281z"/>
        <path fill="#b5835a" d="M20.592 20.14H12v-.092c.017-.773.5-1.605 1.864-1.605l6.728.004zm0 0H12v.091c.017.774.5 1.605 1.864 1.605l6.728-.005z"/>
        <path fill="#cdab8f" d="M21.08 20.14h-8.72v-.092c.017-.773.507-1.605 1.892-1.605l6.828.004zm0 0h-8.72v.091c.017.774.507 1.605 1.892 1.605l6.828-.005z"/>
        <path fill="#57e389" d="m45.904 16.523-1.931-1.925c-1.869-1.868-4.208-1.495-5.711.007L20.899 30.902l-.866.867L30.66 42.393l.865-.866L47.82 24.165c1.503-1.503 1.876-3.843.009-5.71z"/>
        <path fill="#26a269" d="m21.662 31.665 9.098 9.098a1.08 1.08 0 0 1 0 1.526l-.205.207a1.08 1.08 0 0 1-1.526 0l-9.098-9.098a1.08 1.08 0 0 1 0-1.526l.205-.207a1.08 1.08 0 0 1 1.526 0m23.134-16.247-.823-.82a4.5 4.5 0 0 0-1.452-.99L25.603 30.527c-.463.462-.521 1.152-.132 1.542l.63.63c.39.39 1.082.332 1.544-.13z"/>
        <path fill="#2ec27e" d="m44.48 15.104-.507-.506a4.5 4.5 0 0 0-1.453-.99l-16.918 16.92c-.266.276-.423.622-.385.964.23.226.455.447.89.882.33.33.915.19 1.373-.269z"/>
        <path fill="#26a269" d="m47.009 17.631-17.151 17.15c-.461.462-.52 1.153-.13 1.543l.63.63c.39.391 1.08.333 1.543-.13l16.918-16.918c-.205-.5-.528-.99-.99-1.452z"/>
        <path fill="#2ec27e" d="M47.009 17.631 29.928 34.712l-.07.07c-.265.277-.423.622-.384.964.228.226.455.448.89.882.328.33.914.189 1.372-.268l16.877-16.877a4.7 4.7 0 0 0-.784-1.029z"/>
        <path fill="#b5835a" d="m25.001 37.426-6.076 6.076-.065-.066c-.535-.558-.782-1.488.183-2.452l4.76-4.755zm0 0-6.076 6.076.065.065c.56.534 1.489.781 2.453-.183l4.754-4.762z"/>
        <path fill="#cdab8f" d="m25.346 37.08-6.167 6.168-.064-.067c-.534-.557-.776-1.492.202-2.472l4.832-4.824zm0 0-6.167 6.168.065.065c.56.533 1.495.775 2.473-.204l4.826-4.83z"/>
        <path fill="#62a0ea" d="m44.488 13.22-2.728.005c-2.64 0-4.032 1.917-4.032 4.043l-.754 23.8v1.225H52v-1.225l-.754-23.8c0-2.126-1.39-4.043-4.032-4.043z"/>
        <path fill="#1a5fb4" d="M38.053 41.07h12.868A1.08 1.08 0 0 1 52 42.147v.29a1.08 1.08 0 0 1-1.079 1.08H38.053a1.08 1.08 0 0 1-1.079-1.08v-.29a1.08 1.08 0 0 1 1.08-1.079m4.868-27.845-1.162.002a4.4 4.4 0 0 0-1.726.326v23.926c0 .654.446 1.184.997 1.184h.892c.552 0 1-.53.999-1.184z"/>
        <path fill="#1c71d8" d="m42.478 13.223-.718.002a4.4 4.4 0 0 0-1.726.326v23.926c.008.383.14.739.41.954.321-.003.637-.005 1.251-.005.468 0 .782-.513.782-1.162z"/>
        <path fill="#1a5fb4" d="M46.052 13.223v24.254c0 .654.446 1.184.997 1.184h.892c.551 0 1-.53.999-1.184V13.551a4.4 4.4 0 0 0-1.727-.326z"/>
        <path fill="#1c71d8" d="M46.052 13.223v24.254c.007.384.14.74.409.955.322-.003.638-.006 1.253-.006.466 0 .781-.513.781-1.161V13.398a4.7 4.7 0 0 0-1.281-.173z"/>
        <path fill="#b5835a" d="M44.486 42.78v8.594h-.092c-.773-.017-1.605-.5-1.605-1.865l.005-6.729zm0 0v8.594h.093c.773-.017 1.605-.5 1.605-1.865l-.005-6.729z"/>
        <path fill="#cdab8f" d="M44.486 42.293v8.72h-.092c-.773-.018-1.605-.507-1.605-1.892l.005-6.828zm0 0v8.72h.093c.773-.018 1.605-.507 1.605-1.892l-.005-6.828z"/>
    </g>
</svg>
