<svg xmlns="http://www.w3.org/2000/svg" width="64" height="64" viewBox="0 0 16.933 16.933">
    <defs>
        <linearGradient id="a" x1="7.937" x2="7.937" y1="15.081" y2="1.852" gradientTransform="translate(0 .008)scale(.99997)" gradientUnits="userSpaceOnUse">
            <stop offset="0" stop-color="#263540"/>
            <stop offset="1" stop-color="#435c70"/>
        </linearGradient>
        <linearGradient id="e" x1="-8.376" x2="-8.376" y1="10.099" y2="2.876" gradientUnits="userSpaceOnUse">
            <stop offset="0" stop-color="#f5400a"/>
            <stop offset="1" stop-color="#f68565"/>
        </linearGradient>
        <linearGradient id="f" x1="-6.253" x2="-6.253" y1="8.988" y2="3.601" gradientUnits="userSpaceOnUse">
            <stop offset="0" stop-color="#ff4833"/>
            <stop offset="1" stop-color="#ff998d"/>
        </linearGradient>
        <linearGradient id="c" x1="-9.265" x2="-9.265" y1="13.114" y2="7.115" gradientUnits="userSpaceOnUse">
            <stop offset="0" stop-color="#751fe0"/>
            <stop offset="1" stop-color="#a776e5"/>
        </linearGradient>
        <linearGradient id="d" x1="-5.676" x2="-5.676" y1="12.688" y2="7.528" gradientUnits="userSpaceOnUse">
            <stop offset="0" stop-color="#0183b7"/>
            <stop offset="1" stop-color="#53cdfe"/>
        </linearGradient>
        <linearGradient id="b" x1="-9.692" x2="-9.692" y1="16.337" y2="11.521" gradientUnits="userSpaceOnUse">
            <stop offset="0" stop-color="#06935c"/>
            <stop offset="1" stop-color="#13f59d"/>
        </linearGradient>
    </defs>
    <g color="#000">
        <path d="M4.31 1.058c-1.866 0-3.375 1.539-3.375 3.44v8.467c0 1.9 1.57 3.439 3.435 3.439h8.2c1.866 0 3.427-1.538 3.427-3.44V4.498c0-1.9-1.51-3.439-3.375-3.439h-.097c1.794.087 3.214 1.582 3.214 3.432v7.937c0 1.906-1.506 3.44-3.377 3.44h-7.79c-1.871 0-3.377-1.534-3.377-3.44V4.49c0-1.85 1.42-3.345 3.214-3.432z" opacity=".03" style="font-feature-settings:normal;font-variant-alternates:normal;font-variant-caps:normal;font-variant-east-asian:normal;font-variant-ligatures:normal;font-variant-numeric:normal;font-variant-position:normal;font-variation-settings:normal;inline-size:0;isolation:auto;mix-blend-mode:normal;shape-margin:0;shape-padding:0;text-decoration-color:#000;text-decoration-line:none;text-decoration-style:solid;text-indent:0;text-orientation:mixed;text-transform:none;white-space:normal"/>
        <path d="M4 46.969V49c0 6.648 5.896 12 12.544 12h30.961C54.153 61 60 55.648 60 49v-1.992a12.97 12.97 0 0 1-13 12.963H17.002A12.973 12.973 0 0 1 4 46.969" opacity=".03" style="font-feature-settings:normal;font-variant-alternates:normal;font-variant-caps:normal;font-variant-east-asian:normal;font-variant-ligatures:normal;font-variant-numeric:normal;font-variant-position:normal;font-variation-settings:normal;inline-size:0;isolation:auto;mix-blend-mode:normal;shape-margin:0;shape-padding:0;text-decoration-color:#000;text-decoration-line:none;text-decoration-style:solid;text-indent:0;text-orientation:mixed;text-transform:none;white-space:normal" transform="scale(.26458)"/>
        <path d="M1.058 11.906v.592c0 1.939 1.573 3.5 3.332 3.5h8.16c1.76 0 3.325-1.561 3.325-3.5v-.58c-.006 2.095-1.537 3.78-3.44 3.78H4.498c-1.905 0-3.44-1.692-3.44-3.792" opacity=".05" style="font-feature-settings:normal;font-variant-alternates:normal;font-variant-caps:normal;font-variant-east-asian:normal;font-variant-ligatures:normal;font-variant-numeric:normal;font-variant-position:normal;font-variation-settings:normal;inline-size:0;isolation:auto;mix-blend-mode:normal;shape-margin:0;shape-padding:0;text-decoration-color:#000;text-decoration-line:none;text-decoration-style:solid;text-indent:0;text-orientation:mixed;text-transform:none;white-space:normal"/>
    </g>
    <rect width="14.816" height="14.816" x="1.058" y="1.058" fill="url(#a)" rx="3.44" ry="3.44"/>
    <g stroke-width=".265" transform="translate(16.159 -1.574)">
        <path fill="url(#b)" d="M-9.677 12.025a1.984 1.984 0 0 0-1.984 1.984 1.984 1.984 0 0 0 1.984 1.985 1.984 1.984 0 0 0 1.985-1.985v-1.984z"/>
        <path fill="url(#c)" d="M-9.677 8.056h1.985v3.969h-1.985a1.98 1.98 0 0 1-1.984-1.984c0-1.1.885-1.985 1.984-1.985"/>
        <circle cx="-5.708" cy="10.04" r="1.984" fill="url(#d)"/>
        <path fill="url(#e)" d="M-9.677 4.087a1.98 1.98 0 0 0-1.984 1.985 1.98 1.98 0 0 0 1.984 1.984h1.985V4.087z"/>
        <path fill="url(#f)" d="M-7.692 4.087h1.984c1.1 0 1.984.885 1.984 1.985a1.98 1.98 0 0 1-1.984 1.984h-1.984z"/>
    </g>
</svg>
