<svg xmlns="http://www.w3.org/2000/svg" xmlns:xlink="http://www.w3.org/1999/xlink" viewBox="0 0 64 64">
    <defs>
        <linearGradient id="c" x1="7.937" x2="7.937" y1="15.081" y2="1.852" gradientTransform="translate(-.015 .03)scale(3.7796)" gradientUnits="userSpaceOnUse">
            <stop offset="0" stop-color="#932625"/>
            <stop offset="1" stop-color="#dd4c4b"/>
        </linearGradient>
        <linearGradient id="d" x1="7.937" x2="7.937" y1="15.081" y2="1.852" gradientTransform="translate(3.432 3.458)scale(3.37432)" gradientUnits="userSpaceOnUse">
            <stop offset="0" stop-color="#f1efeb"/>
            <stop offset="1" stop-color="#f5f5f5"/>
        </linearGradient>
        <linearGradient id="e" x1="376.35" x2="374.24" y1="546.85" y2="546.85" gradientTransform="matrix(-2.14288 0 0 2.14288 833.667 -1134.485)" gradientUnits="userSpaceOnUse">
            <stop offset="0" stop-opacity="0"/>
            <stop offset=".6" stop-opacity="0"/>
            <stop offset="1" stop-opacity=".05"/>
        </linearGradient>
        <linearGradient id="f" x1="379.24" x2="374.24" y1="546.85" y2="546.85" gradientTransform="translate(-769.678 -1134.485)scale(2.14288)" gradientUnits="userSpaceOnUse">
            <stop offset="0" stop-color="#f6f5f4"/>
            <stop offset=".6" stop-color="#f5f5f5"/>
            <stop offset="1" stop-color="#dddbd8"/>
        </linearGradient>
        <linearGradient id="i" x1="5.821" x2="5.821" y1="2.117" y2="10.848" gradientTransform="scale(3.7796)" gradientUnits="userSpaceOnUse">
            <stop offset="0" stop-color="#dd4c4b"/>
            <stop offset="1" stop-color="#932625"/>
        </linearGradient>
        <clipPath id="b">
            <path d="M0 0h64v64H0z"/>
        </clipPath>
        <filter id="a" width="100%" height="100%" x="0%" y="0%">
            <feColorMatrix color-interpolation-filters="sRGB" values="0 0 0 0 1 0 0 0 0 1 0 0 0 0 1 0 0 0 1 0"/>
        </filter>
        <mask id="g">
            <g filter="url(#a)">
                <path fill-opacity=".5" d="M-6.4-6.4h76.8v76.8H-6.4z"/>
            </g>
        </mask>
        <g id="h" fill="gray" clip-path="url(#b)">
            <path d="M36 14h17v.5H36Zm0 4h17v.496H36Zm0 4h17v.5H36Zm0 4h17v.5H36Zm0 4h17v.496H36Zm0 4h17v.5H36Zm0 5h17v.5H36Zm0 4h17v.5H36Zm0 4.004h17v.5H36ZM36 51h17v.5H36Zm0 0"/>
        </g>
    </defs>
    <path fill="url(#c)" d="M16.988 4a12.96 12.96 0 0 0-9.203 3.797A12.96 12.96 0 0 0 3.988 17v30a12.96 12.96 0 0 0 3.797 9.203A12.96 12.96 0 0 0 16.988 60h29.996a12.94 12.94 0 0 0 9.203-3.797A12.96 12.96 0 0 0 59.985 47V17a12.96 12.96 0 0 0-3.797-9.203A12.94 12.94 0 0 0 46.985 4Zm0 0"/>
    <path fill="url(#d)" d="M17.004 7H47c5.523 0 10 4.477 10 10v29.996c0 5.524-4.477 10-10 10H17.004c-5.524 0-10-4.476-10-10V17c0-5.523 4.476-10 10-10m0 0"/>
    <path fill="url(#e)" d="M17.004 7a9.98 9.98 0 0 0-7.078 2.922A9.98 9.98 0 0 0 7.004 17v30a10 10 0 0 0 2.922 7.074 9.97 9.97 0 0 0 7.078 2.922H32V7Zm0 0"/>
    <path fill="url(#f)" d="M47 7a9.98 9.98 0 0 1 7.078 2.922A9.98 9.98 0 0 1 57 17v30a10 10 0 0 1-2.922 7.074A9.97 9.97 0 0 1 47 56.996H32V7Zm0 0"/>
    <g mask="url(#g)">
        <use xlink:href="#h"/>
    </g>
    <path fill="url(#i)" d="M16 4.734h12V41l-6-5-6 5Zm0 0"/>
</svg>
