<svg xmlns="http://www.w3.org/2000/svg" viewBox="0 0 64 64">
    <defs>
        <linearGradient id="a" x1="9.649" x2="30" y1="15.099" y2="6.316" gradientTransform="matrix(2.88215 -1.7614 .30224 2.29464 -28.373 -21.651)" gradientUnits="userSpaceOnUse">
            <stop offset="0" style="stop-opacity:1;stop-color:#38bdf8"/>
            <stop offset="1" style="stop-color:#c25298"/>
        </linearGradient>
        <linearGradient id="b" x1="9.654" x2="30" y1="16" y2="26.015" gradientTransform="matrix(2.83963 1.5905 -.17724 2.36042 -20.578 -49.121)" gradientUnits="userSpaceOnUse">
            <stop offset="0" style="stop-color:#6b97df;stop-opacity:0"/>
            <stop offset="1" style="stop-color:#e5565c"/>
        </linearGradient>
    </defs>
    <rect width="56" height="56" x="4" y="-60" rx="12" style="fill:url(#a);stroke-width:2" transform="rotate(90)"/>
    <rect width="56" height="56" x="4" y="4" rx="12" style="stroke-width:2;stroke-linecap:round;transform-box:fill-box;transform-origin:50% 50%;fill:url(#b)"/>
    <path d="M24 16v17.078A8 8 0 0 0 20 32c-6.158 0-10.007 6.667-6.928 12s10.777 5.333 13.856 0A8 8 0 0 0 28 40V20h16v13.078A8 8 0 0 0 40 32c-6.158 0-10.007 6.667-6.928 12s10.777 5.333 13.856 0A8 8 0 0 0 48 40V16M20 36c3.079 0 5.004 3.333 3.464 6A4 4 0 0 1 20 44c-3.079 0-5.004-3.333-3.464-6A4 4 0 0 1 20 36m20 0c3.079 0 5.004 3.333 3.464 6A4 4 0 0 1 40 44c-3.079 0-5.004-3.333-3.464-6A4 4 0 0 1 40 36" style="fill:#fff;stroke-width:4"/>
</svg>
