<svg xmlns="http://www.w3.org/2000/svg" viewBox="0 0 64 64">
    <defs>
        <linearGradient id="c" x1="16" x2="16" y1="30" y2="2" gradientTransform="scale(2)" gradientUnits="userSpaceOnUse" href="#a"/>
        <linearGradient id="a">
            <stop offset="0" style="stop-opacity:1;stop-color:#4f46e5"/>
            <stop offset="1" style="stop-opacity:1;stop-color:#818cf8"/>
        </linearGradient>
        <linearGradient id="b">
            <stop offset="0" style="stop-color:#9f9f9f"/>
            <stop offset="1" style="stop-color:#d0d0d0"/>
        </linearGradient>
        <linearGradient id="d" x1="22" x2="22" y1="36" y2="24" gradientUnits="userSpaceOnUse" href="#b"/>
    </defs>
    <rect width="56" height="56" x="4" y="4" rx="12" style="fill:url(#c);stroke-width:2"/>
    <g transform="translate(-1 2)">
        <ellipse cx="22" cy="30" rx="9" ry="9.016" style="fill:#222"/>
        <path d="M21 24h2c.554 0 1 .446 1 1v3h3c.554 0 1 .446 1 1v2c0 .554-.446 1-1 1h-3v3c0 .554-.446 1-1 1h-2c-.554 0-1-.446-1-1v-3h-3c-.554 0-1-.446-1-1v-2c0-.554.446-1 1-1h3v-3c0-.554.446-1 1-1" style="fill:url(#d);fill-opacity:1;stroke-width:3.70808"/>
    </g>
    <g transform="translate(.36 -.118)scale(.95602)">
        <ellipse cx="40.188" cy="38.007" rx="5" ry="5.007" style="fill:#222;stroke-width:1"/>
        <ellipse cx="49.016" cy="29.188" rx="5" ry="5.007" style="fill:#222;stroke-width:1"/>
    </g>
</svg>
