<svg xmlns="http://www.w3.org/2000/svg" viewBox="0 0 64 64">
    <rect width="56" height="56" x="4" y="4" ry="12" style="stroke-width:2;fill:url(#a)"/>
    <path d="M26.177 12c-.961 0-1.742 1.268-1.742 2.83v8.998l-1.059-.003c-1.483-.006-2.414 1.015-1.664 1.828l.819.887.795.861a583 583 0 0 1 5.448 5.994l.002.002 1.56 1.741c.741.826 2.619.826 3.36 0l1.535-1.713 2.722-3.038 3.586-3.889.738-.799c.767-.833-.185-1.88-1.706-1.874l-1.053.003v-7.897q0-.151-.008-.298v-.803c0-1.562-.781-2.83-1.745-2.83zm-4.159 16.45-3.104 2.357-.002.002q-.003.115.001.239c.694 1.162 1.313 1.968 1.405 2.803a2.1 2.1 0 0 1-.253.78c-.717 1.311-2.155 1.483-4.378 2.083v4.037c2.22.63 3.661.813 4.378 2.188.16.31.15.666.056 1.024-.256.586-.716 1.206-1.208 1.992v1l3.104 2.475c2.125-.805 3.31-1.488 5.04-.917h.002c1.726.57 1.952 1.71 2.744 3.487h4.394c.791-1.772 1.02-2.916 2.756-3.491 1.715-.567 2.884.109 5.028.921l3.118-2.393-.012-1.083c-.499-.795-.959-1.415-1.213-1.998-.093-.354-.099-.709.06-1.015.716-1.377 2.158-1.56 4.379-2.189v-4.038c-2.244-.605-3.661-.775-4.375-2.081v-.002a2.1 2.1 0 0 1-.253-.774c.09-.835.708-1.641 1.404-2.809.002-.083-.002-.309 0-.241v-.003l-.051-.034-3.055-2.32c-.156.056-.276.102-.422.156l-3.585 3.889-2.722 3.039c1.221.731 2.045 1.861 2.164 3.148-.206 2.137-2.548 3.826-5.417 3.826s-5.213-1.689-5.418-3.826c.119-1.304.966-2.448 2.214-3.177l-.001-.002a583 583 0 0 0-5.448-5.993l-.795-.861c-.183-.069-.338-.128-.535-.199" style="fill:#71717a"/>
    <defs>
        <linearGradient id="a" x1="16" x2="16" y1="30" y2="2" gradientTransform="scale(2)" gradientUnits="userSpaceOnUse">
            <stop offset="0" style="stop-color:#d1d5db"/>
            <stop offset="1" style="stop-color:#e5e7eb"/>
        </linearGradient>
    </defs>
</svg>
