<svg xmlns="http://www.w3.org/2000/svg" xmlns:xlink="http://www.w3.org/1999/xlink" viewBox="0 0 64 64">
    <defs>
        <linearGradient id="k" x1="7.937" x2="7.937" y1="15.081" y2="1.852" gradientTransform="translate(0 .03)scale(3.77949)" gradientUnits="userSpaceOnUse">
            <stop offset="0" stop-color="#292929"/>
            <stop offset="1" stop-color="#4d4d4d"/>
        </linearGradient>
        <linearGradient id="l" x1="8.444" x2="8.444" y1="6.861" y2="2.229" gradientTransform="scale(3.7796)" gradientUnits="userSpaceOnUse">
            <stop offset="0" stop-color="#a95319"/>
            <stop offset="1" stop-color="#c28e00"/>
        </linearGradient>
        <linearGradient id="m" x1="8.294" x2="8.294" y1="7.228" y2="3.962" gradientTransform="scale(3.7796)" gradientUnits="userSpaceOnUse">
            <stop offset="0" stop-color="#662800"/>
            <stop offset="1" stop-color="#d65500"/>
        </linearGradient>
        <linearGradient id="n" x1="8.346" x2="8.346" y1="8.445" y2="5.597" gradientTransform="scale(3.7796)" gradientUnits="userSpaceOnUse">
            <stop offset="0" stop-color="#523e3e"/>
            <stop offset="1" stop-color="#ae7b7b"/>
        </linearGradient>
        <mask id="e">
            <g filter="url(#a)">
                <path fill-opacity=".03" d="M-6.4-6.4h76.8v76.8H-6.4z"/>
            </g>
        </mask>
        <mask id="g">
            <g filter="url(#a)">
                <path fill-opacity=".03" d="M-6.4-6.4h76.8v76.8H-6.4z"/>
            </g>
        </mask>
        <mask id="i">
            <g filter="url(#a)">
                <path fill-opacity=".05" d="M-6.4-6.4h76.8v76.8H-6.4z"/>
            </g>
        </mask>
        <mask id="o">
            <g filter="url(#a)">
                <path fill-opacity=".35" d="M-6.4-6.4h76.8v76.8H-6.4z"/>
            </g>
        </mask>
        <clipPath id="b">
            <path d="M0 0h64v64H0z"/>
        </clipPath>
        <clipPath id="c">
            <path d="M0 0h64v64H0z"/>
        </clipPath>
        <clipPath id="d">
            <path d="M0 0h64v64H0z"/>
        </clipPath>
        <g id="f" clip-path="url(#b)">
            <path d="M16.29 4C9.237 4 3.534 9.816 3.534 17v32.004C3.535 56.184 9.47 62 16.515 62h30.993c7.054 0 12.953-5.812 12.953-13V17c0-7.18-5.707-12.996-12.754-12.996h-.367c6.781.328 12.148 5.976 12.148 12.969v30c0 7.203-5.691 13.004-12.765 13.004H17.28c-7.074 0-12.765-5.801-12.765-13.004V16.969C4.516 9.977 9.883 4.329 16.664 4Zm0 0"/>
        </g>
        <g id="h" clip-path="url(#c)">
            <path d="M4 46.969V49c0 6.648 5.895 12 12.543 12h30.96C54.154 61 60 55.648 60 49v-1.992a12.973 12.973 0 0 1-13 12.965H17.004A12.96 12.96 0 0 1 7.8 56.172 12.97 12.97 0 0 1 4 46.969"/>
        </g>
        <g id="j" clip-path="url(#d)">
            <path d="M4 45v2.238c0 7.328 5.945 13.227 12.594 13.227h30.84C54.086 60.465 60 54.566 60 47.238v-2.191c-.023 7.918-5.809 14.285-13 14.285H17C9.8 59.332 4 52.937 4 45"/>
        </g>
        <filter id="a" width="100%" height="100%" x="0%" y="0%">
            <feColorMatrix color-interpolation-filters="sRGB" values="0 0 0 0 1 0 0 0 0 1 0 0 0 0 1 0 0 0 1 0"/>
        </filter>
    </defs>
    <g mask="url(#e)">
        <use xlink:href="#f"/>
    </g>
    <g mask="url(#g)">
        <use xlink:href="#h"/>
    </g>
    <g mask="url(#i)">
        <use xlink:href="#j"/>
    </g>
    <path fill="url(#k)" d="M17 4h29.996c7.18 0 13 5.82 13 13v29.996c0 7.18-5.82 13-13 13H17c-7.18 0-13-5.82-13-13V17C4 9.82 9.82 4 17 4m0 0"/>
    <path fill="#f5f5f5" fill-rule="evenodd" d="M18.43 15h27.14v10.004H18.43Zm0 0"/>
    <path fill="#c0c81f" fill-rule="evenodd" d="M25.613 22.86c.504 0 .907-.954.907-2.18 0-1.23-.403-2.184-.91-2.184-.505 0-.903.953-.903 2.184 0 1.226.406 2.18.906 2.18"/>
    <path fill="url(#l)" fill-rule="evenodd" d="M51.531 6.5c-1.23-1.297-6.82.273-10.226 2.387a20.46 20.46 0 0 0-9.278-2.184c-3.476 0-6.68.817-9.34 2.184-3.406-2.117-9.07-3.75-10.226-2.387-1.227 1.363.887 7.023 3.41 10.16a10.2 10.2 0 0 0-.34 2.52c0 2.73 1.156 5.254 3.137 7.297h11.246c-.34-.68.137-1.09 2.184-1.09 2.047.07 2.457.41 2.183 1.093h11.246c1.98-2.05 3.141-4.636 3.141-7.296 0-.887-.137-1.707-.344-2.524 2.387-3.137 4.434-8.867 3.207-10.16M25.617 24.504a4.396 4.396 0 0 1-4.36-4.367c0-2.387 1.977-4.364 4.364-4.364 2.383 0 4.363 1.977 4.363 4.364S28.008 24.5 25.621 24.5Zm12.82 0a4.396 4.396 0 0 1-4.359-4.367c0-2.387 1.977-4.364 4.36-4.364 2.39 0 4.367 1.977 4.367 4.364a4.35 4.35 0 0 1-4.367 4.363Zm0 0"/>
    <path fill="url(#m)" fill-rule="evenodd" d="M7.8 15.387a9.7 9.7 0 0 0-3.21.527c5.793.746 10.5 2.996 14.726 7.09-1.886-4.434-6.785-7.606-11.515-7.617m48.398 0c-4.73.011-9.629 3.183-11.515 7.617 4.226-4.09 8.93-6.344 14.726-7.09a9.7 9.7 0 0 0-3.21-.527M6.82 18.539c-2.082.04-4.097.559-5.847 1.664 6.547-1.023 12.48.684 18.07 4.024-2.813-3.516-7.656-5.774-12.223-5.688m50.36 0c-4.57-.086-9.414 2.172-12.23 5.688 5.593-3.34 11.53-5.047 18.07-4.02a11.2 11.2 0 0 0-5.84-1.668M9.46 21.918c-2.757-.047-5.253.734-6.507 2.586 5.797-1.84 10.84-1.024 16.434 1.156-2.383-2.262-6.375-3.683-9.926-3.742m45.078 0c-3.55.059-7.547 1.48-9.926 3.742 5.594-2.18 10.637-2.996 16.434-1.156-1.254-1.852-3.746-2.633-6.508-2.586"/>
    <path fill="url(#n)" fill-rule="evenodd" d="M14 21.637c-1.703 0-3.137.886-3.816 2.25h-.211c-1.84 0-3.407 1.363-3.407 3.07 0 2.383 2.457 3.68 4.704 2.863 1.363 1.977 4.296 2.114 5.386 0 1.637-.066 4.297-.34 4.707-2.863.27-1.707-1.5-3.07-3.41-3.07h-.203c-.547-1.36-2.047-2.25-3.75-2.25m36 0c1.703 0 3.137.886 3.816 2.25h.211c.95 0 3.407 1.363 3.407 3.07 0 2.383-2.457 3.68-4.704 2.863-1.363 1.977-4.296 2.114-5.386 0-1.637-.066-4.297-.34-4.707-2.863-.27-1.707 2.457-3.07 3.41-3.07h.203c.547-1.36 2.047-2.25 3.75-2.25"/>
    <path fill="#c0c81f" fill-rule="evenodd" d="M38.29 22.86c.5 0 .905-.954.905-2.18 0-1.23-.406-2.184-.906-2.184-.504 0-.91.953-.91 2.184 0 1.226.406 2.18.91 2.18"/>
    <g mask="url(#o)">
        <use xlink:href="#p"/>
    </g>
    <path fill="#f5f5f5" d="M33.004 45.707h10.125c1.527 0 1.527 2.29 0 2.293H32.996c-1.523-.004-1.523-2.29 0-2.293Zm-12.18-12.36c-1.004-1.081.543-2.628 1.621-1.62l7.16 7.156a1.15 1.15 0 0 1 0 1.62l-7.156 7.161c-1.078 1.008-2.625-.539-1.62-1.621l6.35-6.348Zm13.914-6.98c0 .754-1.226 1.367-2.738 1.367-1.516 0-2.742-.613-2.742-1.367C29.258 25.61 30.484 25 32 25c1.512 0 2.738.61 2.738 1.367m0 0"/>
</svg>
