<svg xmlns="http://www.w3.org/2000/svg" width="64" height="64" viewBox="0 0 64 64">
    <defs>
        <linearGradient id="e" x1=".686" x2="12.315" y1="14.784" y2="6.35" gradientTransform="matrix(3.5 0 0 3.5 4 4)" gradientUnits="userSpaceOnUse" href="#a"/>
        <linearGradient id="a">
            <stop offset="0" style="stop-color:#0ff;stop-opacity:1"/>
            <stop offset="1" style="stop-color:#0ff;stop-opacity:0"/>
        </linearGradient>
        <linearGradient id="g" x1="8" x2="8.009" y1="0" y2="12.053" gradientTransform="matrix(3.5 0 0 3.5 4 4)" gradientUnits="userSpaceOnUse" href="#b"/>
        <linearGradient id="b">
            <stop offset="0" style="stop-color:#f0f;stop-opacity:1"/>
            <stop offset="1" style="stop-color:#f0f;stop-opacity:0"/>
        </linearGradient>
        <linearGradient id="f" x1="15.436" x2="3.637" y1="14.619" y2="6.367" gradientTransform="matrix(3.5 0 0 3.5 4 4)" gradientUnits="userSpaceOnUse" href="#c"/>
        <linearGradient id="c">
            <stop offset="0" style="stop-opacity:1;stop-color:#fcd34d"/>
            <stop offset="1" style="stop-color:#ff0;stop-opacity:0"/>
        </linearGradient>
        <linearGradient id="h" x1="37.722" x2="22.045" y1="46.083" y2="46.083" gradientTransform="translate(-32.001 -48)scale(2.00001)" gradientUnits="userSpaceOnUse" href="#d"/>
        <linearGradient id="d">
            <stop offset="0" style="stop-color:#5596ea;stop-opacity:1"/>
            <stop offset="1" style="stop-color:#5596ea;stop-opacity:0"/>
        </linearGradient>
        <linearGradient id="k" x1="32" x2="32" y1="4" y2="60" gradientUnits="userSpaceOnUse">
            <stop offset="0" style="stop-color:#fff;stop-opacity:.2"/>
            <stop offset="1" style="stop-opacity:.1"/>
        </linearGradient>
        <linearGradient id="i" x1="21.555" x2="21.555" y1="7.016" y2="36.002" gradientUnits="userSpaceOnUse">
            <stop offset="0" style="stop-color:#4f4f4f"/>
            <stop offset="1" style="stop-color:rgb(19.075% 19.075% 19.075%)"/>
        </linearGradient>
        <linearGradient id="j" x1="38.554" x2="38.554" y1="30.56" y2="40.547" gradientUnits="userSpaceOnUse">
            <stop offset="0" style="stop-color:#9b9b9b"/>
            <stop offset="1" style="stop-color:rgb(35.432% 35.432% 35.432%)"/>
        </linearGradient>
    </defs>
    <rect width="56" height="56" x="4" y="4" rx="12" style="fill:#fff;stroke-width:2"/>
    <rect width="56" height="56" x="4" y="4" rx="12" style="fill:url(#e);stroke-width:3.5"/>
    <rect width="56" height="56" x="4" y="4" rx="12" style="fill:url(#f);stroke-width:3.5"/>
    <rect width="56" height="56" x="4" y="4" rx="12" style="fill:url(#g);stroke-width:3.5"/>
    <path d="M43.8 37.68C28 51.446 13.54 39.15 11.442 34.333c1.24 8.363 6.972 15.846 15.632 18.726 6.54 2.176 20.001.734 21.014-5.936z" style="fill:url(#h);fill-opacity:1;stroke-width:2.00002"/>
    <path d="M8.031 7.016a12 12 0 0 0-3.117 4.363c5.476 5.572 14.173 14.483 16.445 17.05 3.512 3.968 11.832 10.288 16.157 6.305 3.056-4.998-4.924-11.732-9.582-14.304-3.118-1.722-13.44-9.015-19.903-13.414" style="stroke-width:2.00002;fill:url(#i)"/>
    <path d="M44.008 39.857c-1.352.609-1.206 1.049-2.406.86-.828-.132-7.118-4.686-7.118-4.686-.363-.857.073-2.036.893-2.97.76-.98 1.843-1.643 2.771-1.47 0 0 5.917 5.006 6.218 5.775.437 1.115-.031 1.065-.358 2.491" style="stroke-width:2.00002;fill:url(#j)"/>
    <path d="M44.886 51.369c5.083-2.82 6.278-7.9 4.271-11.494-1.56-2.793-4.12-3.32-5.89-1.97-1.754 1.34-1.91 2.935-1.386 4.52 1.068 3.234 5.645 5.61 3.005 8.944" style="fill:#3f3f3f;stroke-width:2.00002"/>
    <rect width="56" height="56" x="4" y="4" rx="12" style="stroke-width:3.5;fill:url(#k)"/>
</svg>
