<svg xmlns="http://www.w3.org/2000/svg" xmlns:xlink="http://www.w3.org/1999/xlink" width="64" height="64" viewBox="0 0 64 64">
    <defs>
        <linearGradient xlink:href="#a" id="b" x1="2" x2="30" y1="30" y2="2" gradientTransform="scale(2)" gradientUnits="userSpaceOnUse"/>
        <linearGradient id="a">
            <stop offset="0" style="stop-color:#eb7b51;stop-opacity:1"/>
            <stop offset=".3" style="stop-color:#ee5b85;stop-opacity:1"/>
            <stop offset=".687" style="stop-color:#c05fe9;stop-opacity:1"/>
            <stop offset="1" style="stop-color:#2f95f5;stop-opacity:1"/>
        </linearGradient>
    </defs>
    <rect width="56" height="56" x="4" y="4" rx="12" style="fill:url(#b);stroke-width:2"/>
    <path d="M18 20v2.596l2.224.168.371.505-3.691 17.475-.568.527-2.336.17V44h10v-2.56l-2.05-.147-.393-.547 1.508-6.802h2.315l3.32 6.135c1.357 2.685 2.309 3.837 5.242 3.872.843.01 1.183.07 3.458 0 7.848-6.313 11.854-11.658 12.487-13.833.383-1.318-.226-2.126-1.53-2.126q-.954-.001-2.183.779l-.59 5.057c-1.606 2.022-3.748 4.226-6.356 6.524l2.279-9.225c.358-1.778.476-2.727-.721-3.094l-5.351 1.136-.284.968 2.468.38c.172.612-.572 2.478-.947 4.532l-1.201 6.376c-.02.066-.031.138-.044.21-.779-.402-1.27-1.12-1.835-2.209l-4.696-8.45 8.584-8.043 2.52-.274V20H30v2.66l3.505.168.218.568-9.057 7.868h-1.092l1.675-7.994.48-.505L28 22.596V20z" style="fill:#fff;stroke-width:2"/>
</svg>
