<svg xmlns="http://www.w3.org/2000/svg" xml:space="preserve" style="fill-rule:evenodd;clip-rule:evenodd;stroke-linejoin:round;stroke-miterlimit:2" viewBox="0 0 64 64">
    <path d="M16 60h32c6.62 0 12-5.38 12-12V16c0-6.62-5.38-12-12-12H16C9.38 4 4 9.38 4 16v32c0 6.62 5.38 12 12 12" style="fill:url(#a);fill-rule:nonzero"/>
    <path d="M32 13.74h-.01c-10.01 0-18.25 8.24-18.25 18.25V32c0 .63.03 1.26.1 1.88-.88.61-1.41 1.62-1.4 2.69 0 1.71 1.35 3.14 3.06 3.25 3.01 6.37 9.46 10.44 16.5 10.44 3.07.01 6.1-.77 8.79-2.26.61.61 1.44.95 2.3.95 1.79 0 3.26-1.47 3.26-3.25 0-.63-.18-1.25-.52-1.77A18.27 18.27 0 0 0 50.26 32c0-1.73-.24-3.46-.73-5.12.47-.58.73-1.31.73-2.06 0-1.78-1.47-3.26-3.26-3.26h-.02c-3.41-4.9-9.01-7.82-14.98-7.82m0 2.61c4.95 0 9.61 2.34 12.56 6.31a3.25 3.25 0 0 0-.71 2.99l-6.95 5.48c-.5-.29-1.06-.44-1.64-.44a3.27 3.27 0 0 0-3.17 2.51l-13.52 1.81a3.24 3.24 0 0 0-2.16-1.62c-.04-.46-.06-.93-.06-1.39v-.01c0-8.58 7.06-15.64 15.64-15.64zM45.46 27.7c.48.25 1 .39 1.54.39l.15-.01c.34 1.28.51 2.6.5 3.92 0 3.87-1.43 7.61-4.03 10.48-.17-.03-.35-.04-.53-.05-.21.01-.43.03-.63.07L38 35.73c.34-.53.53-1.14.53-1.77q-.015-.375-.09-.72l7.03-5.54zm-12.91 8.07a3.27 3.27 0 0 0 3.27 1.4l4.49 6.81c-.29.48-.46 1.02-.48 1.57a15.6 15.6 0 0 1-7.83 2.1 15.66 15.66 0 0 1-14.04-8.74c.37-.36.66-.8.82-1.3z" style="fill:#fff;fill-rule:nonzero"/>
    <defs>
        <linearGradient id="a" x1="0" x2="1" y1="0" y2="0" gradientTransform="matrix(1 56 -56 1 34 4)" gradientUnits="userSpaceOnUse">
            <stop offset="0" style="stop-color:#32d7ff"/>
            <stop offset="1" style="stop-color:#329bff"/>
        </linearGradient>
    </defs>
</svg>
