<svg xmlns="http://www.w3.org/2000/svg" viewBox="0 0 64 64">
    <defs>
        <linearGradient id="b" x1="16" x2="16" y1="30" y2="2" gradientTransform="matrix(-1.99967 .03646 0 -2.00373 63.995 63.426)" gradientUnits="userSpaceOnUse" href="#a"/>
        <linearGradient id="a">
            <stop offset="0" style="stop-color:#41bbff"/>
            <stop offset="1" style="stop-color:#0a8aff"/>
        </linearGradient>
    </defs>
    <rect width="56" height="56" x="4" y="4" rx="12" style="fill:url(#b);stroke-width:2"/>
    <path fill="#f5f5f5" d="M27.75 45.94c-3.128-.288-5.553-1.296-7.374-3.068-1.547-1.505-2.372-4.674-2.376-6.492q-.004-1.91 1.103-3.063c.84-.876 1.8-1.277 3.08-1.285 1.601-.01 2.898.55 3.49 1.79.25.524.265.613.317 1.942.06 1.508.134 3.7.499 4.415.523 1.027 1.455 1.818 3.483 1.82C32 42 33.31 40.96 33.847 38.864c.138-.536.15-1.586.15-8.539 0-7.437-.003-7.36-.171-7.651-.297-.512-.664-.641-2.075-.674H30v-4h16v4h-1.693c-1.34.053-1.577.114-1.873.433-.408.44-.298.054-.355 8.145-.057 8.026-.061 8.105-.443 9.167-.955 2.655-3.335 4.874-6.614 5.726-1.676.436-5.41.64-7.272.47z" class="ColorScheme-Text" color="#444" style="stroke-width:1"/>
</svg>
