<svg xmlns="http://www.w3.org/2000/svg" viewBox="0 0 64 64">
    <defs>
        <linearGradient id="b" x1="-112.45" x2="-112.42" y1="271.04" y2="265.14" gradientTransform="matrix(3.03018 -1.27468 1.31594 3.01253 4.139 -917.914)" gradientUnits="userSpaceOnUse">
            <stop offset="0" stop-color="#0094eb"/>
            <stop offset="1" stop-color="#06cfeb"/>
        </linearGradient>
        <linearGradient id="c" x1="11.713" x2="14.149" y1="291.6" y2="286.73" gradientTransform="translate(4.139 -917.914)scale(3.28738)" gradientUnits="userSpaceOnUse">
            <stop offset="0" stop-color="#3a7aec"/>
            <stop offset="1" stop-color="#7892f2"/>
        </linearGradient>
        <linearGradient id="d" x1="11.571" x2="11.096" y1="293.43" y2="289.55" gradientTransform="translate(4.139 -917.914)scale(3.28738)" gradientUnits="userSpaceOnUse">
            <stop offset="0" stop-color="#0bc3fc"/>
            <stop offset="1" stop-color="#0dd4fe"/>
        </linearGradient>
        <linearGradient id="e" x1="11.607" x2="11.217" y1="294.76" y2="291.42" gradientTransform="translate(4.139 -917.914)scale(3.28738)" gradientUnits="userSpaceOnUse">
            <stop offset="0" stop-color="#09a7f8"/>
            <stop offset="1" stop-color="#0fbffb"/>
        </linearGradient>
        <linearGradient id="f" x1="8.998" x2="10.294" y1="289.45" y2="291.56" gradientTransform="translate(4.139 -917.914)scale(3.28738)" gradientUnits="userSpaceOnUse">
            <stop offset="0" stop-color="#059af2"/>
            <stop offset="1" stop-color="#0598f3" stop-opacity="0"/>
        </linearGradient>
        <linearGradient id="g" x1="7.04" x2="5.767" y1="286.24" y2="293.71" gradientTransform="translate(4.139 -917.914)scale(3.28738)" gradientUnits="userSpaceOnUse">
            <stop offset="0" stop-color="#29f2ff"/>
            <stop offset="1" stop-color="#16d5fb"/>
        </linearGradient>
        <linearGradient id="h" x1="32.799" x2="27.072" y1="42.111" y2="39.572" gradientTransform="translate(4.139 2.784)scale(.86978)" gradientUnits="userSpaceOnUse">
            <stop offset="0" stop-color="#19dafc"/>
            <stop offset="1" stop-color="#17c2f9"/>
        </linearGradient>
        <linearGradient id="i" x1="5.25" x2="5.564" y1="287.3" y2="285.59" gradientTransform="translate(4.139 -917.914)scale(3.28738)" gradientUnits="userSpaceOnUse">
            <stop offset="0" stop-color="#08e3ff"/>
            <stop offset="1" stop-color="#5cfbfc"/>
        </linearGradient>
        <linearGradient id="k" x1="10.855" x2="11.759" y1="283.68" y2="282.57" gradientTransform="translate(4.139 -917.914)scale(3.28738)" gradientUnits="userSpaceOnUse">
            <stop offset="0" stop-color="#6ee8fe"/>
            <stop offset="1" stop-color="#a3f0fe"/>
        </linearGradient>
        <linearGradient id="l" x1="30.379" x2="45.719" y1="24.664" y2="24.664" gradientTransform="translate(4.139 2.784)scale(.86978)" gradientUnits="userSpaceOnUse">
            <stop offset="0" stop-color="#b6fdfe"/>
            <stop offset="1" stop-color="#cafefe"/>
        </linearGradient>
        <linearGradient id="m" x1="38.878" x2="41.802" y1="24.172" y2="27.079" gradientTransform="translate(4.139 2.784)scale(.86978)" gradientUnits="userSpaceOnUse">
            <stop offset="0" stop-color="#abe7f8"/>
            <stop offset="1" stop-color="#bef6fd"/>
        </linearGradient>
        <linearGradient id="a" x1="32" x2="32" y1="4" y2="60" gradientUnits="userSpaceOnUse">
            <stop offset="0" style="stop-color:#f3f4f6"/>
            <stop offset="1" style="stop-color:#e5e7eb"/>
        </linearGradient>
        <radialGradient id="j" cx="8.661" cy="283.81" r="1.504" gradientTransform="rotate(2.34 26067.941 8.212)scale(6.28612 3.7968)" gradientUnits="userSpaceOnUse">
            <stop offset="0" stop-color="#8df5fe"/>
            <stop offset="1" stop-color="#46eaff"/>
        </radialGradient>
    </defs>
    <rect width="56" height="56" x="4" y="4" rx="12" style="fill:url(#a);stroke-width:1"/>
    <path fill="url(#b)" d="M11.773 22.21c2.235-.937 5.438.09 6.403 2.313l8.633 19.946c.96 2.222-.63 4.449-2.864 5.39-2.234.938-5.23-.015-6.203-2.234L9.34 28.457c-.973-2.219.2-5.305 2.433-6.246" transform="translate(4.18 5.42)scale(.86943)"/>
    <path fill="url(#c)" d="M52.223 22.21c-2.23-.937-5.438.09-6.399 2.313L37.188 44.47c-.965 2.222.59 4.761 2.828 5.699 2.226.941 5.27-.324 6.242-2.543l8.402-19.168c.969-2.219-.203-5.305-2.437-6.246" transform="translate(4.18 5.42)scale(.86943)"/>
    <path fill="url(#d)" d="M35.3 25.3c2.458 3.2 4.305 6.93 5.673 9.286 1.37 2.352 1.605 2.848 2.648 4.77s3.387 3.5 5.777 1.097c-.21.55-2.101 5.195-3.05 7.113-.63 1.286-1.043 1.723-2.16 2.36-2.11 1.187-5.32.453-6.551-1.633L27.02 30.301c3.789-2.285 4.351-2.754 8.28-5" transform="translate(4.18 5.42)scale(.86943)"/>
    <path fill="url(#e)" d="M28.863 27.078c2.739 3.223 9.305 14.965 10.438 16.488 1.136 1.52 3.226 3.149 5.336 1.961 1.117-.632 1.664-1.23 2.59-2.316a63 63 0 0 0 2.246-2.75c-.22.547-2.16 5.18-3.11 7.102-.633 1.285-1.047 1.722-2.164 2.355-2.11 1.195-5.324.46-6.55-1.629L27.026 30.297c.762-1.258 1.032-1.688 1.836-3.219" transform="translate(4.18 5.42)scale(.86943)"/>
    <path fill="url(#f)" d="M35.3 25.3c2.458 3.2 4.305 6.93 5.673 9.286 1.37 2.352 1.605 2.848 2.648 4.77s3.387 3.5 5.777 1.097c-.21.55-2.101 5.195-3.05 7.113-.63 1.286-1.043 1.723-2.16 2.36-2.11 1.187-5.32.453-6.551-1.633L27.02 30.301c3.789-2.285 4.351-2.754 8.28-5" transform="translate(4.18 5.42)scale(.86943)"/>
    <path fill="url(#g)" d="M36.063 20.207c-2.637.527-5.883 3.059-7.356 4.977-2.465 3.195-4.309 6.93-5.676 9.28-1.37 2.352-1.605 2.849-2.644 4.774-1.047 1.922-3.446 3.512-5.84 1.106.215.547 2.156 5.183 3.105 7.105.637 1.281 1.051 1.723 2.168 2.356 2.106 1.187 5.317.457 6.547-1.633L36.984 30.18a23.8 23.8 0 0 1 3.453-4.426c1.79-1.805 3.942-2.8 3.211-3.965-1.566-2.5-4.847-2.144-7.484-1.613Zm0 0" transform="translate(4.18 5.42)scale(.86943)"/>
    <path fill="url(#h)" d="M42.969 21.86a3.5 3.5 0 0 0-.496 0c-2.368.18-5.383 2.632-6.551 4.011-2.738 3.227-10.07 16.067-11.207 17.586-1.137 1.52-3.227 3.148-5.336 1.961-1.117-.633-1.66-1.23-2.59-2.316a65 65 0 0 1-2.227-2.739l-.015-.011c.215.546 2.16 5.18 3.11 7.105.632 1.281 1.046 1.723 2.163 2.352 2.106 1.191 5.32.457 6.551-1.63l10.613-17.992c.618-1.042 1.727-2.769 3.395-4.453 1.621-1.632 3.586-2.574 3.402-3.613-.277-.11-.472-.238-.812-.262m0 0" transform="translate(4.18 5.42)scale(.86943)"/>
    <path fill="url(#i)" d="M23.207 27.012c-1.496-.543-2.723-1.625-2.89-3.664-.169-2.032 1.042-3.493 2.44-3.422 1.403.066 1.876 1.242 1.552 2.332-.329 1.09-.657 1.504-.86 2.254-.203.754-.21 1.547-.242 2.5" transform="translate(4.18 5.42)scale(.86943)"/>
    <path fill="url(#j)" d="M27.148 22.902c-1.265-2.164-.93-4.617-.195-6.422.738-1.808 2.512-3.816 4.477-4.34 1.965-.527 3.754-.245 4.558 1.758.805 2-.937 4.47-3.023 5.051-2.082.578-4.004 1.696-5.817 3.953m0 0" transform="translate(4.18 5.42)scale(.86943)"/>
    <path fill="url(#k)" d="M43.648 12.875a2.225 2.225 0 1 1-4.449 0c0-1.227.996-2.227 2.227-2.227 1.226 0 2.222 1 2.222 2.227m0 0" transform="translate(4.18 5.42)scale(.86943)"/>
    <path fill="url(#l)" d="M39.258 19.715c-1.078 0-2.188.164-3.176.363-1.242.25-2.617.98-3.883 1.871-.875 1.09-1.52 2.387-1.617 3.883-.258 3.004 1.832 3.664 3.645 2.117.277-.234.433-.433.597-.62.781-.724 5.489-2.544 8.496-4.087.508-.52.758-.996.45-1.492-.98-1.562-2.708-2.031-4.512-2.035" transform="translate(4.18 5.42)scale(.86943)"/>
    <path fill="url(#m)" d="M42.969 21.86a3.5 3.5 0 0 0-.496 0c-2.368.18-5.383 2.632-6.555 4.011q-.57.697-1.086 1.434c.84 1.265 2.332 1.457 3.824.488a24 24 0 0 1 1.785-2.035c1.618-1.63 3.63-2.645 3.45-3.688a3.1 3.1 0 0 0-.922-.21m0 0" transform="translate(4.18 5.42)scale(.86943)"/>
</svg>
