<svg xmlns="http://www.w3.org/2000/svg" xmlns:xlink="http://www.w3.org/1999/xlink" viewBox="0 0 64 64">
    <defs>
        <linearGradient id="b" x1="7.937" x2="7.937" y1="15.081" y2="1.852" gradientTransform="scale(3.7796)" gradientUnits="userSpaceOnUse">
            <stop offset="0" stop-color="#f1efeb"/>
            <stop offset="1" stop-color="#fdfcfc"/>
        </linearGradient>
        <linearGradient id="e" x1="13.229" x2="13.229" y1="9.79" y2="16.668" gradientTransform="scale(3.7796)" gradientUnits="userSpaceOnUse">
            <stop offset="0" stop-color="#8b63c3"/>
            <stop offset="1" stop-color="#6164c5"/>
        </linearGradient>
        <linearGradient id="f" x1="100" x2="100" y1="852.36" y2="1052.4" gradientTransform="translate(38.348 -70.448)scale(.12703)" gradientUnits="userSpaceOnUse">
            <stop offset="0" stop-color="#f5f5f5"/>
            <stop offset="1" stop-color="#d7d7d7"/>
        </linearGradient>
        <filter id="a" width="100%" height="100%" x="0%" y="0%">
            <feColorMatrix color-interpolation-filters="sRGB" values="0 0 0 0 1 0 0 0 0 1 0 0 0 0 1 0 0 0 1 0"/>
        </filter>
        <mask id="c">
            <g filter="url(#a)">
                <path fill-opacity=".15" d="M-6.4-6.4h76.8v76.8H-6.4z"/>
            </g>
        </mask>
    </defs>
    <path fill="url(#b)" d="M17 3.969h30c7.18 0 13 5.82 13 13v30c0 7.18-5.82 13.004-13 13.004H17c-7.18 0-13-5.825-13-13.004v-30c0-7.18 5.82-13 13-13m0 0"/>
    <g mask="url(#c)">
        <use xlink:href="#d"/>
    </g>
    <path fill="#3e90ea" d="M31.352 12.45a19.65 19.65 0 0 0-13.223 5.726c-6.977 6.996-7.66 18.082-1.602 25.883l4.121-4.121a13.85 13.85 0 0 1 1.563-17.68 13.84 13.84 0 0 1 14.402-3.246v4.953l7.403-7.399a19.65 19.65 0 0 0-12.66-4.12Zm0 0"/>
    <path fill="#67e6f4" d="m47.477 20.035-4.122 4.121A13.85 13.85 0 0 1 41.79 41.84a13.84 13.84 0 0 1-14.406 3.242v-4.957l-4.895 4.898-2.504 2.5c7.801 6.063 18.895 5.38 25.887-1.601 6.98-6.996 7.664-18.09 1.602-25.89Zm0 0"/>
    <path fill="url(#e)" d="M63 50c0 7.18-5.82 13-13 13s-12.996-5.82-12.996-13S42.82 37.004 50 37.004 63 42.82 63 50m0 0"/>
    <path fill="url(#f)" d="M47.559 51.074c0 2.301.043 3.102-1.438 3.102-1.473 0-2.644.48-2.644 1.828 0 1.344 1.39 1.992 2.257 1.992.864 0 2.586-.601 2.586-2.43v-8.25l7.38-1.71v6.316s.085.758-.888.758c-.98 0-3.128-.278-3.128 1.78 0 2.063 2.086 1.93 2.41 1.93a2.62 2.62 0 0 0 2.43-2.796V42l-9.008 1.738Zm0 0"/>
</svg>
