<svg xmlns="http://www.w3.org/2000/svg" enable-background="new 0 0 1024 1024" image-rendering="optimizeSpeed" viewBox="0 0 64 64">
    <defs>
        <linearGradient id="c" x1="528.77" x2="537.94" y1="1036.3" y2="92.612" gradientTransform="translate(-1.624 -1.204)scale(.06351)" gradientUnits="userSpaceOnUse">
            <stop offset="0" stop-color="#351f1f"/>
            <stop offset="1" stop-color="#352b1f" stop-opacity="0"/>
        </linearGradient>
        <linearGradient id="g" x1="31.926" x2="31.618" y1="26.908" y2="39.216" gradientUnits="userSpaceOnUse">
            <stop offset="0" stop-color="#f5f5f5"/>
            <stop offset="1" stop-color="#d0d0d0"/>
        </linearGradient>
        <linearGradient id="e" x1="33.569" x2="38.583" y1="19.695" y2="21.627" gradientUnits="userSpaceOnUse">
            <stop offset="0" stop-color="#f4f4f4"/>
            <stop offset="1" stop-color="#bfbfbf"/>
        </linearGradient>
        <linearGradient id="b" x1="7.9" x2="56.17" y1="19.867" y2="19.867" gradientUnits="userSpaceOnUse">
            <stop offset="0" stop-color="#f5f5f5" stop-opacity=".454"/>
            <stop offset="1" stop-color="#f5f5f5" stop-opacity=".276"/>
        </linearGradient>
        <linearGradient id="a" x1="32" x2="32" y1="3.969" y2="59.969" gradientUnits="userSpaceOnUse">
            <stop offset="0" style="stop-color:#fcd34d"/>
            <stop offset="1" style="stop-color:#f97316"/>
        </linearGradient>
        <filter id="f" width="1.12" height="1.12" x="-.06" y="-.06" color-interpolation-filters="sRGB">
            <feGaussianBlur stdDeviation=".304"/>
        </filter>
        <filter id="d" width="1.124" height="1.051" x="-.062" y="-.025" color-interpolation-filters="sRGB">
            <feGaussianBlur stdDeviation=".301"/>
        </filter>
    </defs>
    <rect width="56" height="56" x="4" y="3.969" rx="12" style="fill:url(#a)"/>
    <path d="M52 32.372v-.066h-6.368v.066q0 5.646-3.995 9.637h-.001l-.002.001v.001q-3.99 3.991-9.634 3.993-5.65 0-9.64-3.993-3.99-3.994-3.99-9.639v-.066H12v.066q0 8.281 5.855 14.142h.003Q23.715 52.373 32 52.373q8.28 0 14.14-5.859h-.002.002Q52 40.653 52 32.372" opacity=".35"/>
    <path fill="url(#b)" d="M31.971 7.84q-9.956.023-17.002 7.066h-.002v.002q-.032.031-.06.065-6.978 7.02-7.007 16.922h7.686q.03-6.717 4.754-11.488l.062-.065q4.796-4.794 11.568-4.816V7.84zm.002 0v7.686h.063q6.721 0 11.503 4.69l.124.124v.002h.002q4.79 4.793 4.82 11.553h7.685q-.028-9.944-7.072-16.988h-.002l-.123-.123Q41.943 7.84 32.035 7.84h-.063z" transform="translate(5.453 5.876)scale(.82867)"/>
    <path fill="url(#c)" d="M46.569 46.761q6.088-6.088 6.088-14.7t-6.088-14.7c-6.088-6.088-8.959-6.088-14.7-6.088s-10.642 2.03-14.7 6.088-6.088 8.959-6.088 14.7 2.03 10.642 6.088 14.7 8.959 6.088 14.7 6.088 10.642-2.03 14.7-6.088" opacity=".35" transform="translate(5.453 5.876)scale(.82867)"/>
    <path d="m40.408 7.39-11.67 25.264 2.68 3.21 4.262-.69z" filter="url(#d)" opacity=".35" transform="translate(5.453 5.876)scale(.82867)"/>
    <path fill="url(#e)" d="m40.408 7.39-11.67 25.264 2.68 3.209 4.262-.69z" transform="translate(5.453 5.876)scale(.82867)"/>
    <path d="M31.926 26.908q-1.277 0-2.367.46a6 6 0 0 0-1.934 1.321q-1.238 1.238-1.615 2.832a6.3 6.3 0 0 0-.166 1.469q0 1.2.406 2.234a6 6 0 0 0 1.375 2.065q1.781 1.782 4.301 1.781 2.518 0 4.299-1.781t1.781-4.299q0-2.444-1.68-4.2l-.101-.1a6.3 6.3 0 0 0-1.387-1.057 7 7 0 0 0-.414-.207q-1.139-.518-2.492-.518z" filter="url(#f)" opacity=".5" transform="translate(5.453 5.876)scale(.82867)"/>
    <path fill="url(#g)" d="M31.926 26.908q-1.277 0-2.367.46a6 6 0 0 0-1.934 1.321q-1.238 1.238-1.615 2.832a6.3 6.3 0 0 0-.166 1.469q0 1.2.406 2.234a6 6 0 0 0 1.375 2.065q1.781 1.782 4.301 1.781 2.518 0 4.299-1.781t1.781-4.299q0-2.444-1.68-4.2l-.101-.1a6.3 6.3 0 0 0-1.387-1.057 7 7 0 0 0-.414-.207q-1.139-.518-2.492-.518z" transform="translate(5.453 5.876)scale(.82867)"/>
</svg>
