<svg xmlns="http://www.w3.org/2000/svg" width="64" height="64" image-rendering="optimizeSpeed">
    <defs>
        <linearGradient id="a" x1="7.937" x2="7.937" y1="15.081" y2="1.852" gradientTransform="scale(3.7796)" gradientUnits="userSpaceOnUse">
            <stop offset="0" stop-color="#0e71de"/>
            <stop offset="1" stop-color="#25c9ff"/>
        </linearGradient>
    </defs>
    <rect width="56" height="56" x="4" y="3.969" fill="url(#a)" rx="12"/>
    <path fill="#f5f5f5" d="M27.75 46.94c-3.128-.288-5.553-1.296-7.374-3.068-1.547-1.505-2.372-4.674-2.376-6.492q-.005-1.91 1.103-3.063c.84-.876 1.8-1.277 3.08-1.285 1.601-.01 2.898.55 3.49 1.79.25.524.265.613.317 1.942.06 1.508.134 3.7.499 4.415.523 1.027 1.455 1.818 3.483 1.82C32 43 33.31 41.96 33.847 39.864c.138-.536.15-1.586.15-8.539 0-7.437-.003-7.36-.171-7.651-.297-.512-.664-.641-2.075-.674H30v-4h16v4h-1.693c-1.34.053-1.577.114-1.873.433-.408.44-.298.054-.355 8.145-.057 8.026-.061 8.105-.443 9.167-.955 2.655-3.335 4.874-6.614 5.726-1.676.436-5.41.64-7.272.47z" class="ColorScheme-Text" color="#444"/>
</svg>
