<svg xmlns="http://www.w3.org/2000/svg" xmlns:xlink="http://www.w3.org/1999/xlink" width="64" height="64" viewBox="0 0 64 64">
    <defs>
        <linearGradient xlink:href="#a" id="c" x1="16" x2="16" y1="30" y2="2" gradientTransform="scale(2)" gradientUnits="userSpaceOnUse"/>
        <linearGradient id="a">
            <stop offset="0" style="stop-color:#272727;stop-opacity:1"/>
            <stop offset="1" style="stop-color:#5d5d5d;stop-opacity:1"/>
        </linearGradient>
        <linearGradient xlink:href="#b" id="d" x1="23.002" x2="23.002" y1="38" y2="10" gradientTransform="matrix(2 0 0 2 -14.004 -16)" gradientUnits="userSpaceOnUse"/>
        <linearGradient id="b">
            <stop offset="0" style="stop-color:#80d935;stop-opacity:1"/>
            <stop offset="1" style="stop-color:#afd65f;stop-opacity:1"/>
        </linearGradient>
    </defs>
    <rect width="50" height="56" x="4" y="4" rx="12" style="fill:url(#c);stroke-width:2"/>
    <path d="M30 4v17.73c8.88-.09 14.645 7.891 14.645 7.891s-6.806 8.754-13.895 8.754c-.65 0-.179-.06-.75-.168v2.332a.7.7 0 0 1 .207.047v.004h.004l.004.004v.016l-.004.004-.004.004-.004.004v.004h-.004v.004h.004v.004h.004l.004.004c.023.006.086.008.234.008 6.597 0 11.37-3.563 15.989-7.782.766.65 3.902 2.227 4.547 2.918-4.393 3.89-14.63 7.028-20.434 7.028-.175 0-.247-.005-.273-.012h-.004l-.004-.004-.004-.004v-.016h-.004v-.004l-.004-.004-.004-.004c-.022-.013-.085-.026-.25-.043V60h18c6.648 0 12-5.352 12-12V16c0-6.648-5.352-12-12-12Zm0 38.719v-2.18c-8.073-1.076-11.918-10.484-11.918-10.484s4.697-5.647 11.918-6.23v2.53a.5.5 0 0 0 .148-.03h.004l.004-.005v-.004h-.004v-.004h-.004l-.004-.004c-.017-.008-.054-.018-.07-.023h-.004v-.004h.004l.004-.004c.017-.004.065-.004.164-.004 4.189 0 6.672 3.445 6.672 3.445l-2.918 3.04c-1.53-2.699-1.45-3.89-3.996-4.215v7.668c.577.205.14.328.855.328 4.968 0 9.602-6.809 9.602-6.809S36.328 23.807 30 23.785v.027c-.1-.008-.358-.017-.406-.023l.035-.004c.125-.004.247 0 .371 0v-2.008c-7.998.68-16.004 7.844-16.004 7.844S19 41.621 30 42.719m0-6.508c-3.44-1.223-5.637-5.469-5.637-5.469s3.076-2.527 5.63-2.203h.003v.004H30v-2.187c-4.866.556-8.875 3.988-8.875 3.988s2.773 6.712 8.875 7.863zm0-14.48q-.185-.002-.371.003-.015.001-.024.004c.059.006.298.014.395.024z" style="fill:url(#d);fill-opacity:1;stroke-width:2"/>
</svg>
