<svg xmlns="http://www.w3.org/2000/svg" viewBox="0 0 64 64">
    <defs>
        <linearGradient id="a" x1=".5" x2=".5" y1="1" y2="0">
            <stop offset="0%" style="stop-color:#0091f9"/>
            <stop offset="100%" style="stop-color:#41bbff"/>
        </linearGradient>
    </defs>
    <path d="M16 4h32c6.623 0 12 5.377 12 12v32c0 6.623-5.377 12-12 12H16C9.377 60 4 54.623 4 48V16C4 9.377 9.377 4 16 4" style="stroke:none;fill:url(#a);stroke-miterlimit:10"/>
    <linearGradient id="b" x1="1" x2=".328" y1="0" y2=".67" gradientTransform="matrix(38 0 0 31.492 10 16)" gradientUnits="userSpaceOnUse">
        <stop offset="0%" style="stop-color:#fff"/>
        <stop offset="100%" stop-opacity=".8" style="stop-color:#fff"/>
    </linearGradient>
    <path fill="url(#b)" d="M12.613 29.557q15.3-6.665 20.404-8.789C42.734 16.726 44.754 16.024 46.07 16c.289-.004.937.068 1.356.408.354.286.452.675.499.947s.104.893.058 1.378c-.527 5.533-2.805 18.959-3.965 25.156-.489 2.622-1.456 3.501-2.39 3.588-2.033.186-3.576-1.343-5.545-2.633-3.078-2.02-4.819-3.276-7.807-5.246-3.455-2.276-1.215-3.527.753-5.572.515-.536 9.469-8.678 9.641-9.418.022-.092.042-.437-.163-.617-.204-.183-.505-.12-.723-.071q-.466.105-14.759 9.755-2.097 1.437-3.795 1.401c-1.25-.027-3.653-.706-5.44-1.287-2.19-.712-3.932-1.089-3.781-2.298q.119-.945 2.604-1.934"/>
</svg>
