<svg xmlns="http://www.w3.org/2000/svg" viewBox="0 0 64 64">
    <path d="M16 4h32c6.623 0 12 5.377 12 12v32c0 6.623-5.377 12-12 12H16C9.377 60 4 54.623 4 48V16C4 9.377 9.377 4 16 4" style="fill:#f5f5f5"/>
    <path d="M16 4h32c6.623 0 12 5.377 12 12v32c0 6.623-5.377 12-12 12H16C9.377 60 4 54.623 4 48V16C4 9.377 9.377 4 16 4" style="fill:url(#a)"/>
    <path d="m20.167 36.839-4.966 2.292c-1.363.629-1.363 1.643 0 2.27l14.342 6.619c1.361.629 3.554.629 4.916 0l14.342-6.619c1.362-.627 1.362-1.641 0-2.27l-4.966-2.292-9.377 4.326c-1.361.629-3.554.629-4.915 0z" style="fill:url(#b)"/>
    <path d="m20.167 28.614-4.966 2.292c-1.362.629-1.362 1.643 0 2.27l14.342 6.618c1.361.631 3.555.631 4.916 0l14.342-6.618c1.362-.627 1.362-1.642 0-2.27l-4.966-2.292-9.377 4.327c-1.36.629-3.554.629-4.915 0z" style="fill:url(#c)"/>
    <path d="m14.887 22.827 14.969-6.909c1.183-.546 3.105-.546 4.288 0l14.969 6.909c1.183.546 1.183 1.432 0 1.979l-14.969 6.909c-1.183.546-3.105.546-4.288 0l-14.969-6.909c-1.183-.547-1.183-1.433 0-1.979" style="fill:url(#d)"/>
    <defs>
        <linearGradient id="a" x1="0" x2="1" y1="0" y2="0" gradientTransform="rotate(-88.792 46.64 13.66)scale(55.788)" gradientUnits="userSpaceOnUse">
            <stop offset="0" style="stop-color:#000;stop-opacity:.2"/>
            <stop offset="1" style="stop-color:#fff;stop-opacity:.1"/>
        </linearGradient>
        <linearGradient id="b" x1="0" x2="1" y1="0" y2="0" gradientTransform="rotate(-90 39.78 7.709)scale(12.29286)" gradientUnits="userSpaceOnUse">
            <stop offset="0" style="stop-color:#ef2f2f;stop-opacity:1"/>
            <stop offset="1" style="stop-color:#f5ac2b;stop-opacity:1"/>
        </linearGradient>
        <linearGradient id="c" x1="0" x2="1" y1="0" y2="0" gradientTransform="rotate(-90 35.099 3.525)scale(9.62538)" gradientUnits="userSpaceOnUse">
            <stop offset="0" style="stop-color:#64cf3b;stop-opacity:1"/>
            <stop offset="1" style="stop-color:#b0ec1e;stop-opacity:1"/>
        </linearGradient>
        <linearGradient id="d" x1="0" x2="1" y1="0" y2="0" gradientTransform="rotate(-24.776 77.61 -31.05)scale(28.7463)" gradientUnits="userSpaceOnUse">
            <stop offset="0" style="stop-color:#4b79d5;stop-opacity:1"/>
            <stop offset="1" style="stop-color:#31c9ef;stop-opacity:1"/>
        </linearGradient>
    </defs>
</svg>
