<svg xmlns="http://www.w3.org/2000/svg" width="64" height="64" viewBox="0 0 64 64">
    <defs>
        <linearGradient id="a" x1=".5" x2=".5" y1="0" y2="1">
            <stop offset="0%" style="stop-color:#5a5567"/>
            <stop offset="100%" style="stop-color:#27252e"/>
        </linearGradient>
    </defs>
    <path d="M16 3.9h32c6.623 0 12 5.377 12 12v31.99c0 6.623-5.377 12-12 12H16c-6.623 0-12-5.377-12-12V15.9c0-6.623 5.377-12 12-12" style="stroke:none;fill:url(#a);stroke-miterlimit:10"/>
    <linearGradient id="b" x1="1.127" x2="-.083" y1=".798" y2="1.027" gradientTransform="matrix(39.992 0 0 44.124 12.005 9.83)" gradientUnits="userSpaceOnUse">
        <stop offset="0%" style="stop-color:#ffa348"/>
        <stop offset="47.5%" style="stop-color:#c061cb"/>
        <stop offset="100%" style="stop-color:#1c71d8"/>
    </linearGradient>
    <path fill="url(#b)" d="M18.83 9.832a6.664 6.664 0 0 0-6.824 6.662v17.457l.006.012c-.01 4.439-.002 8.88-.006 13.32-.062 3.356 2.75 6.429 6.103 6.639 1.335.148 2.626-.225 3.803-.822.03-.016.062-.026.092-.043l.111-.065q.37-.198.723-.416v-.002l25.83-14.935c2.937-1.624 4.19-5.596 2.697-8.604-.684-1.559-2.057-2.647-3.53-3.424l-.103-.035-25.728-14.853a6.66 6.66 0 0 0-3.174-.89z"/>
    <g opacity=".7">
        <radialGradient id="c" cx="1.024" cy=".593" r="1" fx="1.024" fy=".593" gradientTransform="matrix(36.32 0 0 41.44 15.677 12.422)" gradientUnits="userSpaceOnUse">
            <stop offset="0%" stop-opacity="0" style="stop-color:#f8e45c"/>
            <stop offset="100%" style="stop-color:#f8e45c"/>
        </radialGradient>
        <path fill="url(#c)" d="M19.723 53.861c.76-.135 1.494-.409 2.19-.761.03-.016.06-.026.09-.043l.112-.065q.37-.197.723-.416v-.002l25.83-14.935c2.937-1.624 4.19-5.596 2.697-8.604-.684-1.559-2.057-2.647-3.53-3.424l-.103-.035-22.785-13.154a37.2 37.2 0 0 0-5.224 41.44z"/>
    </g>
    <g opacity=".25">
        <radialGradient id="d" cx="1.075" cy=".63" r="1" fx="1.075" fy=".63" gradientTransform="matrix(22.17 0 0 27.514 29.827 19.668)" gradientUnits="userSpaceOnUse">
            <stop offset="0%" stop-opacity="0" style="stop-color:#f8e45c"/>
            <stop offset="100%" style="stop-color:#f8e45c"/>
        </radialGradient>
        <path fill="url(#d)" d="M37.496 19.668a23.6 23.6 0 0 0-5.669 7.87 23.36 23.36 0 0 0 .339 19.644l16.502-9.543c2.937-1.624 4.19-5.596 2.697-8.604-.684-1.559-2.057-2.647-3.53-3.424l-.103-.035-10.234-5.908z"/>
    </g>
    <g opacity=".25">
        <radialGradient id="e" cx="1.501" cy=".75" r="1" fx="1.501" fy=".75" gradientTransform="matrix(9.073 0 0 14.672 42.924 25.996)" gradientUnits="userSpaceOnUse">
            <stop offset="0%" stop-opacity="0" style="stop-color:#f8e45c"/>
            <stop offset="100%" style="stop-color:#f8e45c"/>
        </radialGradient>
        <path fill="url(#e)" d="M48.51 25.996a13.62 13.62 0 0 0-5.08 14.672l5.238-3.03c2.937-1.623 4.19-5.595 2.697-8.603-.578-1.317-1.649-2.298-2.855-3.039"/>
    </g>
    <linearGradient id="f" x1="1.045" x2="-.103" y1="0" y2="-.23" gradientTransform="matrix(36.872 0 0 16.436 12.005 37.518)" gradientUnits="userSpaceOnUse">
        <stop offset="0%" style="stop-color:#f8e45c"/>
        <stop offset="51.3%" style="stop-color:#2ec27e"/>
    </linearGradient>
    <path fill="url(#f)" d="M48.877 37.518h-36.87c-.001 3.255.002 6.51-.001 9.765-.062 3.356 2.75 6.429 6.103 6.639 1.335.148 2.626-.225 3.803-.822.03-.016.062-.026.092-.043l.111-.065q.37-.198.723-.416v-.002l25.83-14.935z"/>
    <g style="opacity:.5">
        <linearGradient id="g" x1="-.457" x2="-.457" y1=".001" y2="2.713" gradientTransform="matrix(8.812 0 0 3.864 12.631 50.091)" gradientUnits="userSpaceOnUse">
            <stop offset=".052%" style="stop-color:#000"/>
            <stop offset="100%" stop-opacity=".2" style="stop-color:#f5f5f5"/>
        </linearGradient>
        <path fill="url(#g)" d="M21.443 53.322v-2.181a1.05 1.05 0 0 0-1.049-1.05h-7.763c1.005 2.1 3.106 3.682 5.478 3.831 1.16.129 2.287-.136 3.334-.6"/>
        <linearGradient id="h" x1="-.36" x2="-.36" y1="0" y2="1" gradientTransform="matrix(9.438 0 0 10.478 12.005 37.518)" gradientUnits="userSpaceOnUse">
            <stop offset="0%" style="stop-color:#000"/>
            <stop offset="100%" stop-opacity=".2" style="stop-color:#f5f5f5"/>
        </linearGradient>
        <path fill="url(#h)" d="M12.008 37.518c-.002 3.255 0 6.51-.002 9.765q-.007.36.03.713h8.359a1.05 1.05 0 0 0 1.048-1.047v-8.384a1.05 1.05 0 0 0-1.049-1.047z"/>
        <linearGradient id="i" x1="-.36" x2="-.36" y1="0" y2="1" gradientTransform="matrix(9.437 0 0 10.48 12.006 24.942)" gradientUnits="userSpaceOnUse">
            <stop offset="0%" style="stop-color:#000"/>
            <stop offset="100%" stop-opacity=".2" style="stop-color:#f5f5f5"/>
        </linearGradient>
        <path fill="url(#i)" d="M12.006 24.942v9.01l.006.011-.002 1.459h8.385a1.05 1.05 0 0 0 1.048-1.049v-9.431z"/>
    </g>
    <path fill="#3d3846" fill-rule="evenodd" d="M28.254 49.444v-22.93a1.57 1.57 0 0 0-1.572-1.572h-5.239v9.431a1.05 1.05 0 0 1-1.049 1.049H12.01l-.002 2.096h8.387a1.05 1.05 0 0 1 1.048 1.047v8.384a1.05 1.05 0 0 1-1.049 1.047h-8.359c.077.728.279 1.437.596 2.096h7.764a1.05 1.05 0 0 1 1.048 1.049v2.181q.237-.105.47-.222c.03-.016.06-.026.09-.043l.112-.065q.37-.197.723-.416v-.002l.24-.139a.5.5 0 0 1-.064-.248v-2.095a.52.52 0 0 1 .525-.524h2.62a.525.525 0 0 1 .523.524v.26zm-4.715-22.93h2.62a.524.524 0 0 1 .523.525v2.096a.524.524 0 0 1-.524.523H23.54a.527.527 0 0 1-.525-.523v-2.096a.53.53 0 0 1 .152-.373.53.53 0 0 1 .373-.152zm0 5.764h2.62a.524.524 0 0 1 .523.523v2.098a.524.524 0 0 1-.524.523H23.54a.527.527 0 0 1-.525-.523V32.8a.524.524 0 0 1 .525-.523zm0 5.763h2.62a.525.525 0 0 1 .523.524v2.097a.53.53 0 0 1-.153.371.53.53 0 0 1-.371.153H23.54a.52.52 0 0 1-.525-.524v-2.097a.52.52 0 0 1 .525-.524zm0 5.764h2.62a.524.524 0 0 1 .523.523v2.096a.525.525 0 0 1-.524.525H23.54a.53.53 0 0 1-.373-.152.53.53 0 0 1-.152-.373v-2.096a.524.524 0 0 1 .525-.523z"/>
</svg>
