<svg xmlns="http://www.w3.org/2000/svg" viewBox="0 0 64 64">
    <path fill="#262626" d="M16 4h32c6.623 0 12 5.377 12 12v32c0 6.623-5.377 12-12 12H16C9.377 60 4 54.623 4 48V16C4 9.377 9.377 4 16 4"/>
    <linearGradient id="a" x1=".517" x2=".513" y1=".997" y2="-.007" gradientTransform="matrix(56 0 0 56 4 4)" gradientUnits="userSpaceOnUse">
        <stop offset="0%" stop-opacity=".1" style="stop-color:#000"/>
        <stop offset="100%" stop-opacity=".2" style="stop-color:#fff"/>
    </linearGradient>
    <path fill="url(#a)" d="M16 4h32c6.623 0 12 5.377 12 12v32c0 6.623-5.377 12-12 12H16C9.377 60 4 54.623 4 48V16C4 9.377 9.377 4 16 4"/>
    <path fill="#fff" fill-rule="evenodd" d="M37 28.667v4.166h4.167v-4.166zm-13.333-7.5 3.333 5h-6.667L19.5 29.5h-3.75l1.25-5h-2.5l-2.5 10h6l-1 3.333h5.833l-4.166 5h5l3.333-5h10l3.333 5h5l-4.166-5H47L46 34.5h6l-2.5-10H47l1.25 5H44.5l-.833-3.333H37l3.333-5h-2.5l-3.333 5h-5l-3.333-5zm-.834 7.5v4.166H27v-4.166z"/>
</svg>
