<svg xmlns="http://www.w3.org/2000/svg" viewBox="0 0 64 64">
    <defs>
        <linearGradient id="a" x1="7.937" x2="7.937" y1="15.081" y2="1.852" gradientTransform="scale(3.7796)" gradientUnits="userSpaceOnUse">
            <stop offset="0" stop-color="#f1efeb"/>
            <stop offset="1" stop-color="#fdfcfc"/>
        </linearGradient>
        <linearGradient id="b" x1="6.934" x2="6.934" y1="3.847" y2="11.051" gradientTransform="scale(3.7796)" gradientUnits="userSpaceOnUse">
            <stop offset="0" stop-color="#4c8fd8"/>
            <stop offset="1" stop-color="#4c4cd8"/>
        </linearGradient>
        <linearGradient id="c" x1="8.711" x2="8.711" y1="7.15" y2="14.278" gradientTransform="scale(3.7796)" gradientUnits="userSpaceOnUse">
            <stop offset="0" stop-color="#29eecb"/>
            <stop offset="1" stop-color="#07b2ff"/>
        </linearGradient>
    </defs>
    <path fill="url(#a)" d="M17 3.969h30c7.18 0 13 5.82 13 13v30c0 7.18-5.82 13.004-13 13.004H17c-7.18 0-13-5.825-13-13.004v-30c0-7.18 5.82-13 13-13m0 0"/>
    <path fill="url(#b)" d="M31.352 12.45a19.65 19.65 0 0 0-13.223 5.726c-6.977 6.996-7.66 18.082-1.602 25.883l4.121-4.121a13.85 13.85 0 0 1 1.559-17.68 13.84 13.84 0 0 1 14.41-3.246v4.953l7.399-7.399a19.66 19.66 0 0 0-12.664-4.12Zm0 0"/>
    <path fill="url(#c)" d="m47.477 20.035-4.122 4.121A13.85 13.85 0 0 1 41.79 41.84a13.84 13.84 0 0 1-14.406 3.242v-4.957l-4.895 4.898-2.504 2.5c7.801 6.063 18.895 5.38 25.887-1.601 6.98-6.996 7.664-18.09 1.602-25.89Zm0 0"/>
</svg>
