<svg xmlns="http://www.w3.org/2000/svg" viewBox="0 0 64 64">
    <defs>
        <linearGradient id="b" x1="34.127" x2="34.127" y1="20.291" y2="50.413" gradientUnits="userSpaceOnUse">
            <stop offset="0" stop-color="#12aded"/>
            <stop offset="1" stop-color="#3d6bb7"/>
        </linearGradient>
        <linearGradient id="c" x1="30.011" x2="30.011" y1="29.208" y2="35.277" gradientUnits="userSpaceOnUse">
            <stop offset="0" stop-color="#585659"/>
            <stop offset="1" stop-color="#2e2d2e"/>
        </linearGradient>
        <linearGradient id="a" x1="65.411" x2="65.411" y1="3.153" y2="59.155" gradientTransform="translate(-33.411 .846)" gradientUnits="userSpaceOnUse">
            <stop offset="0" style="stop-opacity:.1;stop-color:#fff"/>
            <stop offset="1" style="stop-opacity:.1"/>
        </linearGradient>
    </defs>
    <rect width="56" height="56" x="4" y="4" rx="12" style="fill:#f5f5f5;stroke-width:1"/>
    <rect width="56" height="56" x="4" y="4" rx="12" style="stroke-width:1;fill:url(#a)"/>
    <path fill="#f5f5f5" d="M49.554 38.84s-.058-.358-.092-.354l-6.492.626a1.054 1.054 0 0 0-.954.98l-.18 2.557-5.022.358-.341-2.317a1.06 1.06 0 0 0-1.047-.903h-6.853a1.06 1.06 0 0 0-1.045.903l-.343 2.317-5.022-.358-.178-2.557a1.054 1.054 0 0 0-.955-.979l-6.495-.626c-.034-.004-.057.354-.091.354l-.009 1.405 5.5.887.18 2.579a1.06 1.06 0 0 0 .98.983l6.918.492a1.063 1.063 0 0 0 1.123-.9l.352-2.384h5.024l.352 2.383a1.063 1.063 0 0 0 1.122.901l6.918-.492a1.06 1.06 0 0 0 .98-.982l.18-2.58 5.498-.891z"/>
    <path fill="url(#b)" d="M27.408 10.307c-2.062.458-4.101 1.096-6.014 2.059.044 1.688.152 3.307.373 4.95-.742.477-1.523.883-2.216 1.44-.705.543-1.425 1.061-2.063 1.696a40 40 0 0 0-4.016-2.334c-1.498 1.612-2.9 3.352-4.044 5.3a43 43 0 0 0 2.732 3.938h.027v11.957l.065.002 7.33.707a.79.79 0 0 1 .71.73l.227 3.237 6.393.455.441-2.986a.79.79 0 0 1 .78-.674h7.734c.391 0 .722.286.78.674l.44 2.986 6.393-.455.227-3.237a.79.79 0 0 1 .71-.73l7.327-.707q.034-.003.066-.002v-.955h.002V27.356h.028a43 43 0 0 0 2.73-3.938c-1.144-1.948-2.546-3.687-4.045-5.3-1.39.7-2.738 1.49-4.013 2.334-.638-.635-1.357-1.153-2.063-1.696-.693-.557-1.475-.963-2.217-1.44.221-1.643.33-3.262.373-4.95-1.912-.963-3.952-1.6-6.015-2.059a43 43 0 0 0-2.233 4.348 15 15 0 0 0-2.341-.188h-.032c-.784.01-1.563.058-2.341.188a43 43 0 0 0-2.235-4.348M12.174 40.893c.003.708.014 1.484.014 1.639 0 6.96 8.828 10.307 19.799 10.346h.027c10.97-.039 19.797-3.386 19.797-10.346 0-.158.008-.93.012-1.639l-6.588.637-.227 3.252a.79.79 0 0 1-.73.732l-7.807.557a.79.79 0 0 1-.838-.672l-.447-3.037h-6.371l-.447 3.037a.787.787 0 0 1-.836.672l-7.809-.557a.79.79 0 0 1-.73-.732l-.227-3.252z" transform="translate(3.646 4.006)scale(.8861)"/>
    <path fill="#f5f5f5" d="M26.708 32.546a3.913 3.913 0 1 1-7.827.002 3.913 3.913 0 0 1 7.827-.002m5.293 4.271c-.696 0-1.26-.513-1.26-1.145V32.07c0-.632.564-1.145 1.26-1.145s1.26.513 1.26 1.145v3.603c0 .631-.565 1.144-1.26 1.144m5.293-4.27a3.914 3.914 0 1 0 7.826.002 3.914 3.914 0 0 0-7.826-.002"/>
    <path fill="url(#c)" d="M22.033 29.539a2.933 2.933 0 0 0-2.934 2.932 2.933 2.933 0 0 0 5.866 0 2.93 2.93 0 0 0-2.932-2.932m19.934 0a2.932 2.932 0 1 0 .001 5.864 2.932 2.932 0 0 0-.001-5.864" transform="translate(3.646 4.006)scale(.8861)"/>
</svg>
