<svg xmlns="http://www.w3.org/2000/svg" viewBox="0 0 64 64">
    <defs>
        <linearGradient id="a" x1="32" x2="32" y1="4" y2="60" gradientUnits="userSpaceOnUse">
            <stop offset="0" stop-color="#3fe366"/>
            <stop offset="1" stop-color="#15a368"/>
        </linearGradient>
    </defs>
    <rect width="56" height="56" x="4" y="4" rx="12" style="fill:url(#a);stroke-width:2"/>
    <path d="M18 22c-1.108 0-2 .892-2 2v14c0 1.108.892 2 2 2h22c1.108 0 2-.892 2-2V24c0-1.108-.892-2-2-2zm0 2h6v2h-6zm8 0h6v2h-6zm8 0h6v2h-6zm-16 4h6v2h-6zm8 0h6v2h-6zm8 0h6v2h-6zm-16 4h6v2h-6zm8 0h6v2h-6zm8 0h6v2h-6zm-16 4h6v2h-6zm8 0h6v2h-6zm8 0h6v2h-6z" style="fill:#fff"/>
    <rect width="18" height="14" x="30" y="32" rx="2" style="fill:#b1e59b;fill-opacity:1;stroke:none;stroke-width:1.16666"/>
    <path d="M36 34v10h2V34Zm-4 2v8h2v-8zm8 4v4h2v-4zm4-2v6h2v-6z" style="fill:#5aba30;fill-opacity:1;stroke:none;stroke-width:1.99999"/>
</svg>
