<svg xmlns="http://www.w3.org/2000/svg" viewBox="0 0 64 64">
    <defs>
        <linearGradient id="a" x1="65.411" x2="65.411" y1="3.153" y2="59.155" gradientTransform="translate(-33.411 .846)" gradientUnits="userSpaceOnUse">
            <stop offset="0" style="stop-opacity:.1;stop-color:#fff"/>
            <stop offset="1" style="stop-opacity:.1"/>
        </linearGradient>
    </defs>
    <g transform="translate(0 -.031)">
        <rect width="56" height="56" x="4" y="4" rx="12" style="fill:#f5f5f5;stroke-width:1"/>
        <rect width="56" height="56" x="4" y="4" rx="12" style="stroke-width:1;fill:url(#a)"/>
    </g>
    <g transform="translate(6.1 5.696)scale(.80935)">
        <path fill="#ffc107" d="M32 5a21.93 21.93 0 0 0-15.555 6.445l9.902 9.903A8 8 0 0 1 32 19Z"/>
        <path fill="#53dd22" d="M32 5v14a8 8 0 0 1 5.652 2.348l9.903-9.903A21.93 21.93 0 0 0 32 5"/>
        <path fill="#ab47bc" d="m26.348 32.652-9.902 9.902A21.93 21.93 0 0 0 32 49v-4h-8l4.754-10.695a8 8 0 0 1-2.407-1.653z"/>
        <path fill="#3f51b5" d="M37.652 32.652a8 8 0 0 1-2.406 1.648L40 45h-8v4a21.93 21.93 0 0 0 15.555-6.446z"/>
        <path fill="#42fffd" d="m47.555 11.445-9.902 9.902A8 8 0 0 1 40 27h14a21.93 21.93 0 0 0-6.445-15.555"/>
        <path fill="#039af4" d="M40 27a8 8 0 0 1-2.348 5.652l9.903 9.903A21.93 21.93 0 0 0 54 27Z"/>
        <path fill="#ff8e13" d="M16.445 11.445A21.93 21.93 0 0 0 10 27h14a8 8 0 0 1 2.347-5.652z"/>
        <path fill="#fd3b2d" d="M10 27a21.93 21.93 0 0 0 6.445 15.555l9.903-9.902A8 8 0 0 1 24 27Z"/>
        <rect width="8" height="8" x="28" y="52" fill="#666" rx="1.333" style="fill:#af9a6a;fill-opacity:1"/>
        <rect width="16" height="14" x="24" y="43" fill="#666" rx="2.8" style="fill:#c4c4c4;fill-opacity:1"/>
    </g>
</svg>
