<svg xmlns="http://www.w3.org/2000/svg" xmlns:xlink="http://www.w3.org/1999/xlink" viewBox="0 0 64 64">
    <defs>
        <linearGradient id="c" x1="8.415" x2="8.415" y1="14.91" y2="2.074" gradientTransform="scale(3.7796)" gradientUnits="userSpaceOnUse">
            <stop offset="0" stop-color="#303030"/>
            <stop offset="1" stop-color="#4f4f4f" stop-opacity=".992"/>
        </linearGradient>
        <clipPath id="b">
            <path d="M0 0h64v64H0z"/>
        </clipPath>
        <filter id="a" width="100%" height="100%" x="0%" y="0%">
            <feColorMatrix color-interpolation-filters="sRGB" values="0 0 0 0 1 0 0 0 0 1 0 0 0 0 1 0 0 0 1 0"/>
        </filter>
        <mask id="d">
            <g filter="url(#a)">
                <path fill-opacity=".35" d="M-6.4-6.4h76.8v76.8H-6.4z"/>
            </g>
        </mask>
        <g id="e" clip-path="url(#b)">
            <path fill="#f5f5f5" fill-opacity=".937" d="M60 24.719a10 10 0 0 0-1.578.203c-1.274.289-2.442.816-3.512 1.515a20.6 20.6 0 0 0-3.89.075 18.9 18.9 0 0 0-6.23 1.832v.558a18.4 18.4 0 0 1 6.288-1.898 19 19 0 0 1 3.164-.105c-2.492 1.843-4.441 4.593-5.984 7.316v.008a16 16 0 0 1-3.465 4.445v.36l-.008.285c1.602-1.352 2.93-3 3.906-4.852 1.633-2.879 3.707-5.742 6.344-7.508 1.695.133 3.363.492 4.965 1.063v-.543a19.7 19.7 0 0 0-4.266-.957 10 10 0 0 1 2.793-1.106v.008a9 9 0 0 1 1.473-.2ZM4 27.004v.957c.191-.047.379-.106.574-.145 2.028 1.125 3.938 3.235 5.719 7.176A35 35 0 0 0 4 36.972v.548c1.742-.758 4.016-1.524 6.52-2.055 1.523 3.433 3.37 5.902 5.5 7.531a4 4 0 0 1 .41-.3c-2.078-1.551-3.895-3.938-5.407-7.337 1.653-.32 3.38-.539 5.11-.558 1.164 1.82 2.496 3.715 4.27 5.32.378.34.785.664 1.202.973.243-.04.442-.098.622-.16-.52-.364-1.02-.758-1.489-1.184-1.64-1.48-2.898-3.234-4.011-4.953 1.648.023 3.28.226 4.816.672a18 18 0 0 1 1.883.695v-.547q-.857-.359-1.742-.625c-1.696-.496-3.489-.699-5.29-.703-.55-.867-1.078-1.727-1.578-2.52-1.754-2.773-3.98-4.105-6.257-4.53-1.317-.243-2.637-.18-3.907.058-.215-.117-.433-.195-.652-.293m2.848.574c.543 0 1.086.05 1.617.149 2.152.398 4.242 1.632 5.93 4.312.449.707.918 1.477 1.41 2.262-1.707.039-3.39.261-5.012.586-1.676-3.75-3.523-5.942-5.48-7.2q.76-.107 1.535-.109m35.77 2.047c-1.825 1.25-3.516 2.898-4.962 5.027-1.218 1.801-2.672 3.672-4.316 5.317-3.016-1.035-5.504-2.309-7.75-3.375v.558c2.12 1.016 4.496 2.211 7.351 3.211-.527.508-1.074.992-1.64 1.442a17.3 17.3 0 0 1-2.383 1.586 15 15 0 0 1-3.32-.743v.164l.007.364c.829.273 1.68.48 2.54.617-.817.387-1.668.691-2.543.89-.008.176-.012.352-.028.516a13 13 0 0 0 3.453-1.3c1.016.105 2.082.144 3.25.07.59-.04 1.18-.106 1.766-.184-.05-.16-.094-.32-.121-.484-.559.07-1.117.129-1.676.164-.867.055-1.668.043-2.445-.004q.94-.58 1.808-1.266a24 24 0 0 0 1.864-1.648c.203.066.414.129.62.191.06-.16.126-.316.208-.465-.14-.046-.293-.086-.43-.128 1.602-1.633 3.008-3.458 4.2-5.211 1.335-1.97 2.882-3.516 4.546-4.707ZM60 31.957c-.848.844-1.656 1.926-2.664 3.3-2.86 3.895-5.832 5.907-9.344 6.29q-1.656.181-3.32.21c-.016.177-.043.329-.07.49a38 38 0 0 0 3.449-.204c3.672-.402 6.785-2.52 9.691-6.484.86-1.172 1.567-2.121 2.258-2.88Zm0 0"/>
        </g>
    </defs>
    <path fill="url(#c)" d="M17 4a12.96 12.96 0 0 0-9.203 3.797A12.96 12.96 0 0 0 4 17v30a12.96 12.96 0 0 0 3.797 9.203A12.96 12.96 0 0 0 17 60h30a12.96 12.96 0 0 0 9.203-3.797A12.96 12.96 0 0 0 60 47V17a12.96 12.96 0 0 0-3.797-9.203A12.96 12.96 0 0 0 47 4Zm0 0"/>
    <g mask="url(#d)">
        <use xlink:href="#e"/>
    </g>
    <path fill="#f5f5f5" d="M43.527 12.188c-.336-.004-.761.054-1.285.175l-8.867 1.801-.195.035-8.051 1.59c-1.473.316-1.758 1.14-1.727 2.445l.024 20.364c-.067 1.43-.223 2.215-1.871 2.48-5.825.867-6.953 2.672-6.918 5.234.035 2.555 2.105 4.606 4.96 4.317 2.5-.277 4.364-1.008 5.516-3.328.442-.867.59-2.684.48-4.516l-.019-16.2c0-1.132-.191-1.765 1.313-2.077l9.047-1.824 5.367-1.082c.875-.176 1.285.125 1.3 1.105l.02 12.102c-.066 1.433-.207 2.086-1.851 2.351-5.829.871-6.973 2.805-6.938 5.367.035 2.555 2.137 4.477 4.992 4.184 2.504-.273 4.305-.922 5.45-3.238.44-.868.48-2.61.519-4.477l-.016-24.773c0-1.399-.238-2.016-1.246-2.036Zm0 0"/>
</svg>
