<svg xmlns="http://www.w3.org/2000/svg" width="64" height="64" viewBox="0 0 64 64">
    <path fill="#f5f5f5" d="M15.999 3.969h32.002c6.623 0 12 5.377 12 12v32.002c0 6.623-5.377 12-12 12H15.999c-6.623 0-12-5.377-12-12V15.969c0-6.623 5.377-12 12-12"/>
    <linearGradient id="a" x1=".5" x2=".5" y1="0" y2="1" gradientTransform="translate(3.999 3.969)scale(56.002)" gradientUnits="userSpaceOnUse">
        <stop offset="0%" stop-opacity=".1" style="stop-color:#fff"/>
        <stop offset="100%" stop-opacity=".2" style="stop-color:#000"/>
    </linearGradient>
    <path fill="url(#a)" d="M15.999 3.969h32.002c6.623 0 12 5.377 12 12v32.002c0 6.623-5.377 12-12 12H15.999c-6.623 0-12-5.377-12-12V15.969c0-6.623 5.377-12 12-12"/>
    <g style="opacity:.3">
        <path d="M12.233 16h39.534c.129 0 .233.104.233.233v.034a.233.233 0 0 1-.233.233H12.233a.233.233 0 0 1-.233-.233v-.034c0-.129.104-.233.233-.233m0 8h39.534c.129 0 .233.104.233.233v.034a.233.233 0 0 1-.233.233H12.233a.233.233 0 0 1-.233-.233v-.034c0-.129.104-.233.233-.233m0 8h39.534c.129 0 .233.104.233.233v.034a.233.233 0 0 1-.233.233H12.233a.233.233 0 0 1-.233-.233v-.034c0-.129.104-.233.233-.233m0 8h39.534c.129 0 .233.104.233.233v.034a.233.233 0 0 1-.233.233H12.233a.233.233 0 0 1-.233-.233v-.034c0-.129.104-.233.233-.233m0 8h39.534c.129 0 .233.104.233.233v.034a.233.233 0 0 1-.233.233H12.233a.233.233 0 0 1-.233-.233v-.034c0-.129.104-.233.233-.233" style="stroke:none;fill:#000;stroke-miterlimit:10"/>
    </g>
    <linearGradient id="b" x1=".504" x2=".616" y1=".359" y2=".474" gradientTransform="matrix(29.344 0 0 49 27.5 9.5)" gradientUnits="userSpaceOnUse">
        <stop offset="0%" style="stop-color:#000"/>
        <stop offset="100%" stop-opacity=".1" style="stop-color:#000"/>
    </linearGradient>
    <path fill="url(#b)" d="m36.958 48.002 19.31-33.306c.206-.356-.008-.898-.507-1.448l1.025-1.768c.232-.4-.247-1.103-1.073-1.578-.829-.476-1.68-.537-1.91-.14l-1.017 1.753c-.758-.175-1.364-.094-1.577.272L31.88 45.128a.4.4 0 0 0-.084.145l-3.693 10.704s-.001.049.084.078l-.538 1.564c-.349 1.013-.064 1.176.635.365l1.093-1.268c.053.004.066-.005.066-.005l7.431-8.565a.4.4 0 0 0 .084-.144"/>
    <path fill="#5d5d5d" d="M41.207 27.883q9.969-17.764 9.855-17.8-.866-.031-1.609.34-.742.371-9.017 15.459c-.263.479-.148 1.166.256 1.533z"/>
    <path fill="#334155" d="m26.199 57.102 4.253-12.357 4.936 2.589c.075.039.091.124.036.188l-8.577 9.952c-.713.827-1.004.661-.648-.372"/>
    <path fill="#1e293b" d="M50.332 12.674c.236-.408 1.104-.345 1.947.139.843.485 1.334 1.204 1.098 1.612l2.553-4.404c.237-.408-.252-1.126-1.094-1.61-.846-.487-1.714-.549-1.949-.144z"/>
    <linearGradient id="c" x1=".158" x2=".15" y1="-.001" y2="1.011" gradientTransform="matrix(2.98 -5.14 3.045 1.751 50.332 12.674)" gradientUnits="userSpaceOnUse">
        <stop offset="0%" stop-opacity=".9" style="stop-color:#fff"/>
        <stop offset="100%" stop-opacity=".3" style="stop-color:#000"/>
    </linearGradient>
    <path fill="url(#c)" d="M50.332 12.674c.236-.408 1.104-.345 1.947.139.843.485 1.334 1.204 1.098 1.612l2.553-4.404c.237-.408-.252-1.126-1.094-1.61-.846-.487-1.714-.549-1.949-.144z"/>
    <path fill="#334155" d="M30.462 44.448c.237-.408 1.578-.074 3.007.748s2.391 1.811 2.155 2.219l19.778-34.113c.355-.614-.511-1.767-1.941-2.589-1.429-.822-2.865-.992-3.221-.379z"/>
    <linearGradient id="d" x1=".158" x2=".15" y1="-.001" y2="1.011" gradientTransform="matrix(20.418 -35.218 5.161 2.967 30.462 44.448)" gradientUnits="userSpaceOnUse">
        <stop offset="0%" stop-opacity=".9" style="stop-color:#fff"/>
        <stop offset="100%" stop-opacity=".3" style="stop-color:#000"/>
    </linearGradient>
    <path fill="url(#d)" d="M30.462 44.448c.237-.408 1.578-.074 3.007.748s2.391 1.811 2.155 2.219l19.778-34.113c.355-.614-.511-1.767-1.941-2.589-1.429-.822-2.865-.992-3.221-.379z"/>
    <path fill="#fff" d="M51.309 10.639c.052-.102.233-.617.681-.478.449.14.361.025.309.128L32.437 44.682c-.051.103-.593-.143-.614-.246-.004-.015 11.553-20.104 19.486-33.797" opacity=".7"/>
    <path fill="#475569" d="M26.662 55.425s-.001.066.113.106c.185-.031.416.04.615.157.199.118.371.277.503.467.099.046.137.019.137.019l7.582-8.739c.465-.532-.689-1.459-2.118-2.281-1.43-.822-2.832-1.32-3.064-.651z"/>
    <path fill="#94a3b8" fill-opacity=".5" d="M26.662 55.425s-.001.066.113.106c.185-.031.416.04.615.157.199.118.371.277.503.467.099.046.137.019.137.019l7.582-8.739c.465-.532-.689-1.459-2.118-2.281-1.43-.822-2.832-1.32-3.064-.651z"/>
    <linearGradient id="e" x1=".158" x2=".15" y1="-.001" y2="1.011" gradientTransform="matrix(6.194 -10.684 5.176 2.976 24.711 54.35)" gradientUnits="userSpaceOnUse">
        <stop offset="0%" stop-opacity=".9" style="stop-color:#fff"/>
        <stop offset="100%" stop-opacity=".3" style="stop-color:#000"/>
    </linearGradient>
    <path fill="url(#e)" d="M26.662 55.425s-.001.066.113.106c.185-.031.416.04.615.157.199.118.371.277.503.467.099.046.137.019.137.019l7.582-8.739c.465-.532-.689-1.459-2.118-2.281-1.43-.822-2.832-1.32-3.064-.651z"/>
    <path fill="#f5f5f5" d="M27.189 55.291s-.098.055.135.178c.23.129.233.034.233.034L32.28 45.8c.118-.243.003-.442-.401-.675-.593-.341-.695-.114-.775.088z" opacity=".7"/>
    <path fill="#212020" d="M33.064 39.96c.356-.613 1.793-.445 3.223.377s2.294 1.977 1.938 2.591l.19-.328c.354-.61-.509-1.769-1.938-2.591-1.43-.822-2.867-.99-3.225-.374zm-.988 1.704c.356-.613 1.793-.445 3.223.377s2.294 1.977 1.939 2.591l.189-.328c.354-.61-.509-1.769-1.938-2.591-1.43-.822-2.867-.99-3.224-.374z" opacity=".5"/>
</svg>
