<svg xmlns="http://www.w3.org/2000/svg" viewBox="0 0 64 64">
    <defs>
        <linearGradient id="c" x1="8" x2="8" y1="16" y2="0" gradientTransform="matrix(3.5 0 0 3.5 4 4)" gradientUnits="userSpaceOnUse" href="#a"/>
        <linearGradient id="a">
            <stop offset="0" style="stop-color:#272727"/>
            <stop offset="1" style="stop-color:#5d5d5d"/>
        </linearGradient>
        <linearGradient id="b" x1="16" x2="16" y1="30" y2="2" gradientTransform="scale(2)" gradientUnits="userSpaceOnUse">
            <stop offset="0" style="stop-opacity:1;stop-color:#7c6d67"/>
            <stop offset="1" style="stop-opacity:1;stop-color:#aba09c"/>
        </linearGradient>
        <linearGradient id="d" x1="46" x2="46" y1="35" y2="56" gradientTransform="matrix(-.90476 0 0 .90476 59.857 4.334)" gradientUnits="userSpaceOnUse">
            <stop offset="0" style="stop-color:#fff"/>
            <stop offset="1" style="stop-color:#fff;stop-opacity:.9"/>
        </linearGradient>
    </defs>
    <path d="M16 4h32l12 12v32c0 6.648-5.352 12-12 12H16L4 48V16C4 9.352 9.352 4 16 4" style="stroke-width:2;fill:url(#b);transform-origin:32px 32px"/>
    <path d="M32 4v28h28V16c0-6.648-5.352-12-12-12zm0 28H4v16c0 6.648 5.352 12 12 12h16z" style="fill:url(#c);fill-opacity:1;stroke-width:1.75;stroke-linecap:round;stroke-linejoin:round;transform-origin:32px 32px"/>
    <path d="m17.335 36-.003 2.493L11 42.529l1.238 2.56 2.663-.989a2.52 2.52 0 0 0 1.991.995c1.332-.002 2.156-1.14 2.251-2.515v-.001 4.32c-.873.655-1.682 1.348-3.026 1.768-1.983.62-3.345 1.453-3.345 3.592L14.54 55h8.104l2.832-2.687v-6.568c0-4.28-1.545-7.546-5.682-7.546l-.133.006c.007-.212-.013-.061-.059-.269-.25-1.131-1.144-1.934-2.267-1.936" style="fill-opacity:1;stroke-width:2;fill:url(#d);transform-origin:18.238px 45.5px"/>
</svg>
