<svg xmlns="http://www.w3.org/2000/svg" viewBox="0 0 64 64">
    <defs>
        <linearGradient id="c" x1="32" x2="32" y1="17.652" y2="46.348" gradientUnits="userSpaceOnUse">
            <stop offset="0" stop-color="#fbfbfb"/>
            <stop offset="1" stop-color="#c4e4de"/>
        </linearGradient>
        <linearGradient id="a" x1="7.937" x2="7.937" y1="15.081" y2="1.852" gradientTransform="scale(3.7796)" gradientUnits="userSpaceOnUse">
            <stop offset="0" stop-color="#15a368"/>
            <stop offset="1" stop-color="#3fe366"/>
        </linearGradient>
        <filter id="b" width="1.107" height="1.136" x="-.054" y="-.068" color-interpolation-filters="sRGB">
            <feGaussianBlur stdDeviation=".815"/>
        </filter>
    </defs>
    <rect width="56" height="56" x="4" y="3.969" fill="url(#a)" rx="12"/>
    <path d="M32 13.739 50.261 32 32 50.261 13.739 32z" opacity=".25"/>
    <path d="m14.391 17.652-.652.652v1.304l.652.653h1.956v25.435l.653.652h1.956l28.696-26.74v-1.303L47 17.652H35.261l-.652.653v1.304l.652.652h1.957v1.304L22.87 34.608V20.26h1.956l.652-.652v-1.304l-.652-.652zm20.08 15.652-.925.652-.438 1.304.49.653h1.41l.925-.653.436-1.304-.487-.652m-4.795 3.913-.392 1.304h1.174l-2.479 6.522h3.913l.482-1.304H32.65l2.479-6.522m1.563 0-.456 1.304h.978l-2.478 6.522h3.327l.457-1.304h-.719l1.371-3.913h2.772l-1.86 5.217h3.26l.522-1.304h-.716l1.369-3.913h2.608l-1.826 5.217h3.419l.599-1.304h-.912l1.852-5.217-1.045-1.305H47.65l-1.304 1.305h-1.109l-1.11-1.305H42.89l-1.239 1.305h-1.304l-1.174-1.305" filter="url(#b)" opacity=".25"/>
    <path fill="url(#c)" d="m14.391 17.652-.652.652v1.304l.652.653h1.956v25.435l.653.652h1.956l28.696-26.74v-1.303L47 17.652H35.261l-.652.653v1.304l.652.652h1.957v1.304L22.87 34.608V20.26h1.956l.652-.652v-1.304l-.652-.652zm20.08 15.652-.925.652-.438 1.304.49.653h1.41l.925-.653.436-1.304-.487-.652m-4.795 3.913-.392 1.304h1.174l-2.479 6.522h3.913l.482-1.304H32.65l2.479-6.522m1.563 0-.456 1.304h.978l-2.478 6.522h3.327l.457-1.304h-.719l1.371-3.913h2.772l-1.86 5.217h3.26l.522-1.304h-.716l1.369-3.913h2.608l-1.826 5.217h3.419l.599-1.304h-.912l1.852-5.217-1.045-1.305H47.65l-1.304 1.305h-1.109l-1.11-1.305H42.89l-1.239 1.305h-1.304l-1.174-1.305"/>
</svg>
