<svg xmlns="http://www.w3.org/2000/svg" viewBox="0 0 64 64">
    <defs>
        <linearGradient id="a" x1="32" x2="32" y1="4" y2="60" gradientUnits="userSpaceOnUse">
            <stop offset="0" style="stop-color:#fcd34d"/>
            <stop offset="1" style="stop-color:#f97316"/>
        </linearGradient>
    </defs>
    <rect width="56" height="56" x="4" y="4" rx="12" style="fill:url(#a)"/>
    <path d="M38.667 13.333s-1.591 5.403-2.667 8c-.438 1.057-1.129 2.463-1.814 3.816A7.2 7.2 0 0 0 32 24.8a7.1 7.1 0 0 0-2.184.353c-.686-1.356-1.378-2.762-1.816-3.82-1.076-2.597-2.667-8-2.667-8S28 10.667 32 10.667s6.667 2.666 6.667 2.666M27.286 21.63c.439 1.058.944 2.541 1.417 3.984a7.1 7.1 0 0 0-3.046 3.101c-1.456-.477-2.958-.986-4.027-1.429-2.597-1.077-7.543-3.77-7.543-3.77s-.001-3.775 2.828-6.603c2.828-2.829 6.601-2.829 6.601-2.829s2.695 4.949 3.77 7.546m19.801-4.717c2.828 2.828 2.828 6.603 2.828 6.603s-4.946 2.695-7.543 3.77c-1.068.442-2.568.952-4.023 1.429a7.1 7.1 0 0 0-3.05-3.099c.473-1.444.977-2.928 1.417-3.986 1.077-2.597 3.77-7.546 3.77-7.546s3.774 0 6.601 2.829M21.335 28c1.07.444 2.496 1.147 3.865 1.84a7.1 7.1 0 0 0-.311 2.071c.003.756.126 1.506.364 2.222-1.385.703-2.833 1.418-3.918 1.867-2.597 1.076-8 2.667-8 2.667S10.668 36 10.668 32s2.667-6.667 2.667-6.667 5.403 1.591 8 2.667m32 4c0 4-2.667 6.667-2.667 6.667s-5.402-1.591-8-2.667c-1.084-.45-2.535-1.164-3.92-1.867a7.1 7.1 0 0 0 .363-2.222 7.1 7.1 0 0 0-.314-2.068c1.37-.695 2.799-1.399 3.871-1.843 2.598-1.076 8-2.667 8-2.667S53.335 28 53.335 32m-24.579 6.232c-.487 1.49-1.013 3.041-1.467 4.137-1.077 2.597-3.771 7.544-3.771 7.544s-3.773 0-6.601-2.829c-2.827-2.828-2.827-6.6-2.827-6.6s4.946-2.696 7.543-3.771c1.087-.451 2.621-.972 4.1-1.455a7.1 7.1 0 0 0 3.023 2.974m13.616-1.519c2.597 1.077 7.544 3.771 7.544 3.771s-.001 3.772-2.829 6.6c-2.827 2.829-6.601 2.829-6.601 2.829s-2.695-4.947-3.77-7.544c-.454-1.095-.981-2.645-1.467-4.135a7.1 7.1 0 0 0 3.022-2.976c1.478.483 3.014 1.004 4.101 1.455m-6.371 5.953c1.075 2.597 2.667 8 2.667 8s-2.667 2.666-6.667 2.666-6.667-2.666-6.667-2.666 1.591-5.403 2.667-8c.455-1.097 1.179-2.567 1.889-3.966a7.1 7.1 0 0 0 2.11.322 7.1 7.1 0 0 0 2.108-.327c.711 1.4 1.438 2.873 1.893 3.971M32 8C18.745 8 8 18.745 8 32s10.745 24 24 24 24-10.745 24-24S45.255 8 32 8m0 18.578a5.333 5.333 0 1 1 0 10.666 5.333 5.333 0 0 1 0-10.666" style="stroke-width:1.778;stroke-linejoin:round;fill-opacity:1;fill:#fff"/>
</svg>
