<svg xmlns="http://www.w3.org/2000/svg" width="64" height="64">
    <defs>
        <linearGradient id="c" x1="74.341" x2="74.032" y1="15.186" y2="49.356" gradientUnits="userSpaceOnUse">
            <stop offset="0" stop-color="#336df5"/>
            <stop offset="1" stop-color="#42afe6"/>
        </linearGradient>
        <linearGradient id="d" x1="76.747" x2="91.891" y1="32" y2="32" gradientUnits="userSpaceOnUse">
            <stop offset="0" stop-color="#63c644"/>
            <stop offset="1" stop-color="#96ca6b" stop-opacity=".982"/>
        </linearGradient>
        <linearGradient id="b" x1="95.889" x2="95.172" y1="17.085" y2="48.949" gradientUnits="userSpaceOnUse">
            <stop offset="0" stop-color="#5da624"/>
            <stop offset="1" stop-color="#6ba63f" stop-opacity=".952"/>
        </linearGradient>
        <linearGradient id="a" x1="7.937" x2="7.937" y1="15.081" y2="1.852" gradientTransform="scale(3.7796)" gradientUnits="userSpaceOnUse">
            <stop offset="0" stop-color="#ececec"/>
            <stop offset="1" stop-color="#f5f5f5"/>
        </linearGradient>
    </defs>
    <g color="#000">
        <path d="M4.31 1.058c-1.866 0-3.375 1.539-3.375 3.44v8.467c0 1.9 1.509 3.439 3.375 3.439h8.312c1.865 0 3.375-1.538 3.375-3.44V4.498c0-1.9-1.51-3.439-3.375-3.439h-.097c1.794.087 3.214 1.582 3.214 3.432v7.937c0 1.906-1.506 3.44-3.377 3.44h-7.79c-1.871 0-3.377-1.534-3.377-3.44V4.49c0-1.85 1.42-3.345 3.214-3.432z" opacity=".03" style="font-feature-settings:normal;font-variant-alternates:normal;font-variant-caps:normal;font-variant-east-asian:normal;font-variant-ligatures:normal;font-variant-numeric:normal;font-variant-position:normal;font-variation-settings:normal;inline-size:0;isolation:auto;mix-blend-mode:normal;shape-margin:0;shape-padding:0;text-decoration-color:#000;text-decoration-line:none;text-decoration-style:solid;text-indent:0;text-orientation:mixed;text-transform:none;white-space:normal" transform="scale(3.7796)"/>
        <path d="M4 46.969V49c0 6.648 5.352 12 12 12h32c6.648 0 12-5.352 12-12v-1.992a12.97 12.97 0 0 1-13 12.963H17.002A12.973 12.973 0 0 1 4 46.969" opacity=".03" style="font-feature-settings:normal;font-variant-alternates:normal;font-variant-caps:normal;font-variant-east-asian:normal;font-variant-ligatures:normal;font-variant-numeric:normal;font-variant-position:normal;font-variation-settings:normal;inline-size:0;isolation:auto;mix-blend-mode:normal;shape-margin:0;shape-padding:0;text-decoration-color:#000;text-decoration-line:none;text-decoration-style:solid;text-indent:0;text-orientation:mixed;text-transform:none;white-space:normal"/>
        <path d="M1.058 11.906v.592c0 1.939 1.416 3.5 3.175 3.5H12.7c1.759 0 3.175-1.561 3.175-3.5v-.58c-.006 2.095-1.538 3.78-3.44 3.78H4.498c-1.905 0-3.44-1.692-3.44-3.792" opacity=".05" style="font-feature-settings:normal;font-variant-alternates:normal;font-variant-caps:normal;font-variant-east-asian:normal;font-variant-ligatures:normal;font-variant-numeric:normal;font-variant-position:normal;font-variation-settings:normal;inline-size:0;isolation:auto;mix-blend-mode:normal;shape-margin:0;shape-padding:0;text-decoration-color:#000;text-decoration-line:none;text-decoration-style:solid;text-indent:0;text-orientation:mixed;text-transform:none;white-space:normal" transform="scale(3.7796)"/>
    </g>
    <rect width="56" height="56" x="4" y="3.969" fill="url(#a)" rx="12"/>
    <g stroke-width="1.304">
        <path fill="url(#b)" d="m98.698 21.565-7.826-6.522v33.913l7.826-6.521z" transform="translate(-52.35)"/>
        <path fill="url(#c)" d="m70.002 21.565 7.826-6.522v33.913l-7.826-6.521z" transform="translate(-52.35)"/>
        <path fill="url(#d)" d="M77.828 15.043c-1.589 4.544-1.287 9.196 0 13.912l13.043 20.001c.836-4.564 1.799-9.127 0-13.69z" transform="translate(-52.35)"/>
        <path fill="#569e41" d="M38.522 35.266v13.69l5.87-4.891z"/>
        <path fill="#5db54e" d="m25.478 15.043-5.88 4.9 5.88 9.012z"/>
    </g>
</svg>
