<svg xmlns="http://www.w3.org/2000/svg" xmlns:xlink="http://www.w3.org/1999/xlink" viewBox="0 0 64 64">
    <defs>
        <linearGradient id="a">
            <stop offset="0" style="stop-color:#eaebed"/>
            <stop offset="1" style="stop-color:#f9fafa"/>
        </linearGradient>
        <linearGradient xlink:href="#a" id="c" x1="16" x2="16" y1="30" y2="2" gradientTransform="scale(2)" gradientUnits="userSpaceOnUse"/>
        <linearGradient id="b">
            <stop offset="0" style="stop-color:#e72f2f"/>
            <stop offset="1" style="stop-color:#ff6969"/>
        </linearGradient>
        <linearGradient xlink:href="#b" id="d" x1="16" x2="16" y1="30" y2="2" gradientTransform="scale(2)" gradientUnits="userSpaceOnUse"/>
    </defs>
    <path d="M4 16v32c0 6.648 5.352 12 12 12h32c6.648 0 12-5.352 12-12V16Z" style="fill:url(#c);stroke-width:2"/>
    <path d="M16 4C9.352 4 4 9.352 4 16v16h56V16c0-6.648-5.352-12-12-12Z" style="opacity:1;fill:url(#d);stroke-width:2"/>
    <rect width="20" height="4" x="12" y="18" rx="2" style="fill:#fff;fill-opacity:1;stroke-width:6.76124;stroke-linejoin:round"/>
    <rect width="12" height="3" x="12" y="25" rx="1.5" style="opacity:.6;fill:#fff;fill-opacity:1;stroke-width:8;stroke-linejoin:round"/>
    <rect width="40" height="2" x="12" y="36" rx="1" style="opacity:.5;fill:#363636;fill-opacity:1;stroke-width:6.76124;stroke-linejoin:round"/>
    <rect width="40" height="2" x="12" y="41" rx="1" style="opacity:.5;fill:#363636;fill-opacity:1;stroke-width:6.76124;stroke-linejoin:round"/>
    <rect width="40" height="2" x="12" y="46" rx="1" style="opacity:.5;fill:#363636;fill-opacity:1;stroke-width:6.76124;stroke-linejoin:round"/>
    <rect width="40" height="2" x="12" y="51" rx="1" style="opacity:.5;fill:#363636;stroke-width:2;stroke-linejoin:round;fill-opacity:1"/>
</svg>
