<svg xmlns="http://www.w3.org/2000/svg" xmlns:xlink="http://www.w3.org/1999/xlink" viewBox="0 0 64 64">
    <defs>
        <linearGradient id="c" x1="169.51" x2="169.51" y1="122.46" y2="16.447" gradientTransform="translate(-48.9 -.42)scale(.4813)" gradientUnits="userSpaceOnUse">
            <stop offset="0" stop-color="#ff1f4c"/>
            <stop offset="1" stop-color="#ff5277"/>
        </linearGradient>
        <linearGradient id="f" x1="29.504" x2="29.504" y1="47.747" y2="17.014" gradientUnits="userSpaceOnUse">
            <stop offset="0" stop-color="#ffb8c4"/>
            <stop offset="1" stop-color="#f5f5f5"/>
        </linearGradient>
        <clipPath id="b">
            <path d="M0 0h64v64H0z"/>
        </clipPath>
        <filter id="a" width="100%" height="100%" x="0%" y="0%">
            <feColorMatrix color-interpolation-filters="sRGB" values="0 0 0 0 1 0 0 0 0 1 0 0 0 0 1 0 0 0 1 0"/>
        </filter>
        <mask id="d">
            <g filter="url(#a)">
                <path fill-opacity=".35" d="M-6.4-6.4h76.8v76.8H-6.4z"/>
            </g>
        </mask>
        <g id="e" clip-path="url(#b)">
            <path fill="#f5f5f5" fill-opacity=".937" d="M60 24.719a10 10 0 0 0-1.578.203c-1.25.293-2.442.805-3.516 1.512a21 21 0 0 0-3.89.078 18.9 18.9 0 0 0-6.227 1.832v.558c1.965-1 4.098-1.644 6.29-1.898a19.5 19.5 0 0 1 3.163-.106c-2.492 1.844-4.441 4.594-5.984 7.317v.008a15.8 15.8 0 0 1-3.461 4.441v.363q0 .146-.012.285a16.3 16.3 0 0 0 3.906-4.855c1.633-2.875 3.707-5.734 6.344-7.504 1.793.149 3.477.524 4.965 1.059v-.535a19.7 19.7 0 0 0-4.266-.957 10.3 10.3 0 0 1 2.793-1.106v.008a9 9 0 0 1 1.473-.2ZM4.004 27.004v.957c.187-.05.379-.102.574-.145 2.027 1.125 3.938 3.235 5.719 7.176a34.7 34.7 0 0 0-6.293 1.985v.543a33.7 33.7 0 0 1 6.52-2.051c1.519 3.43 3.37 5.898 5.496 7.527q.187-.15.41-.3c-2.078-1.551-3.895-3.938-5.407-7.333a28 28 0 0 1 5.114-.562c1.164 1.82 2.492 3.719 4.27 5.32q.566.51 1.202.973.317-.054.618-.16a15 15 0 0 1-1.489-1.18c-1.64-1.48-2.898-3.234-4.011-4.957 1.648.023 3.28.23 4.816.676a16 16 0 0 1 1.883.691v-.547a20 20 0 0 0-1.742-.625 18.7 18.7 0 0 0-5.29-.699c-.55-.871-1.074-1.727-1.574-2.523-1.754-2.774-3.984-4.106-6.261-4.532a10.6 10.6 0 0 0-3.903.059c-.215-.113-.437-.195-.652-.293m2.844.574c.543.004 1.086.05 1.62.149 2.153.398 4.239 1.632 5.93 4.308l1.407 2.266c-1.703.035-3.39.265-5.008.586-1.676-3.75-3.524-5.938-5.48-7.2a10.5 10.5 0 0 1 1.53-.113Zm35.77 2.047c-1.821 1.246-3.513 2.895-4.958 5.027a37.6 37.6 0 0 1-4.316 5.317c-3.016-1.035-5.508-2.309-7.754-3.375v.558c2.12 1.02 4.5 2.211 7.355 3.211q-.79.762-1.644 1.442a17.4 17.4 0 0 1-2.38 1.59 15.2 15.2 0 0 1-3.323-.75v.167l.011.364c.793.265 1.641.472 2.543.613-.816.39-1.668.688-2.547.895q-.01.263-.027.515a13.2 13.2 0 0 0 3.453-1.3 19.8 19.8 0 0 0 5.016-.114 4 4 0 0 1-.125-.484 20 20 0 0 1-4.121.16 19 19 0 0 0 1.816-1.266 23 23 0 0 0 1.86-1.648q.305.105.62.191c.06-.16.126-.316.208-.465l-.434-.128a37.4 37.4 0 0 0 4.2-5.215c1.34-1.965 2.886-3.512 4.546-4.703Zm17.386 2.332c-.848.844-1.656 1.926-2.664 3.3-2.856 3.891-5.832 5.907-9.348 6.294a37 37 0 0 1-3.316.207q-.03.253-.07.488a38 38 0 0 0 3.449-.207c3.672-.398 6.785-2.516 9.691-6.48.86-1.172 1.566-2.121 2.258-2.88Zm0 0"/>
        </g>
    </defs>
    <path fill="url(#c)" d="M17 3.969h30c7.18 0 13 5.82 13 13v30c0 7.18-5.82 13.004-13 13.004H17c-7.18 0-13-5.825-13-13.004v-30c0-7.18 5.82-13 13-13m0 0"/>
    <g mask="url(#d)">
        <use xlink:href="#e"/>
    </g>
    <path fill="url(#f)" d="M43.527 12.188c-.336-.008-.757.054-1.285.175L33.18 14.2l-8.047 1.59c-.922.195-1.383.594-1.586 1.18a2.4 2.4 0 0 0-.098.375 5 5 0 0 0-.047.89l.024 20.364a8 8 0 0 1-.09.953c-.074.418-.211.75-.48 1.004-.274.25-.68.422-1.297.523-1.82.27-3.184.633-4.196 1.082a5.9 5.9 0 0 0-1.465.899c-.46.394-.812.902-1.015 1.476a4.2 4.2 0 0 0-.2.852q-.058.463-.046.925c.011.958.312 1.848.832 2.567.347.484.797.887 1.312 1.184a4.5 4.5 0 0 0 1.785.57q.493.047 1.032-.004c.937-.106 1.785-.274 2.543-.563 1.257-.484 2.254-1.312 2.968-2.761q.083-.166.153-.371c.14-.41.238-.934.297-1.528.082-.793.09-1.703.035-2.62l-.024-16.2c.004-.422-.02-.777.024-1.07v-.004c.004-.028.015-.047.02-.07a.87.87 0 0 1 .198-.438c.188-.215.512-.375 1.075-.492l9.047-1.825v-.003l5.367-1.082c.437-.086.758-.055.972.12.211.176.32.497.325.989l.023 12.102c-.031.714-.082 1.238-.332 1.613q-.095.142-.227.254c-.18.152-.421.273-.742.363h-.004q-.27.076-.546.117-1.092.165-1.973.375a12.3 12.3 0 0 0-2.227.738 6.3 6.3 0 0 0-1.054.602c-.45.324-.551.445-.758.688-.73.843-.942 1.847-.926 2.968.02 1.598.852 2.946 2.168 3.66a4.65 4.65 0 0 0 1.793.532c.328.03.676.027 1.031-.008.942-.106 1.778-.262 2.524-.54a5.2 5.2 0 0 0 1.359-.734c.617-.464 1.137-1.097 1.566-1.968q.084-.161.149-.364v-.004c.305-.94.336-2.472.371-4.105l-.016-24.777c0-.301-.02-.555-.047-.786a1.6 1.6 0 0 0-.2-.746 1 1 0 0 0-.206-.246 1.1 1.1 0 0 0-.398-.203 2 2 0 0 0-.399-.055m0 0"/>
</svg>
