<?xml version="1.0" encoding="utf-8"?>
<svg xmlns="http://www.w3.org/2000/svg" width="64" height="64">
  <defs>
    <linearGradient id="b" x1="33.821" x2="33.821" y1="43.692" y2="20.308" gradientUnits="userSpaceOnUse">
      <stop offset="0" stop-color="#d11628"/>
      <stop offset="1" stop-color="#ff2919"/>
    </linearGradient>
    <linearGradient id="a" x1="7.937" x2="7.937" y1="15.081" y2="1.852" gradientTransform="matrix(3.77946, 0.017368, -0.019371, 4.215355, 2.087613, -4.243809)" gradientUnits="userSpaceOnUse">
      <stop offset="0" style="stop-color: rgb(234, 179, 8);"/>
      <stop offset="1" style="stop-color: rgb(253, 230, 138);"/>
    </linearGradient>
  </defs>
  <g color="#000" style="visibility: hidden;">
    <path d="M4.31 1.058c-1.866 0-3.375 1.539-3.375 3.44v8.467c0 1.9 1.57 3.439 3.435 3.439h8.2c1.866 0 3.427-1.538 3.427-3.44V4.498c0-1.9-1.51-3.439-3.375-3.439h-.097c1.794.087 3.214 1.582 3.214 3.432v7.937c0 1.906-1.506 3.44-3.377 3.44h-7.79c-1.871 0-3.377-1.534-3.377-3.44V4.49c0-1.85 1.42-3.345 3.214-3.432z" opacity=".03" style="font-feature-settings:normal;font-variant-alternates:normal;font-variant-caps:normal;font-variant-east-asian:normal;font-variant-ligatures:normal;font-variant-numeric:normal;font-variant-position:normal;font-variation-settings:normal;inline-size:0;isolation:auto;mix-blend-mode:normal;shape-margin:0;shape-padding:0;text-decoration-color:#000;text-decoration-line:none;text-decoration-style:solid;text-indent:0;text-orientation:mixed;text-transform:none;white-space:normal" transform="scale(3.7796)"/>
    <path d="M4 46.969V49c0 6.648 5.896 12 12.544 12h30.961C54.153 61 60 55.648 60 49v-1.992a12.97 12.97 0 0 1-13 12.963H17.002A12.973 12.973 0 0 1 4 46.969" opacity=".03" style="font-feature-settings:normal;font-variant-alternates:normal;font-variant-caps:normal;font-variant-east-asian:normal;font-variant-ligatures:normal;font-variant-numeric:normal;font-variant-position:normal;font-variation-settings:normal;inline-size:0;isolation:auto;mix-blend-mode:normal;shape-margin:0;shape-padding:0;text-decoration-color:#000;text-decoration-line:none;text-decoration-style:solid;text-indent:0;text-orientation:mixed;text-transform:none;white-space:normal"/>
    <path d="M1.058 11.906v.592c0 1.939 1.573 3.5 3.332 3.5h8.16c1.76 0 3.325-1.561 3.325-3.5v-.58c-.006 2.095-1.537 3.78-3.44 3.78H4.498c-1.905 0-3.44-1.692-3.44-3.792" opacity=".05" style="font-feature-settings:normal;font-variant-alternates:normal;font-variant-caps:normal;font-variant-east-asian:normal;font-variant-ligatures:normal;font-variant-numeric:normal;font-variant-position:normal;font-variation-settings:normal;inline-size:0;isolation:auto;mix-blend-mode:normal;shape-margin:0;shape-padding:0;text-decoration-color:#000;text-decoration-line:none;text-decoration-style:solid;text-indent:0;text-orientation:mixed;text-transform:none;white-space:normal" transform="scale(3.7796)"/>
  </g>
  <rect width="56" height="56" x="4" y="4" fill="url(#a)" rx="12"/>
  <path fill="url(#b)" d="M25 43.692c.331-1.357 1.403-2.34 2.335-3.133.611-.393.642-.72.15-.947-2.485-1.145-4.53-1.854-6.586-2.978-3.48-1.931-5.473-4.732-6.001-8.43-.109-.885-.109-1.806.046-2.454.213-.46.658-.735 1.186-.735.337 0 .533.078 1.476.6 2.149 1.187 4.251 2.129 5.349 2.403.45.11.497.11.75-.03 1.212-.669 2.15-1.684 2.569-1.834h9.63c3.361 3.589 8.068 4.567 12.143 2.387 1.082-.637 1.73-1.29 2.081-2.387h2.693c0 .202-.56 1.688-.958 2.222-1.284 1.719-3.283 3.106-6.317 4.38-4.355 2.165-7.286 5.126-11.045 6.856-.73.367-.125.58.191.942 1.015.917 1.745 1.89 2.082 3.133m-14.048-9.631-.663-3.298a5 5 0 0 0-.627-.239c-.574-.186-2.081-.813-2.739-1.144-.486-.243-.75-.27-.75-.072 0 .258.605 1.46 1.05 2.091.493.694 1.036 1.248 1.782 1.823.689.523 1.595 1.062 1.802 1.062.155 0 .17-.032.14-.218zm4.039-9.362c.03-.057.357-.678.725-1.274 1.532-2.46 2.242-3.112 3.391-3.112 1.098 0 1.875.694 3.33 2.998.455.715.823 1.362.823 1.388z"/>
</svg>