<svg xmlns="http://www.w3.org/2000/svg" viewBox="0 0 64 64">
    <defs>
        <linearGradient id="c" x2="0" y1="537.8" y2="508.8" gradientTransform="translate(-586.845 -760.758)scale(1.5148)" gradientUnits="userSpaceOnUse">
            <stop offset="0" stop-color="#026ddc"/>
            <stop offset="1" stop-color="#28b0fd"/>
        </linearGradient>
        <linearGradient id="a" x1="408.65" x2="416.65" y1="525.28" y2="533.28" gradientTransform="translate(-.081 -.48)" gradientUnits="userSpaceOnUse">
            <stop offset="0" stop-opacity=".065"/>
            <stop offset="1" stop-opacity="0"/>
        </linearGradient>
        <linearGradient id="e" x1="417.79" x2="426.22" y1="517.96" y2="525.91" gradientTransform="matrix(-1.5148 0 0 1.5148 651.049 -761.485)" gradientUnits="userSpaceOnUse" href="#a"/>
        <linearGradient id="d" x1="408.65" x2="416.65" y1="525.28" y2="533.28" gradientTransform="translate(-586.966 -761.485)scale(1.5148)" gradientUnits="userSpaceOnUse" href="#a"/>
        <linearGradient id="b" x1="7.937" x2="7.937" y1="15.081" y2="1.852" gradientTransform="matrix(3.77865 .0846 0 4.13754 1.965 -4.14)" gradientUnits="userSpaceOnUse">
            <stop offset="0" style="stop-color:#1f2937"/>
            <stop offset="1" style="stop-color:#4b5563"/>
        </linearGradient>
    </defs>
    <rect width="56" height="56" x="4" y="3.969" fill="url(#b)" rx="12" ry="12"/>
    <path fill="url(#c)" d="M32.057 9.972a.5.5 0 0 0-.376.153 85 85 0 0 0-4.139 4.694v.006c-3.191 3.981-5.618 8.071-7.375 12.449-1.638 4.08-2.595 7.604-3.465 12.749a83 83 0 0 0-.518 3.587c-.066.548-.118 1.03-.146 1.386a8 8 0 0 0-.026.443v.169c0 .03 0 .064.021.119.015.057 0 .169.226.306.121.074.137.06.167.067q.116.03.236.036c.118.012.263.025.418.034 1.224.066 3.028.378 4.225.729.807.236 1.339.431 2.128.781l.625.273.049.019.002.003c0 .003.015.006.02.01v-.004.003c.016.003.016.006.029.011l.019.008-.021-.001.133.072.517.288c1.931 1.085 3.375 2.204 5.68 4.413.304.292.586.556.801.751q.162.147.267.238.074.064.154.121l.06.033c.03.014.058.043.197.05.164.008.198-.028.231-.044s.051-.026.066-.035a3 3 0 0 0 .164-.127q.593-.524 1.167-1.068c1.907-1.808 2.831-2.574 4.159-3.455 2.902-1.925 5.486-2.778 9.453-3.115l.321-.027a.5.5 0 0 0 .457-.497v-.189c0-.394-.094-1.209-.221-2.217a82 82 0 0 0-.434-3.03c-.872-5.187-1.86-8.84-3.52-12.97-1.493-3.722-3.633-7.48-6.19-10.882 0-.008-.015-.015-.018-.023-1.721-2.037-3.386-4.175-5.202-6.157a.5.5 0 0 0-.354-.163z" style="stroke-width:1.01" transform="translate(2.91 2.906)scale(.90909)"/>
    <path fill="url(#d)" fill-rule="evenodd" d="M43.054 25.484 16.095 45.883c.03.045.063.096.154.151.121.074.139.058.169.066l.077.018a3 3 0 0 0 .158.018c.118.012.264.028.417.035 1.224.066 3.028.377 4.224.727.808.236 1.344.432 2.131.781l.625.273.047.021h.007l.003.003.02.009h.004l.027.01c.006.002.01.008.019.009l-.019-.003.131.074.518.286c1.931 1.085 3.375 2.205 5.68 4.414.304.291.588.556.801.752q.18.16.366.317l.058.04c.014.008.029.018.06.032s.057.044.195.05c.165.008.2-.028.233-.044s.05-.027.066-.035a1 1 0 0 0 .164-.124c.076-.064.173-.153.29-.258.232-.21.542-.494.876-.81 1.906-1.808 2.83-2.574 4.158-3.455 2.902-1.925 5.486-2.778 9.453-3.113l.32-.027a.505.505 0 0 0 .458-.5v-.187c0-.394-.095-1.21-.22-2.218a81 81 0 0 0-.435-3.03c-.872-5.187-1.858-8.84-3.518-12.971-.229-.569-.497-1.139-.757-1.71" style="stroke-width:1.01" transform="translate(2.91 2.906)scale(.90909)"/>
    <path fill="url(#e)" fill-rule="evenodd" d="m21.029 25.484 26.959 20.399a.45.45 0 0 1-.154.151c-.121.074-.14.058-.169.066l-.077.018a3 3 0 0 1-.159.018c-.118.012-.263.028-.416.035-1.224.066-3.029.377-4.226.727q-1.094.311-2.129.781l-.626.273-.047.021h-.006l-.003.003-.02.009h-.004l-.028.01c-.006.002-.01.008-.018.009l.018-.003-.13.074-.518.286c-1.931 1.085-3.375 2.205-5.68 4.414-.304.291-.588.556-.801.752q-.18.16-.366.317l-.058.04c-.015.008-.03.018-.06.032s-.058.044-.195.05c-.165.008-.2-.028-.233-.044s-.051-.027-.066-.035a1 1 0 0 1-.164-.124c-.076-.064-.173-.153-.29-.258a48 48 0 0 1-.876-.81c-1.906-1.808-2.83-2.574-4.159-3.455-2.901-1.925-5.485-2.778-9.453-3.113l-.319-.027a.504.504 0 0 1-.459-.5v-.187c0-.394.096-1.21.222-2.218s.287-2.157.434-3.03c.871-5.187 1.858-8.84 3.517-12.971.229-.569.498-1.139.758-1.71" style="stroke-width:1.01" transform="translate(2.91 2.906)scale(.90909)"/>
</svg>
