<svg xmlns="http://www.w3.org/2000/svg" viewBox="0 0 64 64">
    <defs>
        <linearGradient id="b" x1="7.937" x2="7.937" y1="15.081" y2="1.852" gradientTransform="matrix(3.7796 .00031 0 4.2348 .001 -4.08)" gradientUnits="userSpaceOnUse">
            <stop offset="0" stop-color="#dc2626"/>
            <stop offset="1" stop-color="#ff5151"/>
        </linearGradient>
        <linearGradient id="a">
            <stop offset="0" style="stop-color:#2be9ff"/>
            <stop offset="1" style="stop-color:#3b82f6"/>
        </linearGradient>
        <linearGradient id="c" x1="45.998" x2="45.998" y1="30" y2="61.996" gradientTransform="matrix(.8751 0 0 .87522 3.747 3.743)" gradientUnits="userSpaceOnUse" href="#a"/>
    </defs>
    <rect width="56" height="56" x="4" y="3.969" fill="url(#b)" rx="12"/>
    <path fill="#f5f5f5" d="M32.003 19.142c-6.45 0-12.445.226-13.771.517-.889.196-1.593.566-2.234 1.176-.51.484-.79.924-1.097 1.72-.337.876-.516 1.701-.64 2.943-.234 2.369-.276 3.538-.255 7.107.017 3.034.03 3.387.202 5.335.152 1.725.318 2.54.724 3.568.445 1.124 1.061 1.822 2.052 2.322.6.302 1.132.443 2.215.588 1.477.198 3.891.3 9.841.416 4.789.093 13.1-.106 15.822-.38.879-.087 1.424-.225 1.995-.5.565-.272 1.24-.812 1.583-1.266.498-.66.94-1.824 1.166-3.066.088-.483.22-1.833.327-3.349.091-1.295.091-7.264 0-8.56-.193-2.73-.324-3.652-.663-4.695-.33-1.012-.607-1.51-1.144-2.058-.687-.7-1.392-1.09-2.35-1.3-1.327-.292-7.323-.518-13.772-.518zm-3.192 7.714c.044-.03 8.975 5.104 8.975 5.158 0 .059.11-.005-4.993 2.898a850 850 0 0 1-3.919 2.223c-.027.011-.058.01-.069-.001-.029-.033-.023-10.257.006-10.277z"/>
    <ellipse cx="48" cy="48" rx="14" ry="14.002" style="fill:url(#c)"/>
    <path d="M44.666 39v9.9H40.5L48 57l7.5-8.1h-4.167V39z" style="fill:#fff"/>
</svg>
