<svg xmlns="http://www.w3.org/2000/svg" viewBox="0 0 64 64">
    <defs>
        <linearGradient id="a" x1="0" x2="1" y1="0" y2="0" gradientTransform="matrix(0 56 56 0 32 4)" gradientUnits="userSpaceOnUse">
            <stop offset="0" style="stop-color:#9aafb9"/>
            <stop offset="1" style="stop-color:#688492"/>
        </linearGradient>
    </defs>
    <path d="M60 48V16c0-6.62-5.38-12-12-12H16C9.38 4 4 9.38 4 16v32c0 6.62 5.38 12 12 12h32c6.62 0 12-5.38 12-12" style="fill:url(#a);stroke-width:1"/>
    <path d="M44.742 12.445c-7.899 0-9.377 12.444-4.934 12.444s12.834-12.444 4.934-12.444M31.314 14.25c-4.517.605-2.926 8.707-.521 8.858s5.04-9.462.521-8.858m-7.281 3.539a3 3 0 0 0-.744.159c-4.229 1.428-.643 7.321 1.726 6.925 2.224-.371 2.479-7.385-.982-7.084m-5.562 5.323a2.7 2.7 0 0 0-1.218.28c-3.476 1.641 1.17 5.605 3.215 4.991 1.789-.538.646-5.211-1.997-5.271m16.514 1.781c-5.993-.11-13.898 3.156-15.246 9.715-1.461 7.099 6.012 16.948 13.807 16.948 3.835 0 8.257-3.761 9.084-8.528.278-1.597-1.111-2.155-2.728-2.138-2.068.021-4.511 1.016-4.348 2.364.236 1.964-.981 2.986-2.347 3.017-1.866-.234-2.78-1.352-3.024-3.04-.335-4.437 12.658-7.596 11.593-14.473-.39-2.515-3.195-3.799-6.791-3.865" style="fill:#fff;stroke-width:2"/>
</svg>
