<svg xmlns="http://www.w3.org/2000/svg" viewBox="0 0 64 64">
    <defs>
        <linearGradient id="a" x1="8.649" x2="8.649" y1="1.483" y2="15.436" gradientTransform="scale(3.7796)" gradientUnits="userSpaceOnUse">
            <stop offset="0" stop-color="#17b7f1"/>
            <stop offset="1" stop-color="#1763e1"/>
        </linearGradient>
    </defs>
    <path fill="url(#a)" d="M17 3.969h30c7.18 0 13 5.82 13 13v30c0 7.18-5.82 13.004-13 13.004H17c-7.18 0-13-5.825-13-13.004v-30c0-7.18 5.82-13 13-13m0 0"/>
    <path fill="#f5f5f5" d="M32 11.61a21 21 0 0 0-3.012.23l.172 1.879a19 19 0 0 1 2.856-.227 19 19 0 0 1 2.8.219l.211-1.867A21 21 0 0 0 32 11.609m-4.871.636a20.4 20.4 0 0 0-5.656 2.336l.98 1.652a18.5 18.5 0 0 1 5.106-2.136Zm9.754.004-.453 1.836a18.4 18.4 0 0 1 5.129 2.137l.89-1.688a20.4 20.4 0 0 0-5.562-2.285Zm-4.89 3.191c-9.153 0-16.567 7.422-16.563 16.57 0 3.145.894 6.22 2.582 8.872L16.39 47.59l6.816-1.547a16.55 16.55 0 0 0 8.79 2.539c9.148 0 16.562-7.418 16.562-16.57 0-9.149-7.414-16.567-16.563-16.567Zm12.027.16-1.067 1.493a18.5 18.5 0 0 1 3.918 3.933l1.512-1.058a20.4 20.4 0 0 0-4.363-4.367m-24.114.05a20.3 20.3 0 0 0-4.27 4.29l1.481 1.132a18.5 18.5 0 0 1 3.95-3.965Zm-5.332 5.856a20.5 20.5 0 0 0-2.316 5.652l1.89.414a18.5 18.5 0 0 1 2.106-5.101Zm34.871.031-1.703.879a18.3 18.3 0 0 1 2.145 5.176l1.843-.485a20.5 20.5 0 0 0-2.285-5.57m2.692 7.43-1.88.23a18.4 18.4 0 0 1-.003 5.621l1.898.164c.145-.988.22-1.988.22-2.984a21 21 0 0 0-.235-3.031m-40.285.047A21 21 0 0 0 11.625 32a20.6 20.6 0 0 0 .277 3.059l1.891-.325a18 18 0 0 1-.234-2.754c0-.94.078-1.878.222-2.808Zm2.273 7.316-1.863.586a20.3 20.3 0 0 0 1.875 4.773l-.485 2.106 1.844.437.68-2.836a18.6 18.6 0 0 1-2.051-5.066m35.75.094a18.5 18.5 0 0 1-2.117 5.097l1.652 1.051a20.5 20.5 0 0 0 2.371-5.722Zm-2.988 6.5a18.6 18.6 0 0 1-3.969 3.969l1.238 1.457a20.3 20.3 0 0 0 4.188-4.196Zm-33.625 2.578-.95 4.129a1.7 1.7 0 0 0 .497 1.566c.379.387.89.586 1.359.535a1 1 0 0 0 .277-.062h.004l4.008-.914-.312-1.89-3.942.808.902-3.79Zm28.258 2.258a18.3 18.3 0 0 1-5.118 2.117l.47 1.918a20.4 20.4 0 0 0 5.714-2.383Zm-18.778.156-2.93.605.348 1.844 2.07-.472-.097-.114a20.5 20.5 0 0 0 4.984 1.977l.45-1.88a18.4 18.4 0 0 1-4.825-1.96m6.426 2.289-.191 1.918c1 .164 2.011.25 3.023.266a21 21 0 0 0 3.008-.227l-.207-1.918a18.4 18.4 0 0 1-2.785.219 18 18 0 0 1-2.848-.258"/>
</svg>
