<svg xmlns="http://www.w3.org/2000/svg" xmlns:xlink="http://www.w3.org/1999/xlink" viewBox="0 0 64 64">
    <defs>
        <linearGradient xlink:href="#a" id="b" x1="2" x2="30" y1="30" y2="2" gradientTransform="scale(2)" gradientUnits="userSpaceOnUse"/>
        <linearGradient id="a">
            <stop offset="0" style="stop-color:#eb7b51"/>
            <stop offset=".3" style="stop-color:#ee5b85"/>
            <stop offset=".687" style="stop-color:#c05fe9"/>
            <stop offset="1" style="stop-color:#2f95f5"/>
        </linearGradient>
    </defs>
    <rect width="56" height="56" x="4" y="4" rx="12" style="fill:url(#b);stroke-width:2"/>
    <path d="M48.905 14.017c-2.71-.342-9.781 4.505-16.75 11.476-3.107 3.11-5.804 6.182-7.87 9.08a8 8 0 0 1 5.143 5.143c2.897-2.066 5.977-4.751 9.086-7.86 7.905-7.91 12.89-15.744 11.134-17.503q-.27-.273-.743-.336M23 37.993v.005c-9 2.413-2.25 8.112-9 12.003 9 0 13.5-4.504 13.5-7.508 0-1.497.152-4.25-4.5-4.5" style="color:#444;fill:#fff;fill-opacity:1;stroke-width:2.57138"/>
</svg>
