<svg xmlns="http://www.w3.org/2000/svg" xml:space="preserve" style="fill-rule:evenodd;clip-rule:evenodd;stroke-linejoin:round;stroke-miterlimit:2" viewBox="0 0 64 64">
    <path d="M16 4h32c6.62 0 12 5.38 12 12v32c0 6.62-5.38 12-12 12H16C9.38 60 4 54.62 4 48V16C4 9.38 9.38 4 16 4" style="fill:#665854;fill-rule:nonzero"/>
    <path d="M12.93 10h38.14c1.62 0 2.93 1.31 2.93 2.93v10.14c0 1.61-1.31 2.93-2.93 2.93H12.93C11.31 26 10 24.68 10 23.07V12.93c0-1.62 1.31-2.93 2.93-2.93" style="fill:#f5f5f5;fill-rule:nonzero"/>
    <path d="M16 16h32v.5H16z" style="fill-opacity:.3;fill-rule:nonzero"/>
    <path d="M4 16.01v32.07C4 54.7 9.38 60 16 60h32c6.62 0 12-5.3 12-11.92V22c0-1.66-1.34-3-3-3l-23-.02c-1.05 0-1.86-.07-2.54-.25s-1.22-.47-1.7-.9c-.48-.44-2.55-3.53-2.98-3.89s-.9-.59-1.33-.73c-.87-.27-1.45-.2-1.45-.2H7c-1.66 0-3 1.34-3 3" style="fill:url(#a);fill-rule:nonzero"/>
    <path d="M10.01 16h12.98c.56 0 1.01.45 1.01 1.02 0 .55-.45 1.01-1.01 1.01H10.01c-.55 0-1.01-.46-1.01-1.01 0-.57.46-1.02 1.01-1.02" style="fill:#665854;fill-rule:nonzero"/>
    <defs>
        <linearGradient id="a" x1="0" x2="1" y1="0" y2="0" gradientTransform="rotate(89.483 5.226 18.403)scale(46.95812)" gradientUnits="userSpaceOnUse">
            <stop offset="0" style="stop-color:#d9a68c"/>
            <stop offset="1" style="stop-color:#a67359"/>
        </linearGradient>
    </defs>
</svg>
