<svg xmlns="http://www.w3.org/2000/svg" viewBox="0 0 64 64">
    <defs>
        <linearGradient id="a" x1="32" x2="32" y1="4" y2="60" gradientUnits="userSpaceOnUse">
            <stop offset="0" stop-color="#a3e635"/>
            <stop offset="1" stop-color="#22c55e"/>
        </linearGradient>
    </defs>
    <rect width="56" height="56" x="4" y="4" fill="url(#a)" rx="12" style="stroke-width:1"/>
    <path d="m13 49.745.986-1.291c1.923 4.093 10.699-6.419 10.699-6.419s-1.876-2.046-2.073-5.043c-3.103-2.972-.741-15.346 1.806-14.884.066 4.16-.475 5.478-.475 5.478s.24-.206 1.069-.29c.254.303-.727 4.605-.658 5.503.2 2.559.267 4.287.473 6.121.424-1.262 2.249-11.325 5.417-14.543.338.859.199 1.234.306 1.521.095.253.617.506.62 1.06.002.396-.356.261-.751 1.079.206 5.091-2.958 6.744-3.345 7.245-.548 2.247-1.783 6.036-1.783 6.036s2.605-3.208 4.053-4.966c.119-.146.576-2.556 2.098-5.619-1.373-1.647.957-6.087 3.091-5.262 1.901.735-.057 5.664-2.644 5.484-.356 1.126-1.38 3.204-1.868 4.534 1.013-1.276 5.265-6.285 6.468-7.293-.553-4.41.569-11.067 3.265-15.196.254.94 1.121 5.421.877 6.32-.643 1.668-2.725 4.154-2.959 4.419a109 109 0 0 0-.574 3.935c.866-.837 4.122-3.605 5.492-4.474-.078-.36.372-2.196.724-2.704-1.958-1.885 1.479-4.94 3.139-6.818 1.02.494-.551 8.243-2.838 7.208-.075.554-.696 1.662-.728 2.071.557-.417 1.314-1.329 2.597-2.531-.335-1.153 4.465-5.508 5.516-5.626-.809 3.258-1.512 4.868-2.113 5.372-1.184.995-2.885.619-3.194.525-1.167 1.28-1.514 1.521-1.745 1.938.013.012.36-.001.529-.021 1.579-2.104 5.953-1.087 6.11.122.067.527-6.172 1.742-6.406.225-.123-.035-.49-.055-.507-.057-.886.8-5.691 5.236-5.892 5.526q.871-.339 1.772-.596c1.744-2.62 4.534-3.054 7.812-2.856-1.12.628-6.224 6.782-8.487 4.09-.348-.019-1.14.084-1.585-.142-.869.854-3.542 3.51-3.539 3.749.619-.297.974-.48 1.643-.628 1.031-2.026 3.69-1.438 3.747-.516.059.973-2.994 3.128-3.641 1.102-.769.163-1.814.46-2.267.581-.684.877-3.048 3.781-3.6 4.452 1.398-.826 3.571-1.631 4.819-2.032 2.801-2.429 7.133-1.756 11.603-1.512-2.153 2.848-9.503 4.617-11.333 2.806-2.126.604-5.724 1.519-5.724 1.519-3.095 3.915-5.415 6.082-5.415 6.082s3.446-2.61 5.294-2.907c.45-2.284 4.505-4.194 5.197-2.377 1.011 2.656-3.28 5.507-4.879 3.241 0 0-3.764 2.006-7.066 3.559-6.847 6.124-8.903 5.535-9.133 3.7" style="fill:#fff;transform-origin:32px 31.999px"/>
</svg>
