<svg xmlns="http://www.w3.org/2000/svg" style="fill-rule:evenodd;clip-rule:evenodd;stroke-linejoin:round;stroke-miterlimit:2" viewBox="0 0 64 64">
    <path d="M58.134 17.067v29.867c0 6.179-5.021 11.2-11.2 11.2H17.067c-6.178 0-11.2-5.021-11.2-11.2V17.067c0-6.178 5.022-11.2 11.2-11.2h29.867c6.179 0 11.2 5.022 11.2 11.2" style="fill:#276bda" transform="translate(-2.286 -2.286)scale(1.07143)"/>
    <path d="M17 7h-.02C11.5 7 7 11.5 7 16.98v30.04C7 52.5 11.5 57 16.98 57H32V38c0-3.33 2.68-6 6-6h19V16.98C57 11.5 52.5 7 47.02 7z" style="fill:#fff;fill-rule:nonzero" transform="translate(-2.286 -2.286)scale(1.07143)"/>
    <path d="M19.5 16h-.01a.49.49 0 0 0-.49.49V20h-3.5c-.27 0-.5.23-.5.5s.23.5.5.5H19v3.5c0 .27.23.5.5.5.28 0 .5-.23.5-.5V21h3.5c.28 0 .5-.23.5-.5s-.22-.5-.5-.5H20v-3.51a.49.49 0 0 0-.49-.49zM49 20.5v.01c0 .27-.22.49-.49.49H40.5c-.28 0-.5-.23-.5-.5s.22-.5.5-.5h8c.28 0 .5.22.5.5M22.69 40.82a.51.51 0 0 0-.72 0L19.5 43.3l-2.47-2.48a.53.53 0 0 0-.36-.15c-.27 0-.5.23-.5.5 0 .14.06.26.15.36L18.8 44l-2.48 2.48a.5.5 0 0 0-.15.35.501.501 0 0 0 .86.35l2.47-2.47 2.47 2.47a.501.501 0 0 0 .72-.7L20.21 44l2.47-2.47q.15-.15.15-.36a.47.47 0 0 0-.15-.35z" style="fill:#333;fill-rule:nonzero" transform="translate(-2.286 -2.286)scale(1.07143)"/>
    <path d="M50 42.5c0 .28-.25.5-.56.5h-8.88c-.31 0-.56-.22-.56-.5 0-.27.25-.5.56-.5h8.88c.31 0 .56.23.56.5m0 5c0 .27-.25.5-.56.5h-8.88c-.31 0-.56-.23-.56-.5 0-.28.25-.5.56-.5h8.88c.31 0 .56.22.56.5" style="fill:#fff;fill-rule:nonzero" transform="translate(-2.286 -2.286)scale(1.07143)"/>
    <path d="M58.134 17.067v29.867c0 6.178-5.022 11.2-11.2 11.2H17.067c-6.179 0-11.2-5.022-11.2-11.2V17.067c0-6.179 5.021-11.2 11.2-11.2h29.867c6.178 0 11.2 5.021 11.2 11.2" style="fill:url(#a)" transform="translate(-2.286 -2.286)scale(1.07143)"/>
    <path d="M60 16v32c0 6.62-5.38 12-12 12H16C9.38 60 4 54.62 4 48V16C4 9.38 9.38 4 16 4h32c6.62 0 12 5.38 12 12" style="fill:none" transform="translate(-2.286 -2.286)scale(1.07143)"/>
    <defs>
        <linearGradient id="a" x1="0" x2="1" y1="0" y2="0" gradientTransform="rotate(90 13.067 18.933)scale(52.26883)" gradientUnits="userSpaceOnUse">
            <stop offset="0" style="stop-color:#fff;stop-opacity:.1"/>
            <stop offset="1" style="stop-color:#000;stop-opacity:.1"/>
        </linearGradient>
    </defs>
</svg>
