<svg xmlns="http://www.w3.org/2000/svg" viewBox="0 0 64 64">
    <defs>
        <linearGradient id="i" x1="30" x2="34" y1="32" y2="32" gradientUnits="userSpaceOnUse" href="#a"/>
        <linearGradient id="a">
            <stop offset="0" stop-color="#20b2aa"/>
            <stop offset="1" stop-color="#00ff7f"/>
        </linearGradient>
        <linearGradient id="e" x1="-32" x2="-16" y1="38.928" y2="38.928" gradientTransform="rotate(-75 .002 -9.705)" gradientUnits="userSpaceOnUse" href="#a"/>
        <linearGradient id="d" x1="32" x2="32" y1="8" y2="56" gradientUnits="userSpaceOnUse">
            <stop offset="0" stop-color="#f5f5f5"/>
            <stop offset="1" stop-color="#ebebeb"/>
        </linearGradient>
        <linearGradient id="b" x1="7.937" x2="7.937" y1="15.081" y2="1.852" gradientTransform="translate(0 .033)scale(3.7795)" gradientUnits="userSpaceOnUse">
            <stop offset="0" stop-color="#18adb1"/>
            <stop offset="1" stop-color="#00e0b5"/>
        </linearGradient>
        <filter id="f" width="1.359" height="1.04" x="-.179" y="-.02" color-interpolation-filters="sRGB">
            <feGaussianBlur stdDeviation=".15"/>
        </filter>
        <filter id="g" width="1.072" height="1.072" x="-.036" y="-.036" color-interpolation-filters="sRGB">
            <feGaussianBlur stdDeviation=".244"/>
        </filter>
        <filter id="c" width="1.085" height="1.085" x="-.043" y="-.043" color-interpolation-filters="sRGB">
            <feGaussianBlur stdDeviation=".54"/>
        </filter>
        <filter id="h" width="1.096" height="1.096" x="-.048" y="-.048" color-interpolation-filters="sRGB">
            <feGaussianBlur stdDeviation=".12"/>
        </filter>
    </defs>
    <rect width="56" height="56" x="4" y="4" fill="url(#b)" rx="12" style="stroke-width:1"/>
    <g transform="translate(5.33 5.33)scale(.83344)">
        <path fill="none" stroke="#1e1e1e" stroke-width="1.5" d="M32 8a23.997 24 0 1 0 0 48 23.997 24 0 1 0 0-48z" filter="url(#c)" opacity=".03" style="mix-blend-mode:normal"/>
        <path fill="url(#d)" d="M32 8a23.996 24 0 1 0 0 48 23.996 24 0 1 0 0-48"/>
        <path fill="url(#e)" d="M36.144 16.546A16 16 0 0 1 47.457 27.86l-15.454 4.141z"/>
        <path d="M26.473 21.589a.8.8 0 0 0-.801.801l.003.056v12.733a.8.8 0 0 0 .802.792.8.8 0 0 0 .801-.801l-.003-.056V22.382a.8.8 0 0 0-.802-.792z" filter="url(#f)" opacity=".5" style="transform-box:fill-box;transform-origin:50% 50%" transform="rotate(-60)"/>
        <path d="M34.969 23.095 47.414 35.54l-.568.566L34.4 23.66z" filter="url(#g)" opacity=".35" style="transform-box:fill-box;transform-origin:50% 50%" transform="rotate(-60)"/>
        <path d="M35 32a3 3 0 0 1-3 3 3 3 0 0 1-3-3 3 3 0 0 1 3-3 3 3 0 0 1 3 3" filter="url(#h)" opacity=".5"/>
        <g fill="#333">
            <path d="m32.276 31.505 17.002-4.556.205.775-17.002 4.556z"/>
            <path d="M20.219 25.201a.8.8 0 0 0 .293 1.095l.05.025 11.028 6.367a.8.8 0 0 0 1.086-.298.8.8 0 0 0-.293-1.095l-.05-.026-11.018-6.361-.008-.005a.8.8 0 0 0-1.087.298z"/>
            <g stroke-linecap="round" stroke-linejoin="round" stroke-width="4.125">
                <rect width="1" height="4" x="31.5" y="10" rx=".532"/>
                <rect width="1" height="4" x="31.5" y="50" rx=".532"/>
                <rect width="1" height="4" x="43.213" y="-10.287" rx=".532" transform="rotate(30)"/>
                <rect width="1" height="4" x="43.213" y="29.713" rx=".532" transform="rotate(30)"/>
                <rect width="1" height="4" x="43.213" y="-33.713" rx=".532" transform="rotate(60)"/>
                <rect width="1" height="4" x="43.213" y="6.287" rx=".532" transform="rotate(60)"/>
                <rect width="1" height="4" x="31.5" y="-54" rx=".532" transform="rotate(90)"/>
                <rect width="1" height="4" x="31.5" y="-14" rx=".532" transform="rotate(90)"/>
                <rect width="1" height="4" x="11.213" y="-65.713" rx=".532" transform="rotate(120)"/>
                <rect width="1" height="4" x="11.213" y="-25.713" rx=".532" transform="rotate(120)"/>
                <rect width="1" height="4" x="-12.213" y="-65.713" rx=".532" transform="rotate(150)"/>
                <rect width="1" height="4" x="-12.213" y="-25.713" rx=".532" transform="rotate(150)"/>
            </g>
        </g>
        <circle cx="32" cy="32" r="3" fill="#333"/>
        <circle cx="32" cy="32" r="2" fill="url(#i)"/>
    </g>
</svg>
