<svg xmlns="http://www.w3.org/2000/svg" width="64" height="64">
    <defs>
        <linearGradient id="b" x1="28.285" x2="28.774" y1="13.142" y2="52.167" gradientUnits="userSpaceOnUse">
            <stop offset="0" stop-color="#ff6c1c"/>
            <stop offset="1" stop-color="#ff2579"/>
        </linearGradient>
        <linearGradient id="a" x1="7.937" x2="7.937" y1="15.081" y2="1.852" gradientTransform="translate(0 .032)scale(3.7795)" gradientUnits="userSpaceOnUse">
            <stop offset="0" stop-color="#f1efeb"/>
            <stop offset="1" stop-color="#fdfcfc"/>
        </linearGradient>
    </defs>
    <g color="#000">
        <path d="M4.31 1.058c-1.866 0-3.375 1.539-3.375 3.44v8.467c0 1.9 1.57 3.439 3.435 3.439h8.2c1.866 0 3.427-1.538 3.427-3.44V4.498c0-1.9-1.51-3.439-3.375-3.439h-.097c1.794.087 3.214 1.582 3.214 3.432v7.937c0 1.906-1.506 3.44-3.377 3.44h-7.79c-1.871 0-3.377-1.534-3.377-3.44V4.49c0-1.85 1.42-3.345 3.214-3.432z" opacity=".03" style="font-feature-settings:normal;font-variant-alternates:normal;font-variant-caps:normal;font-variant-east-asian:normal;font-variant-ligatures:normal;font-variant-numeric:normal;font-variant-position:normal;font-variation-settings:normal;inline-size:0;isolation:auto;mix-blend-mode:normal;shape-margin:0;shape-padding:0;text-decoration-color:#000;text-decoration-line:none;text-decoration-style:solid;text-indent:0;text-orientation:mixed;text-transform:none;white-space:normal" transform="scale(3.7796)"/>
        <path d="M4 46.969V49c0 6.648 5.896 12 12.544 12h30.961C54.153 61 60 55.648 60 49v-1.992a12.97 12.97 0 0 1-13 12.963H17.002A12.973 12.973 0 0 1 4 46.969" opacity=".03" style="font-feature-settings:normal;font-variant-alternates:normal;font-variant-caps:normal;font-variant-east-asian:normal;font-variant-ligatures:normal;font-variant-numeric:normal;font-variant-position:normal;font-variation-settings:normal;inline-size:0;isolation:auto;mix-blend-mode:normal;shape-margin:0;shape-padding:0;text-decoration-color:#000;text-decoration-line:none;text-decoration-style:solid;text-indent:0;text-orientation:mixed;text-transform:none;white-space:normal"/>
        <path d="M1.058 11.906v.592c0 1.939 1.573 3.5 3.332 3.5h8.16c1.76 0 3.325-1.561 3.325-3.5v-.58c-.006 2.095-1.537 3.78-3.44 3.78H4.498c-1.905 0-3.44-1.692-3.44-3.792" opacity=".05" style="font-feature-settings:normal;font-variant-alternates:normal;font-variant-caps:normal;font-variant-east-asian:normal;font-variant-ligatures:normal;font-variant-numeric:normal;font-variant-position:normal;font-variation-settings:normal;inline-size:0;isolation:auto;mix-blend-mode:normal;shape-margin:0;shape-padding:0;text-decoration-color:#000;text-decoration-line:none;text-decoration-style:solid;text-indent:0;text-orientation:mixed;text-transform:none;white-space:normal" transform="scale(3.7796)"/>
    </g>
    <rect width="56" height="56" x="4" y="4" fill="url(#a)" rx="12"/>
    <path fill="url(#b)" d="M49.133 13.422a2.08 2.08 0 0 0-1.637.912c-.385.568-9.45 13.94-10.617 15.951-.583 1.006-1.242 2.64-1.789 4.133l4.711 2.762c1.026-1.217 2.121-2.607 2.713-3.627 1.18-2.036 8.271-16.521 8.572-17.137a2.08 2.08 0 0 0-1.953-2.994M15.112 29.346a.18.18 0 0 0-.129.033c-1.415 1.025-2.351 2.888-2.277 4.53.04.875.376 2.09 1.758 2.914.744.442 1.947.534 3.11.625 1.146.088 2.33.182 2.694.627a.55.55 0 0 1 .112.435c-.08.814-.476 1.616-.858 2.39-.721 1.465-1.467 2.977-.178 4.657 1.133 1.475 2.636 1.475 4.18 1.465l.381-.002c.674 0 1.45.02 2.156.265.502.195.755.598.873 1.397.09.49.31.876.598 1.166.042-.225.141-.44.295-.621.758-.896.61-1.733.23-3.39-.176-.771-.37-1.627-.42-2.557a4.6 4.6 0 0 0-1.195-.239 4 4 0 0 0-.213-.006c-.6 0-1.353.133-2.082.26-.65.114-1.263.219-1.691.219-.301 0-.406-.053-.44-.082-.364-.457.164-1.697.389-2.229a6 6 0 0 0 .129-.32c.365-1.074.632-2.217.127-3.303-.42-.902-1.402-1.62-2.494-1.828a5 5 0 0 0-1.149-.11c-.383 0-.794.024-1.191.048-.407.024-.827.05-1.23.05-1.387 0-2.186-.317-2.668-1.056-.896-1.423.18-3.97 1.285-5.031a.18.18 0 0 0-.102-.307m19.418 6.102q-.386.046-.771.156c-1.23.353-3.008 1.365-4.498 4.183-1.184 2.238-.747 4.154-.362 5.844.368 1.616.659 2.893-.424 4.17a.446.446 0 0 0 .118.678q.077.045.17.057c2.737.343 6.834-1.272 9.36-5.63 1.149-1.978 1.642-3.88 1.427-5.501a5 5 0 0 0-.309-1.196z" transform="translate(-.017 -.02)scale(.99996)"/>
</svg>
