<svg xmlns="http://www.w3.org/2000/svg" xml:space="preserve" style="fill-rule:evenodd;clip-rule:evenodd;stroke-linejoin:round;stroke-miterlimit:2" viewBox="0 0 64 64">
    <path d="M16 3.97h32c6.62 0 12 5.38 12 12v32c0 6.62-5.38 12-12 12H16c-6.62 0-12-5.38-12-12v-32c0-6.62 5.38-12 12-12" style="fill:#f5f5f5"/>
    <path d="M16 3.97h32c6.62 0 12 5.38 12 12v32c0 6.62-5.38 12-12 12H16c-6.62 0-12-5.38-12-12v-32c0-6.62 5.38-12 12-12" style="fill:url(#a)"/>
    <path d="M44.74 12c-7.9 0-9.38 12-4.93 12 4.44 0 12.84-12 4.93-12M32.2 13.36c-4.51.64-2.93 9.14-.52 9.31 2.4.15 5.04-9.94.52-9.31M24.03 16c-.25.04-.5.1-.74.19-4.23 1.61-.64 8.23 1.73 7.79 2.21-.42 2.47-8.31-.98-7.97zm-5.55 5.34c-.44-.01-.86.11-1.23.34-3.47 2.05 1.17 7 3.22 6.24 1.79-.68.64-6.51-1.99-6.59zm16.21 4c-6.22-.12-14.43 3.15-15.83 9.71C17.34 42.15 25.1 52 33.2 52c3.98 0 8.57-3.77 9.43-8.53.66-3.64-8.26-2.17-7.95.22.24 1.97-.79 2.99-2.21 3.03-1.93-.24-2.88-1.36-3.14-3.05-.34-4.44 13.62-7.59 12.52-14.47-.4-2.52-3.42-3.8-7.16-3.86" style="fill:gray"/>
    <path d="M44.74 12c-7.9 0-9.38 12-4.93 12 4.44 0 12.84-12 4.93-12M32.2 13.36c-4.51.64-2.93 9.14-.52 9.31 2.4.15 5.04-9.94.52-9.31M24.03 16c-.25.04-.5.1-.74.19-4.23 1.61-.64 8.23 1.73 7.79 2.21-.42 2.47-8.31-.98-7.97zm-5.55 5.34c-.44-.01-.86.11-1.23.34-3.47 2.05 1.17 7 3.22 6.24 1.79-.68.64-6.51-1.99-6.59zm16.21 4c-6.22-.12-14.43 3.15-15.83 9.71C17.34 42.15 25.1 52 33.2 52c3.98 0 8.57-3.77 9.43-8.53.66-3.64-8.26-2.17-7.95.22.24 1.97-.79 2.99-2.21 3.03-1.93-.24-2.88-1.36-3.14-3.05-.34-4.44 13.62-7.59 12.52-14.47-.4-2.52-3.42-3.8-7.16-3.86" style="fill:url(#b)"/>
    <defs>
        <linearGradient id="a" x1="0" x2="1" y1="0" y2="0" gradientTransform="matrix(0 56 -56 0 32 3.97)" gradientUnits="userSpaceOnUse">
            <stop offset="0" style="stop-color:#fff;stop-opacity:.1"/>
            <stop offset="1" style="stop-color:#000;stop-opacity:.1"/>
        </linearGradient>
        <linearGradient id="b" x1="0" x2="1" y1="0" y2="0" gradientTransform="rotate(89.442 10.335 22.694)scale(39.7921)" gradientUnits="userSpaceOnUse">
            <stop offset="0" style="stop-color:#000;stop-opacity:.2"/>
            <stop offset="1" style="stop-color:#000;stop-opacity:0"/>
        </linearGradient>
    </defs>
</svg>
