<svg xmlns="http://www.w3.org/2000/svg" viewBox="0 0 64 64">
    <defs>
        <linearGradient id="a" x1="7.937" x2="7.937" y1="15.081" y2="1.852" gradientTransform="translate(0 .032)scale(3.7795)" gradientUnits="userSpaceOnUse">
            <stop offset="0" style="stop-color:#0091f9"/>
            <stop offset="1" style="stop-color:#41bbff"/>
        </linearGradient>
        <linearGradient id="b" x1="31.397" x2="31.397" y1="20.169" y2="46.169" gradientUnits="userSpaceOnUse">
            <stop offset="0" style="stop-color:#fff"/>
            <stop offset="1" style="stop-color:#fff;stop-opacity:.9"/>
        </linearGradient>
    </defs>
    <rect width="56" height="56" x="4" y="4" fill="url(#a)" rx="12"/>
    <path d="M21.397 38.169c0-7 10-18 10-18s10 11 10 18c0 4-2 8-9 8s-11-3-11-8" style="paint-order:normal;fill:url(#b)" transform="matrix(1.4 0 0 1.4 -11.956 -14.436)"/>
    <path d="M30.6 25c-2.8 0-4.561.77-5.624 1.825C22 30.072 20.8 33.4 20.8 37.6c0 5.6 5.6 11.2 11.2 11.2 6.134 0 8.4-1.4 9.8-2.8-1.082-1.153-2.26-1.517-4.2-2.1-7-2.1-8.4-6.3-8.4-9.1 0-2.595 1.4-5.6 4.2-5.6s4.9 2.1 4.9 2.1c-1.155-3.5-2.1-6.3-7.7-6.3" style="fill-opacity:.2"/>
</svg>
