<svg xmlns="http://www.w3.org/2000/svg" viewBox="0 0 64 64">
    <defs>
        <linearGradient id="a" x1="32" x2="32" y1="4" y2="60" gradientUnits="userSpaceOnUse">
            <stop offset="0" stop-color="#34d399"/>
            <stop offset="1" stop-color="#059669"/>
        </linearGradient>
    </defs>
    <rect width="56" height="56" x="4" y="4" fill="url(#a)" rx="12" style="stroke-width:1"/>
    <path d="M43.174 43.676a17.3 17.3 0 0 1-8.112 1.953q-6.564 0-10.4-3.66-3.837-3.678-3.837-9.96 0-6.3 3.837-9.96 3.836-3.678 10.4-3.678 2.2 0 4.223.493c1.35.329 2.656.819 3.889 1.46v5.438q-1.884-1.284-3.713-1.883a12.3 12.3 0 0 0-3.854-.598q-3.625 0-5.701 2.323-2.077 2.324-2.077 6.405 0 4.066 2.077 6.388t5.701 2.323q2.025 0 3.854-.598 1.83-.6 3.713-1.883z" style="fill:#fff"/>
</svg>
