<svg xmlns="http://www.w3.org/2000/svg" viewBox="0 0 64 64">
    <defs>
        <linearGradient id="a" x1="32" x2="32" y1="4" y2="60" gradientUnits="userSpaceOnUse">
            <stop offset="0" style="stop-color:#f3f4f6"/>
            <stop offset="1" style="stop-color:#e5e7eb"/>
        </linearGradient>
    </defs>
    <linearGradient id="c" x1="1.095" x2="-.095" y1="1.4" y2=".21" gradientTransform="matrix(40.332 0 0 30 11.834 17)" gradientUnits="userSpaceOnUse">
        <stop offset="0" style="stop-color:#41bbff"/>
        <stop offset="1" style="stop-color:#0091f9"/>
    </linearGradient>
    <rect width="56" height="56" x="4" y="4" rx="12" style="stroke-width:1;fill:url(#a)"/>
    <path fill="url(#c)" d="M32 17a25 25 0 0 0-19.965 9.957 1 1 0 0 0 1.598 1.203 22.995 22.995 0 0 1 36.734 0 1.002 1.002 0 0 0 1.598-1.203A25 25 0 0 0 32 17m0 8a17 17 0 0 0-13.926 7.25 1.003 1.003 0 0 0 .246 1.395 1 1 0 0 0 1.391-.247A15 15 0 0 1 32 27c4.895 0 9.481 2.389 12.289 6.398a1 1 0 1 0 1.637-1.148A17 17 0 0 0 32 25m0 8a9 9 0 0 0-7.371 3.84 1 1 0 0 0 1.637 1.148A7 7 0 0 1 32 35a7 7 0 0 1 5.734 2.988 1 1 0 0 0 1.637-1.148A9 9 0 0 0 32 33m0 8a3 3 0 1 0 0 6 3 3 0 0 0 0-6"/>
</svg>
