<svg xmlns="http://www.w3.org/2000/svg" viewBox="0 0 64 64">
    <defs>
        <linearGradient id="b" x1="17" x2="47" y1="40.5" y2="40.5" gradientUnits="userSpaceOnUse">
            <stop offset="0" stop-color="#fea"/>
            <stop offset="1" stop-color="#ffdaaa"/>
        </linearGradient>
        <linearGradient id="c" x1="14.857" x2="49.143" y1="37.443" y2="37.443" gradientTransform="translate(8.667 8.668)scale(.72918)" gradientUnits="userSpaceOnUse">
            <stop offset="0" stop-color="#343434"/>
            <stop offset="1" stop-color="#5e5e5e"/>
        </linearGradient>
        <linearGradient id="a" x1="32" x2="32" y1="3.969" y2="59.969" gradientUnits="userSpaceOnUse">
            <stop offset="0" style="stop-color:#ffedd5"/>
            <stop offset="1" style="stop-color:#fdba74"/>
        </linearGradient>
    </defs>
    <rect width="56" height="56" x="4" y="3.969" rx="12" style="fill:url(#a)"/>
    <g transform="translate(1.524 2.06)scale(.95238)">
        <path fill="#664930" d="M14.907 40.512a.905.905 0 0 0-.907.907v5.412c0 1.9 1.53 3.431 3.43 3.431h29.14c1.9 0 3.43-1.53 3.43-3.43v-5.413a.905.905 0 0 0-.906-.907z"/>
        <rect width="30" height="21" x="17" y="30" fill="url(#b)" fill-rule="evenodd" rx=".5" ry=".525" style="paint-order:stroke"/>
        <path fill="url(#d)" d="M17.844 28.512h28.312c.466 0 .844.406.844.906v20.687c0 .502-.378.908-.844.908H17.844c-.466 0-.844-.406-.844-.908V29.419c0-.5.378-.906.844-.906z"/>
        <path fill="url(#c)" d="M17 34.512v.749h6.75c-.003 2.886 3.119 4.693 5.619 3.253l.006-.004a3.76 3.76 0 0 0 1.798-2.524v.037c.077-1.004 1.577-.996 1.655 0v-.043a3.76 3.76 0 0 0 1.797 2.53c2.5 1.44 5.622-.363 5.625-3.248h6.751v-.75z" filter="url(#e)"/>
        <path fill="#b5835a" d="m14 42.012 1.68 1.26a7.45 7.45 0 0 0 2.935 1.33l11.052 2.326c.96.202 1.708.958 1.901 1.92L32 51.012H16.31a2.31 2.31 0 0 1-2.31-2.31z"/>
        <path fill="#9e6e47" d="m50 42.012-1.68 1.26a7.45 7.45 0 0 1-2.934 1.33l-11.052 2.326a2.46 2.46 0 0 0-1.902 1.92L32 51.012h15.69a2.31 2.31 0 0 0 2.31-2.31z"/>
        <path fill="#986a44" d="m14 30.012 8.116-17.583a1.62 1.62 0 0 1 2.508-.565l5.754 4.796c.94.784 2.305.784 3.246 0l5.754-4.796a1.618 1.618 0 0 1 2.508.565L50 30.012z"/>
        <path fill="url(#f)" d="M40.508 15.204a1.77 1.77 0 0 1 1.53.892l7.952 13.916H32.012v-9.019a2.54 2.54 0 0 0 1.602-.583l5.754-4.795c.32-.267.724-.412 1.141-.411z" opacity=".75"/>
        <path fill="url(#i)" d="m46.899 30.021-29.887-.026-.052 3.079 30.06 4.512z"/>
        <path fill="url(#l)" d="M17 33.761v.75h6.75a3.749 3.749 0 0 0 5.625 3.248 3.76 3.76 0 0 0 1.797-2.524v.036c.078-1.003 1.578-.996 1.656 0v-.042a3.75 3.75 0 0 0 1.797 2.53 3.752 3.752 0 0 0 5.625-3.248H47v-.75z"/>
        <path fill="#b5835a" d="M12.5 28.511h39a1.5 1.5 0 1 1 0 3h-39a1.5 1.5 0 1 1 0-3"/>
    </g>
</svg>
