<svg xmlns="http://www.w3.org/2000/svg" viewBox="0 0 64 64">
    <defs>
        <linearGradient id="a" x1="7.937" x2="7.937" y1="15.081" y2="1.852" gradientTransform="translate(0 .031)scale(3.7796)" gradientUnits="userSpaceOnUse">
            <stop offset="0" stop-color="#15a368"/>
            <stop offset="1" stop-color="#3fe366"/>
        </linearGradient>
    </defs>
    <rect width="56" height="56" x="4" y="4" fill="url(#a)" rx="12" style="stroke-width:1"/>
    <path fill="#f5f5f5" d="M31.862 14.61a17 17 0 0 0-4.808.701c-.782.235-1.547.524-2.286.865a17.2 17.2 0 0 0-7.274 6.4 17.4 17.4 0 0 0-2.022 4.49 18 18 0 0 0-.521 2.417 18 18 0 0 0 0 4.934 17.7 17.7 0 0 0 1.373 4.735 17.5 17.5 0 0 0 2.629 4.153 17.1 17.1 0 0 0 8.097 5.284q1.172.351 2.382.527a17 17 0 0 0 4.86 0q1.21-.176 2.382-.527 1.172-.348 2.282-.864a17.2 17.2 0 0 0 4.092-2.668 17 17 0 0 0 1.723-1.749 17.5 17.5 0 0 0 2.629-4.153 17.56 17.56 0 0 0 .806-12.233 26 26 0 0 0-.256-.81 24 24 0 0 0-.306-.795q-.163-.39-.34-.778a21 21 0 0 0-.373-.761 18 18 0 0 0-1.347-2.154q-.252-.342-.518-.671a17 17 0 0 0-.55-.643 17 17 0 0 0-.575-.617c-.195-.2-.401-.395-.607-.585a17 17 0 0 0-1.296-1.084 21 21 0 0 0-.687-.489q-.349-.237-.708-.456a21 21 0 0 0-.73-.418 15 15 0 0 0-.748-.382 15 15 0 0 0-.768-.344 17 17 0 0 0-.782-.309 17 17 0 0 0-.793-.263 14 14 0 0 0-.81-.229q-.406-.104-.817-.186-.41-.085-.826-.148a15 15 0 0 0-.833-.103 18 18 0 0 0-1.674-.084Zm0 4.989a13 13 0 0 1 1.414.084q.352.039.701.103.347.061.692.148.345.08.683.186c.23.067.45.145.673.228q.334.12.662.263.323.142.64.303a12 12 0 0 1 1.224.72q.294.193.578.411.283.213.557.444.271.23.526.479.262.247.502.508.246.26.472.537.227.275.438.565.212.286.405.585.198.302.376.614c.115.206.228.418.33.63a12 12 0 0 1 .56 1.321c.08.226.158.45.225.681q.103.344.18.692.083.351.145.704c.041.238.078.472.103.713q.042.357.06.714.024.358.023.717.006 1.08-.186 2.147a12 12 0 0 1-.546 2.076 12 12 0 0 1-.897 1.955 12 12 0 0 1-1.216 1.76 12 12 0 0 1-1.5 1.525 11.5 11.5 0 0 1-1.737 1.23q-.92.548-1.925.91c-.665.25-1.35.437-2.047.56-.694.129-1.402.19-2.112.19a11.4 11.4 0 0 1-2.115-.19 11.5 11.5 0 0 1-2.045-.556 11.5 11.5 0 0 1-1.925-.913 11.5 11.5 0 0 1-1.735-1.231 11.5 11.5 0 0 1-1.501-1.524 12 12 0 0 1-1.216-1.761 12 12 0 0 1-.893-1.955q-.372-1.013-.55-2.077a12 12 0 0 1-.186-2.146 11.5 11.5 0 0 1 .187-2.144q.178-1.063.546-2.077a12 12 0 0 1 .897-1.954c.35-.624.758-1.212 1.215-1.761.452-.553.954-1.064 1.5-1.524a11.5 11.5 0 0 1 1.737-1.234 11.5 11.5 0 0 1 1.925-.907 11.3 11.3 0 0 1 2.044-.562c.698-.129 1.407-.19 2.115-.187Zm-16.936-6.19h2.009c.855 0 1.546.7 1.546 1.568v2.038c0 .867-.691 1.569-1.547 1.569h-2.008a1.556 1.556 0 0 1-1.543-1.569v-2.038c0-.868.69-1.568 1.543-1.568m32.523 0h2.008c.852 0 1.543.7 1.543 1.568v2.038c0 .867-.691 1.569-1.543 1.569H47.45a1.556 1.556 0 0 1-1.547-1.569v-2.038a1.555 1.555 0 0 1 1.547-1.568m0 31.908h2.008c.852 0 1.543.701 1.543 1.568v2.038c0 .865-.691 1.569-1.543 1.569H47.45a1.56 1.56 0 0 1-1.547-1.569v-2.038c0-.867.69-1.568 1.547-1.568m-32.523.1h2.009c.855 0 1.546.7 1.546 1.569v2.037c0 .864-.691 1.568-1.547 1.568h-2.008c-.852 0-1.543-.703-1.543-1.568v-2.038c0-.867.69-1.569 1.543-1.569m0 0"/>
    <path fill="#ddd" d="M14.643 26.716h6.599a1.64 1.64 0 0 1 1.639 1.642v6.538a1.64 1.64 0 0 1-1.64 1.643h-6.599A1.64 1.64 0 0 1 13 34.896v-6.538c0-.91.736-1.642 1.642-1.642m0 0"/>
    <path fill="#ddd" d="M20.638 29.464h29.858v4.33H20.638Zm0 0"/>
</svg>
