<svg xmlns="http://www.w3.org/2000/svg" fill="none" style="-webkit-print-color-adjust:exact" viewBox="0 0 64 64">
    <defs>
        <linearGradient id="b" x1="16" x2="16" y1="30" y2="2" gradientTransform="scale(2)" gradientUnits="userSpaceOnUse" href="#a"/>
        <linearGradient id="a">
            <stop offset="0" style="stop-color:#0091f9"/>
            <stop offset="1" style="stop-color:#41bbff"/>
        </linearGradient>
    </defs>
    <rect width="56" height="56" x="4" y="4" rx="12" style="stroke-width:2;fill:url(#b)"/>
    <g fill-rule="evenodd">
        <path fill="#f5f5f5" d="M43.427 21.467q4.07 0 6.312 2.561Q52 26.571 52 31.245q0 4.671-2.28 7.268-2.26 2.578-6.293 2.578-2.016 0-3.692-.675a6.9 6.9 0 0 1-2.79-2.111h-.225l-.66 2.44h-2.242V13.818h3.127v6.542q0 2.197-.15 3.945h.151q2.185-2.839 6.481-2.838m-.452 2.406q-3.203 0-4.616 1.695-1.414 1.678-1.414 5.677t1.451 5.728q1.452 1.712 4.654 1.712 2.883 0 4.296-1.92 1.413-1.939 1.413-5.555 0-3.704-1.413-5.52-1.412-1.817-4.37-1.817" class="fills"/>
        <path fill="#c8e8ff" d="M20.96 38.783q3.13 0 4.564-1.661t1.527-5.597v-.69q0-4.291-1.471-6.176-1.47-1.884-4.66-1.884-2.753 0-4.224 2.127-1.452 2.108-1.452 5.97c0 3.862.478 4.54 1.433 5.895q1.452 2.016 4.282 2.016m-.472 2.592q-3.998 0-6.242-2.779Q12 35.816 12 30.835q0-5.019 2.264-7.836 2.262-2.817 6.299-2.817 4.243 0 6.525 3.172h.17l.453-2.8h2.47v29.628h-3.13v-8.75q0-1.866.207-3.172h-.244q-2.17 3.115-6.527 3.115" class="fills"/>
    </g>
</svg>
