<svg xmlns="http://www.w3.org/2000/svg" width="64" height="64" viewBox="0 0 64 64">
    <path fill="#262626" fill-rule="evenodd" d="M60 16v32c0 6.63-5.38 12.01-12 12.01H16C9.37 60.01 4 54.63 4 48V16C4 9.38 9.37 4 16 4h32c6.62 0 12 5.38 12 12"/>
    <linearGradient id="a" x1=".5" x2=".5" y1="0" y2="1" gradientTransform="matrix(56 0 0 56.01 4 4)" gradientUnits="userSpaceOnUse">
        <stop offset="0%" stop-opacity=".3" style="stop-color:#fff"/>
        <stop offset="100%" stop-opacity="0" style="stop-color:#fff"/>
    </linearGradient>
    <path fill="url(#a)" fill-rule="evenodd" d="M60 16v32c0 6.63-5.38 12.01-12 12.01H16C9.37 60.01 4 54.63 4 48V16C4 9.38 9.37 4 16 4h32c6.62 0 12 5.38 12 12"/>
    <linearGradient id="b" x1=".278" x2=".229" y1=".225" y2=".519" gradientTransform="matrix(22.087 0 0 13.878 25.864 38.111)" gradientUnits="userSpaceOnUse">
        <stop offset="0%" style="stop-color:#83a3d4"/>
        <stop offset="100%" style="stop-color:#6bb5e3"/>
    </linearGradient>
    <path fill="url(#b)" fill-rule="evenodd" d="M46.797 38.121c.434.657.788 1.351.973 2.123.83 3.469-1.281 6.777-4.614 7.545-1.758.405-3.383.079-4.887-.902l-.122-.077c-.09.116-.08.256-.109.381-.59 2.474-2.552 4.307-5.056 4.716a6.19 6.19 0 0 1-7.077-4.933l-.041-.176.01-.049c.064-.007.104-.055.152-.092.641-.492 1.18-1.092 1.745-1.662 1.285-1.298 2.613-2.555 3.858-3.893.137-.148.218-.343.386-.464.192.279.395.551.633.79q2.366 2.379 4.747 4.742c.209.207.424.42.708.562.079-.318.099-.627.1-.93q.014-3.275.001-6.551a5.2 5.2 0 0 0-.126-1.136c.305.029.61.083.915.084q3.52.008 7.043.002c.239 0 .476-.036.711-.09z"/>
    <linearGradient id="c" x1=".004" x2=".928" y1=".056" y2=".665" gradientTransform="matrix(9.913 0 0 9.847 38.038 38.111)" gradientUnits="userSpaceOnUse">
        <stop offset="0%" style="stop-color:#70c2bd"/>
        <stop offset="100%" style="stop-color:#67c381"/>
    </linearGradient>
    <path fill="url(#c)" fill-rule="evenodd" d="M46.797 38.121c.434.657.788 1.351.973 2.123.83 3.469-1.281 6.777-4.614 7.545-1.758.405-3.383.079-4.887-.902l-.122-.077c-.09.116-.08.256-.109.381l.065-.459c.079-.318.099-.626.1-.93q.014-3.275.001-6.551a5.2 5.2 0 0 0-.126-1.136c.305.029.61.083.915.084q3.52.008 7.043.002c.239 0 .476-.036.711-.09z"/>
    <linearGradient id="d" x1=".46" x2=".48" y1=".014" y2=".608" gradientTransform="matrix(12.347 0 0 18.976 25.869 12.011)" gradientUnits="userSpaceOnUse">
        <stop offset="0%" style="stop-color:#faaa32"/>
        <stop offset="100%" style="stop-color:#fdc22b"/>
    </linearGradient>
    <path fill="url(#d)" fill-rule="evenodd" d="M25.869 17.224c.244-1.352.829-2.535 1.842-3.467 1.772-1.632 3.855-2.151 6.149-1.426s3.69 2.344 4.224 4.696l.045.198c.028.312.08.625.081.938q.012 3.338-.001 6.677a4.4 4.4 0 0 1-.125 1.066l-.103.047c-1.267.282-2.356.886-3.241 1.837-.801.86-1.329 1.865-1.54 3.028a.04.04 0 0 0-.025.017c-.239.033-.451.113-.69.148-.296.011-.62.001-.916-.06.202-.28.426-.545.601-.84.709-1.191 1.003-2.475.857-3.863a5.98 5.98 0 0 0-1.718-3.657c-1.557-1.583-3.136-3.145-4.709-4.711a3.6 3.6 0 0 0-.719-.575z"/>
    <linearGradient id="e" x1="0" x2="1" y1=".5" y2=".5" gradientTransform="matrix(11.362 0 0 12.222 40.638 25.899)" gradientUnits="userSpaceOnUse">
        <stop offset="0%" style="stop-color:#a0cf63"/>
        <stop offset="100%" style="stop-color:#c4da45"/>
    </linearGradient>
    <path fill="url(#e)" fill-rule="evenodd" d="m46.797 38.121-.05-.01c-.01-.02-.017-.041-.03-.06a5.6 5.6 0 0 0-.747-.843c-1.792-1.718-3.435-3.589-5.332-5.2.244-.245.547-.418.792-.665q2.33-2.336 4.666-4.664c.24-.24.458-.495.652-.774l.058-.006a5.96 5.96 0 0 1 3.112 1.482c1.132 1.009 1.817 2.274 2.023 3.777a6.19 6.19 0 0 1-4.855 6.909q-.144.029-.289.054"/>
    <path fill="#efe129" fill-rule="evenodd" d="m46.804 25.904-.057.006a3.2 3.2 0 0 0-.755-.091q-3.478-.003-6.952.003c-.321 0-.642.054-.96.082q.126-.526.126-1.064.009-3.339 0-6.678c0-.311-.054-.623-.082-.935.835-.56 1.732-.951 2.74-1.09q2.463-.346 4.482 1.084a6 6 0 0 1 2.52 3.994c.276 1.631-.064 3.149-.98 4.535-.032.047-.085.088-.082.157"/>
    <linearGradient id="f" x1="1" x2=".239" y1=".056" y2=".64" gradientTransform="matrix(9.877 0 0 9.843 16.036 38.107)" gradientUnits="userSpaceOnUse">
        <stop offset="0%" style="stop-color:#b28cc0"/>
        <stop offset="100%" style="stop-color:#9a8ec4"/>
    </linearGradient>
    <path fill="url(#f)" fill-rule="evenodd" d="m17.192 38.121.054-.011q.327.093.666.088c2.667-.046 5.336.12 8.001-.091a7.6 7.6 0 0 0-.126 1.294q.002 2.868-.002 5.734c-.001.541.012 1.08.099 1.615l-.01.049c-.772.514-1.599.898-2.52 1.051-1.95.324-3.692-.14-5.19-1.43-1.209-1.041-1.905-2.378-2.085-3.96-.172-1.512.181-2.913 1.026-4.184.033-.049.059-.103.087-.155"/>
    <linearGradient id="g" x1=".932" x2=".039" y1=".37" y2=".67" gradientTransform="matrix(9.89 0 0 9.851 16.034 16.063)" gradientUnits="userSpaceOnUse">
        <stop offset="0%" style="stop-color:#f48155"/>
        <stop offset="100%" style="stop-color:#f16168"/>
    </linearGradient>
    <path fill="url(#g)" fill-rule="evenodd" d="m17.245 25.914-.061-.008-.315-.542a5.95 5.95 0 0 1-.834-3.101c.019-3.107 2.22-5.604 5.161-6.106 1.627-.277 3.14.063 4.521.974q.076.047.153.092l.012.054c-.032.29-.09.58-.091.87q-.013 3.351.001 6.702c.002.356.03.717.132 1.065-.306-.031-.611-.088-.917-.089q-3.524-.01-7.049-.002-.361.001-.712.091"/>
    <linearGradient id="h" x1=".803" x2=".636" y1=".049" y2="1.099" gradientTransform="matrix(6.24 0 0 13.665 25.78 33.083)" gradientUnits="userSpaceOnUse">
        <stop offset="0%" style="stop-color:#735194"/>
        <stop offset="100%" style="stop-color:#525da3"/>
    </linearGradient>
    <path fill="url(#h)" fill-rule="evenodd" d="M25.878 46.748c-.087-.535-.1-1.074-.098-1.615.004-1.911.001-3.823.002-5.733 0-.436.052-.867.126-1.295q.009-.019.012-.04a.8.8 0 0 0 .222-.027q2.656-.661 4.008-3.035c.319-.561.557-1.16.641-1.809q.013-.008.027-.014l.712-.097q.021.004.04.014c.11.214.315.361.409.587-.011.028-.017.058-.033.083-.991 1.56-1.249 3.239-.779 5.023.171.647.428 1.263.847 1.797l.006.049c-.169.121-.249.316-.387.464-1.245 1.338-2.572 2.595-3.858 3.894-.565.57-1.104 1.17-1.745 1.661-.048.037-.087.084-.152.093"/>
    <linearGradient id="i" x1=".206" x2=".382" y1=".209" y2="1.119" gradientTransform="matrix(6.2 0 0 13.647 32.014 33.088)" gradientUnits="userSpaceOnUse">
        <stop offset="0%" style="stop-color:#416db9"/>
        <stop offset="100%" style="stop-color:#337e8d"/>
    </linearGradient>
    <path fill="url(#i)" fill-rule="evenodd" d="m32.02 40.641-.006-.05.055-.097c1.114-1.809 1.281-3.707.526-5.688-.15-.394-.377-.749-.578-1.116.092-.228.302-.373.41-.589q.016-.01.035-.013c.233.067.477.06.714.094q.012.008.022.017c0 .03-.005.062.001.09.452 2.35 2.456 4.337 4.832 4.793l.051.035c.086.374.124.756.126 1.136q.013 3.276 0 6.551a4 4 0 0 1-.101.93c-.283-.141-.499-.355-.708-.561a1061 1061 0 0 1-4.747-4.743 5.6 5.6 0 0 1-.632-.789"/>
    <linearGradient id="j" x1=".048" x2="1" y1=".08" y2=".265" gradientTransform="matrix(13.692 0 0 6.197 33.056 32.007)" gradientUnits="userSpaceOnUse">
        <stop offset="0%" style="stop-color:#2e9274"/>
        <stop offset="100%" style="stop-color:#469d3c"/>
    </linearGradient>
    <path fill="url(#j)" fill-rule="evenodd" d="m38.08 38.115-.051-.035c.056-.039.035-.089.023-.141a6.1 6.1 0 0 0-1.526-2.892 6.13 6.13 0 0 0-3.33-1.85l-.021-.018c-.044-.225-.04-.458-.119-.676l.035-.074.558-.422.053.006c.167.101.328.213.499.304 1.264.667 2.6.876 4.008.637a5.8 5.8 0 0 0 2.359-.945h.072c1.897 1.611 3.541 3.481 5.332 5.2.272.261.532.532.747.843q.018.029.029.06a3.2 3.2 0 0 1-.711.089q-3.52.007-7.043-.002c-.305-.001-.61-.055-.915-.084"/>
    <linearGradient id="k" x1=".175" x2=".446" y1=".261" y2="1.196" gradientTransform="matrix(7.28 0 0 13.659 25.784 17.277)" gradientUnits="userSpaceOnUse">
        <stop offset="0%" style="stop-color:#ec4001"/>
        <stop offset="100%" style="stop-color:#fb6f01"/>
    </linearGradient>
    <path fill="url(#k)" fill-rule="evenodd" d="M25.922 25.914a3.8 3.8 0 0 1-.131-1.066q-.014-3.35-.002-6.701c.002-.29.059-.58.091-.87.269.154.502.358.719.574 1.573 1.566 3.152 3.128 4.709 4.711a5.98 5.98 0 0 1 1.719 3.657c.146 1.388-.148 2.672-.857 3.864-.175.294-.4.56-.602.839l-.037.014-.725-.098c-.011-.081-.018-.164-.035-.244a6 6 0 0 0-1.335-2.625 6.1 6.1 0 0 0-2.127-1.597c-.448-.202-.916-.331-1.387-.458"/>
    <linearGradient id="l" x1="0" x2="1" y1=".5" y2=".5" gradientTransform="matrix(13.651 0 0 6.199 33.102 25.815)" gradientUnits="userSpaceOnUse">
        <stop offset="0%" style="stop-color:#58a920"/>
        <stop offset="100%" style="stop-color:#98b811"/>
    </linearGradient>
    <path fill="url(#l)" fill-rule="evenodd" d="m33.705 32.014-.053-.006a4 4 0 0 0-.537-.411c-.049-.261.054-.51.058-.767q.01-.012.025-.017a6.16 6.16 0 0 0 2.791-1.344c1.052-.898 1.741-2.018 2.048-3.37.016-.07.048-.133-.058-.15l.105-.047c.32-.029.64-.082.96-.083q3.476-.007 6.953-.002c.255 0 .508.034.756.091a5.6 5.6 0 0 1-.652.772 2281 2281 0 0 0-4.666 4.666c-.245.246-.548.419-.792.665h-.073c-.224-.194-.491-.318-.754-.444-1.226-.586-2.514-.737-3.843-.494-.819.15-1.587.447-2.268.941"/>
    <path fill="#528000" fill-rule="evenodd" d="M37.951 25.894c.107.02.158-.028.138.045-.208 1.38-1.052 2.633-2.104 3.53a6.1 6.1 0 0 1-2.787 1.345c.211-1.162.737-2.166 1.537-3.023.888-.955 2.031-1.72 3.298-2.003"/>
    <path fill="#c1dc73" fill-rule="evenodd" d="M33.081 31.602c-.188-.243-.46-.407-.623-.668l.715-.101c-.007.255-.108.504-.06.765z"/>
    <linearGradient id="m" x1="0" x2="1" y1=".5" y2=".5" gradientTransform="matrix(11.348 0 0 12.222 12 25.899)" gradientUnits="userSpaceOnUse">
        <stop offset="0%" style="stop-color:#d287af"/>
        <stop offset="100%" style="stop-color:#e07993"/>
    </linearGradient>
    <path fill="url(#m)" fill-rule="evenodd" d="M17.192 38.121c-2.475-.359-4.563-2.364-5.066-4.867a6.187 6.187 0 0 1 4.27-7.175c.259-.08.521-.148.791-.18l.061.009q.214.331.494.611 2.44 2.44 4.883 4.879.327.327.723.569c-.008.096-.085.131-.15.182-.195.153-.4.297-.574.47q-2.462 2.452-4.916 4.912a3.3 3.3 0 0 0-.462.579z"/>
    <linearGradient id="n" x1="0" x2="1" y1=".5" y2=".5" gradientTransform="matrix(13.647 0 0 6.286 17.244 25.816)" gradientUnits="userSpaceOnUse">
        <stop offset="0%" style="stop-color:#bd090f"/>
        <stop offset="100%" style="stop-color:#e11f07"/>
    </linearGradient>
    <path fill="url(#n)" fill-rule="evenodd" d="M25.922 25.91c.471.129.939.259 1.387.463a6.1 6.1 0 0 1 2.127 1.611 6.1 6.1 0 0 1 1.335 2.646c.018.081.024.164.035.246.038.267.131.53.059.806-.196.112-.393.222-.522.418l-.081.002c-.035-.159-.185-.186-.295-.252-.816-.493-1.711-.737-2.65-.837q-.472-.113-.943 0c-.325.053-.652.091-.975.165-.704.161-1.343.472-1.958.843l-.096-.002a3.8 3.8 0 0 1-.723-.573q-2.443-2.46-4.883-4.92a3.7 3.7 0 0 1-.495-.616q.35-.09.712-.091 3.525-.007 7.05.002c.306.001.611.058.916.089"/>
    <linearGradient id="o" x1=".954" x2="0" y1=".111" y2=".294" gradientTransform="matrix(13.65 0 0 6.25 17.24 31.97)" gradientUnits="userSpaceOnUse">
        <stop offset="0%" style="stop-color:#c23857"/>
        <stop offset="100%" style="stop-color:#914475"/>
    </linearGradient>
    <path fill="url(#o)" fill-rule="evenodd" d="m30.26 32.052.08-.002c.21.084.346.272.541.377.037.257-.039.506-.065.758a.1.1 0 0 0-.025.014 6.1 6.1 0 0 0-3.404 1.932 5.9 5.9 0 0 0-1.468 2.939q-.004.02-.012.041c-2.665.21-5.334.044-8.001.09a2.2 2.2 0 0 1-.666-.089q.198-.314.461-.578 2.455-2.459 4.917-4.912c.175-.174.38-.317.574-.469.066-.052.142-.087.151-.183l.095.002c-.014.066.035.091.08.12 1.202.761 2.522 1.062 3.928.943 1.014-.086 1.954-.432 2.814-.983"/>
    <path fill="#4a1235" fill-rule="evenodd" d="M25.922 38.067c.161-1.155.678-2.163 1.437-3.004.919-1.014 2.117-1.612 3.464-1.884a5 5 0 0 1-.674 1.828c-.942 1.731-2.557 2.957-4.242 3.102"/>
    <path fill="#232160" fill-rule="evenodd" d="M32.017 33.69c.202.368.428.724.576 1.115.757 1.984.687 3.905-.428 5.716-.019.032-.132.132-.151.164-.419-.535-.678-1.244-.848-1.89a6.1 6.1 0 0 1 .782-5.023l.031-.082z"/>
    <path fill="#aa81b8" fill-rule="evenodd" d="M30.817 33.186c.025-.252.101-.504.063-.756l.019-.007h.016c.189.237.456.4.614.662z"/>
    <path fill="#57afc9" fill-rule="evenodd" d="M32.017 33.69h-.038c-.094-.227-.299-.375-.409-.589.284-.039.572-.039.856 0-.106.217-.315.362-.409.589"/>
    <path fill="#0c4120" fill-rule="evenodd" d="M33.198 33.198q1.956.397 3.329 1.853c.772.818 1.313 1.776 1.559 2.875.013.054.051.157-.006.198-2.375-.457-4.429-2.487-4.882-4.834q-.006-.047 0-.092"/>
    <path fill="#57afc9" fill-rule="evenodd" d="M32.461 33.088c.16-.23.364-.428.599-.582.078.22.072.45.116.677-.24-.035-.482-.029-.715-.095"/>
    <path fill="#0a4f09" fill-rule="evenodd" d="M33.711 31.951c.678-.494 1.439-.724 2.258-.875a6.2 6.2 0 0 1 3.865.491c.268.126.586.246.813.441a6.2 6.2 0 0 1-2.438.948 6.15 6.15 0 0 1-4.006-.636 15 15 0 0 1-.558-.315"/>
    <path fill="#a5d27d" fill-rule="evenodd" d="m33.081 31.602.032-.004c.195.12.366.265.536.41l-.555.425a3 3 0 0 1-.015-.831"/>
    <path fill="#ed7985" fill-rule="evenodd" d="M30.864 31.633c.072-.27-.059-.674-.094-.939.239.032.516.209.759.24-.129.202-.308.359-.485.519-.06.057-.123.105-.126.196z"/>
    <path fill="#ed5e88" fill-rule="evenodd" d="m30.864 31.633.051.016q.044.387 0 .774h-.016l-.016.004c-.195-.104-.334-.293-.542-.378.13-.192.328-.302.523-.413"/>
    <path fill="#7e0804" fill-rule="evenodd" d="M30.269 32.115a6.2 6.2 0 0 1-2.822.973c-1.597.158-3.149-.277-4.126-1.111 2.098-1.349 5.493-1.434 7.014.075"/>
    <path fill="#ab0100" fill-rule="evenodd" d="M30.716 30.738c.105-.018.073-.078.057-.15a6.08 6.08 0 0 0-4.856-4.684c.21 1.165.755 2.139 1.559 2.999.881.95 1.971 1.552 3.24 1.835"/>
    <path fill="#a24e00" fill-rule="evenodd" d="M32.13 23.514c.199.356.429.696.577 1.074q1.14 2.866-.527 5.474l-.053.094a4.7 4.7 0 0 1-.847-1.729 5.7 5.7 0 0 1 .769-4.844l.043-.069z"/>
    <linearGradient id="p" x1=".699" x2=".568" y1=".336" y2="1.158" gradientTransform="matrix(6.127 0 0 13.839 32.079 17.155)" gradientUnits="userSpaceOnUse">
        <stop offset="0%" style="stop-color:#e69e08"/>
        <stop offset="100%" style="stop-color:#cbc507"/>
    </linearGradient>
    <path fill="url(#p)" fill-rule="evenodd" d="M38.089 17.155c.087.543.099 1.091.098 1.64-.004 1.941-.001 3.882-.002 5.824 0 .441.086.864-.095 1.28-1.776.331-3.52 1.945-4.227 3.185-.317.57-.582 1.082-.666 1.741-.008.006.004 0-.004.004-.235.044-.201.041-.287.06-.046-.001-.43.085-.421.104a5 5 0 0 1-.376-.835c.981-1.585 1.212-3.109.747-4.92-.196-.651-.498-1.305-.777-1.709.068-.135.103-.179.339-.594.965-1.514 2.522-2.679 3.795-3.998.559-.58 1.092-1.189 1.726-1.688.048-.037.086-.086.15-.094"/>
</svg>
