<svg xmlns="http://www.w3.org/2000/svg" viewBox="0 0 64 64">
    <defs>
        <linearGradient id="b">
            <stop offset="0" style="stop-color:#0091f9"/>
            <stop offset="1" style="stop-color:#41bbff"/>
        </linearGradient>
        <linearGradient id="h" x1="16" x2="16" y1="16.5" y2="0" gradientTransform="translate(5.333)scale(2.66667)" gradientUnits="userSpaceOnUse" href="#a"/>
        <linearGradient id="a">
            <stop offset="0" style="stop-color:#e72f2f"/>
            <stop offset="1" style="stop-color:#ff6969"/>
        </linearGradient>
        <linearGradient id="e" x1="16" x2="16" y1="30" y2="2" gradientTransform="matrix(-1.99989 .02138 .01753 1.9001 83.84 1.26)" gradientUnits="userSpaceOnUse" href="#b"/>
        <linearGradient id="g" x1="16" x2="16" y1="30" y2="2" gradientTransform="matrix(0 2 2 0 0 0)" gradientUnits="userSpaceOnUse" href="#c"/>
        <linearGradient id="c">
            <stop offset="0" style="stop-color:#eaebed"/>
            <stop offset="1" style="stop-color:#f9fafa"/>
        </linearGradient>
        <linearGradient id="d" x1="16" x2="16" y1="30" y2="2" gradientTransform="matrix(.05233 -1.99931 2.00536 0 -8.998 55.989)" gradientUnits="userSpaceOnUse">
            <stop offset="0" style="stop-opacity:1;stop-color:#aba09c"/>
            <stop offset="1" style="stop-opacity:1;stop-color:#e8e4e3"/>
        </linearGradient>
        <linearGradient id="f" x1="16" x2="16" y1="30" y2="2" gradientTransform="matrix(-1.99996 .0122 0 1 64 29.805)" gradientUnits="userSpaceOnUse">
            <stop offset="0" style="stop-opacity:1;stop-color:#22c55e"/>
            <stop offset="1" style="stop-color:#2bd885"/>
        </linearGradient>
    </defs>
    <rect width="56" height="56" x="-4" y="-4" rx="12" style="stroke-width:2;fill:url(#d)" transform="matrix(0 1 1 0 8 8)"/>
    <path d="M34.8 32 57.778 9.023A11.97 11.97 0 0 1 60 16v32c0 2.606-.822 5.013-2.223 6.977z" style="fill:url(#e);stroke-width:2;opacity:.9;transform-origin:47.4px 32px"/>
    <path d="m9.082 57.816 23.02-23.015 22.933 22.933A11.97 11.97 0 0 1 48 60H16c-2.58 0-4.965-.808-6.918-2.184" style="stroke-width:2;transform-origin:32.059px 47.4px;fill:url(#f)"/>
    <path d="M5.469 53.777 53.652 5.402a12 12 0 0 1 4.946 4.95l-21.66 21.66L58.59 53.664a12 12 0 0 1-4.957 4.941L31.988 36.961 10.352 58.598a12 12 0 0 1-4.883-4.82" style="fill:url(#g);stroke-width:2;transform-origin:32.033px 32.004px"/>
    <g transform="translate(-7.273 14)scale(.81818)">
        <path d="M48 0c-8.873 0-16 6.87-16 16 0 11.973 16 28 16 28s16-16.027 16-28c0-9.13-7.127-16-16-16" style="fill:url(#h);fill-opacity:1;stroke:none;stroke-width:2.95086;stroke-linecap:round;stroke-linejoin:round;stroke-miterlimit:10"/>
        <circle cx="48" cy="16" r="8" style="stroke-width:5.333;fill:#b91c1c;fill-opacity:.8"/>
    </g>
</svg>
