<?xml version="1.0" encoding="utf-8"?>
<svg xmlns="http://www.w3.org/2000/svg" style="fill-rule:evenodd;clip-rule:evenodd;stroke-linejoin:round;stroke-miterlimit:2" viewBox="0 0 64 64">
  <g transform="matrix(1.071429, 0, 0, 1.071429, -2.285729, -2.285729)">
    <path d="M 58.134 17.067 L 58.134 46.934 C 58.134 53.113 53.113 58.134 46.934 58.134 L 17.067 58.134 C 10.889 58.134 5.867 53.113 5.867 46.934 L 5.867 17.067 C 5.867 10.889 10.889 5.867 17.067 5.867 L 46.934 5.867 C 53.113 5.867 58.134 10.889 58.134 17.067" style="fill:#276bda"/>
    <path d="M17 7h-.02C11.5 7 7 11.5 7 16.98v30.04C7 52.5 11.5 57 16.98 57H32V38c0-3.33 2.68-6 6-6h19V16.98C57 11.5 52.5 7 47.02 7z" style="fill:#fff;fill-rule:nonzero"/>
    <path d="M19.5 16h-.01a.49.49 0 0 0-.49.49V20h-3.5c-.27 0-.5.23-.5.5s.23.5.5.5H19v3.5c0 .27.23.5.5.5.28 0 .5-.23.5-.5V21h3.5c.28 0 .5-.23.5-.5s-.22-.5-.5-.5H20v-3.51a.49.49 0 0 0-.49-.49zM49 20.5v.01c0 .27-.22.49-.49.49H40.5c-.28 0-.5-.23-.5-.5s.22-.5.5-.5h8c.28 0 .5.22.5.5M22.69 40.82a.51.51 0 0 0-.72 0L19.5 43.3l-2.47-2.48a.53.53 0 0 0-.36-.15c-.27 0-.5.23-.5.5 0 .14.06.26.15.36L18.8 44l-2.48 2.48a.5.5 0 0 0-.15.35.501.501 0 0 0 .86.35l2.47-2.47 2.47 2.47a.501.501 0 0 0 .72-.7L20.21 44l2.47-2.47q.15-.15.15-.36a.47.47 0 0 0-.15-.35z" style="fill:#333;fill-rule:nonzero"/>
    <path d="M50 42.5c0 .28-.25.5-.56.5h-8.88c-.31 0-.56-.22-.56-.5 0-.27.25-.5.56-.5h8.88c.31 0 .56.23.56.5m0 5c0 .27-.25.5-.56.5h-8.88c-.31 0-.56-.23-.56-.5 0-.28.25-.5.56-.5h8.88c.31 0 .56.22.56.5" style="fill:#fff;fill-rule:nonzero"/>
    <path d="M 58.134 17.067 L 58.134 46.934 C 58.134 53.112 53.112 58.134 46.934 58.134 L 17.067 58.134 C 10.888 58.134 5.867 53.112 5.867 46.934 L 5.867 17.067 C 5.867 10.888 10.888 5.867 17.067 5.867 L 46.934 5.867 C 53.112 5.867 58.134 10.888 58.134 17.067" style="fill:url(#a)"/>
    <path d="M60 16v32c0 6.62-5.38 12-12 12H16C9.38 60 4 54.62 4 48V16C4 9.38 9.38 4 16 4h32c6.62 0 12 5.38 12 12" style="fill:none"/>
  </g>
  <defs>
    <linearGradient id="a" x1="0" x2="1" y1="0" y2="0" gradientTransform="matrix(0, 52.268833, -52.268833, 0, 31.99982, 5.866501)" gradientUnits="userSpaceOnUse">
      <stop offset="0" style="stop-color:#fff;stop-opacity:.1"/>
      <stop offset="1" style="stop-color:#000;stop-opacity:.1"/>
    </linearGradient>
  </defs>
</svg>