<svg xmlns="http://www.w3.org/2000/svg" viewBox="0 0 64 64">
    <defs>
        <linearGradient id="a" x1="7.937" x2="7.937" y1="15.081" y2="1.852" gradientTransform="scale(3.7796)" gradientUnits="userSpaceOnUse">
            <stop offset="0" stop-color="#363636"/>
            <stop offset="1" stop-color="#6c6c6c"/>
        </linearGradient>
    </defs>
    <rect width="56" height="56" x="4" y="4" fill="url(#a)" rx="12"/>
    <path fill="#007ec2" d="M15.337 14A1.337 1.337 0 0 0 14 15.341V32a7.17 7.17 0 0 0 1.238 4.046C18.898 41.489 25.639 49.602 32 50h5.826l.835-.18h10.362a1 1 0 0 0 .517-.154l.003-.002c.279-.245.457-.603.457-1.005V32a7.2 7.2 0 0 0-1.238-4.047c-1.935-2.878-4.736-6.494-7.884-9.33-1.813-1.592-3.71-2.932-5.532-3.751-1.115-.486-2.236-.803-3.346-.872H21.2z"/>
    <path fill="#f5f5f5" d="M20.674 19.333c-.743 0-1.34.6-1.34 1.344v18.41C20.163 44.52 27.32 49.582 31.96 50h4.949l.283-.09h11.466c.744 0 1.329-.74 1.341-1.485V31.961a7.2 7.2 0 0 0-1.24-4.055c-2.738-4.315-6.455-8.355-11.387-8.572H26.549z"/>
    <path fill="#2fcdeb" d="M26.011 24.666c-.746 0-1.345.602-1.345 1.35v6.65h9.335v-4.38L46 36l-12 7.667v-4.334h-9.335v3.428A7.22 7.22 0 0 0 31.906 50h16.748C49.4 50 50 49.398 50 48.652V31.905a7.22 7.22 0 0 0-7.239-7.239H31.905z"/>
</svg>
