<svg xmlns="http://www.w3.org/2000/svg" viewBox="0 0 64 64">
    <defs>
        <linearGradient id="a" x1="65.411" x2="65.411" y1="3.153" y2="59.155" gradientTransform="translate(-33.411 .846)" gradientUnits="userSpaceOnUse">
            <stop offset="0" style="stop-opacity:.1;stop-color:#fff"/>
            <stop offset="1" style="stop-opacity:.1"/>
        </linearGradient>
        <linearGradient id="d" x1="195.35" x2="211.37" y1="90.038" y2="90.038" gradientTransform="rotate(45 172.813 -75.327)scale(1.04615)" gradientUnits="userSpaceOnUse">
            <stop offset="0" stop-color="#9497a9"/>
            <stop offset="1" stop-color="#4d5167"/>
        </linearGradient>
        <linearGradient id="e" x1="61.444" x2="70.1" y1="97.698" y2="76.563" gradientTransform="rotate(36.507 211.798 26.164)scale(1.9023)" gradientUnits="userSpaceOnUse">
            <stop offset="0" stop-color="#a1886c"/>
            <stop offset="1" stop-color="#250c03"/>
        </linearGradient>
        <linearGradient id="f" x1="46.208" x2="58.284" y1="107.78" y2="109.13" gradientTransform="rotate(-18.327 8.188 124.66)" gradientUnits="userSpaceOnUse">
            <stop offset="0" stop-color="#0acbfc"/>
            <stop offset="1" stop-color="#0acbfc" stop-opacity="0"/>
        </linearGradient>
        <radialGradient id="c" cx="-46.61" cy="89.101" r="5.654" gradientTransform="matrix(8.9976 -.7141 .95465 12.029 375.1 -1009.7)" gradientUnits="userSpaceOnUse">
            <stop offset="0" stop-color="#00caff" stop-opacity=".973"/>
            <stop offset="1" stop-color="#f0c100"/>
        </radialGradient>
        <filter id="b" width="1.258" height="1.342" x="-.129" y="-.171" color-interpolation-filters="sRGB">
            <feGaussianBlur stdDeviation="5.605"/>
        </filter>
    </defs>
    <rect width="56" height="56" x="4" y="4" rx="12" style="fill:#f5f5f5;stroke-width:1"/>
    <rect width="56" height="56" x="4" y="4" rx="12" style="stroke-width:1;fill:url(#a)"/>
    <path d="M74.64 9.174a21 21 0 0 0-2.341.084c-6.23.562-12.156 3.888-15.88 8.916-2.519 3.398-3.997 7.54-4.297 11.76-.235 3.328 1.861 3.904 4.557 2.939a9 9 0 0 1 5.177-.26 8.95 8.95 0 0 1 6.662 7.348c.375 2.516-.343 5.07-1.363 7.397-1.019 2.328-2.35 4.517-3.308 6.868-1.762 4.32-2.215 9.158-1.328 13.736 1.132 5.84 4.478 11.227 9.213 14.832 4.484 3.422 10.179 5.204 15.814 4.991a25.5 25.5 0 0 0 3.498.1l.172-.005c.13-.006.26-.022.392-.03.142-.009.284-.012.426-.023.09-.007.178-.019.267-.027q.27-.026.54-.057a25 25 0 0 0 1.835-.274 26.6 26.6 0 0 0 12.67-6.175q.285-.25.564-.51c.066-.062.136-.12.201-.183l.073-.064c2.16-2.047 4.01-4.472 5.128-7.23.329-.814.581-1.66.769-2.52q.05-.219.091-.438c.026-.14.058-.278.08-.419q.194-1.179.175-2.371l10.405-11.87q.024-.034.046-.069l29.398-29.402v-.004q.262-.259.49-.537v-.003a7 7 0 0 0 .427-.575c1.83-2.765 1.537-6.512-.887-8.932a7 7 0 0 0-.476-.43l-.008-.007c-.102-.085-.21-.158-.316-.236-.079-.059-.154-.12-.236-.176a7 7 0 0 0-.487-.3l-.034-.015a7.11 7.11 0 0 0-8.494 1.191l-29.367 29.367a2.3 2.3 0 0 0-.3.255q-.023.022-.046.05l-10.804 9.414c-.185-.034-.37-.076-.556-.102-4.383-.63-8.899.914-12.43 3.578-3.36 2.535-5.891 6.004-8.078 9.601-.786 1.291-1.539 2.61-2.357 3.88a7.4 7.4 0 0 1-3.122 1.515 7.35 7.35 0 0 1-3.822-.22 7.36 7.36 0 0 1-3.186-2.125 7.33 7.33 0 0 1-1.668-3.445c-.375-1.997.115-4.098 1.12-5.863 1-1.766 2.493-3.218 4.145-4.394 3.313-2.355 7.26-3.647 10.736-5.744 3.473-2.094 6.464-5.006 8.581-8.463 2.117-3.461 3.348-7.466 3.45-11.52.156-6.25-2.47-12.527-7.032-16.8-3.996-3.743-9.414-5.902-14.878-6.004z" filter="url(#b)" opacity=".25" transform="translate(-8.986 12.915)scale(.3932)"/>
    <path fill="url(#c)" d="M55.953 103.78c-5.934.457-12.012-1.336-16.742-4.945-4.734-3.606-8.078-8.992-9.21-14.832-.888-4.578-.434-9.414 1.327-13.734.957-2.352 2.29-4.54 3.309-6.867s1.738-4.883 1.363-7.399a8.97 8.97 0 0 0-2.219-4.683 8.96 8.96 0 0 0-4.445-2.665 9 9 0 0 0-5.176.258c-2.695.965-4.793.39-4.558-2.937.3-4.22 1.78-8.36 4.3-11.758 3.723-5.028 9.649-8.356 15.88-8.918 6.226-.567 12.651 1.644 17.218 5.922 4.563 4.273 7.188 10.547 7.032 16.797-.102 4.054-1.332 8.062-3.45 11.523-2.117 3.457-5.109 6.367-8.582 8.46-3.476 2.098-7.422 3.391-10.734 5.747-1.652 1.175-3.148 2.625-4.148 4.39-1.004 1.766-1.492 3.867-1.117 5.864a7.33 7.33 0 0 0 1.668 3.445 7.35 7.35 0 0 0 3.183 2.125 7.35 7.35 0 0 0 3.825.222 7.4 7.4 0 0 0 3.406-1.746" transform="translate(3.8 6.609)scale(.3932)"/>
    <path fill="#cd8742" d="M51.687 19.272a2.793 2.793 0 0 0-3.952.011L34.733 32.284l3.941 3.941 13.002-13.001a2.793 2.793 0 0 0 .01-3.952z"/>
    <path fill="#a9713c" d="M51.687 19.272a2.8 2.8 0 0 0-.824-.565c.899 1.107.58 2.39-.433 3.405L37.616 34.918l1.057 1.309 13.003-13.004a2.79 2.79 0 0 0 .01-3.95z"/>
    <path fill="url(#d)" d="M89.965 64.027c-2.781-2.781-6.312-3.75-7.898-2.172q-.022.023-.043.05L67.868 74.239l.007.008-.015.011c2.531.625 5.191 2.22 7.41 4.434 2.219 2.219 3.813 4.883 4.434 7.418.109-.125.285-.312.312-.352l12.297-14.03c1.332-1.684.305-5.051-2.348-7.7z" transform="translate(3.8 6.609)scale(.3932)"/>
    <path fill="#16110d" fill-opacity=".25" d="M34.29 38.597c.262.46.735 1.408.848 1.869.043-.05.113-.123.123-.138l4.793-5.474c.36-.37.408-1.235-.185-2.189z"/>
    <path fill="url(#e)" d="M70.664 71.219c-4.383-.629-8.898.914-12.43 3.578-3.36 2.535-5.894 6.004-8.082 9.602-1.16 1.906-2.238 3.87-3.582 5.656a23.3 23.3 0 0 1-7.379 6.394c5.106 5.028 12.352 7.801 19.504 7.47 7.156-.329 14.113-3.759 18.734-9.231 1.434-1.696 2.652-3.586 3.461-5.653.805-2.07 1.191-4.32.96-6.527-.292-2.836-1.624-5.547-3.644-7.558-2.023-2.012-4.718-3.325-7.543-3.731z" transform="translate(3.8 6.609)scale(.3932)"/>
    <path fill-opacity=".2" d="M34.355 35.895a11.7 11.7 0 0 1-3.082 7.518 11.72 11.72 0 0 1-7.62 3.679 10 10 0 0 0 3.548.356c2.36-.187 4.629-1.24 6.35-2.867.848-.805 1.576-1.757 2.016-2.842s.579-2.31.276-3.44a5 5 0 0 0-.514-1.217 5 5 0 0 0-.974-1.187"/>
    <path fill="url(#f)" fill-rule="evenodd" d="m46.551 89.598-.047.004c-.062.086-.121.18-.187.266a23.1 23.1 0 0 1-7.282 6.308.32.32 0 0 0-.16.235.32.32 0 0 0 .094.265c3.164 3.043 7.098 5.242 11.316 6.434.426-.262.734-.715.809-1.211a1.75 1.75 0 0 0-.461-1.438c-.328-.343-.785-.539-1.246-.648-.465-.106-.942-.137-1.41-.203-.473-.07-.946-.184-1.348-.434a1.8 1.8 0 0 1-.524-.476 1.4 1.4 0 0 1-.261-.657 1.4 1.4 0 0 1 .101-.672c.082-.214.211-.41.36-.582.3-.347.683-.609 1.054-.878.371-.27.742-.555.996-.938a1.7 1.7 0 0 0 .262-.629 1.3 1.3 0 0 0-.047-.676 1.4 1.4 0 0 0-.371-.527 2.8 2.8 0 0 0-.527-.371c-.375-.215-.778-.39-1.086-.695a1.76 1.76 0 0 1-.524-1.23 1.78 1.78 0 0 1 .489-1.247" transform="translate(3.8 6.609)scale(.3932)"/>
    <path fill="#fff" fill-opacity=".031" d="M30.537 38.064a1.572 1.572 0 1 1-3.146 0 1.572 1.572 0 1 1 3.146 0"/>
</svg>
