<svg xmlns="http://www.w3.org/2000/svg" width="64" height="64" viewBox="0 0 64 64">
    <path fill="#7c6d67" fill-rule="evenodd" d="M60 16v32c0 6.63-5.38 12.01-12 12.01H16C9.37 60.01 4 54.63 4 48V16C4 9.38 9.37 4 16 4h32c6.62 0 12 5.38 12 12"/>
    <linearGradient id="a" x1=".5" x2=".5" y1="0" y2="1" gradientTransform="matrix(56 0 0 56.01 4 4)" gradientUnits="userSpaceOnUse">
        <stop offset="0%" stop-opacity=".5" style="stop-color:#ffedd5"/>
        <stop offset="100%" stop-opacity="0" style="stop-color:#ffedd5"/>
    </linearGradient>
    <path fill="url(#a)" fill-rule="evenodd" d="M60 16v32c0 6.63-5.38 12.01-12 12.01H16C9.37 60.01 4 54.63 4 48V16C4 9.38 9.37 4 16 4h32c6.62 0 12 5.38 12 12"/>
    <path fill="#aba09c" fill-rule="evenodd" d="M60 16v32c0 6.63-5.38 12.01-12 12.01H16C9.37 60.01 4 54.63 4 48V16C4 9.38 9.37 4 16 4h32c6.62 0 12 5.38 12 12"/>
    <linearGradient id="b" x1=".5" x2=".5" y1="0" y2="1" gradientTransform="matrix(56 0 0 56.01 4 4)" gradientUnits="userSpaceOnUse">
        <stop offset="0%" stop-opacity=".5" style="stop-color:#ffedd5"/>
        <stop offset="98.811%" stop-opacity="0" style="stop-color:#ffedd5"/>
        <stop offset="100%" stop-opacity="0" style="stop-color:#ffedd5"/>
    </linearGradient>
    <path fill="url(#b)" fill-rule="evenodd" d="M60 16v32c0 6.63-5.38 12.01-12 12.01H16C9.37 60.01 4 54.63 4 48V16C4 9.38 9.37 4 16 4h32c6.62 0 12 5.38 12 12"/>
    <linearGradient id="c" x1=".291" x2=".291" y1="1.034" y2="-.779" gradientTransform="matrix(40 0 0 39.473 12 12.263)" gradientUnits="userSpaceOnUse">
        <stop offset="0%" style="stop-color:#333"/>
        <stop offset="100%" style="stop-color:#666"/>
    </linearGradient>
    <path fill="url(#c)" d="M31.664 12.263c-1.238-.002-2.466.447-3.354 1.356L13.544 28.73c-4.989 6.179 3.396 5.461 6.991 7.241 1.289 1.318-4.941 2.285-3.652 3.605 1.29 1.318 7.792 2.539 9.084 3.856 1.289 1.318-2.638 2.718-1.349 4.035 1.29 1.318 4.27.07 4.827 3.112.399 2.175 5.38.935 7.815-.846 1.289-1.319-2.466-1.19-1.176-2.508 3.206-3.28 6.191-1.197 7.288-4.483.542-1.624-4.723-2.498-3.433-3.817 3.712-2.166 16.533-3.578 10.447-9.663L35.081 13.62a4.95 4.95 0 0 0-3.417-1.356zm-6.888 24.521c.394.247 6.362 1.46 7.821 1.701.505.108.148.629-.548.98-1.573.418-9.197-2.68-7.274-2.68zm23.214 4.154c-1.203.042-2.386.653-2.713 1.803 0 .75 5.518 1.245 5.518-.173-.394-1.138-1.605-1.671-2.805-1.63m-25.33 3.245c-1.731-.017-3.759 1.253-2.265 2.547 1.307 1.131 3.327-.287 3.934-1.866-.357-.472-.992-.674-1.669-.681m21.919.102c-1.686 1.513.187 3.047 1.85 2.069.37-.376-.009-1.693-1.85-2.069"/>
    <path fill-opacity=".3" d="M31.664 12.263c-1.238-.002-2.466.447-3.354 1.356L13.544 28.73c-4.989 6.179 3.396 5.461 6.991 7.241 1.289 1.318-4.941 2.285-3.652 3.605 1.29 1.318 7.792 2.539 9.084 3.856 1.289 1.318-2.638 2.718-1.349 4.035 1.29 1.318 4.27.07 4.827 3.112.399 2.175 5.38.935 7.815-.846 1.289-1.319-2.466-1.19-1.176-2.508 3.206-3.28 6.191-1.197 7.288-4.483.542-1.624-4.723-2.498-3.433-3.817 3.712-2.166 16.533-3.578 10.447-9.663L35.081 13.62a4.95 4.95 0 0 0-3.417-1.356zm-6.888 24.521c.394.247 6.362 1.46 7.821 1.701.505.108.148.629-.548.98-1.573.418-9.197-2.68-7.274-2.68zm23.214 4.154c-1.203.042-2.386.653-2.713 1.803 0 .75 5.518 1.245 5.518-.173-.394-1.138-1.605-1.671-2.805-1.63m-25.33 3.245c-1.731-.017-3.759 1.253-2.265 2.547 1.307 1.131 3.327-.287 3.934-1.866-.357-.472-.992-.674-1.669-.681m21.919.102c-1.686 1.513.187 3.047 1.85 2.069.37-.376-.009-1.693-1.85-2.069"/>
    <path fill="#f5f5f5" d="M31.79 13.697c.883.005 1.764.339 2.398.98l5.847 5.934c.554.565.544 1.659.234 1.973l-2.9-2.319-.572 3.439-2.422-1.275-3.885 2.445-1.287-5.165-2.085 3.605h-3.182c-1.299 0-1.454-1.649-.274-2.83 2.062-2.226 4.428-4.492 5.714-5.807a3.35 3.35 0 0 1 2.414-.98"/>
</svg>
