<svg xmlns="http://www.w3.org/2000/svg" xmlns:xlink="http://www.w3.org/1999/xlink" viewBox="0 0 64 64">
    <defs>
        <linearGradient id="b" x1="1.058" x2="15.875" y1="8.459" y2="8.459" gradientTransform="rotate(-90 32 31.97)scale(3.7796)" gradientUnits="userSpaceOnUse">
            <stop offset="0" stop-color="#596737"/>
            <stop offset="1" stop-color="#9fbe40"/>
        </linearGradient>
        <filter id="a" width="100%" height="100%" x="0%" y="0%">
            <feColorMatrix color-interpolation-filters="sRGB" values="0 0 0 0 1 0 0 0 0 1 0 0 0 0 1 0 0 0 1 0"/>
        </filter>
        <mask id="c">
            <g filter="url(#a)">
                <path fill-opacity=".15" d="M-6.4-6.4h76.8v76.8H-6.4z"/>
            </g>
        </mask>
    </defs>
    <path fill="url(#b)" d="M4 46.969v-30c0-7.18 5.82-13 13-13h30c7.18 0 13 5.82 13 13v30c0 7.18-5.82 13.004-13 13.004H17c-7.18 0-13-5.825-13-13.004m0 0"/>
    <path fill="#f5f5f5" d="M31.488 11.094a20.7 20.7 0 0 0-5.843.851c-.95.285-1.88.637-2.778 1.051a20.9 20.9 0 0 0-8.84 7.777 21.1 21.1 0 0 0-2.457 5.457c-.28.961-.488 1.946-.633 2.938a22 22 0 0 0 0 5.996 21.5 21.5 0 0 0 1.668 5.754 21.3 21.3 0 0 0 3.195 5.047 20.8 20.8 0 0 0 9.84 6.422q1.425.426 2.895.64a20.7 20.7 0 0 0 5.906 0q1.47-.214 2.895-.64 1.425-.423 2.773-1.051a20.9 20.9 0 0 0 4.973-3.242 21 21 0 0 0 2.094-2.125 21.3 21.3 0 0 0 3.195-5.047 21.34 21.34 0 0 0 .98-14.867 32 32 0 0 0-.312-.985 29 29 0 0 0-.371-.965q-.199-.475-.414-.945a25 25 0 0 0-.453-.926 22 22 0 0 0-1.637-2.617q-.306-.416-.629-.816a21 21 0 0 0-.668-.781 21 21 0 0 0-.699-.75c-.238-.243-.488-.48-.738-.711a21 21 0 0 0-1.575-1.317 25 25 0 0 0-.835-.594q-.424-.288-.86-.554a25 25 0 0 0-.887-.508 18 18 0 0 0-.91-.465 18 18 0 0 0-.933-.418 20 20 0 0 0-.95-.375c-.32-.113-.64-.223-.964-.32a17 17 0 0 0-.985-.278q-.493-.127-.992-.226-.499-.104-1.004-.18c-.336-.05-.676-.094-1.012-.125a22 22 0 0 0-2.035-.102Zm0 6.062a16 16 0 0 1 1.719.102q.428.047.852.125.421.075.84.18.42.098.831.226c.278.082.547.176.817.277q.406.146.805.32.392.173.777.368a14 14 0 0 1 1.488.875q.358.235.703.5.343.258.676.539.33.279.64.582.318.3.61.617.299.317.574.653.275.334.532.687.257.347.492.711.24.367.457.746c.14.25.277.508.402.766a15 15 0 0 1 .68 1.605c.097.274.191.547.273.828q.125.418.219.84.1.427.176.856c.05.289.094.574.125.867q.051.433.074.867c.02.289.027.582.027.871q.007 1.313-.226 2.61a14.5 14.5 0 0 1-.664 2.523 14.7 14.7 0 0 1-1.09 2.375 14.4 14.4 0 0 1-1.477 2.14 14.3 14.3 0 0 1-1.824 1.852 14 14 0 0 1-2.11 1.496q-1.119.665-2.34 1.106c-.808.304-1.64.53-2.487.68-.844.156-1.704.23-2.567.23-.86.004-1.722-.074-2.57-.23a14 14 0 0 1-2.485-.676 14 14 0 0 1-2.34-1.11 14 14 0 0 1-2.109-1.496 14 14 0 0 1-1.824-1.852 14.4 14.4 0 0 1-1.477-2.14 14.3 14.3 0 0 1-1.085-2.375q-.452-1.232-.668-2.524a14.3 14.3 0 0 1-.227-2.609 14 14 0 0 1 .227-2.605q.217-1.292.664-2.524a14.3 14.3 0 0 1 1.09-2.375c.425-.758.921-1.473 1.476-2.14.55-.672 1.16-1.293 1.824-1.852a14 14 0 0 1 2.11-1.5 14 14 0 0 1 2.34-1.102 13.7 13.7 0 0 1 2.484-.683c.848-.156 1.71-.23 2.57-.227ZM10.906 9.633h2.442c1.039 0 1.879.851 1.879 1.906v2.477c0 1.054-.84 1.906-1.88 1.906h-2.44c-1.036 0-1.876-.852-1.876-1.906v-2.477c0-1.055.84-1.906 1.875-1.906m39.524 0h2.441c1.035 0 1.875.851 1.875 1.906v2.477c0 1.054-.84 1.906-1.875 1.906H50.43c-1.04 0-1.88-.852-1.88-1.906v-2.477a1.89 1.89 0 0 1 1.88-1.906m0 38.777h2.441c1.035 0 1.875.852 1.875 1.906v2.477c0 1.05-.84 1.906-1.875 1.906H50.43c-1.04 0-1.88-.855-1.88-1.906v-2.477c0-1.054.84-1.906 1.88-1.906m-39.524.121h2.442c1.039 0 1.879.852 1.879 1.907v2.476c0 1.05-.84 1.906-1.88 1.906h-2.44c-1.036 0-1.876-.855-1.876-1.906v-2.477c0-1.054.84-1.906 1.875-1.906m0 0"/>
    <g mask="url(#c)">
        <use xlink:href="#d"/>
    </g>
    <path fill="#ddd" d="M10.563 25.805h8.019a1.99 1.99 0 0 1 1.992 1.996v7.945a1.99 1.99 0 0 1-1.992 1.996h-8.02a1.995 1.995 0 0 1-1.996-1.996v-7.945c0-1.106.895-1.996 1.996-1.996m0 0"/>
    <path fill="#ddd" d="M17.848 29.145h36.285v5.261H17.848Zm0 0"/>
</svg>
