<svg xmlns="http://www.w3.org/2000/svg" viewBox="0 0 64 64">
    <defs>
        <linearGradient id="a" x1="7.937" x2="7.937" y1="15.081" y2="1.852" gradientTransform="scale(3.7796)" gradientUnits="userSpaceOnUse">
            <stop offset="0" stop-color="#8811a2"/>
            <stop offset="1" stop-color="#da50d5"/>
        </linearGradient>
    </defs>
    <rect width="56" height="56" x="4" y="3.969" fill="url(#a)" rx="12" ry="12"/>
    <path d="M23.999 43.999c-.079 3.079-3.462 4.917-6.089 3.309A4 4 0 0 1 16 43.999c.079-3.079 3.462-4.918 6.089-3.309a4 4 0 0 1 1.91 3.309" style="fill:#f5f5f5" transform="translate(0 -.096)"/>
    <path d="M31.999 43.999c-.079 3.079-3.462 4.917-6.089 3.309a4 4 0 0 1-1.911-3.309c.08-3.079 3.463-4.918 6.09-3.309a4 4 0 0 1 1.91 3.309m8 0c-.08 3.079-3.462 4.917-6.089 3.309a4 4 0 0 1-1.911-3.309c.08-3.079 3.463-4.918 6.089-3.309a4 4 0 0 1 1.911 3.309m8 0c-.08 3.079-3.463 4.917-6.089 3.309a4 4 0 0 1-1.911-3.309c.08-3.079 3.462-4.918 6.089-3.309a4 4 0 0 1 1.911 3.309" style="fill:#f5f5f5" transform="translate(0 -.096)"/>
    <path d="M23.999 35.999c-.079 3.079-3.462 4.918-6.089 3.309A4 4 0 0 1 16 35.999c.079-3.079 3.462-4.917 6.089-3.309a4 4 0 0 1 1.91 3.309" style="fill:#fb7185" transform="translate(0 -.096)"/>
    <path d="M31.999 35.999c-.079 3.079-3.462 4.918-6.089 3.309a4 4 0 0 1-1.911-3.309c.08-3.079 3.463-4.917 6.09-3.309a4 4 0 0 1 1.91 3.309" style="fill:#f5f5f5" transform="translate(0 -.096)"/>
    <path d="M39.999 35.999c-.08 3.079-3.462 4.918-6.089 3.309a4 4 0 0 1-1.911-3.309c.08-3.079 3.463-4.917 6.089-3.309a4 4 0 0 1 1.911 3.309m8 0c-.08 3.079-3.463 4.918-6.089 3.309a4 4 0 0 1-1.911-3.309c.08-3.079 3.462-4.917 6.089-3.309a4 4 0 0 1 1.911 3.309" style="fill:#fb7185" transform="translate(0 -.096)"/>
    <path d="M39.999 27.999c-.08 3.079-3.462 4.918-6.089 3.309a4 4 0 0 1-1.911-3.309c.08-3.079 3.463-4.917 6.089-3.309a4 4 0 0 1 1.911 3.309" style="fill:#f5f5f5" transform="translate(0 -.096)"/>
    <path d="M47.999 27.999c-.08 3.079-3.463 4.918-6.089 3.309a4 4 0 0 1-1.911-3.309c.08-3.079 3.462-4.917 6.089-3.309a4 4 0 0 1 1.911 3.309" style="fill:#fb7185" transform="translate(0 -.096)"/>
    <path d="M47.999 19.999c-.08 3.08-3.463 4.918-6.089 3.31a4 4 0 0 1-1.911-3.31c.08-3.079 3.462-4.917 6.089-3.309a4 4 0 0 1 1.911 3.309" style="fill:#f5f5f5" transform="translate(0 -.096)"/>
</svg>
