<svg xmlns="http://www.w3.org/2000/svg" xmlns:xlink="http://www.w3.org/1999/xlink" viewBox="0 0 64 64">
    <defs>
        <linearGradient id="c" x1="8.466" x2="8.466" y1="1.05" y2="15.867" gradientTransform="scale(3.7796)" gradientUnits="userSpaceOnUse">
            <stop offset="0" stop-color="#4199f1"/>
            <stop offset="1" stop-color="#476de1"/>
        </linearGradient>
        <linearGradient id="f" x1="8.467" x2="8.467" y1="3.704" y2="13.229" gradientTransform="scale(3.7796)" gradientUnits="userSpaceOnUse">
            <stop offset="0" stop-color="#fff"/>
            <stop offset="1" stop-color="#e7f2ff"/>
        </linearGradient>
        <mask id="d">
            <g filter="url(#a)">
                <path fill-opacity=".1" d="M-6.4-6.4h76.8v76.8H-6.4z"/>
            </g>
        </mask>
        <mask id="g">
            <g filter="url(#a)">
                <path fill-opacity=".15" d="M-6.4-6.4h76.8v76.8H-6.4z"/>
            </g>
        </mask>
        <clipPath id="b">
            <path d="M0 0h64v64H0z"/>
        </clipPath>
        <filter id="a" width="100%" height="100%" x="0%" y="0%">
            <feColorMatrix color-interpolation-filters="sRGB" values="0 0 0 0 1 0 0 0 0 1 0 0 0 0 1 0 0 0 1 0"/>
        </filter>
        <g id="h" clip-path="url(#b)">
            <path fill="#fff" d="M17 3.969a12.96 12.96 0 0 0-9.203 3.797A12.96 12.96 0 0 0 4 16.969v30a12.96 12.96 0 0 0 3.797 9.207A13 13 0 0 0 17 59.973h30a13 13 0 0 0 9.203-3.797A12.96 12.96 0 0 0 60 46.969v-30a12.96 12.96 0 0 0-3.797-9.203A12.96 12.96 0 0 0 47 3.969Zm0 .3h30.004a12.65 12.65 0 0 1 8.988 3.711 12.65 12.65 0 0 1 3.711 8.989v30.004a12.663 12.663 0 0 1-12.7 12.699H17a12.663 12.663 0 0 1-12.703-12.7V16.97a12.65 12.65 0 0 1 3.71-8.989 12.65 12.65 0 0 1 8.99-3.71"/>
        </g>
    </defs>
    <path fill="#f66151" d="M28 55a6.98 6.98 0 0 1-4.953-2.047A6.98 6.98 0 0 1 21 48v-7a2 2 0 0 1 2.004-2.004H60A2 2 0 0 1 62 41v7a6.98 6.98 0 0 1-2.047 4.953A6.98 6.98 0 0 1 55 55Zm0 0"/>
    <path fill="#c061cb" d="M23 29h37a2 2 0 0 1 2 2v12a2 2 0 0 1-2 2H23a2 2 0 0 1-2-2V31a2 2 0 0 1 2-2m0 0"/>
    <path fill="#2ec27e" d="M23 19h37a2 2 0 0 1 2 2v12a2 2 0 0 1-2 2H23a2 2 0 0 1-2-2V21a2 2 0 0 1 2-2m0 0"/>
    <path fill="#f8e45c" d="M28 9a6.98 6.98 0 0 0-4.953 2.047A6.98 6.98 0 0 0 21 16v7a2 2 0 0 0 2.004 2.004H60c1.105-.004 2-.899 2-2.004v-7a6.98 6.98 0 0 0-2.047-4.953A6.98 6.98 0 0 0 55 9Zm0 0"/>
    <path fill="url(#c)" d="M17 3.969h30c7.18 0 13 5.82 13 13v30c0 7.18-5.82 13.004-13 13.004H17c-7.18 0-13-5.825-13-13.004v-30c0-7.18 5.82-13 13-13m0 0"/>
    <g mask="url(#d)">
        <use xlink:href="#e"/>
    </g>
    <path fill="url(#f)" d="M32 14a17.98 17.98 0 0 0-12.73 5.27A17.98 17.98 0 0 0 14 32a17.99 17.99 0 0 0 8.633 15.344l.078.047q.714.434 1.469.804l.226.098q.693.323 1.414.594l.34.113c.434.152.88.29 1.324.41l.551.121q.585.14 1.184.239l.672.074q.568.077 1.148.113.48.034.961.04a18 18 0 0 0 13.305-5.907l.172-.184-.004-.008A18 18 0 0 0 50 31.996c.004-9.941-8.059-18-18-17.996m0 2.004c8.836 0 15.996 7.156 16 15.992 0 3.758-1.324 7.395-3.742 10.27-2.75-3.235-6.93-5.274-12.258-5.274-5.32 0-9.5 2.031-12.254 5.266a16 16 0 0 1-3.742-10.266c0-8.836 7.16-15.996 15.996-15.996ZM32 21c-3.312-.004-6 2.91-6 6.5 0 3.594 2.688 6.504 6 6.5 3.316 0 6-2.91 6-6.5S35.316 21 32 21"/>
    <path fill="#fff" d="M32 14a17.97 17.97 0 0 0-12.73 5.27A17.97 17.97 0 0 0 14 32a17.99 17.99 0 0 0 8.633 15.348l.074.043q.719.434 1.473.804l.226.098q.693.323 1.414.594l.34.113q.652.229 1.32.41l.555.121q.585.14 1.184.239l.672.074q.568.077 1.148.113.48.037.961.043a17.98 17.98 0 0 0 13.305-5.91l.172-.184v-.008A17.96 17.96 0 0 0 50 31.996C50 22.055 41.941 14 32 14.004m0 .3c9.777-.003 17.703 7.919 17.703 17.696a17.7 17.7 0 0 1-4.46 11.703.3.3 0 0 0-.04.332l-.094-.172-.02.028h-.007a17.7 17.7 0 0 1-13.078 5.82 20 20 0 0 1-2.078-.156l-.656-.075h-.016q-.58-.104-1.152-.238h-.008l-.528-.117h-.015a18 18 0 0 1-1.293-.406h-.008l-.324-.114a20 20 0 0 1-1.395-.582l-.008-.007-.218-.086-.008-.008q-.733-.361-1.426-.781h-.012l-.07-.047-.008-.008A17.682 17.682 0 0 1 32 14.3Zm0 1.391C23 15.7 15.703 22.996 15.7 32a16.25 16.25 0 0 0 3.82 10.453.3.3 0 0 0 .226.11.3.3 0 0 0 .23-.102c2.7-3.172 6.782-5.168 12.024-5.168 5.254 0 9.332 2 12.027 5.168.059.066.145.11.235.11s.175-.044.23-.11a16.29 16.29 0 0 0 2.285-17.356A16.3 16.3 0 0 0 32.016 15.7ZM32 16v.008c8.832 0 15.996 7.156 16 15.988 0 3.758-1.324 7.395-3.742 10.27-2.75-3.235-6.93-5.274-12.258-5.274-5.32 0-9.5 2.031-12.254 5.266a16 16 0 0 1-3.742-10.266c0-8.836 7.16-15.996 15.996-15.996M32 21c-3.312-.004-6 2.91-6 6.5 0 3.594 2.688 6.504 6 6.5 3.316 0 6-2.91 6-6.5S35.316 21 32 21m0 .297c3.14 0 5.7 2.762 5.7 6.2 0 3.44-2.56 6.202-5.7 6.202-3.137 0-5.7-2.758-5.7-6.199s2.563-6.207 5.7-6.203"/>
    <g mask="url(#g)">
        <use xlink:href="#h"/>
    </g>
</svg>
