<svg xmlns="http://www.w3.org/2000/svg" viewBox="0 0 64 64">
    <defs>
        <linearGradient id="c" x1="14.503" x2="12.163" y1="23.921" y2="27.102" gradientTransform="matrix(-1 0 0 1 64 0)" gradientUnits="userSpaceOnUse">
            <stop offset="0"/>
            <stop offset="1" stop-opacity="0"/>
        </linearGradient>
        <linearGradient id="f" x1="14.503" x2="12.722" y1="23.921" y2="26.439" gradientTransform="matrix(-1 0 0 -1 63.996 63.996)" gradientUnits="userSpaceOnUse">
            <stop offset="0"/>
            <stop offset="1" stop-opacity="0"/>
        </linearGradient>
        <linearGradient id="i" x1="14.503" x2="12.163" y1="23.921" y2="27.102" gradientUnits="userSpaceOnUse">
            <stop offset="0"/>
            <stop offset="1" stop-opacity="0"/>
        </linearGradient>
        <linearGradient id="l" x1="14.503" x2="12.722" y1="23.921" y2="26.439" gradientTransform="matrix(1 0 0 -1 0 64)" gradientUnits="userSpaceOnUse">
            <stop offset="0"/>
            <stop offset="1" style="stop-opacity:0"/>
        </linearGradient>
        <linearGradient id="o" x1="8.466" x2="8.466" y1="11.641" y2="5.292" gradientTransform="translate(77.143 -15.801)scale(5.03863)" gradientUnits="userSpaceOnUse">
            <stop offset="0" stop-color="#0a62ff"/>
            <stop offset="1" stop-color="#70beff"/>
        </linearGradient>
        <linearGradient id="p" x1="105.41" x2="105.41" y1="-101.99" y2="308.4" gradientTransform="translate(24 24)scale(.07767)" gradientUnits="userSpaceOnUse">
            <stop offset="0" stop-color="#f5f5f5"/>
            <stop offset="1" stop-color="#d7d7d7"/>
        </linearGradient>
        <linearGradient id="b" x1="32" x2="32" y1="4" y2="60" gradientUnits="userSpaceOnUse">
            <stop offset="0" style="stop-color:#f3f4f6"/>
            <stop offset="1" style="stop-color:#e5e7eb"/>
        </linearGradient>
        <clipPath id="d">
            <path d="M0 0h64v64H0z"/>
        </clipPath>
        <clipPath id="g">
            <path d="M0 0h64v64H0z"/>
        </clipPath>
        <clipPath id="j">
            <path d="M0 0h64v64H0z"/>
        </clipPath>
        <clipPath id="m">
            <path d="M0 0h64v64H0z"/>
        </clipPath>
        <mask id="e">
            <g filter="url(#a)">
                <path fill-opacity=".1" d="M-6.4-6.4h76.8v76.8H-6.4z"/>
            </g>
        </mask>
        <mask id="h">
            <g filter="url(#a)">
                <path fill-opacity=".1" d="M-6.4-6.4h76.8v76.8H-6.4z"/>
            </g>
        </mask>
        <mask id="k">
            <g filter="url(#a)">
                <path fill-opacity=".1" d="M-6.4-6.4h76.8v76.8H-6.4z"/>
            </g>
        </mask>
        <mask id="n">
            <g filter="url(#a)">
                <path fill-opacity=".1" d="M-6.4-6.4h76.8v76.8H-6.4z"/>
            </g>
        </mask>
        <filter id="a" width="100%" height="100%" x="0%" y="0%">
            <feColorMatrix color-interpolation-filters="sRGB" values="0 0 0 0 1 0 0 0 0 1 0 0 0 0 1 0 0 0 1 0"/>
        </filter>
    </defs>
    <rect width="56" height="56" x="4" y="4" rx="12" style="stroke-width:1;fill:url(#b)"/>
    <path fill="url(#c)" d="M60 19v4.168L41.387 34.727 36 32Zm0 0" clip-path="url(#d)" mask="url(#e)"/>
    <path fill="url(#f)" d="M60 45v-4.168L42.184 28.824 36 32Zm0 0" clip-path="url(#g)" mask="url(#h)"/>
    <path fill="url(#i)" d="M4 19v4.168l18.66 11.465L28 32Zm0 0" clip-path="url(#j)" mask="url(#k)"/>
    <path fill="url(#l)" d="M4 45v-4.168l18.89-11.437L28 32Zm0 0" clip-path="url(#m)" mask="url(#n)"/>
    <path fill="url(#o)" d="M48 32.002C48 40.834 40.834 48 32.002 48 23.166 48 16 40.834 16 32.002 16 23.166 23.166 16 32.002 16 40.834 16 48 23.166 48 32.002m0 0" style="stroke-width:1.143"/>
    <path fill="#0042b8" d="M47.984 31c-.35 8.577-7.405 15.347-15.986 15.347-8.568.006-15.617-6.749-15.987-15.31l-.011.651c0 8.837 7.166 16.003 15.998 16.003C40.834 47.691 48 40.525 48 31.688zm0 0" style="fill-opacity:.5;stroke-width:1.143"/>
    <path fill="url(#p)" d="M31.771 24.005a8 8 0 0 0-5.43 2.336 8.02 8.02 0 0 0-2.316 6.308c.305 3.872 3.453 7.02 7.328 7.325q.319.03.637.027c2.121 0 4.16-.836 5.668-2.344a.467.467 0 0 0-.66-.66 7.08 7.08 0 0 1-5.574 2.047c-3.418-.27-6.2-3.05-6.469-6.469a7.08 7.08 0 0 1 2.047-5.574 7.08 7.08 0 0 1 5.574-2.047c3.43.27 6.215 3.067 6.473 6.5q.051.706-.031 1.402c-.057.49-.354.92-.793 1.145-.395.203-.84.203-1.22-.004a.48.48 0 0 0-.48 0 .47.47 0 0 0-.226.422.46.46 0 0 0 .261.398 2.2 2.2 0 0 0 2.09.012 2.4 2.4 0 0 0 1.293-1.86 8.3 8.3 0 0 0 .035-1.585c-.292-3.89-3.445-7.051-7.332-7.36a7 7 0 0 0-.875-.02m.227 3.829a4.17 4.17 0 0 0-4.164 4.168 4.17 4.17 0 0 0 4.164 4.164 4.18 4.18 0 0 0 3.602-2.066.466.466 0 1 0-.805-.47 3.25 3.25 0 0 1-2.797 1.607 3.24 3.24 0 0 1-3.234-3.235 3.24 3.24 0 0 1 3.234-3.234 3.236 3.236 0 0 1 3.234 3.234.47.47 0 0 0 .47.465.466.466 0 0 0 .464-.465 4.17 4.17 0 0 0-4.168-4.168m0 0"/>
</svg>
