<svg xmlns="http://www.w3.org/2000/svg" viewBox="0 0 64 64">
    <defs>
        <linearGradient id="a" x1="7.937" x2="7.937" y1="15.081" y2="1.852" gradientTransform="scale(3.7796)" gradientUnits="userSpaceOnUse">
            <stop offset="0" stop-color="#7a1ea9"/>
            <stop offset="1" stop-color="#a840de"/>
        </linearGradient>
        <linearGradient id="b" x1="35" x2="35" y1="10" y2="55" gradientUnits="userSpaceOnUse">
            <stop offset="0" stop-color="#f5f5f5"/>
            <stop offset="1" stop-color="#e3c3f4"/>
        </linearGradient>
    </defs>
    <path fill="url(#a)" d="M17 3.969h30c7.18 0 13 5.82 13 13v30c0 7.18-5.82 13.004-13 13.004H17c-7.18 0-13-5.825-13-13.004v-30c0-7.18 5.82-13 13-13m0 0"/>
    <path fill="url(#b)" d="M32 8.004v4c11.07 0 20 8.926 20 19.996s-8.93 20-20 20v4c13.23 0 24-10.77 24-24S45.23 8.004 32 8.004m0 7.992v4A11.97 11.97 0 0 1 43.996 32a11.97 11.97 0 0 1-3.504 8.492A11.97 11.97 0 0 1 32 43.996v4c8.813 0 15.996-7.184 15.996-15.996S40.812 15.996 32 15.996M32 24v16c4.418-.004 8-3.586 8-8a8 8 0 0 0-8-8"/>
</svg>
