<svg xmlns="http://www.w3.org/2000/svg" xmlns:xlink="http://www.w3.org/1999/xlink" viewBox="0 0 64 64">
    <defs>
        <linearGradient xlink:href="#a" id="d" x1="16" x2="16" y1="30" y2="2" gradientTransform="scale(2)" gradientUnits="userSpaceOnUse"/>
        <linearGradient id="a">
            <stop offset="0" style="stop-color:#333"/>
            <stop offset="1" style="stop-color:#6a6a6a"/>
        </linearGradient>
        <linearGradient xlink:href="#b" id="e" x1="8" x2="8" y1="14" y2="2" gradientTransform="translate(5.333 5.333)scale(3.33333)" gradientUnits="userSpaceOnUse"/>
        <linearGradient id="b">
            <stop offset="0" style="stop-color:#d9d9d9"/>
            <stop offset="1" style="stop-color:#efefef"/>
        </linearGradient>
        <linearGradient xlink:href="#c" id="f" x1="8" x2="8" y1="3" y2="13" gradientTransform="matrix(3.4 0 0 3.4 4.8 4.8)" gradientUnits="userSpaceOnUse"/>
        <linearGradient id="c">
            <stop offset="0" style="stop-color:#3675d8"/>
            <stop offset="1" style="stop-color:#49abdd"/>
        </linearGradient>
        <linearGradient xlink:href="#b" id="g" x1="8" x2="8" y1="16.571" y2="-.571" gradientTransform="translate(13.333 13.333)scale(2.33333)" gradientUnits="userSpaceOnUse"/>
    </defs>
    <rect width="56" height="56" x="4" y="4" rx="12" style="fill:url(#d);stroke-width:2"/>
    <circle cx="32" cy="32" r="20" style="fill:url(#e);fill-opacity:1;stroke-width:6.66665;stroke-linecap:round;stroke-linejoin:round"/>
    <circle cx="32" cy="32" r="17" style="fill:url(#f);fill-opacity:1;stroke-width:3.4;stroke-linecap:square;stroke-linejoin:round"/>
    <circle cx="32" cy="32" r="13" style="fill:url(#g);fill-opacity:1;stroke-width:4.66666;stroke-linecap:round;stroke-linejoin:round"/>
    <circle cx="32" cy="32" r="7" style="opacity:.2;fill:#000;stroke-width:2.1;stroke-linecap:square;stroke-linejoin:round"/>
    <path d="M30 23c-.554 0-1 .446-1 1v3l2 2-2 2v9c0 .554.446 1 1 1h4c.554 0 1-.446 1-1v-3l-2-2 2-2v-9c0-.554-.446-1-1-1z" style="fill:#333;stroke-width:2;stroke-linecap:round;stroke-linejoin:round"/>
</svg>
