<svg xmlns="http://www.w3.org/2000/svg" viewBox="0 0 64 64">
    <defs>
        <linearGradient id="a">
            <stop offset="0" stop-color="#ad9177" stop-opacity=".373"/>
            <stop offset=".251" stop-color="#947b62"/>
            <stop offset=".721" stop-color="#947b62"/>
            <stop offset="1" stop-color="#947b62" stop-opacity=".009"/>
        </linearGradient>
        <linearGradient id="f" x1="56.576" x2="56.576" y1="13.28" y2="18.039" gradientTransform="matrix(2.1563 0 0 2.4869 -97.612 -21.443)" gradientUnits="userSpaceOnUse" href="#a"/>
        <linearGradient id="g" x1="56.576" x2="56.576" y1="13.718" y2="18.039" gradientTransform="matrix(2.1563 0 0 2.4869 -91.609 -21.553)" gradientUnits="userSpaceOnUse" href="#a"/>
        <linearGradient id="h" x1="56.576" x2="56.576" y1="13.28" y2="18.039" gradientTransform="matrix(2.1563 0 0 2.4869 -85.7 -21.553)" gradientUnits="userSpaceOnUse" href="#a"/>
        <linearGradient id="d" x1="5.684" x2="35.033" y1="16.366" y2="16.366" gradientTransform="matrix(.55458 0 0 .40424 27.391 16.4)" gradientUnits="userSpaceOnUse" spreadMethod="reflect">
            <stop offset="0" stop-color="#d1d1d1"/>
            <stop offset="1" stop-color="#959594"/>
        </linearGradient>
        <linearGradient id="b" x1="32" x2="32" y1="3.969" y2="59.969" gradientUnits="userSpaceOnUse">
            <stop offset="0" style="stop-color:#e7e5e4"/>
            <stop offset="1" style="stop-color:#a8a29e"/>
        </linearGradient>
        <radialGradient id="c" cx="-6.454" cy="29.206" r="32" gradientTransform="matrix(0 .82021 -.85578 0 46.668 35.563)" gradientUnits="userSpaceOnUse">
            <stop offset="0" stop-color="#eeeeec"/>
            <stop offset=".5" stop-color="#cacac9"/>
            <stop offset="1" stop-color="#6b6b6b"/>
        </radialGradient>
        <radialGradient id="e" cx="8.438" cy="32.535" r="26.406" gradientTransform="matrix(.68425 0 0 .27936 24.807 18.405)" gradientUnits="userSpaceOnUse">
            <stop offset="0" stop-color="#8b6a35"/>
            <stop offset=".371" stop-color="#885f22"/>
            <stop offset=".686" stop-color="#754d0d"/>
            <stop offset="1" stop-color="#483816"/>
        </radialGradient>
    </defs>
    <rect width="56" height="56" x="4" y="3.969" rx="12" style="fill:url(#b)"/>
    <path d="M44.583 38.534c3.545-.316 11.356-1.191 10.795-10.256-.03-.482-.154-.976-.367-1.357a3.4 3.4 0 0 0-.955-1.057c-1.822-1.316-5.123-1.111-7.49-1.111-7.761 1.632-9.403 14.803-1.983 13.782zm1.244-10.636s6.243-.938 6.458.262c.702 7.325-6.439 6.31-6.439 6.31l-.019-6.147z" style="fill:#7f7f7f" transform="translate(1.047 3.839)scale(.9646)"/>
    <path fill="url(#c)" d="M30.581 15.849c-9.66 0-17.568 2.8-18.153 6.329h-.036v4.255c.13 11.277 8.23 20.386 18.189 20.386 9.96 0 18.059-9.109 18.189-20.386v-4.255h-.036c-.585-3.528-8.493-6.328-18.153-6.328z" transform="translate(1.047 3.839)scale(.9646)"/>
    <path fill="url(#d)" d="M46.82 23.016c.002 3.269-7.27 5.92-16.239 5.92s-16.24-2.651-16.239-5.92c-.002-3.269 7.27-5.92 16.239-5.92s16.24 2.651 16.239 5.92" transform="translate(1.047 3.839)scale(.9646)"/>
    <path fill="url(#e)" d="M30.58 20.256c-7.522 0-13.817 1.83-15.659 4.346 1.851 2.51 8.146 4.383 15.659 4.383 7.511 0 13.803-1.88 15.655-4.39-1.843-2.515-8.134-4.339-15.655-4.339" transform="translate(1.047 3.839)scale(.9646)"/>
    <path fill="none" d="M46.691 26.04c.002 3.253-7.227 5.89-16.146 5.89s-16.148-2.636-16.146-5.89c-.002-3.254 7.227-5.891 16.146-5.891s16.148 2.637 16.146 5.89" opacity=".4"/>
    <path fill="none" stroke="url(#f)" stroke-linecap="round" stroke-width="2.316" d="M25.127 24.43s-2.097-2.33-1.319-5.677c.778-3.348.926-5.222 0-7.072" transform="translate(1.047 3.839)scale(.9646)"/>
    <path fill="none" stroke="url(#g)" stroke-linecap="round" stroke-width="2.316" d="M31.131 24.32s-2.097-2.33-1.319-5.677c.778-3.348.926-5.222 0-7.072" transform="translate(1.047 3.839)scale(.9646)"/>
    <path fill="none" stroke="url(#h)" stroke-linecap="round" stroke-width="2.316" d="M37.039 24.32s-2.097-2.33-1.319-5.677c.778-3.348.926-5.222 0-7.072" transform="translate(1.047 3.839)scale(.9646)"/>
</svg>
