<svg xmlns="http://www.w3.org/2000/svg" viewBox="0 0 64 64">
    <defs>
        <linearGradient id="b" x1="16" x2="16" y1="30" y2="2" gradientTransform="scale(2)" gradientUnits="userSpaceOnUse" href="#a"/>
        <linearGradient id="a">
            <stop offset="0" style="stop-color:#272727"/>
            <stop offset="1" style="stop-color:#5d5d5d"/>
        </linearGradient>
    </defs>
    <rect width="56" height="56" x="4" y="4" rx="12" style="stroke-width:2;fill:url(#b)"/>
    <g stroke-width="1.5">
        <path fill="#eee" d="M15.755 14a1.75 1.75 0 0 0-1.754 1.752V23H21.5v-8.997H23V23h7.498v-8.998h1.498V23h7.505v-8.998h1.498V23h8.999v-7.248c0-.97-.781-1.752-1.752-1.752zm-1.754 10.5v7.497H21.5V24.5zm8.999 0v7.497h7.498V24.5zm8.996 0v7.497h7.505V24.5zm9.003 0v7.497h8.999V24.5zm-26.998 8.997v7.506H21.5v-7.506zm8.999 0v7.506h7.498v-7.506zm8.996 0v7.506h7.505v-7.506zm9.003 0v7.506h8.999v-7.506zM14.001 42.5v5.747c0 .97.783 1.752 1.754 1.752H21.5v-7.5zm8.999 0V50h7.498v-7.5zm8.996 0V50h7.505v-7.5zm9.003 0V50h7.247c.971 0 1.752-.782 1.752-1.753V42.5z"/>
        <path fill="#d7d7d7" d="M15.733 14.002A1.75 1.75 0 0 0 14 15.752v7.25h7.494v-9z"/>
        <path fill="#d71e1e" d="M31.996 24.502h7.499v7.5h-7.499z"/>
        <path fill="#fa884c" d="M31.996 14h7.499v9.002h-7.499z"/>
        <path fill="#7fde59" d="M41 33.503h9v7.5h-9z"/>
        <path fill="#b9b9b9" d="M22.996 33.503h7.499v7.5h-7.499z"/>
    </g>
</svg>
