<svg xmlns="http://www.w3.org/2000/svg" viewBox="0 0 64 64">
    <defs>
        <linearGradient id="a" x1=".5" x2=".5" y1="1" y2="0">
            <stop offset="0%" style="stop-color:#13a5c5"/>
            <stop offset="100%" style="stop-color:#b1f6cb"/>
        </linearGradient>
    </defs>
    <path d="M16 4h32c6.623 0 12 5.377 12 12v32c0 6.623-5.377 12-12 12H16C9.377 60 4 54.623 4 48V16C4 9.377 9.377 4 16 4" style="stroke:none;fill:url(#a);stroke-miterlimit:10"/>
    <path fill="#fff" d="M14 26v10.168c-1.168.41-2 1.52-2 2.832v3c0 1.662 1.338 3 3 3s3-1.338 3-3v-3a2.99 2.99 0 0 0-2-2.832V26z" opacity=".5"/>
    <path fill="#fff" d="M32 16a1.6 1.6 0 0 0-.676.146L12.746 24.9c-.461.219-.749.64-.749 1.099s.288.88.749 1.099l18.578 8.754c.422.198.93.198 1.352 0l18.578-8.754c.461-.219.749-.64.749-1.099s-.288-.88-.749-1.099l-18.578-8.754A1.6 1.6 0 0 0 32 16M20.098 32.766A8 8 0 0 0 20 34v8c0 4.432 3.568 6 8 6h8c4.432 0 8-1.568 8-6v-8c0-.42-.036-.832-.098-1.234l-10.375 4.886-.004.004c-.98.46-2.067.46-3.046 0l-.004-.004z"/>
</svg>
