<svg xmlns="http://www.w3.org/2000/svg" viewBox="0 0 64 64">
    <defs>
        <linearGradient id="c" x1="12" x2="24" y1="18" y2="18" gradientTransform="translate(6.942 6.942)scale(.78305)" gradientUnits="userSpaceOnUse">
            <stop offset="0" stop-color="#adadad"/>
            <stop offset="1" stop-color="#d1d1d1"/>
        </linearGradient>
        <linearGradient id="b" x1="31.999" x2="31.999" y1="10.074" y2="53.924" gradientUnits="userSpaceOnUse">
            <stop offset="0" style="stop-color:#4ade80"/>
            <stop offset="1" style="stop-opacity:.9;stop-color:#059669"/>
        </linearGradient>
        <linearGradient id="a" x1="32" x2="32" y1="4" y2="60" gradientUnits="userSpaceOnUse">
            <stop offset="0" style="stop-color:#f3f4f6"/>
            <stop offset="1" style="stop-color:#e5e7eb"/>
        </linearGradient>
    </defs>
    <rect width="56" height="56" x="4" y="4" rx="12" style="fill:url(#a);stroke-width:1"/>
    <path d="M22.919 10.074c-1.157.01-2.424.472-3.171 1.227l-2.432 2.465-3.618 3.665-2.434 2.463c-.994 1.008-1.459 2.941-1.032 4.293l2.259 7.145c.428 1.352 1.601 3.276 2.606 4.274l17.709 17.576a2.576 2.576 0 0 0 3.638-.02l6.561-6.643 3.618-3.666 6.56-6.644a2.59 2.59 0 0 0-.019-3.649L35.455 14.985c-1.004-.998-2.935-2.154-4.288-2.569l-7.149-2.193a3.7 3.7 0 0 0-1.099-.147zm-1.882 7.674c2.532 0 4.114 2.741 2.848 4.933a3.29 3.29 0 0 1-2.848 1.645c-2.532 0-4.114-2.741-2.848-4.934a3.29 3.29 0 0 1 2.848-1.644" style="fill:url(#b)" transform="translate(2.811 2.811)scale(.91217)"/>
    <path fill="#f5f5f5" d="M36.907 18.22a275 275 0 0 0-11.664 3.303 9 9 0 0 0-1.177.456 2.153 2.153 0 0 1-2.148 2.138c-.058 0-.112-.012-.168-.016-.465.922-.631 2.052-.488 3.461.406 3.995.958 7.975 1.51 11.95.104.75.22 1.5.332 2.25l6.907 6.856a3269 3269 0 0 0 12.03-3.375l3.299-3.342.009-.01-.246-3.63-1.49.42c-3.74 1.053-7.49 2.08-11.216 3.177-1.07.316-1.487-.016-1.572-1.065-.082-1.008-.225-2.013-.364-3.208.57-.16 1.053-.29 1.532-.432 2.873-.852 5.771-1.633 8.612-2.583 2.607-.872 3.736-2.436 3.57-5.167a68 68 0 0 0-.41-4.375zm-1.532 6.243c.365-.004.581.206.643.722.17 1.428.419 2.848.516 4.28.025.372-.31 1.025-.616 1.124-2.002.65-4.041 1.182-6.217 1.795-.24-1.864-.512-3.536-.63-5.218-.025-.375.42-1.021.78-1.145 1.68-.571 3.407-.994 5.11-1.488a1.6 1.6 0 0 1 .414-.07"/>
    <path fill="url(#c)" d="M21.037 16.339a4.704 4.704 0 0 0-4.698 4.698 4.704 4.704 0 0 0 4.698 4.698 4.704 4.704 0 0 0 4.698-4.698 4.704 4.704 0 0 0-4.698-4.698m0 2.349c1.808 0 2.939 1.957 2.034 3.523a2.35 2.35 0 0 1-2.034 1.175c-1.808 0-2.939-1.958-2.035-3.524a2.35 2.35 0 0 1 2.035-1.174" transform="translate(2.811 2.811)scale(.91217)"/>
    <path fill="#3f3f3f" d="M21.27 39.95c-.155 1.685-.97 4.531-2.609 6.007-.771.693-1.704 1.044-2.778 1.044a6 6 0 0 1-.703-.048c-1.48-.194-2.497-1.291-2.94-3.174-1.322-5.625 2.99-17.629 9.294-21.889a.441.441 0 0 1 .492.732c-6.296 4.256-10.06 16.15-8.93 20.954.357 1.516 1.096 2.357 2.197 2.503 1.123.145 2.033-.108 2.779-.778 1.668-1.5 2.306-4.81 2.37-6.172"/>
</svg>
