<svg xmlns="http://www.w3.org/2000/svg" viewBox="0 0 64 64">
    <defs>
        <linearGradient id="a" x1="32" x2="32" y1="4" y2="60" gradientUnits="userSpaceOnUse">
            <stop offset="0" style="stop-color:#fdba74"/>
            <stop offset="1" style="stop-color:#ea580c"/>
        </linearGradient>
    </defs>
    <rect width="56" height="56" x="4" y="4" rx="12" style="stroke-width:2;fill:url(#a)"/>
    <path fill="#fff" d="M32 36.619c5.311 0 9.757-1.804 10.026-4.16l-2.497-7.007c-.587 1.694-3.833 2.888-7.529 2.888-3.697 0-6.941-1.195-7.53-2.888l-2.496 7.007c.269 2.356 4.714 4.16 10.026 4.16m0-14.901c2.496 0 4.815-.772 5.494-1.972-.936-2.628-1.739-4.883-2.248-6.305C34.909 12.493 33.379 12 32 12s-2.91.493-3.248 1.441l-2.248 6.305c.679 1.2 3 1.972 5.496 1.972m19.512 17.096-8.345-3.362.961 2.682c-.048 2.842-5.565 5.107-12.128 5.107s-12.081-2.265-12.128-5.107l.96-2.682-8.344 3.362c-2.34.943-2.438 2.689-.219 3.879l15.695 8.415c2.219 1.189 5.853 1.189 8.072 0l15.694-8.415c2.22-1.19 2.122-2.936-.218-3.879"/>
</svg>
