<svg xmlns="http://www.w3.org/2000/svg" xml:space="preserve" style="fill-rule:evenodd;clip-rule:evenodd;stroke-linejoin:round;stroke-miterlimit:2" viewBox="0 0 64 64">
    <path d="M15.999 3.97h32.002C54.623 3.97 60 9.347 60 15.969v32.002c0 6.622-5.377 11.999-11.999 11.999H15.999C9.377 59.97 4 54.593 4 47.971V15.969C4 9.347 9.377 3.97 15.999 3.97" style="fill:#f5f5f5;fill-rule:nonzero"/>
    <path d="M15.999 3.97h32.002C54.623 3.97 60 9.347 60 15.969v32.002c0 6.622-5.377 11.999-11.999 11.999H15.999C9.377 59.97 4 54.593 4 47.971V15.969C4 9.347 9.377 3.97 15.999 3.97" style="fill:url(#a);fill-rule:nonzero"/>
    <path d="M21 52h22c4.967 0 9-4.033 9-9s-4.033-9-9-9H21c-4.967 0-9 4.033-9 9s4.033 9 9 9" style="fill:#9ca3af;fill-rule:nonzero"/>
    <path d="M21 34h22c4.967 0 9 4.033 9 9s-4.033 9-9 9H21c-4.967 0-9-4.033-9-9s4.033-9 9-9" style="fill:url(#b);fill-rule:nonzero"/>
    <path d="M21 30h22c4.967 0 9-4.033 9-9s-4.033-9-9-9H21c-4.967 0-9 4.033-9 9s4.033 9 9 9" style="fill:#3b82f6;fill-rule:nonzero"/>
    <path d="M21 12h22c4.967 0 9 4.033 9 9s-4.033 9-9 9H21c-4.967 0-9-4.033-9-9s4.033-9 9-9" style="fill:url(#c);fill-rule:nonzero"/>
    <path d="m12.012 20.754-.012.245a8.98 8.98 0 0 0 8.999 9h22.002A8.98 8.98 0 0 0 52 21.003q0-.127-.012-.249a8.48 8.48 0 0 1-8.489 8.247H20.501a8.477 8.477 0 0 1-8.489-8.251z" opacity=".2" style="fill-rule:nonzero"/>
    <path d="M12.012 42.754c-.002.083-.012.163-.012.246 0 4.986 4.014 9 9 9h22c4.986 0 9-4.014 9-9 0-.083-.01-.163-.011-.246A8.475 8.475 0 0 1 43.5 51h-23a8.476 8.476 0 0 1-8.488-8.246" opacity=".2" style="fill:url(#d);fill-rule:nonzero"/>
    <path d="M21.498 10.999A9.485 9.485 0 0 0 12 20.501l.012.253A8.97 8.97 0 0 1 20.999 12h21.998a8.97 8.97 0 0 1 8.995 8.754l.008-.253a9.485 9.485 0 0 0-9.498-9.502zm0 22.001A9.485 9.485 0 0 0 12 42.502l.012.249a8.973 8.973 0 0 1 8.987-8.75h21.998a8.973 8.973 0 0 1 8.991 8.75l.012-.249A9.487 9.487 0 0 0 42.498 33z" opacity=".5" style="fill:#fff;fill-rule:nonzero"/>
    <circle cx="43.001" cy="20.999" r="5.998" style="fill:#fff"/>
    <circle cx="43.001" cy="20.999" r="5.998" style="fill:url(#e)"/>
    <circle cx="20.999" cy="43.001" r="5.998" style="fill:#fff"/>
    <circle cx="20.999" cy="43.001" r="5.998" style="fill:url(#f)"/>
    <defs>
        <linearGradient id="a" x1="0" x2="1" y1="0" y2="0" gradientTransform="matrix(0 56 -56 0 32 3.97)" gradientUnits="userSpaceOnUse">
            <stop offset="0" style="stop-color:#fff;stop-opacity:.1"/>
            <stop offset="1" style="stop-color:#000;stop-opacity:.1"/>
        </linearGradient>
        <linearGradient id="b" x1="0" x2="1" y1="0" y2="0" gradientTransform="rotate(269.63 33.158 1.01)scale(-17.74786 17.74786)" gradientUnits="userSpaceOnUse">
            <stop offset="0" style="stop-color:#000;stop-opacity:.2"/>
            <stop offset="1" style="stop-color:#000;stop-opacity:0"/>
        </linearGradient>
        <linearGradient id="c" x1="0" x2="1" y1="0" y2="0" gradientTransform="rotate(269.63 22.23 -9.99)scale(-17.74786 17.74786)" gradientUnits="userSpaceOnUse">
            <stop offset="0" style="stop-color:#000;stop-opacity:.2"/>
            <stop offset="1" style="stop-color:#000;stop-opacity:0"/>
        </linearGradient>
        <linearGradient id="d" x1="0" x2="1" y1="0" y2="0" gradientTransform="rotate(-90 42.5 9.5)scale(17.99845)" gradientUnits="userSpaceOnUse">
            <stop offset="0" style="stop-color:#000;stop-opacity:1"/>
            <stop offset="1" style="stop-color:#000;stop-opacity:1"/>
        </linearGradient>
        <linearGradient id="e" x1="0" x2="1" y1="0" y2="0" gradientTransform="rotate(90 14 29)scale(11.996)" gradientUnits="userSpaceOnUse">
            <stop offset="0" style="stop-color:#fff;stop-opacity:.1"/>
            <stop offset="1" style="stop-color:#000;stop-opacity:.1"/>
        </linearGradient>
        <linearGradient id="f" x1="0" x2="1" y1="0" y2="0" gradientTransform="rotate(90 -8.002 29)scale(11.996)" gradientUnits="userSpaceOnUse">
            <stop offset="0" style="stop-color:#fff;stop-opacity:.1"/>
            <stop offset="1" style="stop-color:#000;stop-opacity:.1"/>
        </linearGradient>
    </defs>
</svg>
