<svg xmlns="http://www.w3.org/2000/svg" viewBox="0 0 64 64">
    <defs>
        <linearGradient id="b">
            <stop offset="0" style="stop-color:#949390"/>
            <stop offset="1" style="stop-color:#767579"/>
        </linearGradient>
        <linearGradient id="g" x1="17.531" x2="16.5" y1="29.778" y2="25" gradientTransform="translate(-7 -11)" gradientUnits="userSpaceOnUse" href="#a"/>
        <linearGradient id="a">
            <stop offset="0" style="stop-color:#232323"/>
            <stop offset="1" style="stop-color:#606060"/>
        </linearGradient>
        <linearGradient id="h" x1="15.825" x2="16.5" y1="26" y2="29" gradientTransform="translate(-7 -11)" gradientUnits="userSpaceOnUse" href="#a"/>
        <linearGradient id="i" x1="26" x2="25.117" y1="23" y2="19" gradientTransform="translate(-13 -16.25)scale(1.25)" gradientUnits="userSpaceOnUse" href="#a"/>
        <linearGradient id="j" x1="24" x2="25" y1="20" y2="22" gradientTransform="matrix(1.5 0 0 1.5 -19 -21.5)" gradientUnits="userSpaceOnUse" href="#a"/>
        <linearGradient id="k" x1="23.935" x2="23" y1="18" y2="14" gradientUnits="userSpaceOnUse" href="#a"/>
        <linearGradient id="l" x1="23" x2="23.461" y1="15" y2="17" gradientUnits="userSpaceOnUse" href="#a"/>
        <linearGradient id="d" x1="32" x2="32" y1="4" y2="60" gradientUnits="userSpaceOnUse">
            <stop offset="0" style="stop-color:#f3f4f6"/>
            <stop offset="1" style="stop-color:#e5e7eb"/>
        </linearGradient>
        <radialGradient id="e" cx="16.5" cy="35.2" r="4.5" gradientTransform="matrix(.55663 0 0 .44444 .316 7.356)" gradientUnits="userSpaceOnUse" href="#b"/>
    </defs>
    <rect width="56" height="56" x="4" y="4" rx="12" style="stroke-width:1;fill:url(#d)"/>
    <g transform="translate(2.91 3.09)scale(1.81818)">
        <path d="M27.577-4.95v4.5h1v-3.5h3.5v-1h-3.5z" style="fill:#484848;fill-opacity:1;stroke-linecap:round;stroke-linejoin:round;paint-order:stroke fill markers" transform="rotate(45)"/>
        <path d="M26 19a1 1 0 0 0-1 1v4h1l1-1v-3a1 1 0 0 0-1-1m-6 0a1 1 0 0 0-1 1v3l1 1h1v-4a1 1 0 0 0-1-1" style="fill:#6f7885;fill-opacity:1;stroke-linecap:round;stroke-linejoin:round;paint-order:stroke fill markers"/>
        <path d="m14.707 8.758-4.95 4.949 1.415 1.414 4.95-4.95zm4.232 1.06-1.585 1.586-.526-.525-4.95 4.95 1.415 1.413 4.414-4.414L21 15.964 23 14z" style="fill:#f8d13b;fill-opacity:1;stroke-linecap:round;stroke-linejoin:round;paint-order:stroke fill markers"/>
        <path d="M7 19v2a2 2 0 0 1-2 2v1h9v-1a2 2 0 0 1-2-2v-2z" style="fill:url(#e);fill-opacity:1;stroke-linecap:round;stroke-linejoin:round;paint-order:stroke fill markers"/>
        <circle cx="9.5" cy="16.5" r="4.5" style="fill:#f9f06b;fill-opacity:1;stroke-width:1.125;stroke-linecap:round;stroke-linejoin:round;paint-order:stroke fill markers"/>
        <path d="M5 23h9v3H5z" style="fill:#68676f;fill-opacity:1;stroke-width:.335467;stroke-linecap:round;stroke-linejoin:round;paint-order:stroke fill markers"/>
        <path d="M5 25h9v1H5z" style="fill:#424048;fill-opacity:1;stroke-linecap:round;stroke-linejoin:round;paint-order:stroke fill markers"/>
        <circle cx="17" cy="10" r="4" style="fill:#f9f06b;fill-opacity:1;stroke-width:1;stroke-linecap:round;stroke-linejoin:round;paint-order:stroke fill markers"/>
        <circle cx="23" cy="16" r="3" style="fill:#f9f06b;fill-opacity:1;stroke-width:.75;stroke-linecap:round;stroke-linejoin:round;paint-order:stroke fill markers"/>
        <circle cx="9.5" cy="16.5" r="2.5" style="fill:url(#g);fill-opacity:1;stroke-width:.833336;stroke-linecap:round;stroke-linejoin:round;paint-order:stroke fill markers"/>
        <circle cx="9.5" cy="16.5" r="1.5" style="fill:url(#h);fill-opacity:1;stroke-width:1;stroke-linecap:round;stroke-linejoin:round;paint-order:stroke fill markers"/>
        <circle cx="17" cy="10" r="2.5" style="fill:url(#i);fill-opacity:1;stroke-width:1.25;stroke-linecap:round;stroke-linejoin:round;paint-order:stroke fill markers"/>
        <circle cx="17" cy="10" r="1.5" style="fill:url(#j);fill-opacity:1;stroke-width:1.5;stroke-linecap:round;stroke-linejoin:round;paint-order:stroke fill markers"/>
        <circle cx="23" cy="16" r="2" style="fill:url(#k);fill-opacity:1;stroke-linecap:round;stroke-linejoin:round;paint-order:stroke fill markers"/>
        <circle cx="23" cy="16" r="1" style="fill:url(#l);fill-opacity:1;stroke-linecap:round;stroke-linejoin:round;paint-order:stroke fill markers"/>
    </g>
</svg>
