<svg xmlns="http://www.w3.org/2000/svg" viewBox="0 0 64 64">
    <rect width="56" height="56" x="4" y="4" rx="12" style="fill:url(#a)"/>
    <path d="M52.001 32.001c0-11.044-8.955-20-20-20s-20 8.956-20 20 8.956 20 20 20 20-8.955 20-20" class="s13" style="fill:url(#b);fill-opacity:.8" transform="translate(-1.601 -1.601)scale(1.05)"/>
    <path d="M32 49.142c-9.467 0-17.142-7.674-17.142-17.143C14.862 22.531 22.533 14.86 32 14.86c9.47 0 17.144 7.671 17.144 17.139C49.14 41.468 41.47 49.142 32 49.142" class="s14" style="stroke-opacity:.1;stroke-width:4.9091px;fill-opacity:.5" transform="translate(-1.601 -1.601)scale(1.05)"/>
    <path d="M47.456 32.001c0-8.535-6.922-15.456-15.457-15.456-8.535.003-15.452 6.921-15.452 15.456s6.917 15.457 15.452 15.457c8.535-.004 15.457-6.922 15.457-15.457" class="s15" style="fill:url(#c)" transform="translate(-1.601 -1.601)scale(1.05)"/>
    <path d="M47.456 32.001c0-8.535-6.922-15.456-15.457-15.456-8.535.003-15.452 6.921-15.452 15.456s6.917 15.457 15.452 15.457c8.535-.004 15.457-6.921 15.457-15.457" class="s16" style="fill:url(#d)" transform="translate(-1.601 -1.601)scale(1.05)"/>
    <g clip-path="url(#e)" transform="translate(7.11 7.11)scale(.38888)">
        <path d="M64 92c15.47 0 28-12.53 28-28S79.47 36 64 36 36 48.53 36 64s12.53 28 28 28" class="s17" style="fill:url(#f)"/>
    </g>
    <path d="M32.001 24.681a7.313 7.313 0 0 1 7.33 7.32 7.326 7.326 0 0 1-7.33 7.33 7.327 7.327 0 0 1-7.33-7.33 7.33 7.33 0 0 1 7.33-7.33z" style="fill:url(#g);stroke-width:1.1" transform="translate(-1.601 -1.601)scale(1.05)"/>
    <path d="M31.191 26.291a4.85 4.85 0 0 1-4.85 4.85 4.85 4.85 0 0 1-4.85-4.85 4.85 4.85 0 0 1 4.85-4.85 4.85 4.85 0 0 1 4.85 4.85m8.09 15.36a2.42 2.42 0 0 1-2.1-1.212c-.932-1.618.233-3.638 2.1-3.638a2.43 2.43 0 0 1 2.42 2.43 2.42 2.42 0 0 1-2.42 2.42m-2.83-4.657a1.62 1.62 0 1 1-1.62-2.806c1.08-.624 2.431.156 2.43 1.403 0 .579-.308 1.114-.81 1.403" style="fill:#fff;fill-opacity:.5;stroke-width:1.1" transform="translate(-1.601 -1.601)scale(1.05)"/>
    <defs>
        <radialGradient id="b" cx="0" cy="0" r="1" gradientTransform="translate(32.001 50.075)scale(31.11143)" gradientUnits="userSpaceOnUse">
            <stop offset="0" stop-color="#424048"/>
            <stop offset="1"/>
        </radialGradient>
        <radialGradient id="c" cx="0" cy="0" r="1" gradientTransform="translate(25.003 24.113)scale(38.10477)" gradientUnits="userSpaceOnUse">
            <stop offset="0" stop-color="#c061cb"/>
            <stop offset="1" stop-color="#ed333b"/>
        </radialGradient>
        <radialGradient id="d" cx="0" cy="0" r="1" gradientTransform="translate(40.565 21.097)scale(38.10485)" gradientUnits="userSpaceOnUse">
            <stop offset="0" stop-color="#1c71d8"/>
            <stop offset="1" stop-color="#c061cb" stop-opacity="0"/>
        </radialGradient>
        <linearGradient id="g" x1="0" x2="1" y1="0" y2="0" gradientTransform="rotate(-90 36.834 4.832)scale(16.99195)" gradientUnits="userSpaceOnUse">
            <stop offset="0" style="stop-color:#1c71d8"/>
            <stop offset="1" style="stop-color:#c061cb"/>
        </linearGradient>
        <linearGradient id="f" x2="1" gradientTransform="rotate(90 14 50)scale(86.611)" gradientUnits="userSpaceOnUse">
            <stop offset="0" stop-color="#99c1f1"/>
            <stop offset="1" stop-color="#3584e4" stop-opacity="0"/>
        </linearGradient>
        <linearGradient id="a" x1="32" x2="32" y1="4" y2="60" gradientUnits="userSpaceOnUse">
            <stop offset="0" style="stop-color:#e5e7eb"/>
            <stop offset="1" style="stop-color:#d1d5db"/>
        </linearGradient>
        <clipPath id="e" clipPathUnits="userSpaceOnUse">
            <path d="M-8-16h192v152H-8z"/>
        </clipPath>
    </defs>
</svg>
