<svg xmlns="http://www.w3.org/2000/svg" width="64" height="64" viewBox="0 0 16.933 16.933">
    <defs>
        <linearGradient id="a" x1="8.466" x2="8.466" y1="1.05" y2="15.867" gradientUnits="userSpaceOnUse">
            <stop offset="0" stop-color="#4199f1"/>
            <stop offset="1" stop-color="#476de1"/>
        </linearGradient>
        <linearGradient id="c" x1="8.467" x2="8.467" y1="3.704" y2="13.229" gradientUnits="userSpaceOnUse">
            <stop offset="0" stop-color="#fff"/>
            <stop offset="1" stop-color="#e7f2ff"/>
        </linearGradient>
        <filter id="b" width="1.294" height="1.294" x="-.147" y="-.147" color-interpolation-filters="sRGB">
            <feGaussianBlur stdDeviation=".583"/>
        </filter>
    </defs>
    <path fill="#f66151" d="M7.408 14.552A1.85 1.85 0 0 1 5.556 12.7v-1.852c0-.293.236-.53.53-.53h9.789c.293 0 .529.237.529.53V12.7a1.85 1.85 0 0 1-1.852 1.852z"/>
    <rect width="10.848" height="4.233" x="5.556" y="7.673" fill="#c061cb" rx=".529"/>
    <rect width="10.848" height="4.233" x="5.556" y="5.027" fill="#2ec27e" rx=".529"/>
    <path fill="#f8e45c" d="M7.408 2.381a1.85 1.85 0 0 0-1.852 1.852v1.852c0 .293.236.53.53.53h9.789a.53.53 0 0 0 .529-.53V4.233a1.85 1.85 0 0 0-1.852-1.852z"/>
    <rect width="14.817" height="14.817" x="1.058" y="1.05" fill="url(#a)" rx="3.44"/>
    <path d="M8.467 3.969A4.76 4.76 0 0 0 3.704 8.73a4.76 4.76 0 0 0 2.284 4.06l.021.013a5 5 0 0 0 .388.212l.06.026a5 5 0 0 0 .374.157l.09.03a5 5 0 0 0 .351.109l.145.032a5 5 0 0 0 .314.063l.177.02a5 5 0 0 0 .304.03 5 5 0 0 0 .255.01 4.76 4.76 0 0 0 3.52-1.563l.045-.048-.001-.002a4.76 4.76 0 0 0 1.198-3.15A4.76 4.76 0 0 0 8.467 3.97m0 .53A4.233 4.233 0 0 1 12.7 8.73a4.23 4.23 0 0 1-.99 2.718c-.728-.856-1.834-1.396-3.244-1.396-1.407 0-2.513.538-3.242 1.393a4.23 4.23 0 0 1-.99-2.716 4.233 4.233 0 0 1 4.232-4.232zm0 1.321a1.587 1.72 0 0 0-1.588 1.72 1.587 1.72 0 0 0 1.588 1.72 1.587 1.72 0 0 0 1.587-1.72 1.587 1.72 0 0 0-1.587-1.72" filter="url(#b)" opacity=".1"/>
    <path fill="url(#c)" d="M8.467 3.704a4.76 4.76 0 0 0-4.763 4.762 4.76 4.76 0 0 0 2.284 4.06l.021.013a5 5 0 0 0 .388.212l.06.026a5 5 0 0 0 .374.157l.09.03a5 5 0 0 0 .351.109l.145.032a5 5 0 0 0 .314.063l.177.02a5 5 0 0 0 .304.03 5 5 0 0 0 .255.01 4.76 4.76 0 0 0 3.52-1.563l.045-.048-.001-.002a4.76 4.76 0 0 0 1.198-3.15 4.76 4.76 0 0 0-4.762-4.761m0 .53A4.233 4.233 0 0 1 12.7 8.465a4.23 4.23 0 0 1-.99 2.718c-.728-.856-1.834-1.396-3.244-1.396-1.407 0-2.513.538-3.242 1.393a4.23 4.23 0 0 1-.99-2.716 4.233 4.233 0 0 1 4.232-4.232zm0 1.322a1.587 1.72 0 0 0-1.588 1.72 1.587 1.72 0 0 0 1.588 1.72 1.587 1.72 0 0 0 1.587-1.72 1.587 1.72 0 0 0-1.587-1.72"/>
    <path fill="#fff" d="M8.467 3.704a4.76 4.76 0 0 0-4.763 4.763 4.76 4.76 0 0 0 2.284 4.06l.02.012a5 5 0 0 0 .389.212l.06.026a5 5 0 0 0 .374.157l.09.03a5 5 0 0 0 .35.109l.146.032a5 5 0 0 0 .314.063l.177.02a5 5 0 0 0 .304.03 5 5 0 0 0 .255.011 4.76 4.76 0 0 0 3.52-1.564l.045-.048v-.002a4.76 4.76 0 0 0 1.197-3.15 4.76 4.76 0 0 0-4.762-4.76m0 .08a4.68 4.68 0 0 1 4.683 4.681 4.68 4.68 0 0 1-1.18 3.097.08.08 0 0 0-.01.088l-.025-.046-.005.007h-.002a4.68 4.68 0 0 1-3.46 1.54 5 5 0 0 1-.55-.041l-.174-.02H7.74a5 5 0 0 1-.305-.063h-.002l-.14-.031h-.004a5 5 0 0 1-.342-.107h-.002l-.086-.03a5 5 0 0 1-.369-.154l-.002-.002-.057-.023-.003-.002a5 5 0 0 1-.377-.207h-.003l-.019-.012-.002-.002a4.678 4.678 0 0 1 2.44-8.674zm0 .368a4.315 4.315 0 0 0-4.313 4.313 4.3 4.3 0 0 0 1.01 2.766.08.08 0 0 0 .121.002C6 10.395 7.08 9.867 8.467 9.867c1.39 0 2.469.529 3.182 1.367a.08.08 0 0 0 .123 0 4.31 4.31 0 0 0-3.301-7.08zm-.001.08.001.002a4.233 4.233 0 0 1 4.233 4.23 4.23 4.23 0 0 1-.99 2.718c-.728-.856-1.834-1.396-3.244-1.396-1.407 0-2.513.538-3.242 1.393a4.23 4.23 0 0 1-.99-2.716 4.233 4.233 0 0 1 4.232-4.232m.001 1.324a1.587 1.72 0 0 0-1.588 1.72 1.587 1.72 0 0 0 1.588 1.72 1.587 1.72 0 0 0 1.587-1.72 1.587 1.72 0 0 0-1.587-1.72m0 .079c.83 0 1.507.73 1.507 1.64s-.677 1.641-1.507 1.641-1.508-.73-1.508-1.64c0-.911.678-1.642 1.508-1.641" color="#000" style="-inkscape-stroke:none"/>
    <path fill="#fff" d="M4.498 1.05a3.43 3.43 0 0 0-3.44 3.44v7.937a3.43 3.43 0 0 0 3.44 3.44h7.937a3.43 3.43 0 0 0 3.44-3.44V4.49a3.43 3.43 0 0 0-3.44-3.44zm0 .08h7.938a3.35 3.35 0 0 1 3.36 3.36v7.938a3.35 3.35 0 0 1-3.36 3.36H4.498a3.35 3.35 0 0 1-3.361-3.36V4.49a3.35 3.35 0 0 1 3.36-3.36" color="#000" opacity=".15" style="-inkscape-stroke:none"/>
</svg>
