<svg xmlns="http://www.w3.org/2000/svg" width="64" height="64" viewBox="0 0 64 64">
    <rect width="56" height="56" x="4" y="4" rx="12" style="fill:#394e6f;fill-opacity:1;stroke-width:2"/>
    <path d="M43.5 29a6.5 6.5 0 0 1-6.5 6.5 6.5 6.5 0 0 1-6.5-6.5 6.5 6.5 0 0 1 6.5-6.5 6.5 6.5 0 0 1 6.5 6.5" style="color:#000;fill:#fff;stroke-width:1;stroke-linecap:round;stroke-linejoin:round;-inkscape-stroke:none"/>
    <path d="M37 22c-3.86 0-7 3.14-7 7s3.14 7 7 7 7-3.14 7-7-3.14-7-7-7m0 1c3.32 0 6 2.68 6 6s-2.68 6-6 6-6-2.68-6-6 2.68-6 6-6" style="color:#000;fill:#394e6f;stroke-width:2;stroke-linecap:round;stroke-linejoin:round;-inkscape-stroke:none"/>
    <path d="M55.5 42a3.5 3.5 0 0 1-3.5 3.5 3.5 3.5 0 0 1-3.5-3.5 3.5 3.5 0 0 1 3.5-3.5 3.5 3.5 0 0 1 3.5 3.5" style="color:#000;fill:#fff;stroke-width:1;stroke-linecap:round;stroke-linejoin:round;-inkscape-stroke:none"/>
    <path d="M52 38c-2.203 0-4 1.797-4 4s1.797 4 4 4 4-1.797 4-4-1.797-4-4-4m0 1c1.663 0 3 1.337 3 3s-1.337 3-3 3-3-1.337-3-3 1.337-3 3-3" style="color:#000;fill:#394e6f;stroke-width:2;stroke-linecap:round;stroke-linejoin:round;-inkscape-stroke:none"/>
    <path d="M51.5 38a7.5 7.5 0 0 1-7.5 7.5 7.5 7.5 0 0 1-7.5-7.5 7.5 7.5 0 0 1 7.5-7.5 7.5 7.5 0 0 1 7.5 7.5" style="color:#000;fill:#fff;stroke-width:1;stroke-linecap:round;stroke-linejoin:round;-inkscape-stroke:none"/>
    <path d="M44 30c-4.412 0-8 3.588-8 8s3.588 8 8 8 8-3.588 8-8-3.588-8-8-8m0 1c3.872 0 7 3.128 7 7s-3.128 7-7 7-7-3.128-7-7 3.128-7 7-7" style="color:#000;fill:#394e6f;stroke-width:2;stroke-linecap:round;stroke-linejoin:round;-inkscape-stroke:none"/>
    <path d="M21.5 39a6.5 6.5 0 0 1-6.5 6.5A6.5 6.5 0 0 1 8.5 39a6.5 6.5 0 0 1 6.5-6.5 6.5 6.5 0 0 1 6.5 6.5" style="color:#000;fill:#fff;stroke-width:1;stroke-linecap:round;stroke-linejoin:round;-inkscape-stroke:none"/>
    <path d="M15 32c-3.86 0-7 3.14-7 7s3.14 7 7 7 7-3.14 7-7-3.14-7-7-7m0 1c3.32 0 6 2.68 6 6s-2.68 6-6 6-6-2.68-6-6 2.68-6 6-6" style="color:#000;fill:#394e6f;stroke-width:2;stroke-linecap:round;stroke-linejoin:round;-inkscape-stroke:none"/>
    <path d="M24.5 26a3.5 3.5 0 0 1-3.5 3.5 3.5 3.5 0 0 1-3.5-3.5 3.5 3.5 0 0 1 3.5-3.5 3.5 3.5 0 0 1 3.5 3.5" style="color:#000;fill:#fff;stroke-width:1;stroke-linecap:round;stroke-linejoin:round;-inkscape-stroke:none"/>
    <path d="M21 22c-2.203 0-4 1.797-4 4s1.797 4 4 4 4-1.797 4-4-1.797-4-4-4m0 1c1.663 0 3 1.337 3 3s-1.337 3-3 3-3-1.337-3-3 1.337-3 3-3" style="color:#000;fill:#394e6f;stroke-width:2;stroke-linecap:round;stroke-linejoin:round;-inkscape-stroke:none"/>
    <path d="M29.5 34a7.5 7.5 0 0 1-7.5 7.5 7.5 7.5 0 0 1-7.5-7.5 7.5 7.5 0 0 1 7.5-7.5 7.5 7.5 0 0 1 7.5 7.5" style="color:#000;fill:#fff;stroke-width:1;stroke-linecap:round;stroke-linejoin:round;-inkscape-stroke:none"/>
    <path d="M22 26c-4.412 0-8 3.588-8 8s3.588 8 8 8 8-3.588 8-8-3.588-8-8-8m0 1c3.872 0 7 3.128 7 7s-3.128 7-7 7-7-3.128-7-7 3.128-7 7-7" style="color:#000;fill:#394e6f;stroke-width:2;stroke-linecap:round;stroke-linejoin:round;-inkscape-stroke:none"/>
    <path d="M25.5 42a3.5 3.5 0 0 1-3.5 3.5 3.5 3.5 0 0 1-3.5-3.5 3.5 3.5 0 0 1 3.5-3.5 3.5 3.5 0 0 1 3.5 3.5" style="color:#000;fill:#fff;stroke-width:1;stroke-linecap:round;stroke-linejoin:round;-inkscape-stroke:none"/>
    <path d="M22 38c-2.203 0-4 1.797-4 4s1.797 4 4 4 4-1.797 4-4-1.797-4-4-4m0 1c1.663 0 3 1.337 3 3s-1.337 3-3 3-3-1.337-3-3 1.337-3 3-3" style="color:#000;fill:#394e6f;stroke-width:2;stroke-linecap:round;stroke-linejoin:round;-inkscape-stroke:none"/>
    <path d="M35.5 25a6.5 6.5 0 0 1-6.5 6.5 6.5 6.5 0 0 1-6.5-6.5 6.5 6.5 0 0 1 6.5-6.5 6.5 6.5 0 0 1 6.5 6.5" style="color:#000;fill:#fff;stroke-width:1;stroke-linecap:round;stroke-linejoin:round;-inkscape-stroke:none"/>
    <path d="M29 18c-3.86 0-7 3.14-7 7s3.14 7 7 7 7-3.14 7-7-3.14-7-7-7m0 1c3.32 0 6 2.68 6 6s-2.68 6-6 6-6-2.68-6-6 2.68-6 6-6" style="color:#000;fill:#394e6f;stroke-width:2;stroke-linecap:round;stroke-linejoin:round;-inkscape-stroke:none"/>
    <path d="M41.5 36a9.5 9.5 0 0 1-9.5 9.5 9.5 9.5 0 0 1-9.5-9.5 9.5 9.5 0 0 1 9.5-9.5 9.5 9.5 0 0 1 9.5 9.5" style="color:#000;fill:#fff;stroke-width:1;stroke-linecap:round;stroke-linejoin:round;-inkscape-stroke:none"/>
    <path d="M32 26c-5.517 0-10 4.483-10 10s4.483 10 10 10 10-4.483 10-10-4.483-10-10-10m0 1c4.976 0 9 4.024 9 9s-4.024 9-9 9-9-4.024-9-9 4.024-9 9-9" style="color:#000;fill:#394e6f;stroke-width:2;stroke-linecap:round;stroke-linejoin:round;-inkscape-stroke:none"/>
</svg>
