<svg xmlns="http://www.w3.org/2000/svg" viewBox="0 0 64 64">
    <defs>
        <linearGradient id="a" x1="7.937" x2="7.937" y1="6.879" y2="1.058" gradientTransform="scale(3.77963)" gradientUnits="userSpaceOnUse">
            <stop offset="0" stop-color="#f5f5f5"/>
            <stop offset="1" stop-color="#ccf0ff"/>
        </linearGradient>
        <linearGradient id="b" x1="7.937" x2="7.937" y1="15.081" y2="1.852" gradientTransform="scale(3.77963)" gradientUnits="userSpaceOnUse">
            <stop offset="0" stop-color="#2858e4"/>
            <stop offset="1" stop-color="#5ab9f4"/>
        </linearGradient>
        <linearGradient id="c" x1="45" x2="57.008" y1="19" y2="6.992" gradientUnits="userSpaceOnUse">
            <stop offset="0" stop-color="#f5f5f5"/>
            <stop offset="1" stop-color="#ccf0ff"/>
        </linearGradient>
    </defs>
    <path fill="url(#a)" d="M35 3.969C41 3.969 60.004 23 60.004 29V16.973a12.97 12.97 0 0 0-3.8-9.203A12.97 12.97 0 0 0 47 3.969Zm0 0"/>
    <path fill="#f5f5f5" d="M17 7a9.94 9.94 0 0 0-7.059 2.91 9.94 9.94 0 0 0-2.91 7.059v30a9.94 9.94 0 0 0 2.91 7.058A9.95 9.95 0 0 0 17 56.941h30a9.95 9.95 0 0 0 7.059-2.914 9.94 9.94 0 0 0 2.91-7.058v-30a9.94 9.94 0 0 0-2.91-7.059A9.94 9.94 0 0 0 47 7Zm0 1h30a8.97 8.97 0 0 1 6.348 2.621 8.95 8.95 0 0 1 2.629 6.348v30a8.96 8.96 0 0 1-8.973 8.968H17a8.96 8.96 0 0 1-8.969-8.969v-30a8.95 8.95 0 0 1 2.625-6.343A8.97 8.97 0 0 1 17 8"/>
    <path fill="#f5f5f5" d="M49 8h1v23h-1Zm0 0"/>
    <path fill="#f5f5f5" d="M56 14v1H33v-1Zm0 0"/>
    <path fill="url(#b)" d="M17.004 3.969c-1.352 0-2.652.203-3.875.582A13 13 0 0 0 6.96 8.69a12.9 12.9 0 0 0-2.895 6.946v.004q-.065.655-.066 1.328v30a12.975 12.975 0 0 0 9.129 12.418c.824.258 1.676.43 2.539.515h.004q.654.069 1.332.067H47c1.352 0 2.652-.203 3.875-.582a13.01 13.01 0 0 0 8.547-8.543c.379-1.223.582-2.528.582-3.875V29C60.004 23 41 3.969 35 3.969Zm0 0"/>
    <path fill="url(#c)" d="M35 4c4 1 5 7 6 11 .969 3.879 3.18 6.547 9 8 4 1 8 .64 10 6 0-.023-.004-.047-.004-.07-.11-6.996-16.605-23.739-24.207-24.895C35.523 4.015 35.262 4 35 4"/>
    <path fill="#a6d3ff" d="M15 37h34a5 5 0 0 1 5 5v5.996a5 5 0 0 1-5 5H15a5 5 0 0 1-5-5V42a5 5 0 0 1 5-5m0 0"/>
    <path fill="#f9f9f9" d="M14.996 40H21a2 2 0 0 1 2 2v6a2 2 0 0 1-2 2h-6.004A2 2 0 0 1 13 48v-6c0-1.105.895-2 1.996-2M29 40h6.004c1.101 0 2 .895 2 2v6c0 1.105-.899 2-2 2H29c-1.102 0-2-.895-2-2v-6c0-1.105.898-2 2-2m14 0h6.004c1.101 0 1.996.895 1.996 2v6c0 1.105-.895 2-1.996 2H43a2 2 0 0 1-2-2v-6a2 2 0 0 1 2-2m0 0"/>
</svg>
