<svg xmlns="http://www.w3.org/2000/svg" viewBox="0 0 64 64">
    <defs>
        <linearGradient id="b" x1="-80.001" x2="-48" y1="32" y2="32" gradientTransform="translate(103.99 -4.026)scale(1.12486)" gradientUnits="userSpaceOnUse">
            <stop offset="0" stop-color="#fafafa"/>
            <stop offset="1" stop-color="#fff"/>
        </linearGradient>
        <linearGradient id="a" x1="7.937" x2="7.937" y1="15.081" y2="1.852" gradientTransform="scale(3.7796)" gradientUnits="userSpaceOnUse">
            <stop offset="0" stop-color="#427fff"/>
            <stop offset="1" stop-color="#59e3ff"/>
        </linearGradient>
    </defs>
    <rect width="56.002" height="56.002" x="3.999" y="3.968" fill="url(#a)" rx="12" ry="12"/>
    <path fill="url(#b)" d="M34.249 13.965c-1.732.001-2.814 1.876-1.948 3.376a2.25 2.25 0 0 0 1.949 1.125c1.732 0 2.814-1.876 1.948-3.376a2.25 2.25 0 0 0-1.949-1.125m7.498 0c-1.732.001-2.814 1.877-1.947 3.376a2.25 2.25 0 0 0 1.95 1.125c1.732-.001 2.813-1.876 1.947-3.377a2.25 2.25 0 0 0-1.95-1.124m6 3c-1.732.001-2.814 1.876-1.947 3.376a2.25 2.25 0 0 0 1.949 1.124c1.731-.001 2.813-1.876 1.946-3.376a2.25 2.25 0 0 0-1.948-1.124m-19.716.231c-1.717.099-4.343 1.176-6.678 3.122-5.991 4.98-11.313 14.914-3.27 23.445 7.751 8.219 19.064 6.585 22.895 4.597 5.155-2.665 5.08-8.044 4.718-9.342-1.304-4.691-4.882-6-7.158-5.738-2.747.318-8.067 2.058-11.201-2.154-2.66-3.573-.265-8.726 2.418-10.543 1.102-.756 1.071-2.362-.337-3.156-.334-.189-.815-.275-1.388-.232z"/>
</svg>
