<svg xmlns="http://www.w3.org/2000/svg" xmlns:xlink="http://www.w3.org/1999/xlink" width="64" height="64" viewBox="0 0 64 64">
    <defs>
        <linearGradient xlink:href="#a" id="b" x1="16" x2="16" y1="30" y2="2" gradientTransform="scale(2)" gradientUnits="userSpaceOnUse"/>
        <linearGradient id="a">
            <stop offset="0" style="stop-color:#197cf1;stop-opacity:1"/>
            <stop offset="1" style="stop-color:#20bcfa;stop-opacity:1"/>
        </linearGradient>
    </defs>
    <rect width="56" height="56" x="4" y="4" rx="12" style="fill:url(#b);stroke-width:2"/>
    <path d="M32 20c-5.511 0-10-4.489-10-10a1 1 0 0 1 1-1 1 1 0 0 1 1 1c0 4.43 3.57 8 8 8s8-3.57 8-8a1 1 0 0 1 1-1 1 1 0 0 1 1 1c0 5.511-4.489 10-10 10" style="color:#000;fill:#ececec;stroke:none;stroke-width:2;stroke-linecap:round;stroke-linejoin:round;-inkscape-stroke:none"/>
    <path d="M25 26c-1.108 0-2 .892-2 2s.892 2 2 2 2-.892 2-2-.892-2-2-2m11 0-4 4 6 6-6 6 4 4 10-10zM21 36c-1.662 0-3 1.338-3 3s1.338 3 3 3 3-1.338 3-3-1.338-3-3-3m7 10c-2.216 0-4 1.784-4 4s1.784 4 4 4 4-1.784 4-4-1.784-4-4-4" style="fill:#fff;stroke-width:2"/>
</svg>
