<svg xmlns="http://www.w3.org/2000/svg" xmlns:xlink="http://www.w3.org/1999/xlink" width="64" height="64" viewBox="0 0 64 64">
    <defs>
        <linearGradient xlink:href="#a" id="b" x1="16" x2="16" y1="30" y2="2" gradientTransform="scale(2)" gradientUnits="userSpaceOnUse"/>
        <linearGradient id="a">
            <stop offset="0" style="stop-color:#3daee9;stop-opacity:1"/>
            <stop offset="1" style="stop-color:#76c6ee;stop-opacity:1"/>
        </linearGradient>
    </defs>
    <rect width="56" height="56" x="4" y="4" rx="12" style="fill:url(#b);stroke-width:2"/>
    <path d="M23 10c-2.216 0-4 1.784-4 4v36c0 2.216 1.784 4 4 4h18c2.216 0 4-1.784 4-4V14c0-2.216-1.784-4-4-4zm5 39h8c.554 0 1 .446 1 1s-.446 1-1 1h-8c-.554 0-1-.446-1-1s.446-1 1-1" style="fill:#fff;stroke-width:2;stroke-linejoin:round"/>
    <path d="M27 21c-.831 0-1.5.669-1.5 1.5S26.169 24 27 24s1.5-.669 1.5-1.5S27.831 21 27 21m7.857 0L32 23.8l4.286 4.2L32 32.2l2.857 2.8L42 28ZM23.75 29c-.97 0-1.75.78-1.75 1.75s.78 1.75 1.75 1.75 1.75-.78 1.75-1.75S24.72 29 23.75 29m5.75 7a2.495 2.495 0 0 0-2.5 2.5c0 1.385 1.115 2.5 2.5 2.5s2.5-1.115 2.5-2.5-1.115-2.5-2.5-2.5" style="opacity:.8;fill:#4ab2ec;fill-opacity:1;stroke-width:1"/>
</svg>
