<svg xmlns="http://www.w3.org/2000/svg" xmlns:xlink="http://www.w3.org/1999/xlink" width="64" height="64" viewBox="0 0 64 64">
    <defs>
        <linearGradient xlink:href="#a" id="c" x1="16" x2="16" y1="30" y2="2" gradientTransform="scale(2)" gradientUnits="userSpaceOnUse"/>
        <linearGradient id="a">
            <stop offset="0" style="stop-color:#272727;stop-opacity:1"/>
            <stop offset="1" style="stop-color:#5d5d5d;stop-opacity:1"/>
        </linearGradient>
        <linearGradient xlink:href="#b" id="d" x1="49.554" x2="21.554" y1="35.46" y2="35.46" gradientTransform="matrix(0 -2 2 0 -38.92 103.107)" gradientUnits="userSpaceOnUse"/>
        <linearGradient id="b">
            <stop offset="0" style="stop-color:#41bbff;stop-opacity:1"/>
            <stop offset="1" style="stop-color:#0091f9;stop-opacity:1"/>
        </linearGradient>
    </defs>
    <rect width="56" height="56" x="4" y="4" rx="12" style="fill:url(#c);stroke-width:2"/>
    <path d="M16 8c-4.432 0-8 3.568-8 8v12c0 1.108.892 2 2 2h44c1.108 0 2-.892 2-2V16c0-4.432-3.568-8-8-8Z" style="opacity:.7;fill:url(#d);fill-opacity:1;stroke-width:3.14286;stroke-linecap:round;stroke-linejoin:round"/>
    <path d="M10 34c-1.108 0-2 .892-2 2v12c0 4.432 3.568 8 8 8h32c4.432 0 8-3.568 8-8V36c0-1.108-.892-2-2-2z" style="opacity:.4;fill:#fff;fill-opacity:1;stroke-width:3.14286;stroke-linecap:round;stroke-linejoin:round"/>
</svg>
