<svg xmlns="http://www.w3.org/2000/svg" xmlns:xlink="http://www.w3.org/1999/xlink" width="64" height="64" viewBox="0 0 64 64">
    <defs>
        <linearGradient xlink:href="#a" id="b" x1="16" x2="16" y1="30" y2="2" gradientTransform="scale(2)" gradientUnits="userSpaceOnUse"/>
        <linearGradient xlink:href="#a" id="c" x1="8" x2="8" y1="14.5" y2=".5" gradientTransform="matrix(4 0 0 4 0 2)" gradientUnits="userSpaceOnUse"/>
        <linearGradient id="a">
            <stop offset="0" style="stop-color:#4cca3d;stop-opacity:1"/>
            <stop offset="1" style="stop-color:#a5d785;stop-opacity:1"/>
        </linearGradient>
    </defs>
    <rect width="56" height="56" x="4" y="4" rx="12" style="fill:url(#b);stroke-width:2"/>
    <path d="M28 14c-8.864 0-16 7.136-16 16a15.96 15.96 0 0 0 8.234 14C19.001 49.78 18 52 18 52s4.182-1.176 10-6h8c8.864 0 16-7.136 16-16s-7.136-16-16-16Z" style="fill:#fff;stroke-width:8"/>
    <path d="M21 24a1 1 0 0 0-1 1 1 1 0 0 0 1 1h22a1 1 0 0 0 1-1 1 1 0 0 0-1-1zm0 6a1 1 0 0 0-1 1 1 1 0 0 0 1 1h14a1 1 0 0 0 1-1 1 1 0 0 0-1-1z" style="fill:url(#c);stroke-width:8"/>
</svg>
