<svg xmlns="http://www.w3.org/2000/svg" xmlns:xlink="http://www.w3.org/1999/xlink" width="64" height="64" viewBox="0 0 64 64">
    <defs>
        <linearGradient xlink:href="#a" id="b" x1="16" x2="16" y1="30" y2="2" gradientTransform="scale(2)" gradientUnits="userSpaceOnUse"/>
        <linearGradient id="a">
            <stop offset="0" style="stop-color:#adb2b9;stop-opacity:1"/>
            <stop offset="1" style="stop-color:#e0e2e4;stop-opacity:1"/>
        </linearGradient>
    </defs>
    <rect width="56" height="56" x="4" y="4" rx="12" style="fill:url(#b);stroke-width:2"/>
    <rect width="42" height="34" x="11" y="15" rx="5" style="opacity:.1;fill:#000;fill-opacity:1;stroke-width:6;stroke-linecap:round;stroke-linejoin:round"/>
    <rect width="40" height="32" x="12" y="16" rx="4" style="fill:#fff;fill-opacity:1;stroke-width:3;stroke-linecap:round;stroke-linejoin:round"/>
    <path d="M16 16h32c2.216 0 4 1.784 4 4v4H12v-4c0-2.216 1.784-4 4-4" style="fill:#6e7584;fill-opacity:1;stroke-width:12;stroke-linecap:round;stroke-linejoin:round"/>
    <path d="M36 18a2 2 0 0 0-2 2 2 2 0 0 0 2 2 2 2 0 0 0 2-2 2 2 0 0 0-2-2m6 0a2 2 0 0 0-2 2 2 2 0 0 0 2 2 2 2 0 0 0 2-2 2 2 0 0 0-2-2m6 0a2 2 0 0 0-2 2 2 2 0 0 0 2 2 2 2 0 0 0 2-2 2 2 0 0 0-2-2" style="fill:#fff;stroke-width:4;stroke-linecap:round;stroke-linejoin:round"/>
</svg>
