<svg xmlns="http://www.w3.org/2000/svg" xmlns:xlink="http://www.w3.org/1999/xlink" viewBox="0 0 64 64">
    <defs>
        <linearGradient xlink:href="#a" id="b" x1="16" x2="16" y1="30" y2="2" gradientTransform="scale(2)" gradientUnits="userSpaceOnUse"/>
        <linearGradient id="a">
            <stop offset="0" style="stop-color:#adb2b9"/>
            <stop offset="1" style="stop-color:#e0e2e4"/>
        </linearGradient>
    </defs>
    <rect width="56" height="56" x="4" y="4" rx="12" style="fill:url(#b);stroke-width:2"/>
    <path d="M32 12c-2.77 0-5 2.23-5 5v16.355A10 10 0 0 0 22 42c0 5.523 4.477 10 10 10s10-4.477 10-10a10 10 0 0 0-5-8.65V17c0-2.77-2.23-5-5-5m0 3c1.16 0 2 .84 2 2v18.082l1.5.865a6.99 6.99 0 0 1 3.5 6.055A6.955 6.955 0 0 1 32 49a6.955 6.955 0 0 1-7-6.996v-.002a6.99 6.99 0 0 1 3.5-6.049l1.5-.865V17c0-1.16.84-2 2-2" style="fill:#666;fill-opacity:1"/>
    <path d="M30 26v9.088l-1.5.865a6.99 6.99 0 0 0-3.5 6.049v.002A6.955 6.955 0 0 0 32 49c3.9 0 6.999-3.097 7-6.998a6.99 6.99 0 0 0-3.5-6.055l-1.5-.865V26Z" style="fill:#f75f5f"/>
</svg>
