<svg xmlns="http://www.w3.org/2000/svg" viewBox="0 0 64 64">
    <defs>
        <linearGradient id="a" x1="7.937" x2="7.937" y1="15.274" y2="1.525" gradientTransform="scale(3.7796)" gradientUnits="userSpaceOnUse">
            <stop offset="0" stop-color="#2e2e2e"/>
            <stop offset="1" stop-color="#4e4e4e"/>
        </linearGradient>
        <linearGradient id="b" x1="30" x2="30" y1="15" y2="50" gradientUnits="userSpaceOnUse">
            <stop offset="0" stop-color="#f59e0b"/>
            <stop offset="1" stop-color="#fdba74"/>
        </linearGradient>
    </defs>
    <rect width="56" height="56" x="4" y="3.969" fill="url(#a)" rx="12"/>
    <circle cx="32.02" cy="32.044" r="30.001" fill="none"/>
    <path fill="url(#b)" d="M32 13a19 19 0 0 0-19 19 19 19 0 0 0 13.006 18.012c-1.758-4.877-3.107-12.41-3.924-16.028-.407-1.604-.165-3.2.111-4.807.558-1.67.741-3.409 1.504-5.016 1.164-1.002 1.192-2.826 2.32-3.701.169.1.282.14.36.178l.118.013h.013c.162-.17-1.581-1.94.034-1.241.063-.93 1.522-.22 1.544-1.034v-.002c.71.587.576.342 1.533.233 1.083-.69 1.588 1.634 2.039.338 1.332.168 2.747.589 4.006 1.012a6.16 6.16 0 0 1 3.313 1.96h-.026l.622.812c.078.139.154.285.217.43.25 2.089 2.635 2.06 4.23 2.815 1.366.47 3.011 1.188 3.18 2.793-.345-.074-1.677-1.593-2.726-1.745-.63-.038-1.312-.211-1.948-.442l-3.684-.66v-.012c-.18-.026-.37-.05-.548-.089v.013l-5.212-.625c.084.057.178.135.26.21l5.346 1.013v-.01l.37.09 1.494.328c.297.026.593.073.839.121 1.524.403 3.326.33 4.58 1.368-.33.61-2.153.264-3.064.185-.111-.02-.233-.033-.343-.058-.025 0-.038-.013-.063-.013-1.242-.19-2.508-.202-3.705.156h-.013c-.412.124-.81.301-1.195.522-1.725.975-3.85 1.331-5.284 2.736-1.393 1.463-1.317 3.487-1.073 5.364h.058v.479c.023.165.05.327.072.488.727 3.797 2.67 7.282 3.274 11.115.038.458.1.974.152 1.477A19 19 0 0 0 51 32a19 19 0 0 0-19-19m2.934 9.158c-.575.015-1.021.224-1.148.581-.203.572.488 1.31 1.544 1.661 1.057.361 2.079.19 2.284-.381.203-.572-.484-1.319-1.548-1.675a3.4 3.4 0 0 0-1.132-.186"/>
</svg>
