<svg xmlns="http://www.w3.org/2000/svg" viewBox="0 0 64 64">
    <defs>
        <linearGradient id="b" x1="4.762" x2="4.762" y1="12.435" y2="3.704" gradientTransform="rotate(90 5.19 12.069)" gradientUnits="userSpaceOnUse">
            <stop offset="0" stop-color="#db2f2f"/>
            <stop offset="1" stop-color="#e54243"/>
        </linearGradient>
        <linearGradient id="c" x1="4.762" x2="4.762" y1="12.435" y2="3.704" gradientUnits="userSpaceOnUse">
            <stop offset="0" stop-color="#f36d01"/>
            <stop offset="1" stop-color="#f69901"/>
        </linearGradient>
        <linearGradient id="d" x1="4.762" x2="4.762" y1="12.171" y2="3.704" gradientUnits="userSpaceOnUse">
            <stop offset="0" stop-color="#fcaa00"/>
            <stop offset="1" stop-color="#fdc500"/>
        </linearGradient>
        <linearGradient id="e" x1="4.762" x2="4.762" y1="12.725" y2="3.969" gradientUnits="userSpaceOnUse">
            <stop offset="0" stop-color="#4dae33"/>
            <stop offset="1" stop-color="#6fc84a"/>
        </linearGradient>
        <linearGradient id="g" x1="4.716" x2="4.716" y1="12.46" y2="10.806" gradientTransform="translate(.032 -.025)" gradientUnits="userSpaceOnUse">
            <stop offset="0" stop-color="#8290ae"/>
            <stop offset="1" stop-color="#fff"/>
        </linearGradient>
        <linearGradient id="h" x1="4.716" x2="4.716" y1="12.56" y2="10.806" gradientTransform="translate(1.883 4.54)scale(.60872)" gradientUnits="userSpaceOnUse">
            <stop offset="0" stop-color="#c0c6d4"/>
            <stop offset="1" stop-color="#515769"/>
        </linearGradient>
        <linearGradient id="i" x1="4.716" x2="4.716" y1="12.56" y2="10.806" gradientTransform="translate(2.956 7.188)scale(.38175)" gradientUnits="userSpaceOnUse">
            <stop offset="0" stop-color="#2f323b"/>
            <stop offset="1" stop-color="#111419"/>
        </linearGradient>
        <linearGradient id="a" x1="32" x2="32" y1="4" y2="60" gradientUnits="userSpaceOnUse">
            <stop offset="0" style="stop-color:#f3f4f6"/>
            <stop offset="1" style="stop-color:#e5e7eb"/>
        </linearGradient>
    </defs>
    <rect width="56" height="56" x="4" y="4" rx="12" style="stroke-width:1;fill:url(#a)"/>
    <g stroke-linecap="round" stroke-linejoin="round">
        <path fill="url(#b)" stroke="#7f7f7f" stroke-opacity=".2" stroke-width=".053" d="M14.084 11.641a2.11 2.11 0 0 1-2.117 2.117h-6.35c-1.172 0-2.116-.944-2.116-2.117s.944-2.117 2.116-2.117h6.35c1.173 0 2.117.944 2.117 2.117" transform="matrix(3.50166 0 0 3.51588 1.6 1.837)"/>
        <g stroke-opacity=".15" stroke-width=".053">
            <g transform="matrix(0 3.51588 -3.50166 0 62.036 26.023)">
                <rect width="3.175" height="1.323" x="3.175" y="8.793" fill="none" stroke="#fdfdfd" rx=".265" ry=".265"/>
                <rect width="3.175" height="1.323" x="3.175" y="7.205" fill="none" stroke="#fdfdfd" rx=".265" ry=".265"/>
                <rect width="3.175" height="1.323" x="3.175" y="8.731" fill="#bb1112" stroke="#000" rx=".265" ry=".265"/>
                <rect width="3.175" height="1.323" x="3.175" y="5.618" fill="none" stroke="#fdfdfd" rx=".265" ry=".265"/>
                <rect width="3.175" height="1.323" x="3.175" y="7.144" fill="#c72020" stroke="#000" rx=".265" ry=".265"/>
                <path fill="none" stroke="#fdfdfd" d="M4.762 3.766c-.812 0-1.477.604-1.574 1.39a.26.26 0 0 0 .252.197h2.645a.26.26 0 0 0 .251-.197 1.583 1.583 0 0 0-1.574-1.39"/>
                <rect width="3.175" height="1.323" x="3.175" y="5.556" fill="#d22b2b" stroke="#000" rx=".265" ry=".265"/>
            </g>
            <path fill="#db3636" stroke="#000" d="M13.555 11.641c0-.812-.605-1.477-1.39-1.574a.26.26 0 0 0-.198.252v2.645a.26.26 0 0 0 .198.251 1.583 1.583 0 0 0 1.39-1.574" transform="matrix(3.50166 0 0 3.51588 1.6 1.837)"/>
        </g>
        <path fill="url(#c)" stroke="#7f7f7f" stroke-opacity=".2" stroke-width=".053" d="M4.762 3.175c1.173 0 2.117.944 2.117 2.117v6.35c0 1.172-.944 2.116-2.117 2.116s-2.116-.944-2.116-2.117v-6.35c0-1.172.944-2.116 2.116-2.116" transform="matrix(1.75083 3.04484 -3.03253 1.75794 48.584 7.702)"/>
        <g stroke-opacity=".15" stroke-width=".053">
            <g transform="matrix(1.75083 3.04484 -3.03253 1.75794 48.584 7.702)">
                <rect width="3.175" height="1.323" x="3.175" y="8.793" fill="none" stroke="#fdfdfd" rx=".265" ry=".265"/>
                <rect width="3.175" height="1.323" x="3.175" y="7.205" fill="none" stroke="#fdfdfd" rx=".265" ry=".265"/>
                <rect width="3.175" height="1.323" x="3.175" y="8.731" fill="#ce5801" stroke="#000" rx=".265" ry=".265"/>
                <rect width="3.175" height="1.323" x="3.175" y="5.618" fill="none" stroke="#fdfdfd" rx=".265" ry=".265"/>
                <rect width="3.175" height="1.323" x="3.175" y="7.144" fill="#dd6d01" stroke="#000" rx=".265" ry=".265"/>
                <path fill="none" stroke="#fdfdfd" d="M4.762 3.766c-.812 0-1.477.604-1.574 1.39a.26.26 0 0 0 .252.197h2.645a.26.26 0 0 0 .251-.197 1.583 1.583 0 0 0-1.574-1.39"/>
                <rect width="3.175" height="1.323" x="3.175" y="5.556" fill="#e57d00" stroke="#000" rx=".265" ry=".265"/>
            </g>
            <path fill="#ed8b01" stroke="#000" d="M12.59 7.645a1.583 1.583 0 0 0-1.99-.668.26.26 0 0 0-.045.316l1.322 2.291a.26.26 0 0 0 .297.119 1.583 1.583 0 0 0 .417-2.058z" transform="matrix(3.50166 0 0 3.51588 1.6 1.837)"/>
        </g>
        <path fill="url(#d)" stroke="#7f7f7f" stroke-opacity=".2" stroke-width=".053" d="M4.762 3.175c1.173 0 2.117.944 2.117 2.117v6.35c0 1.172-.944 2.116-2.117 2.116s-2.116-.944-2.116-2.117v-6.35c0-1.172.944-2.116 2.116-2.116" transform="matrix(3.03253 1.75794 -1.75083 3.04484 27.064 -.984)"/>
        <g stroke-opacity=".15" stroke-width=".053">
            <g transform="matrix(3.03253 1.75794 -1.75083 3.04484 27.064 -.984)">
                <rect width="3.175" height="1.323" x="3.175" y="8.793" fill="none" stroke="#fdfdfd" rx=".265" ry=".265"/>
                <rect width="3.175" height="1.323" x="3.175" y="7.205" fill="none" stroke="#fdfdfd" rx=".265" ry=".265"/>
                <rect width="3.175" height="1.323" x="3.175" y="8.731" fill="#d68f01" stroke="#000" rx=".265" ry=".265"/>
                <rect width="3.175" height="1.323" x="3.175" y="5.618" fill="none" stroke="#fdfdfd" rx=".265" ry=".265"/>
                <rect width="3.175" height="1.323" x="3.175" y="7.144" fill="#e3a101" stroke="#000" rx=".265" ry=".265"/>
                <path fill="none" stroke="#fdfdfd" d="M4.762 3.766c-.812 0-1.477.604-1.574 1.39a.26.26 0 0 0 .252.197h2.645a.26.26 0 0 0 .251-.197 1.583 1.583 0 0 0-1.574-1.39"/>
                <rect width="3.175" height="1.323" x="3.175" y="5.556" fill="#eaad01" stroke="#000" rx=".265" ry=".265"/>
            </g>
            <path fill="#f2b800" stroke="#000" d="M9.544 4.787a1.583 1.583 0 0 0-2.058.416.26.26 0 0 0 .119.297l2.291 1.323a.26.26 0 0 0 .316-.046 1.583 1.583 0 0 0-.668-1.99" transform="matrix(3.50166 0 0 3.51588 1.6 1.837)"/>
        </g>
        <path fill="url(#e)" stroke="#7f7f7f" stroke-opacity=".2" stroke-width=".053" d="M4.762 3.175c1.173 0 2.117.944 2.117 2.117v6.35c0 1.172-.944 2.116-2.117 2.116s-2.116-.944-2.116-2.117v-6.35c0-1.172.944-2.116 2.116-2.116" transform="matrix(3.50166 0 0 3.51588 4.381 1.837)"/>
        <g stroke-opacity=".15" stroke-width=".053">
            <g transform="matrix(3.50166 0 0 3.51588 4.381 1.837)">
                <rect width="3.175" height="1.323" x="3.175" y="8.793" fill="none" stroke="#fdfdfd" rx=".265" ry=".265"/>
                <rect width="3.175" height="1.323" x="3.175" y="7.205" fill="none" stroke="#fdfdfd" rx=".265" ry=".265"/>
                <rect width="3.175" height="1.323" x="3.175" y="8.731" fill="#29860a" stroke="#000" rx=".265" ry=".265"/>
                <rect width="3.175" height="1.323" x="3.175" y="5.618" fill="none" stroke="#fdfdfd" rx=".265" ry=".265"/>
                <rect width="3.175" height="1.323" x="3.175" y="7.144" fill="#3b9a1a" stroke="#000" rx=".265" ry=".265"/>
                <path fill="none" stroke="#fdfdfd" d="M4.762 3.766c-.812 0-1.477.604-1.574 1.39a.26.26 0 0 0 .252.197h2.645a.26.26 0 0 0 .251-.197 1.583 1.583 0 0 0-1.574-1.39"/>
                <rect width="3.175" height="1.323" x="3.175" y="5.556" fill="#4eaa2a" stroke="#000" rx=".265" ry=".265"/>
            </g>
            <path fill="#5db837" stroke="#000" d="M5.556 3.704c-.812 0-1.477.605-1.574 1.39a.26.26 0 0 0 .251.198H6.88a.26.26 0 0 0 .251-.198 1.583 1.583 0 0 0-1.574-1.39z" transform="matrix(3.50166 0 0 3.51588 1.6 1.837)"/>
        </g>
        <g transform="matrix(3.50166 0 0 3.51588 4.381 2.791)">
            <circle cx="4.762" cy="11.641" r="1.058" fill="url(#g)"/>
            <circle cx="4.762" cy="11.641" r=".644" fill="url(#h)"/>
            <circle cx="4.762" cy="11.641" r=".404" fill="url(#i)"/>
        </g>
    </g>
</svg>
