<svg xmlns="http://www.w3.org/2000/svg" viewBox="0 0 64 64">
    <defs>
        <linearGradient id="a" x1="32" x2="32" y1="4" y2="60" gradientUnits="userSpaceOnUse">
            <stop offset="0" stop-color="#3fe366"/>
            <stop offset="1" stop-color="#15a368"/>
        </linearGradient>
    </defs>
    <rect width="56" height="56" x="4" y="4" rx="12" style="stroke-width:1;fill:url(#a)"/>
    <path d="M32 13c-7.36 0-13.734 4.184-16.888 10.304v-6.082H13v10.556h10.556v-2.112H16.34c2.506-6.189 8.571-10.554 15.66-10.554 7.87 0 14.482 5.38 16.356 12.666h2.164C48.603 19.316 41.043 13 32 13M13.479 36.222C15.399 44.684 22.958 51 32 51c7.36 0 13.734-4.184 16.888-10.304v6.082H51V36.222H40.444v2.112h7.216C45.154 44.523 39.089 48.888 32 48.888c-7.87 0-14.482-5.38-16.356-12.666z" style="fill:#fff;stroke-width:1.895;stroke-linecap:round;stroke-linejoin:round"/>
</svg>
