<svg xmlns="http://www.w3.org/2000/svg" xmlns:xlink="http://www.w3.org/1999/xlink" viewBox="0 0 64 64">
    <defs>
        <clipPath id="b">
            <path d="M0 0h64v64H0z"/>
        </clipPath>
        <clipPath id="c">
            <path d="M0 0h64v64H0z"/>
        </clipPath>
        <clipPath id="d">
            <path d="M0 0h64v64H0z"/>
        </clipPath>
        <mask id="g">
            <g filter="url(#a)">
                <path fill-opacity=".75" d="M-6.4-6.4h76.8v76.8H-6.4z"/>
            </g>
        </mask>
        <mask id="i">
            <g filter="url(#a)">
                <path fill-opacity=".75" d="M-6.4-6.4h76.8v76.8H-6.4z"/>
            </g>
        </mask>
        <mask id="k">
            <g filter="url(#a)">
                <path fill-opacity=".75" d="M-6.4-6.4h76.8v76.8H-6.4z"/>
            </g>
        </mask>
        <g id="h" clip-path="url(#b)">
            <path d="M17.695 40.629a1.01 1.01 0 0 0-.906.582.99.99 0 0 0 .145 1.066c3.148 3.828 8.914 5.657 14.734 5.707 5.82.047 11.789-1.695 15.363-5.605a1 1 0 0 0 .282-1.012 1.003 1.003 0 0 0-1.758-.332c-3.008 3.293-8.47 4.992-13.871 4.953-5.399-.043-10.641-1.86-13.207-4.98a1.03 1.03 0 0 0-.782-.38"/>
        </g>
        <g id="j" clip-path="url(#c)">
            <path d="M19.504 19.992c.828 0 1.5.672 1.5 1.504v2.996a1.5 1.5 0 0 1-3 0v-2.996c0-.832.672-1.504 1.5-1.504m0 0"/>
        </g>
        <g id="l" clip-path="url(#d)">
            <path d="M44.5 19.992c.828 0 1.5.672 1.5 1.504v2.996a1.5 1.5 0 0 1-3 0v-2.996c0-.832.672-1.504 1.5-1.504m0 0"/>
        </g>
        <linearGradient id="e" x1="132.21" x2="132.21" y1="42.152" y2="70.68" gradientTransform="matrix(1.87821 0 0 1.87841 -215.782 -72.542)" gradientUnits="userSpaceOnUse">
            <stop offset="0" stop-color="#15c7f8"/>
            <stop offset="1" stop-color="#1b63dc"/>
        </linearGradient>
        <linearGradient id="f" x1="57.544" x2="57.544" y1="26.41" y2=".845" gradientTransform="matrix(1.92501 0 0 1.92521 -64.78 5.305)" gradientUnits="userSpaceOnUse">
            <stop offset="0" stop-color="#b8d7ff"/>
            <stop offset="1" stop-color="#f5f5f5"/>
        </linearGradient>
        <filter id="a" width="100%" height="100%" x="0%" y="0%">
            <feColorMatrix color-interpolation-filters="sRGB" values="0 0 0 0 1 0 0 0 0 1 0 0 0 0 1 0 0 0 1 0"/>
        </filter>
    </defs>
    <path fill="url(#e)" d="M16 3.93c-6.648 0-12 5.351-12 12v32c0 6.648 5.352 12 12 12h20.93c-1.758-6.688-2.325-13.946-2.938-21.18-.195-1.832-.484-2.262-1.726-2.312l-5.344-.211c-1.363-.106-1.504-2.094-1.418-3.739.66-8.383 3.492-18.406 6.5-28.558h15.582Zm0 0"/>
    <path fill="url(#f)" d="M47.715 3.93H32.004c-3.008 10.156-5.84 20.175-6.5 28.558-.086 1.649.055 3.633 1.418 3.739l5.348.21c1.242.051 1.527.481 1.722 2.313.613 7.234 1.18 14.492 2.938 21.18H48c6.648 0 12-5.352 12-12v-32c0-6.649-5.352-12-12-12Zm0 0"/>
    <g mask="url(#g)">
        <use xlink:href="#h"/>
    </g>
    <g mask="url(#i)">
        <use xlink:href="#j"/>
    </g>
    <g mask="url(#k)">
        <use xlink:href="#l"/>
    </g>
</svg>
