<svg xmlns="http://www.w3.org/2000/svg" xmlns:xlink="http://www.w3.org/1999/xlink" width="64" height="64" viewBox="0 0 64 64">
    <defs>
        <linearGradient xlink:href="#a" id="b" x1="16" x2="16" y1="30" y2="2" gradientTransform="scale(2)" gradientUnits="userSpaceOnUse"/>
        <linearGradient id="a">
            <stop offset="0" style="stop-color:#272727;stop-opacity:1"/>
            <stop offset="1" style="stop-color:#5d5d5d;stop-opacity:1"/>
        </linearGradient>
    </defs>
    <rect width="56" height="56" x="4" y="4" rx="12" style="fill:url(#b);stroke-width:2"/>
    <path d="M32 4v56h16c6.648 0 12-5.352 12-12V16c0-6.648-5.352-12-12-12Z" style="opacity:.1;fill:#fff;stroke-width:4;stroke-linecap:round;stroke-linejoin:round"/>
    <path d="M10 14v2l8 4-8 4v2l10-5v-2zm26 0v2l8 4-8 4v2l10-5v-2ZM20 26v2h8v-2zm26 0v2h8v-2z" style="fill:#fff;stroke-width:1.66905"/>
</svg>
