<svg xmlns="http://www.w3.org/2000/svg" viewBox="0 0 64 64">
    <defs>
        <linearGradient id="b" x1="16" x2="16" y1="30" y2="2" gradientTransform="scale(2)" gradientUnits="userSpaceOnUse" href="#a"/>
        <linearGradient id="a">
            <stop offset="0" stop-color="#dc2626"/>
            <stop offset="1" stop-color="#ff5151"/>
        </linearGradient>
        <linearGradient id="c" x1="32" x2="32" y1="16" y2="48" gradientUnits="userSpaceOnUse">
            <stop offset="0" style="stop-color:#fff"/>
            <stop offset="1" style="stop-color:#fff;stop-opacity:.9"/>
        </linearGradient>
    </defs>
    <rect width="56" height="56" x="4" y="4" rx="12" style="fill:url(#b);stroke-width:2"/>
    <path d="M33.407 46.99c-3.92-1.509-5.973-1.178-7.584-1.123-1.712.157-3.368.63-5.046 1.218-.92.286-.921.27-.062-.754 2.645-2.469 5.716-4.488 8.782-5.149 2.226 0 3.699-1.901 3.223-3.48-1.788-3.105-6.72-7.157-6.72-8.261 0-.925 1.513-3.272 3.492-5.5.875-.987 2.053-1.775 1.78-2.043-.57-.56-6.026-1.631-8.575-1.631-2.037 0-3.832 1.463-3.832 2.898 0 .398.25 1.503 1.045 2.456l1.445 1.732c-.956 1.163-1.364 2.423-3.008 2.423-2.358 0-2.358-2.036-2.345-4.016.333-4.85 7.272-10.397 13.836-9.7 4.151.44 7.79.69 11.765 1.007 2.211.116 3.597-.089 5.671-.927 1.503-.607.545 1.347-1.705 3.476-2.706 2.562-4.307 3.21-8.641 2.784-3.242-.319-4.13.354-4.872 2.464-.59 1.675.853 3.27 3.915 6.679 1.51 1.68 2.04 2.766 2.029 3.828-.01.95-.411 1.882-1.583 3.205-1.033 1.167-2.424 2.327-2.276 2.579.463.79 3.533 2.578 5.205 2.578.882 0 3.346-.59 4.336-1.122 1.674-.9 2.384-.891 2.384.027 0 .728-6.069 5.37-9.082 5.362-.549-.002-2.158-.465-3.577-1.01" style="stroke-width:1.03279;fill:url(#c)"/>
</svg>
