<svg xmlns="http://www.w3.org/2000/svg" xmlns:xlink="http://www.w3.org/1999/xlink" width="64" height="64" viewBox="0 0 64 64">
    <defs>
        <linearGradient id="a">
            <stop offset="0" style="stop-color:#eaebed;stop-opacity:1"/>
            <stop offset="1" style="stop-color:#f9fafa;stop-opacity:1"/>
        </linearGradient>
        <linearGradient xlink:href="#a" id="b" x1="16" x2="16" y1="30" y2="2" gradientTransform="scale(2)" gradientUnits="userSpaceOnUse"/>
    </defs>
    <rect width="56" height="56" x="4" y="4" rx="12" style="fill:url(#b);stroke-width:2"/>
    <path d="M16 22c-2.216 0-4 1.784-4 4v22c0 2.216 1.784 4 4 4h22c2.216 0 4-1.784 4-4V26c0-2.216-1.784-4-4-4Zm4 6h14c1.108 0 2 .892 2 2v14c0 1.108-.892 2-2 2H20c-1.108 0-2-.892-2-2V30c0-1.108.892-2 2-2" style="fill:#f38b00;fill-opacity:1;stroke-width:7.99999;stroke-linecap:square"/>
    <path d="M26 12c-2.216 0-4 1.784-4 4v6h6v-2c0-1.108.892-2 2-2h14c1.108 0 2 .892 2 2v14c0 1.108-.892 2-2 2H30c-1.108 0-2-.892-2-2v-6h-6v10c0 2.216 1.784 4 4 4h22c2.216 0 4-1.784 4-4V16c0-2.216-1.784-4-4-4z" style="fill:#0097d3;fill-opacity:1;stroke-width:7.99999;stroke-linecap:square"/>
</svg>
