<svg xmlns="http://www.w3.org/2000/svg" xmlns:xlink="http://www.w3.org/1999/xlink" width="64" height="64" viewBox="0 0 64 64">
    <defs>
        <linearGradient xlink:href="#a" id="b" x1="16" x2="16" y1="30" y2="2" gradientTransform="scale(2)" gradientUnits="userSpaceOnUse"/>
        <linearGradient id="a">
            <stop offset="0" style="stop-color:#ffb251;stop-opacity:1"/>
            <stop offset="1" style="stop-color:#ffde75;stop-opacity:1"/>
        </linearGradient>
    </defs>
    <rect width="56" height="56" x="4" y="4" rx="12" style="fill:url(#b);stroke-width:2"/>
    <path d="M31.997 12a19.9 19.9 0 0 0-9.436 2.366h3.973v.27q-.794.036-1.079.416-.606-.417-1.18-.417h-1.302l-.733.112-.127-.112h-.04q-.781.448-1.516.962 1.682 2.412 2.03 4.16h1.083v.27h-.83v.3q.479 1.749.703 1.75h.254l.575-.152.127.153.127-.153.127.153v.111a2.23 2.23 0 0 0-.86 1.257h-.096v.265h.224q.447 6.343 1.658 9.61l.473.376h.255q.479 0 2.01-4.442.984-2.011 1.429-3.53l-.128-.422q.989-1.481 2.04-1.48h.224c.446 0 .76.277.951.834.595.835 1.074 2.093 1.435 3.764l1.786 3.948q.348.418.346.951.987 2.24 1.785 2.96h.382q.666 0 1.78-5.544.192 0 1.053-2.96v-.153l-2.004-.265-.478.148h-.606v-.3l1.211-.118h2.355q1.369-4.898 2.513-7.595c.08-1.149.172-2.097.27-2.89a20 20 0 0 0-4.594-2.863c-.136.314-.399.473-.798.473v-.265l.737-.239A19.9 19.9 0 0 0 31.997 12m-3.805 2.366h3.215v.27l-.732.111-.702-.112-.606.265-.218-.265h-.957zm6.654 2.167h.351v.112q0 .265-.35.264l-.128.153v.152l-.351-.152v-.265zm-17.098 1.44A19.93 19.93 0 0 0 12 32.002C12 43.048 20.952 52 31.997 52S52 43.048 52 32.003a19.92 19.92 0 0 0-3.932-11.914q-.806.955-1.567 3.622-.352 2.773-1.18 5.127-.733 2.43-.733 4.482l-.92 2.696q-.002.341 1.047.682-.192.799-.575.799v.152h.224v.112q0 .418-1.083.417l.132.153v.534h-.224c.149.532.463.794.951.794v.27h-.95v.152q.476-.001.477.682l-1.338.529.128.152v.117q0 .266-.479.265v.152q.606 0 .606.265-.861.343-2.264 3.383-1.432 2.697-2.483 2.696h-.254q-.794-.609-1.302-4.029-2.04-5.203-2.04-6.115-.001-2.354-1.307-5.01c-.234-.785-.389-1.776-.474-2.966l-.574-.148q-2.164 3.912-2.26 6.115-.604 1.29-.956 3.113 1.304.419 1.303.799v.147q-1.018-.15-1.43-.57-.447 1.026-1.18 5.698c-.382 1.443-.856 2.167-1.43 2.167q-2.42-.949-4.044-3.113-.256-.001-.829-2.167-.35.001-.478-2.162-1.209-3.079-1.653-7.03v-3.948H18.8l-.574.153v-.153q0-.265.574-.265l-.127-2.279v-1.785l-.926-5.698zm15.313.04v.153q0 .303-1.526.646v-.27l.702-.376.127.112h.096zm-3.434 1.368v.112q-.67.609-2.167 1.104v-.27q.255 0 .254-.417zm18.008.153-.056.493h.224l.138-.106q-.15-.196-.306-.387m-11.96 1.175.128.153v.112l-.224.305h-.127l-.255-.305v-.112zm4.39.153h.128v.112l-.219.305h-.127v-.153zm-2.004 1.897.478.382q-.128.417-.702.417l-.254-.417q0-.191.478-.382m2.864 1.75.097.148v.117l-.097.152h-.254v-.152zm-4.517 1.364v.117l-.605.57h-.351v-.153q.001-.344.956-.534m-19.743 5.28h.127v.117c-.318.836-.59 1.339-.824 1.516h-.254v-.57zm15.572 6.344h.127v.264l-.957.57-.127-.153v-.264zm-13.085 1.785h.22l.38 1.48h-.254l-.346-1.368zm12.734 1.745h.096l.382.417-.127.117h-.128l-.223-.381z" style="display:inline;fill:#fff;fill-opacity:1;stroke:none;stroke-width:1"/>
</svg>
