<svg xmlns="http://www.w3.org/2000/svg" viewBox="0 0 64 64">
    <defs>
        <linearGradient id="a" x1="65.411" x2="65.411" y1="3.153" y2="59.155" gradientTransform="translate(-33.411 .846)" gradientUnits="userSpaceOnUse">
            <stop offset="0" style="stop-opacity:.1;stop-color:#fff"/>
            <stop offset="1" style="stop-opacity:.1"/>
        </linearGradient>
    </defs>
    <rect width="56" height="56" x="4" y="4" rx="12" style="stroke-width:1;fill:#f5f5f5"/>
    <rect width="56" height="56" x="4" y="4" rx="12" style="stroke-width:1;fill:url(#a)"/>
    <g fill-rule="evenodd" stroke-opacity=".255" stroke-width=".215">
        <path fill="#201f1f" d="M34.863 29.187c0 2.104.053 3.852-.962 5.72-.818 1.512-2.118 2.442-3.563 2.442-1.98 0-3.127-1.574-3.127-3.9 0-4.592 3.935-5.43 7.652-5.43zm5.193 13.13a1.039 1.04 0 0 1-1.214.132c-1.706-1.484-2.012-2.175-2.957-3.592-2.825 3.016-4.82 3.918-8.485 3.918-4.333 0-7.71-2.798-7.71-8.394 0-4.371 2.267-7.354 5.49-8.809 2.787-1.285 6.693-1.512 9.68-1.866v-.7c0-1.275.093-2.792-.619-3.899-.629-.992-1.834-1.403-2.891-1.403-1.967 0-3.714 1.053-4.14 3.237-.094.488-.424.959-.897.983l-4.993-.558c-.42-.1-.884-.454-.77-1.129C21.707 13.913 27.173 12 32.067 12c2.504 0 5.778.7 7.748 2.684 2.509 2.443 2.267 5.708 2.267 9.262v8.394c0 2.524 1.003 3.63 1.943 4.995.33.482.406 1.069-.01 1.432a247.506 247.59 0 0 0-3.95 3.578l-.019-.019"/>
        <path fill="#f90" d="M48.154 46.929C43.774 50.236 37.428 52 31.958 52a28.899 28.909 0 0 1-19.78-7.741c-.411-.379-.047-.898.449-.6a39.07 39.083 0 0 0 19.795 5.377 38.447 38.46 0 0 0 15.1-3.166c.74-.321 1.364.496.637 1.054"/>
        <path fill="#f90" d="M49.976 44.793c-.556-.738-3.702-.35-5.106-.175-.434.047-.5-.33-.109-.61 2.5-1.805 6.614-1.285 7.088-.675.476.605-.124 4.825-2.482 6.837-.358.313-.7.143-.537-.264.519-1.35 1.71-4.381 1.147-5.112"/>
    </g>
</svg>
