<svg xmlns="http://www.w3.org/2000/svg" style="fill-rule:evenodd;clip-rule:evenodd;stroke-linejoin:round;stroke-miterlimit:2" viewBox="0 0 64 64">
    <rect width="56" height="56" x="4" y="4" rx="12" ry="12" style="fill:url(#a)"/>
    <defs>
        <linearGradient id="a" x1="32" x2="32" y1="4" y2="60" gradientUnits="userSpaceOnUse">
            <stop offset="0" style="stop-color:#fb923c"/>
            <stop offset="1" style="stop-color:#ea580c"/>
        </linearGradient>
        <clipPath id="b">
            <path fill="#fff" d="M-9.936-10.226h82.582v82.581H-9.936z" style="stroke-width:1"/>
        </clipPath>
    </defs>
    <path d="M52 31.384c0-2.452-1.969-4.444-4.393-4.444a4.2 4.2 0 0 0-3.024 1.244c-2.987-2.168-7.135-3.592-11.704-3.769l2.004-9.495 6.502 1.387c.071 1.672 1.44 3.022 3.128 3.022 1.723 0 3.128-1.422 3.128-3.163 0-1.743-1.407-3.166-3.128-3.166-1.23 0-2.283.711-2.776 1.779l-7.277-1.566a.87.87 0 0 0-.597.107c-.175.107-.282.284-.352.499l-2.214 10.597c-4.676.141-8.857 1.527-11.88 3.767a4.4 4.4 0 0 0-3.024-1.243c-2.425 0-4.393 1.99-4.393 4.444a4.44 4.44 0 0 0 2.601 4.055 8.6 8.6 0 0 0-.105 1.351c0 6.827 7.839 12.339 17.538 12.339 9.703 0 17.541-5.512 17.541-12.339a8 8 0 0 0-.107-1.317A4.6 4.6 0 0 0 52 31.384M21.947 34.55c0-1.742 1.406-3.166 3.129-3.166s3.128 1.423 3.128 3.166-1.407 3.164-3.13 3.164-3.126-1.424-3.126-3.166zm17.47 8.355c-2.145 2.169-6.223 2.312-7.417 2.312s-5.307-.177-7.417-2.31a.845.845 0 0 1 0-1.174.82.82 0 0 1 1.161 0c1.336 1.351 4.217 1.848 6.29 1.848s4.922-.497 6.293-1.848a.82.82 0 0 1 1.161 0c.245.355.245.852-.071 1.174zm-.562-5.192c-1.723 0-3.128-1.421-3.128-3.163s1.406-3.166 3.128-3.166 3.128 1.423 3.128 3.166-1.406 3.164-3.128 3.164z" clip-path="url(#b)" style="stroke-width:1;fill:#fff"/>
</svg>
