<svg xmlns="http://www.w3.org/2000/svg" viewBox="0 0 64 64">
    <defs>
        <linearGradient id="a" x1="65.411" x2="65.411" y1="3.153" y2="59.155" gradientTransform="translate(-33.411 .846)" gradientUnits="userSpaceOnUse">
            <stop offset="0" style="stop-color:#f3f4f6"/>
            <stop offset="1" style="stop-color:#e5e7eb"/>
        </linearGradient>
    </defs>
    <rect width="56" height="56" x="4" y="4" rx="12" style="stroke-width:1;fill:url(#a)"/>
    <path d="M19.7 19.142h-7.4l-2.94 1.881-.21 3.571c.31.184.664.275 1.031.275h11.638c.367 0 .722-.103 1.03-.275l-.563-3.767z" style="fill:#2684fc;stroke-width:.229094" transform="scale(2)"/>
    <path d="m7.512 22.315.882 1.523c.183.321.447.573.756.756l3.15-5.452H6c0 .355.092.71.275 1.031z" style="fill:#0066da;stroke-width:.229094" transform="scale(2)"/>
    <path d="m16 12.727-3.15-5.452a2.1 2.1 0 0 0-.756.756l-5.82 10.08A2.1 2.1 0 0 0 6 19.142h6.3Z" style="fill:#00ac47;stroke-width:.229094" transform="scale(2)"/>
    <path d="M22.85 24.594a2.1 2.1 0 0 0 .756-.756l.367-.63 1.752-3.035c.183-.32.275-.676.275-1.031h-6.3l1.34 2.635z" style="fill:#ea4335;stroke-width:.229094" transform="scale(2)"/>
    <path d="m16 12.727 3.15-5.452A2 2 0 0 0 18.12 7h-4.24c-.366 0-.72.103-1.03.275z" style="fill:#00832d;stroke-width:.229094" transform="scale(2)"/>
    <path d="m22.816 13.071-2.91-5.04a2.1 2.1 0 0 0-.756-.756L16 12.727l3.7 6.415h6.289c0-.355-.092-.71-.275-1.03z" style="fill:#ffba00;stroke-width:.229094" transform="scale(2)"/>
</svg>
