<svg xmlns="http://www.w3.org/2000/svg" viewBox="0 0 64 64">
    <defs>
        <linearGradient id="b" x1="32.081" x2="32.081" y1="17.696" y2="58.996" gradientUnits="userSpaceOnUse">
            <stop offset="0" stop-color="#eaea56"/>
            <stop offset="1" stop-color="#eab756"/>
        </linearGradient>
        <linearGradient id="a" x1="7.937" x2="7.937" y1="15.081" y2="1.852" gradientTransform="translate(0 .031)scale(3.7796)" gradientUnits="userSpaceOnUse">
            <stop offset="0" stop-color="#dc2626"/>
            <stop offset="1" stop-color="#f87171"/>
        </linearGradient>
    </defs>
    <rect width="56" height="56" x="4" y="4" fill="url(#a)" rx="12" style="stroke-width:1"/>
    <path fill="url(#b)" d="M32 14.957c-8.74 0-15.83 7.085-15.826 15.826a15.82 15.82 0 0 0 9.335 14.419L19.683 60h3.484l5.162-13.84c1.202.293 2.434.449 3.67.45 8.741.004 15.827-7.086 15.827-15.827S40.74 14.957 32 14.957"/>
    <path fill="#3d3d3d" d="M25.305 22.261a5.48 5.48 0 0 0-5.478 5.478 5.48 5.48 0 0 0 5.478 5.478 5.48 5.48 0 0 0 5.478-5.478 5.48 5.48 0 0 0-5.478-5.478m13.391 0a5.48 5.48 0 0 0-5.478 5.478 5.48 5.48 0 0 0 5.478 5.478 5.48 5.48 0 0 0 5.478-5.478 5.48 5.48 0 0 0-5.478-5.478"/>
    <path fill="#f9f9f9" d="M25.305 23.477a4.26 4.26 0 0 0-1.657 8.186 2.4 2.4 0 0 1-.169-.882 2.434 2.434 0 0 1 4.867-.064 4.257 4.257 0 0 0-3.04-7.24zm13.391 0a4.257 4.257 0 0 0-3.041 7.24 2.434 2.434 0 0 1 4.867.064 2.4 2.4 0 0 1-.169.882 4.261 4.261 0 0 0-1.657-8.186"/>
</svg>
