<svg xmlns="http://www.w3.org/2000/svg" xmlns:xlink="http://www.w3.org/1999/xlink" width="64" height="64" viewBox="0 0 64 64">
    <defs>
        <linearGradient xlink:href="#a" id="b" x1="16" x2="16" y1="30" y2="2" gradientTransform="scale(2)" gradientUnits="userSpaceOnUse"/>
        <linearGradient id="a">
            <stop offset="0" style="stop-color:#0f670f;stop-opacity:1"/>
            <stop offset="1" style="stop-color:#42ab16;stop-opacity:1"/>
        </linearGradient>
    </defs>
    <rect width="56" height="56" x="4" y="4" rx="12" style="fill:url(#b);stroke-width:2"/>
    <path d="M30.006 51.918c-3.082-.295-6.201-1.401-8.881-3.149-2.246-1.463-2.752-2.066-2.752-3.267 0-2.413 2.654-6.64 7.196-11.457 2.58-2.737 6.172-5.943 6.56-5.857.756.17 6.795 6.057 9.057 8.829 3.575 4.381 5.218 7.97 4.383 9.57-.635 1.216-4.574 3.593-7.467 4.506-2.385.753-5.517 1.072-8.096.825M15.34 42.993c-1.866-2.86-2.81-5.678-3.264-9.752-.15-1.345-.098-2.114.34-4.876.546-3.438 2.507-7.42 4.864-9.869 1.003-1.04 1.092-1.068 2.316-.655 1.483.502 3.068 1.597 5.528 3.82l1.436 1.298-.786.962c-3.639 4.465-7.48 10.798-8.926 14.715-.785 2.128-1.101 4.265-.762 5.155.228.601.018.377-.749-.796zm32.754.487c.184-.9-.05-2.551-.596-4.217-1.183-3.608-5.139-10.32-8.77-14.884l-1.145-1.436 1.238-1.136c1.615-1.482 2.736-2.37 3.947-3.123.955-.595 2.319-1.122 2.906-1.122.361 0 1.634 1.325 2.662 2.765 1.592 2.23 2.762 4.94 3.355 7.755.384 1.821.416 5.715.062 7.532-.293 1.49-.906 3.422-1.501 4.733-.451.982-1.562 2.89-2.05 3.51-.252.32-.252.319-.112-.37zm-17.758-26.6c-1.677-.85-4.263-1.763-5.69-2.01a10.5 10.5 0 0 0-1.898-.106c-1.179.06-1.126-.002.764-.895 1.572-.742 2.883-1.178 4.663-1.552 2.002-.42 5.765-.425 7.735-.01 2.127.449 4.632 1.38 6.044 2.249l.42.257-.962-.048c-1.914-.096-4.703.676-7.696 2.132-.903.44-1.688.79-1.746.78-.057-.011-.793-.37-1.636-.797z" style="fill:#fff;stroke-width:2"/>
</svg>
