<svg xmlns="http://www.w3.org/2000/svg" width="64" height="64">
    <defs>
        <linearGradient id="a" x1="7.937" x2="7.937" y1="15.081" y2="1.852" gradientTransform="translate(0 .032)scale(3.7795)" gradientUnits="userSpaceOnUse">
            <stop offset="0" stop-color="#1cca9b"/>
            <stop offset="1" stop-color="#a5f976"/>
        </linearGradient>
    </defs>
    <rect width="56" height="56" x="4" y="4" fill="url(#a)" rx="12"/>
    <circle cx="32" cy="32" r="30.001" fill="none"/>
    <path fill="#fff" d="M28 4v29l2-2 2 2 2-2s2 2 2 1.943V4z" opacity=".75"/>
    <path fill="#fff" d="M17.002 4A12.974 12.974 0 0 0 4 17.002v29.996A12.974 12.974 0 0 0 17.002 60H25V4z" opacity=".25"/>
    <path fill="#fff" d="M16 36a6 6 0 0 0-6 6 6 6 0 0 0 6 6 6 6 0 0 0 6-6 6 6 0 0 0-6-6m-3 3h2v2h2v-2h2v4h-2v2h-2v-2h-2z" opacity=".75" style="paint-order:markers stroke fill"/>
</svg>
