<svg xmlns="http://www.w3.org/2000/svg" width="64" height="64">
    <defs>
        <linearGradient id="c" x1="46.949" x2="46.949" y1="35.914" y2="59.335" gradientUnits="userSpaceOnUse">
            <stop offset="0" stop-color="#333"/>
            <stop offset="1" stop-color="#616161"/>
        </linearGradient>
        <linearGradient id="a" x1="7.937" x2="7.937" y1="15.081" y2="1.852" gradientTransform="translate(0 .032)scale(3.7795)" gradientUnits="userSpaceOnUse">
            <stop offset="0" stop-color="#1cca9b"/>
            <stop offset="1" stop-color="#a5f976"/>
        </linearGradient>
        <filter id="b" width="1.216" height="1.216" x="-.108" y="-.108" color-interpolation-filters="sRGB">
            <feGaussianBlur stdDeviation="1.26"/>
        </filter>
    </defs>
    <linearGradient id="d" x1="22" x2="22" y1="30" y2="8" gradientTransform="matrix(0 -1.6667 -1.6667 0 83.302 83.462)" gradientUnits="userSpaceOnUse">
        <stop offset="0" stop-color="#cfd2d5"/>
        <stop offset="1" stop-color="#eff0f1"/>
    </linearGradient>
    <rect width="56" height="56" x="4" y="4" fill="url(#a)" rx="12"/>
    <circle cx="32" cy="32" r="30.001" fill="none"/>
    <path fill="#fff" d="M28 4v29l2-2 2 2 2-2s2 2 2 1.943V4z" opacity=".75"/>
    <path fill="#fff" d="M17.002 4A12.974 12.974 0 0 0 4 17.002v29.996A12.974 12.974 0 0 0 17.002 60H25V4z" opacity=".25"/>
    <path fill="#fff" d="M16 36a6 6 0 0 0-6 6 6 6 0 0 0 6 6 6 6 0 0 0 6-6 6 6 0 0 0-6-6m-3 3h2v2h2v-2h2v4h-2v2h-2v-2h-2z" opacity=".75" style="paint-order:markers stroke fill"/>
    <circle cx="46.635" cy="47.579" r="14" filter="url(#b)" opacity=".35" style="paint-order:markers stroke fill"/>
    <circle cx="46.635" cy="46.796" r="14" fill="url(#c)" style="paint-order:markers stroke fill"/>
    <path fill="url(#d)" d="M56.635 46.796a9.93 9.93 0 0 1-1.407 5.052l-4.478-4.479 1.197-1.198 2.708 2.708c.087-.325.163-.65.208-.99.014-.086.044-.171.054-.26a8 8 0 0 0 .051-.833 8.333 8.333 0 0 0-8.333-8.333c-.405 0-.81.046-1.198.105-.227.033-.457.051-.677.103a8 8 0 0 0-1.355.468c-.05.024-.105.03-.155.054-.153.066-.273.18-.417.26-.013.006-.038-.009-.053 0l-1.197-1.25a9.93 9.93 0 0 1 5.052-1.407 10 10 0 0 1 10 10m-4.948 8.593a9.93 9.93 0 0 1-5.052 1.407 10 10 0 0 1-10-10 9.93 9.93 0 0 1 1.407-5.052l1.25 1.25 3.176 3.229-1.146 1.146-2.709-2.656a9 9 0 0 0-.208.99c-.012.086-.042.171-.05.26-.03.28-.053.545-.053.833s.023.553.051.833c.029.28.05.562.105.834a8.36 8.36 0 0 0 8.177 6.666c.413 0 .8-.046 1.198-.105.227-.033.457-.051.677-.103a8 8 0 0 0 1.355-.468c.05-.022.105-.03.155-.054.15-.066.275-.18.417-.26h.053z"/>
</svg>
