<svg xmlns="http://www.w3.org/2000/svg" width="16" height="16"><path d="M8 0a8 8 0 0 0-.7.035q-.18.019-.359.045a7 7 0 0 0-.416.063 8 8 0 0 0-.37.082 7 7 0 0 0-.42.107Q5.57.383 5.41.439a8 8 0 0 0-.433.16 8 8 0 0 0-.319.143q-.198.09-.392.19A8 8 0 0 0 0 8a8 8 0 0 0 4.129 7h.017a8 8 0 0 0 3.674.992L8 16q.35-.003.7-.035.18-.018.359-.045.209-.026.416-.063.176-.036.351-.078.234-.053.461-.119.13-.04.258-.086.244-.08.482-.176.147-.06.291-.128A8 8 0 0 0 15 11.87v-.016a8 8 0 0 0 .992-3.673L16 8a8 8 0 0 0-.035-.7 8 8 0 0 0-.045-.359 8 8 0 0 0-.063-.416 8 8 0 0 0-.082-.37 8 8 0 0 0-.107-.42 8 8 0 0 0-.107-.325 8 8 0 0 0-.16-.433 8 8 0 0 0-.143-.319 8 8 0 0 0-.19-.392 8 8 0 0 0-3.158-3.24l-.015-.003A8 8 0 0 0 9.658.178a8 8 0 0 0-.69-.114l-.1-.015h-.01a8 8 0 0 0-.506-.031A7 7 0 0 0 8 0m0 1a7 7 0 0 1 7 7 7 7 0 0 1-7 7 7 7 0 0 1-7-7 7 7 0 0 1 7-7m3.52 3.984a.47.47 0 0 0-.276.09l-3.36 2.002a1 1 0 0 0-.782.008l-2.346-.992c-.206-.152-.487-.094-.592.047l-.086.113c-.126.17-.106.495.1.648l2.33.983a1 1 0 0 0 .492.98V11.5c0 .277.208.5.469.5h.062c.26 0 .469-.223.469-.5V8.865a1 1 0 0 0 .49-1l3.332-1.982c.206-.152.226-.479.1-.649l-.086-.113a.38.38 0 0 0-.258-.133z" style="color:gray;fill:currentColor"/></svg>