<svg xmlns="http://www.w3.org/2000/svg" viewBox="0 0 16 16"><g fill="gray"><path d="M12.436 12.706c0 .003.01.006.01.01 0 .005.01.01.01.015zm-8.879.002-.02.026c0-.005.01-.01.01-.015 0-.003.01-.006.01-.01z" font-family="Ubuntu" font-size="15" font-weight="400" letter-spacing="0" text-anchor="middle" word-spacing="0"/><path d="M8 0C3.587 0 0 3.587 0 8s3.587 8 8 8 8-3.587 8-8-3.586-8-8-8m0 1a7 7 0 0 1 7 7 7 7 0 0 1-7 7 7 7 0 0 1-7-7 7 7 0 0 1 7-7" font-family="sans-serif" font-weight="400" overflow="visible" style="font-feature-settings:normal;font-variant-alternates:normal;font-variant-caps:normal;font-variant-ligatures:none;font-variant-numeric:normal;font-variant-position:normal;isolation:auto;mix-blend-mode:normal;shape-padding:0;text-decoration-color:#000;text-decoration-line:none;text-decoration-style:solid;text-indent:0;text-transform:none"/><path d="M14.737 1.263c-1.684-1.684-2.526-1.684-4.21 0l-.15.15a5.95 5.95 0 0 1 2.676 1.534 5.96 5.96 0 0 1 1.536 2.674l.148-.147c1.684-1.685 1.684-2.527 0-4.21zm-13.474 0c-1.684 1.684-1.684 2.526 0 4.21l.15.15a5.96 5.96 0 0 1 1.534-2.676 5.96 5.96 0 0 1 2.674-1.536l-.147-.148C3.79-.42 2.947-.42 1.264 1.263z" overflow="visible"/><path fill-rule="evenodd" d="M7.5 3v5.207l3.146 3.147.707-.708L8.5 7.793V3z" font-family="sans-serif" font-weight="400" overflow="visible" style="font-feature-settings:normal;font-variant-alternates:normal;font-variant-caps:normal;font-variant-ligatures:normal;font-variant-numeric:normal;font-variant-position:normal;isolation:auto;mix-blend-mode:normal;shape-padding:0;text-decoration-color:#000;text-decoration-line:none;text-decoration-style:solid;text-indent:0;text-orientation:mixed;text-transform:none"/></g></svg>