<svg xmlns="http://www.w3.org/2000/svg" width="16" height="16" viewBox="0 0 16 16"><path d="M1.991 15.483a1.5 1.5 0 0 1-1.5-1.35V2.983c0-.78.6-1.42 1.36-1.5h4.64c.78 0 1.42.6 1.5 1.36v.4l2.19-2.27a1.5 1.5 0 0 1 2-.14l.12.1 2.76 2.72c.55.55.6 1.42.11 2.02l-.1.11-2.31 2.2h.23c.78 0 1.42.6 1.5 1.36v4.64c0 .78-.6 1.42-1.36 1.5zm5-6.5h-5.5v5c0 .22.14.4.33.47l.08.02.09.01h5zm6 0h-5v5.5h5a.5.5 0 0 0 .5-.4v-4.6a.5.5 0 0 0-.41-.5zm-5-2.79v1.79h1.79zm-1.5-3.7h-4.5a.5.5 0 0 0-.5.4v5.1h5.5v-5a.5.5 0 0 0-.33-.48l-.08-.02zm5.12-.84a.5.5 0 0 0-.64-.05l-.07.06-2.62 2.71a.5.5 0 0 0-.05.63l.06.07 2.61 2.62c.17.17.43.2.62.07l.08-.06 2.76-2.63a.5.5 0 0 0 .05-.64l-.05-.06z" style="fill:gray"/></svg>