<svg xmlns="http://www.w3.org/2000/svg" width="14.031" height="13.884" viewBox="1 1.1 16 16"><path fill="gray" d="m16.015 3.22-1.801 1.8a7 7 0 0 0-.837-1.285l1.576-1.577zm-4.773 2.65c.315.441.537.942.65 1.472l-4.408 4.407L3.99 8.256c-.001-.023-.006-.045-.006-.068a4 4 0 0 1 .377-1.684l3.123 3.124zM7.984 2.189c3.31 0 6 2.69 6 6a5.97 5.97 0 0 1-1.422 3.87l3.276 3.276-.708.707-3.275-3.276a5.97 5.97 0 0 1-3.871 1.422c-3.31 0-6-2.69-6-6s2.69-6 6-6zm0 .999a5 5 0 0 0-4.33 2.5c-1.925 3.333.481 7.5 4.33 7.5a5 5 0 0 0 4.33-2.5c1.925-3.333-.481-7.5-4.33-7.5"/></svg>