<svg xmlns="http://www.w3.org/2000/svg" viewBox="0 0 16 16"><path d="M3.848 0v.615c0 .372-.17.788-.405 1.24-.63 1.097-1.28 2.165-1.433 3.432L2 16h1l.01-10.713c.153-1.267.803-2.335 1.433-3.432.235-.452.405-.868.405-1.24V0Zm2.998 0v.615c0 .372-.17.788-.405 1.24-.63 1.097-1.278 2.165-1.431 3.432L5 16h1l.01-10.713c.153-1.267.8-2.335 1.431-3.432.236-.452.405-.868.405-1.24V0ZM10 0v.615c-.315 1.678-1.795 3.18-2 4.686V16h6V5.3c-.321-1.815-1.547-3.08-2-4.685V0Zm.896 1h.192C11.64 2.833 12.734 4.024 13 5.438V15H9V5.414c.07-.478.4-1.139.83-1.902.402-.715.84-1.552 1.066-2.512" style="color:gray;fill:currentColor"/></svg>