<svg xmlns="http://www.w3.org/2000/svg" id="svg3" width="16" height="16" viewBox="0 0 16 16"><defs id="defs3"><style id="current-color-scheme" type="text/css">.ColorScheme-Text{color:gray}</style></defs><path id="path1" d="m11.211 1-.072.006v-.002a1 1 0 0 0-.444.166c.387-.211.797-.012.797.69v12.277c0 .683-.387.887-.763.705.156.09.37.177.562.154a.6.6 0 0 0 .2-.058l2.878-1.412c.315-.155.631-.281.631-.63v-9.79c0-.349-.316-.475-.63-.63l-2.88-1.413A.6.6 0 0 0 11.211 1m1.28 1.672 1.439.701c.048.024.03.018.066.037v9.184c-.036.019-.018.013-.066.037l-1.44.701V4.775z" class="ColorScheme-Text" style="fill:currentColor;stroke-width:3.77968"/><path id="path2" d="M10.951 1.09a.73.73 0 0 0-.435.21L5.084 6.32l2.191 1.678 4.217-3.224V1.859c0-.507-.215-.753-.48-.77zm-.46 1.598V4.28L7.279 6.74l-.642-.489Zm-7.223 5.31L1.146 9.96c-.182.168-.312.463-.082.682l.875.832c.345.328.739.043.891-.074l2.254-1.723zm.002 1.363.26.243-1.169.894-.154-.156z" class="ColorScheme-Text" style="opacity:.7;fill:currentColor;stroke-width:3.77968"/><path id="path3" d="M2.268 4.371a.5.5 0 0 0-.329.15l-.875.835c-.23.218-.1.514.082.681l9.37 8.66c.426.393.976.254.976-.56v-2.914L2.83 4.598c-.105-.082-.324-.241-.562-.227m.101 1.13 8.121 6.214v1.596L2.207 5.654Z" class="ColorScheme-Text" style="opacity:.85;fill:currentColor;stroke-width:3.77968"/></svg>