<svg xmlns="http://www.w3.org/2000/svg" width="16" height="16" viewBox="0 0 16 16"><path d="M2.5 2c-.277 0-.5.223-.5.5v2.586a1.5 1.5 0 0 0 0 2.828V13.5a.499.499 0 1 0 1 0V7.914a1.5 1.5 0 0 0 0-2.828V2.5c0-.277-.223-.5-.5-.5m5 0c-.277 0-.5.223-.5.5v5.586a1.5 1.5 0 0 0 0 2.828V13.5a.499.499 0 1 0 1 0v-2.586a1.5 1.5 0 0 0 0-2.828V2.5c0-.277-.223-.5-.5-.5m5 0c-.277 0-.5.223-.5.5v3.586a1.5 1.5 0 0 0 0 2.828V13.5a.499.499 0 1 0 1 0V8.914a1.5 1.5 0 0 0 0-2.828V2.5c0-.277-.223-.5-.5-.5" style="color:gray;fill:currentColor"/></svg>