<svg xmlns="http://www.w3.org/2000/svg" width="16" height="16" viewBox="0 0 16 16"><path d="M3 1c-1.108 0-2 .892-2 2v10c0 1.108.892 2 2 2h9c1.108 0 2-.892 2-2V3c0-1.108-.892-2-2-2Zm0 1h9c.554 0 1 .446 1 1v10c0 .554-.446 1-1 1H3c-.554 0-1-.446-1-1V3c0-.554.446-1 1-1m.164 2.334a.5.5 0 0 0-.262.934l3.112 2.037A1.5 1.5 0 0 0 7 8.915V12.5a.499.499 0 1 0 1 0V8.914a1.5 1.5 0 0 0 .986-1.611l3.112-2.035a.5.5 0 1 0-.5-.868l-3.07 2.006a1.5 1.5 0 0 0-2.055 0L3.403 4.4a.5.5 0 0 0-.239-.066" style="color:gray;fill:currentColor"/></svg>