<svg xmlns="http://www.w3.org/2000/svg" width="16" height="16" viewBox="0 0 16 16"><path fill="gray" d="M12.442 6.578a4.65 4.65 0 0 0-3.246 2.037 9 9 0 0 1-.94 1.172c-1.094-.395-1.927-.933-2.722-1.166a4.8 4.8 0 0 0-1.235-.178q-.166-.269-.324-.521c-.448-.71-1.04-1.07-1.64-1.182a2.4 2.4 0 0 0-.377-.037v1.152c.166.215.33.478.492.81q-.255.063-.492.138v.533a9 9 0 0 1 .712-.2c.735 1.567 1.803 2.33 3.063 2.39.562.026 1.085-.12 1.56-.366q.36.033.766.008a6 6 0 0 0 1.977-.457 8.7 8.7 0 0 0 1.855-.012q.438-.049.836-.224v-.551a2.4 2.4 0 0 1-.892.28q-.51.055-.97.052a4.2 4.2 0 0 0 1.223-1.307 2 2 0 0 1-.216-.62q-.06.098-.117.195l-.002.003v.004c-.418.79-1.054 1.329-1.791 1.67a7.5 7.5 0 0 1-1.18-.24c.31-.344.586-.71.826-1.065.658-.97 1.526-1.498 2.418-1.728a2 2 0 0 1 .416-.59M2.03 7.205q.108.006.215.025c.473.088.921.35 1.306.961l.166.268q-.39.03-.765.098c-.284-.599-.594-1.037-.922-1.352m2 1.748c.273.419.593.858 1.012 1.236.36.327.8.604 1.332.782q-.3.068-.616.054c-1.053-.05-1.912-.61-2.584-1.986a7 7 0 0 1 .856-.086m.62.018c.255.022.506.063.743.132.63.185 1.408.677 2.451 1.077q-.075.065-.152.127-.246.194-.506.341a3.2 3.2 0 0 1-1.808-.832 5 5 0 0 1-.729-.845m3.735 1.394q.287.09.6.166a6 6 0 0 1-.947.137q.18-.145.347-.303" opacity=".15"/><path fill="gray" d="m10.345 4.502-1.884.538v3.775a2.154 1.615 0 0 0-1.615-.547 2.154 1.615 0 0 0-2.154 1.615 2.154 1.615 0 0 0 2.154 1.615A2.154 1.615 0 0 0 9 9.883a2.154 1.615 0 0 0 0-.045V5.963l1.345-.384z"/><path fill="gray" d="M2 1c-.554 0-1 .446-1 1v12c0 .554.446 1 1 1h11c.554 0 1-.446 1-1v-1.125A7 7 0 0 0 16 8a7 7 0 0 0-2-4.896V2c0-.554-.446-1-1-1zm.115 1h10.77c.064 0 .115.052.115.115v3.063A3 3 0 0 0 11 8a3 3 0 0 0 2 2.822v3.063a.115.115 0 0 1-.115.115H2.115A.115.115 0 0 1 2 13.885V2.115C2 2.05 2.052 2 2.115 2M14 4.686A6 6 0 0 1 15 8a6 6 0 0 1-1 3.29V10a2 2 0 0 1-.48-.064l-.057-.014a2 2 0 0 1-.455-.191A2 2 0 0 1 12 8a2 2 0 0 1 1.008-1.73 2 2 0 0 1 .455-.192l.057-.014A2 2 0 0 1 14 6z"/></svg>