<svg xmlns="http://www.w3.org/2000/svg" width="16" height="16"><path d="M3 0C1.892 0 1 .892 1 2v12c0 1.108.892 2 2 2h10c1.108 0 2-.892 2-2V2c0-1.108-.892-2-2-2zm0 1h5v1h1V1h4c.554 0 1 .446 1 1v12c0 .554-.446 1-1 1H3c-.554 0-1-.446-1-1V2c0-.554.446-1 1-1m5 1H7v1h1zm0 1v1h1V3zm0 1H7c0 .5.448 1 1 1zm0 1c-1.105 0-2 .9-2 2v4c0 1.1.895 2 2 2s2-.9 2-2V7c0-1.1-.895-2-2-2m0 1c.552 0 1 .4 1 1 0 .5-.448 1-1 1s-1-.5-1-1c0-.6.448-1 1-1m0 3c.552 0 1 .4 1 1v1c0 .5-.448 1-1 1s-1-.5-1-1v-1c0-.6.448-1 1-1" style="color:gray;fill:currentColor"/></svg>