<svg xmlns="http://www.w3.org/2000/svg" width="16" height="16" viewBox="0 0 16 16"><path d="M3 1c-1.108 0-2 .892-2 2v1.5a.5.5 0 1 0 1-.025V3c0-.554.446-1 1-1h1.5a.5.5 0 0 0 0-1Zm8.5 0a.5.5 0 0 0 0 1H13c.554 0 1 .446 1 1v1.5a.5.5 0 0 0 1 0V3c0-1.108-.892-2-2-2ZM4 5c-.554 0-1 .446-1 1v4c0 .554.446 1 1 1h6c.554 0 1-.446 1-1V9l2 2V5l-2 2V6c0-.554-.446-1-1-1Zm3 1a2 2 0 0 1 2 2 2 2 0 0 1-2 2 2 2 0 0 1-2-2 2 2 0 0 1 2-2m0 1a1 1 0 0 0-1 1 1 1 0 0 0 1 1 1 1 0 0 0 1-1 1 1 0 0 0-1-1m-5.5 4a.5.5 0 0 0-.5.5V13c0 1.108.892 2 2 2h1.5a.5.5 0 0 0 0-1H3c-.554 0-1-.446-1-1v-1.5a.5.5 0 0 0-.5-.5m13 0a.5.5 0 0 0-.5.525V13c0 .554-.446 1-1 1h-1.5a.5.5 0 0 0 0 1H13c1.108 0 2-.892 2-2v-1.5a.5.5 0 0 0-.5-.5" style="color:gray;fill:currentColor"/></svg>