<svg xmlns="http://www.w3.org/2000/svg" viewBox="0 0 16 16"><g fill="gray"><path d="M3.985 2c-.66 0-1.183.06-1.623.225a1.9 1.9 0 0 0-1.001.838C1.068 3.589 1.018 4.25 1 5c.018.75.068 1.411.36 1.938a1.9 1.9 0 0 0 1.002.837c.44.165.963.225 1.623.225l8.03.006c.659 0 1.183-.06 1.623-.225a1.9 1.9 0 0 0 1.001-.838c.292-.528.343-1.191.361-1.943-.018-.746-.07-1.406-.36-1.932a1.9 1.9 0 0 0-1.002-.837c-.44-.165-.964-.225-1.624-.225zm0 1 8.03.006c.594 0 1.009.063 1.27.16.26.098.375.204.476.387.138.248.19.784.222 1.447-.032.67-.084 1.21-.222 1.46-.101.182-.215.288-.476.386-.261.097-.676.16-1.27.16L3.985 7c-.594 0-1.009-.063-1.27-.16-.26-.097-.376-.203-.476-.387-.138-.249-.19-.787-.222-1.453.032-.666.084-1.204.222-1.453.1-.184.215-.29.476-.387S3.391 3 3.985 3" style="isolation:auto;mix-blend-mode:normal;text-decoration-color:#000;text-decoration-line:none;text-decoration-style:solid;text-indent:0;text-transform:none;white-space:normal"/><path d="M11 5h2v1h-2z"/><path fill-rule="evenodd" d="M2 10h12v1H2zm5-2h2v1H7zm6 3h1v1h-1zm-1 1v3h3v-3zm1 1h1v1h-1zM2 11h1v1H2zm-1 1v3h3v-3zm1 1h1v1H2z"/></g></svg>