<svg xmlns="http://www.w3.org/2000/svg" viewBox="0 0 16 16"><g fill="gray" color="#000"><path d="M475.99 310c-1.258-.015-2.179.03-2.932-.385-.376-.207-.673-.56-.837-.998s-.225-.96-.225-1.617v-3c0-.658.06-1.179.224-1.617a1.88 1.88 0 0 1 .838-.998c.753-.416 1.674-.37 2.932-.385h4.012c1.258.015 2.179-.03 2.931.385.377.207.674.56.838.998.165.438.225.96.225 1.617v3c0 .658-.06 1.178-.225 1.617a1.88 1.88 0 0 1-.838.998c-.752.416-1.673.37-2.931.385h-4.008zm.006-1h4c1.258-.015 2.087-.06 2.453-.262.183-.1.29-.212.387-.472s.16-.674.16-1.266v-3c0-.592-.063-1.006-.16-1.266-.098-.26-.202-.371-.385-.472-.366-.202-1.197-.247-2.455-.262h-4c-1.259.015-2.09.06-2.455.262-.184.1-.288.213-.385.472-.098.26-.16.674-.16 1.266v3c0 .592.062 1.006.16 1.266.097.26.201.371.385.472.366.202 1.196.247 2.455.262" style="font-feature-settings:normal;font-variant-alternates:normal;font-variant-caps:normal;font-variant-ligatures:normal;font-variant-numeric:normal;font-variant-position:normal;isolation:auto;mix-blend-mode:normal;shape-padding:0;text-decoration-color:#000;text-decoration-line:none;text-decoration-style:solid;text-indent:0;text-orientation:mixed;text-transform:none;white-space:normal" transform="translate(-472 -300)"/><path d="M485 305v1h1v.004c.113.006.312.004.398.014.306.035.408.093.444.129.036.035.093.133.125.435s.033.766.033 1.395v3.011c0 .595-.063 1.009-.16 1.27-.098.26-.203.373-.387.474-.366.203-1.194.25-2.453.264h-5c-.958 0-1.497-.142-1.723-.293s-.277-.293-.277-.71V311h-1v1c.002.583.2 1.19.723 1.539.524.351 1.235.461 2.277.461h5.006c1.258-.015 2.179.03 2.932-.387.376-.208.673-.561.837-1.002.165-.44.225-.963.225-1.623v-3.011c0-.627.003-1.101-.04-1.5-.042-.4-.137-.767-.411-1.041-.274-.275-.638-.37-1.037-.416-.136-.016-.355-.013-.512-.02z" opacity=".5" style="font-feature-settings:normal;font-variant-alternates:normal;font-variant-caps:normal;font-variant-ligatures:normal;font-variant-numeric:normal;font-variant-position:normal;isolation:auto;mix-blend-mode:normal;shape-padding:0;text-decoration-color:#000;text-decoration-line:none;text-decoration-style:solid;text-indent:0;text-orientation:mixed;text-transform:none;white-space:normal" transform="translate(-472 -300)"/></g></svg>