<svg xmlns="http://www.w3.org/2000/svg" viewBox="0 0 16 16"><g fill="gray" color="#000"><path d="M8 0a8 8 0 0 0-8 8 8 8 0 0 0 8 8 8 8 0 0 0 8-8 8 8 0 0 0-8-8m0 1a7 7 0 0 1 7 7 7 7 0 0 1-7 7 7 7 0 0 1-7-7 7 7 0 0 1 7-7m4.242 2.758c-1.75.637-3.794 1.675-4.914 2.265-.23.112-.442.264-.625.446-.846.846-.898 2.164-.117 2.945s2.1.729 2.945-.117q.236-.236.397-.526c.582-1.1 1.663-3.225 2.314-5.013M7.986 7a1 1 0 0 1 .721.293 1 1 0 0 1 0 1.414 1 1 0 0 1-1.414 0 1 1 0 0 1 0-1.414A1 1 0 0 1 7.986 7"/><path d="M9.41 6.59c-.781-.781-2.1-.729-2.946.117a2.3 2.3 0 0 0-.445.625c-.59 1.12-1.629 3.165-2.266 4.915 1.789-.651 3.913-1.732 5.013-2.315.193-.105.37-.24.527-.396.846-.846.898-2.165.117-2.946m-.707.707a1 1 0 0 1 0 1.414 1 1 0 0 1-1.414 0 1 1 0 0 1 0-1.414 1 1 0 0 1 1.414 0" opacity=".5"/></g></svg>