<svg xmlns="http://www.w3.org/2000/svg" id="svg8" width="16" height="16"><defs id="defs8"><style id="current-color-scheme" type="text/css">.ColorScheme-Text{color:gray}</style></defs><path id="path1" d="M8 1a8 8 0 0 1 8 8 8 8 0 0 1-3.35 6.51l-.582-.815a7 7 0 0 0 .512-.402l-.697-.697.707-.707.697.697A7 7 0 0 0 14.982 9.5h-.988v-1h.988a7 7 0 0 0-1.693-4.086l-.7.697-.706-.707.697-.697a7 7 0 0 0-4.086-1.69V3h-1v-.982a7 7 0 0 0-4.08 1.695l.691.691-.707.707-.691-.691a7 7 0 0 0-1.69 4.08h.977v1h-.976a7 7 0 0 0 1.689 4.08l.691-.691.707.707-.693.693a7 7 0 0 0 .52.408l-.58.813A8 8 0 0 1 0 9a8 8 0 0 1 8-8" class="ColorScheme-Text" style="fill:currentColor"/><path id="circle1" d="M8 10a1 1 0 0 0 1-1 1 1 0 0 0-1-1 1 1 0 0 0-.264.035l-2.57-2.57a.499.499 0 1 0-.707.707l2.574 2.574A1 1 0 0 0 7 9a1 1 0 0 0 1 1" class="ColorScheme-Text" style="fill:currentColor"/></svg>