<svg xmlns="http://www.w3.org/2000/svg" width="16" height="16" viewBox="0 0 16 16"><path d="M8 0a8 8 0 0 0-8 8 8 8 0 0 0 8 8 8 8 0 0 0 8-8 8 8 0 0 0-8-8m0 1a7 7 0 0 1 7 7 7 7 0 0 1-7 7 7 7 0 0 1-7-7 7 7 0 0 1 7-7M6.94 4.81c-1.038 0-2.07.127-3.073.376-.332.082-.533.481-.451.812a.62.62 0 0 0 .75.451 11.6 11.6 0 0 1 2.775-.338c1.798 0 3.52.406 5.12 1.203a.6.6 0 0 0 .273.065c.228 0 .446-.19.557-.406a.62.62 0 0 0-.28-.83A12.6 12.6 0 0 0 6.94 4.81m.001 2.704c-.931 0-1.86.125-2.753.369-.288.079-.458.57-.38.857a.543.543 0 0 0 .667.38 9.4 9.4 0 0 1 2.466-.33 9.25 9.25 0 0 1 4.307 1.048.5.5 0 0 0 .248.062c.197 0 .386-.303.483-.488a.54.54 0 0 0-.235-.726 10.5 10.5 0 0 0-4.803-1.172m-.002 2.529c-.835 0-1.66.123-2.453.37-.245.072-.382.593-.306.839a.46.46 0 0 0 .58.305 7.4 7.4 0 0 1 2.18-.328c1.24 0 2.467.313 3.548.912l.225.056a.46.46 0 0 0 .404-.242c.123-.224.045-.766-.181-.889a8.3 8.3 0 0 0-3.997-1.023" style="color:gray;fill:currentColor"/></svg>