<svg xmlns="http://www.w3.org/2000/svg" width="16" height="16"><path fill="currentColor" d="M8 0A8 8 0 0 0 .031 7.578l-.01-.004-.003.096-.01-.031.01.107A8 8 0 0 0 0 8a8 8 0 0 0 .215 1.752l.008.076.021.106.012.005A8 8 0 0 0 8 16a8 8 0 0 0 8-8 8 8 0 0 0-8-8M.223 9.828l-.02-.105.03.195zM8 1a7 7 0 0 1 7 7 7 7 0 0 1-7 7 7 7 0 0 1-6.482-4.416l1.494.766q-.009.075-.012.15a2.5 2.5 0 1 0 4.975-.354l2.029-1.181A3.5 3.5 0 1 0 7 6.5q.002.045.006.088L5.559 9.002 5.499 9a2.5 2.5 0 0 0-1.58.568l-2.913-1.49L1 8a7 7 0 0 1 7-7m2.5 3.5a2 2 0 1 1 0 4 2 2 0 0 1 0-4m0 .5a1.5 1.5 0 1 0 0 3 1.5 1.5 0 0 0 0-3m-5 5a1.5 1.5 0 1 1 0 3 1.5 1.5 0 0 1-1.443-1.115l.988.506c1.188.606 2.098-1.175.91-1.782l-.994-.507A1.5 1.5 0 0 1 5.5 10" style="color:gray" /></svg>