<svg xmlns="http://www.w3.org/2000/svg" viewBox="2 2 16 16"><path fill="currentColor" d="M10.842 5.5c.331 0 .471.108.567.162l.019.011 6.027 3.56c.065.038.183.094.322.265.14.173.223.459.223.639 0 .181-.075.452-.21.626-.134.173-.258.241-.335.286l-6.027 3.56-.019.011c-.172.1-.368.153-.567.156a1.03 1.03 0 0 1-.722-.296 1.08 1.08 0 0 1-.298-.736v-2.827a1.3 1.3 0 0 1-.189.132l-6.027 3.559-.019.011c-.172.1-.367.153-.567.157-.222 0-.511-.084-.723-.297A1.08 1.08 0 0 1 2 13.744V6.54c0-.226.078-.509.278-.723.201-.213.497-.317.742-.317.331 0 .472.108.567.162l.019.011 6.027 3.56c.043.025.11.061.189.13V6.54c0-.226.078-.509.278-.723.201-.213.496-.317.742-.317m0 .869c-.085 0-.151.06-.151.171v7.204c0 .111.066.164.151.164a.3.3 0 0 0 .144-.048l6.029-3.559c.078-.046.116-.085.116-.164s-.038-.112-.116-.158l-6.029-3.558a.34.34 0 0 0-.144-.051m-7.822 0c-.084 0-.151.06-.151.171v7.203c0 .112.067.164.151.164a.3.3 0 0 0 .144-.048l6.028-3.558c.079-.046.117-.085.117-.164s-.038-.112-.117-.158L3.164 6.421a.3.3 0 0 0-.144-.051" style="color:gray"/></svg>