<svg xmlns="http://www.w3.org/2000/svg" viewBox="2 2 16 16"><path fill="currentColor" d="M9.158 5.5c-.33 0-.471.108-.567.162l-.019.011-6.027 3.56c-.065.038-.182.094-.322.265-.14.174-.223.46-.223.639 0 .181.076.452.21.626.133.173.258.241.335.286l6.027 3.56.019.011c.141.078.337.157.567.157.223 0 .511-.084.723-.298a1.07 1.07 0 0 0 .297-.736v-2.826c.075.063.141.104.189.132l6.027 3.56.019.011c.141.078.337.157.567.157.223 0 .511-.085.723-.298a1.07 1.07 0 0 0 .297-.736V6.54a1.08 1.08 0 0 0-.278-.723 1.04 1.04 0 0 0-.742-.317c-.331 0-.471.108-.567.162l-.019.011-6.027 3.56c-.044.025-.11.061-.189.129V6.54a1.08 1.08 0 0 0-.278-.723 1.04 1.04 0 0 0-.742-.317m0 .869c.085 0 .151.06.151.171v7.203c0 .112-.066.165-.151.165a.3.3 0 0 1-.144-.048l-6.028-3.559c-.079-.046-.117-.084-.117-.164 0-.079.038-.112.117-.158l6.028-3.558a.35.35 0 0 1 .144-.051m7.822 0c.085 0 .151.06.151.171v7.203c0 .111-.066.164-.151.164a.3.3 0 0 1-.145-.047l-6.027-3.559c-.079-.046-.117-.085-.117-.164s.038-.112.117-.158l6.027-3.559a.4.4 0 0 1 .145-.051" style="color:gray"/></svg>