<svg xmlns="http://www.w3.org/2000/svg" width="16" height="16" viewBox="0 0 16 16"><circle cx="8" cy="8" r="7.5" style="fill:none;stroke-linejoin:round"/><path d="M16 8a8.1 8.1 0 0 1-2.343 5.657A8.1 8.1 0 0 1 8 16a8.1 8.1 0 0 1-5.657-2.343A8.1 8.1 0 0 1 0 8c0-2.173.923-4.237 2.343-5.657A8.1 8.1 0 0 1 8 0c2.173 0 4.237.923 5.657 2.343A8.1 8.1 0 0 1 16 8m-3.05-4.95C11.656 1.756 9.969 1 8 1s-3.656.756-4.95 2.05S1 6.031 1 8s.756 3.656 2.05 4.95S6.031 15 8 15s3.656-.756 4.95-2.05S15 9.969 15 8s-.756-3.656-2.05-4.95" style="fill:gray"/><path d="M4.901 4.165 8 7.263l3.099-3.098a.534.534 0 0 1 .753-.018.535.535 0 0 1-.016.754L8.737 8l3.099 3.099c.211.204.219.54.016.753a.534.534 0 0 1-.753-.016L8 8.737l-3.099 3.099a.535.535 0 0 1-.754.016.534.534 0 0 1 .018-.753L7.263 8 4.165 4.901a.534.534 0 0 1-.018-.754.534.534 0 0 1 .754.018" style="fill:gray"/></svg>