<svg xmlns="http://www.w3.org/2000/svg" width="16" height="16" viewBox="0 0 16 16"><path d="M15 8a7 7 0 0 1-7 7 7 7 0 0 1-7-7 7 7 0 0 1 7-7 7 7 0 0 1 7 7Z" style="fill:none;stroke:gray;paint-order:fill;stroke-linejoin:round"/><path d="M5.156 4.48 8 7.324l2.844-2.844a.49.49 0 0 1 .691-.016.49.49 0 0 1-.015.692L8.676 8l2.844 2.844a.49.49 0 0 1 .015.691.49.49 0 0 1-.691-.015L8 8.676 5.156 11.52a.49.49 0 0 1-.692.015.49.49 0 0 1 .016-.691L7.324 8 4.48 5.156a.49.49 0 0 1-.016-.692.49.49 0 0 1 .692.016" style="fill:gray"/></svg>