<svg xmlns="http://www.w3.org/2000/svg" width="16" height="16"><g fill="gray" transform="matrix(-1 0 0 1 15.825 0)"><path d="M4.888 12.983H1.89v-.72h1.795c-1.165-1.024-1.648-1.751-1.648-2.485 0-.81.599-1.325 1.513-1.325.56 0 1.074.186 1.46.52l-.218.6c-.354-.265-.74-.393-1.075-.393-.508 0-.824.29-.824.727 0 .598.618 1.274 1.995 2.503z" aria-label="2" style="transform-origin:3.45px 10.718px"/><path d="M3.661 7.008h-.824v-4.48h.496l1.692.863-.308.586L3.661 3.5z" aria-label="1" style="transform-origin:3.931px 4.768px"/><rect width="8" height="1" x="6" y="4" rx="0" ry="0"/><rect width="8" height="1" x="6" y="10" rx="0" ry="0"/></g></svg>