<svg xmlns="http://www.w3.org/2000/svg" viewBox="0 0 64 64">
    <ellipse cx="32" cy="17" fill="#56ccf2" rx="30" ry="11.25" style="stroke-width:.938"/>
    <path fill="#9b51e0" fill-rule="evenodd" d="M52.471 25.224C47.111 27.102 39.913 28.25 32 28.25c-7.912 0-15.111-1.148-20.471-3.026C12.778 20.591 21.466 17 32 17s19.223 3.589 20.471 8.224" clip-rule="evenodd" style="stroke-width:.938"/>
    <path fill="#56ccf2" fill-rule="evenodd" d="M54.914 24.262C49.411 26.701 41.188 28.25 32 28.25c-9.187 0-17.411-1.549-22.914-3.988-1.538 1.209-2.398 2.561-2.398 3.988 0 5.178 11.332 9.375 25.312 9.375s25.313-4.197 25.313-9.375c0-1.427-.86-2.779-2.399-3.988" clip-rule="evenodd" style="stroke-width:.938"/>
    <path fill="#9b51e0" fill-rule="evenodd" d="M15.303 35.296c-1.315.988-2.053 2.096-2.053 3.267 0 4.141 9.234 7.5 20.625 7.5s20.625-3.359 20.625-7.5c0-1.533-1.265-2.958-3.434-4.146-4.641 1.966-11.463 3.208-19.066 3.208-6.397 0-12.24-.878-16.697-2.329" clip-rule="evenodd" style="stroke-width:.938"/>
    <path fill="#56ccf2" fill-rule="evenodd" d="M23.53 45.052c-1.742.796-2.78 1.798-2.78 2.886 0 2.588 5.876 4.687 13.125 4.687S47 50.526 47 47.938c0-1.088-1.038-2.091-2.78-2.886-3.042.643-6.576 1.011-10.345 1.011s-7.303-.368-10.345-1.011" clip-rule="evenodd" style="stroke-width:.938"/>
    <path fill="#9b51e0" fill-rule="evenodd" d="M23.375 50.75c-1.059.784-1.687 1.757-1.687 2.813 0 2.588 3.778 4.687 8.437 4.687s8.438-2.099 8.438-4.687c0-.419-.099-.823-.284-1.209a35 35 0 0 1-4.404.271c-4.294 0-8.107-.737-10.5-1.875" clip-rule="evenodd" style="stroke-width:.938"/>
</svg>
