<svg xmlns="http://www.w3.org/2000/svg" viewBox="0 0 32 32">
    <defs>
        <linearGradient id="a" x1="15.909" x2="15.909" y1="7.197" y2="25.334" gradientTransform="translate(29.474 -3.333)" gradientUnits="userSpaceOnUse">
            <stop offset="0" stop-color="#fff"/>
            <stop offset="1" stop-color="#ececec"/>
        </linearGradient>
        <linearGradient id="b" x1="15.956" x2="15.956" y1="18.074" y2="27.801" gradientTransform="matrix(1 0 0 1.20253 0 -4.588)" gradientUnits="userSpaceOnUse">
            <stop offset="0" stop-color="#ff382a"/>
            <stop offset="1" style="stop-color:#ef4444"/>
        </linearGradient>
    </defs>
    <path fill="url(#a)" d="M16 6c-3.673 0-6.733 2.453-7.875 5.804C4.679 12.249 2 15.218 2 18.857 2 22.802 5.134 26 9 26h15.4c3.093 0 5.6-2.558 5.6-5.714s-2.507-5.714-5.6-5.714C24.4 9.838 20.639 6 16 6"/>
    <circle cx="16" cy="23" r="6" fill="url(#b)" fill-rule="evenodd" style="paint-order:stroke fill markers"/>
    <rect width="2" height="5" x="15" y="19" fill="#fff" fill-opacity=".902" fill-rule="evenodd" rx="1" ry="1" style="paint-order:stroke fill markers"/>
    <rect width="2" height="2" x="15" y="25" fill="#fff" fill-opacity=".902" fill-rule="evenodd" rx="2" ry="2" style="paint-order:stroke fill markers"/>
</svg>
