<svg xmlns="http://www.w3.org/2000/svg" viewBox="0 0 64 64">
    <g fill="none" stroke-linecap="round" stroke-linejoin="round" stroke-width="4.095">
        <path stroke="#2f80ed" d="M16.104 37.119h-6.022m20.476-12.286H15.201"/>
        <path stroke="#56ccf2" d="M35.678 30.976H5.987"/>
        <path stroke="#2f80ed" d="M15.623 37.119h7.167a7.167 7.167 0 0 1 7.166 7.167h0a7.167 7.167 0 0 1-7.166 7.166h-.233a6.93 6.93 0 0 1-6.934-6.934h0v-.243m14.331-19.442h7.167a7.167 7.167 0 0 0 7.167-7.166h0A7.167 7.167 0 0 0 37.12 10.5h-.232a6.93 6.93 0 0 0-6.935 6.934v.243"/>
        <path stroke="#56ccf2" d="M35.49 30.976h11.26c6.22 0 11.262 5.042 11.262 11.262h0c0 6.22-5.042 11.262-11.262 11.262h-.366c-6.017 0-10.896-4.878-10.896-10.895h0v-.383"/>
    </g>
</svg>
