<svg xmlns="http://www.w3.org/2000/svg" viewBox="0 0 32 32">
    <defs>
        <linearGradient id="a" x1="18.124" x2="18.124" y1="3.336" y2="28.783" gradientTransform="translate(-3.286 -1.143)scale(1.07143)" gradientUnits="userSpaceOnUse">
            <stop offset="0" stop-color="#fff133"/>
            <stop offset="1" stop-color="#ffc40a"/>
        </linearGradient>
    </defs>
    <path fill="url(#a)" d="M16 1a1.07 1.07 0 0 0-1.072 1.072v1.07A1.07 1.07 0 0 0 16 4.214a1.07 1.07 0 0 0 1.072-1.072v-1.07A1.07 1.07 0 0 0 16 1M6.102 5.042a1.073 1.073 0 0 0-.705 1.829l.758.757a1.07 1.07 0 1 0 1.514-1.517l-.757-.757a1.07 1.07 0 0 0-.81-.313zm19.699 0a1.07 1.07 0 0 0-.706.312l-.758.758a1.073 1.073 0 0 0 0 1.516 1.07 1.07 0 0 0 1.515 0l.759-.757a1.073 1.073 0 0 0-.81-1.83zM16 5.286C10.083 5.286 5.286 10.083 5.286 16S10.083 26.714 16 26.714 26.714 21.917 26.714 16 21.917 5.286 16 5.286M2.072 14.928A1.07 1.07 0 0 0 1 16a1.07 1.07 0 0 0 1.072 1.072h1.07A1.07 1.07 0 0 0 4.214 16a1.07 1.07 0 0 0-1.072-1.072zm26.786 0A1.07 1.07 0 0 0 27.786 16a1.07 1.07 0 0 0 1.072 1.072h1.07A1.07 1.07 0 0 0 31 16a1.07 1.07 0 0 0-1.072-1.072zM6.861 23.982a1.07 1.07 0 0 0-.706.312l-.757.759a1.07 1.07 0 0 0 0 1.514 1.07 1.07 0 0 0 1.514 0l.757-.757a1.071 1.071 0 0 0-.808-1.829zm18.182 0a1.073 1.073 0 0 0-.705 1.828l.757.757c.42.42 1.096.42 1.516 0s.42-1.094 0-1.514l-.759-.759a1.07 1.07 0 0 0-.81-.313zM16 27.786a1.07 1.07 0 0 0-1.072 1.072v1.07A1.07 1.07 0 0 0 16 31a1.07 1.07 0 0 0 1.072-1.072v-1.07A1.07 1.07 0 0 0 16 27.786"/>
</svg>
