<svg xmlns="http://www.w3.org/2000/svg" style="fill-rule:evenodd;clip-rule:evenodd;stroke-linejoin:round;stroke-miterlimit:2" viewBox="0 0 64 64">
    <rect width="56" height="56" x="4" y="4" ry="12" style="stroke-width:2;fill:url(#a)"/>
    <path d="M51.048 32.001c0-10.518-8.528-19.048-19.047-19.048s-19.048 8.53-19.048 19.048c0 10.519 8.53 19.047 19.048 19.047 10.519 0 19.047-8.528 19.047-19.047" class="s13" style="fill:url(#b);fill-opacity:.8" transform="translate(-3.28 -3.28)scale(1.1025)"/>
    <path d="M32.001 48.665c-9.205 0-16.666-7.461-16.666-16.666.004-9.205 7.461-16.663 16.666-16.663s16.667 7.458 16.667 16.663c-.004 9.205-7.461 16.666-16.667 16.666" class="s14" style="stroke-width:4.9091px;stroke-opacity:.1;fill-opacity:.5;fill:#4c1d95" transform="translate(-3.28 -3.28)scale(1.1025)"/>
    <path d="M44.623 19.377c-6.971-6.971-18.277-6.97-25.247 0-6.969 6.974-6.968 18.273.003 25.244s18.273 6.974 25.244.003c6.967-6.973 6.971-18.276 0-25.247" class="s16" style="fill:url(#c);transform-origin:32.002px 32px"/>
    <path d="M32.001 42.371c5.73 0 10.37-4.64 10.37-10.37s-4.64-10.37-10.37-10.37a10.37 10.37 0 0 0-10.37 10.37c0 5.73 4.641 10.37 10.37 10.37" class="s17" style="fill:url(#d)" transform="translate(-3.28 -3.28)scale(1.1025)"/>
    <path d="M32.001 24.681a7.313 7.313 0 0 1 7.33 7.32 7.326 7.326 0 0 1-7.33 7.33 7.327 7.327 0 0 1-7.33-7.33 7.33 7.33 0 0 1 7.33-7.33z" style="fill:url(#e);stroke-width:1.1" transform="translate(-3.28 -3.28)scale(1.1025)"/>
    <path d="M31.559 26.279a5.28 5.28 0 1 1-10.56 0 5.28 5.28 0 0 1 10.56 0M40.366 43a2.64 2.64 0 0 1-2.287-1.319c-1.013-1.761.253-3.96 2.287-3.96A2.643 2.643 0 0 1 43 40.366 2.634 2.634 0 0 1 40.366 43m-3.08-5.071c-1.177.681-2.646-.169-2.646-1.525 0-.631.336-1.213.882-1.528 1.175-.68 2.647.171 2.645 1.528a1.76 1.76 0 0 1-.881 1.525" style="fill-opacity:.5;stroke-width:1.1;fill:url(#f)"/>
    <defs>
        <radialGradient id="b" cx="0" cy="0" r="1" gradientTransform="translate(32.001 49.214)scale(29.62965)" gradientUnits="userSpaceOnUse">
            <stop offset="0" stop-color="#424048"/>
            <stop offset="1"/>
        </radialGradient>
        <radialGradient id="c" cx="0" cy="0" r="1" gradientTransform="rotate(-45 34.48 -28.273)scale(44.01124)" gradientUnits="userSpaceOnUse">
            <stop offset="0" stop-color="#1c71d8"/>
            <stop offset="1" stop-color="#c061cb" stop-opacity="0"/>
        </radialGradient>
        <radialGradient id="f" cx="32" cy="32" r="11" gradientUnits="userSpaceOnUse">
            <stop offset="0" style="stop-color:#fff"/>
            <stop offset="1" style="stop-color:#fff;stop-opacity:.5"/>
        </radialGradient>
        <linearGradient id="e" x1="0" x2="1" y1="0" y2="0" gradientTransform="rotate(-90 36.834 4.832)scale(16.99195)" gradientUnits="userSpaceOnUse">
            <stop offset="0" style="stop-color:#1c71d8;stop-opacity:1"/>
            <stop offset="1" style="stop-color:#c061cb;stop-opacity:1"/>
        </linearGradient>
        <linearGradient id="d" x2="1" gradientTransform="rotate(90 5.185 26.816)scale(32.07725)" gradientUnits="userSpaceOnUse">
            <stop offset="0" stop-color="#99c1f1"/>
            <stop offset="1" stop-color="#3584e4" stop-opacity="0"/>
        </linearGradient>
        <linearGradient id="a" x1="16" x2="16" y1="30" y2="2" gradientTransform="scale(2)" gradientUnits="userSpaceOnUse">
            <stop offset="0" style="stop-color:#d1d5db"/>
            <stop offset="1" style="stop-color:#e5e7eb"/>
        </linearGradient>
    </defs>
</svg>
