<svg xmlns="http://www.w3.org/2000/svg" viewBox="0 0 64 64">
    <path d="M26 49h12v6H26z" style="fill:gray"/>
    <defs>
        <linearGradient id="a" x1="0" x2="1" y1="0" y2=".714">
            <stop offset="0" style="stop-color:#5c5c5c"/>
            <stop offset="1" style="stop-color:#494949"/>
        </linearGradient>
        <linearGradient id="c" x1="32" x2="32" y1="12" y2="48" gradientTransform="rotate(-55.031 7.86 41.934)scale(1 1.79856)" gradientUnits="userSpaceOnUse">
            <stop offset="0" style="stop-color:#7dd3fc"/>
            <stop offset="1" style="stop-color:#60a5fa"/>
        </linearGradient>
    </defs>
    <path d="M8 10h48c2.208 0 4 1.792 4 4v32c0 2.208-1.792 4-4 4H8c-2.208 0-4-1.792-4-4V14c0-2.208 1.792-4 4-4" style="stroke:none;fill:url(#a);stroke-miterlimit:10"/>
    <defs>
        <linearGradient id="b" x1="0" x2="1" y1=".5" y2=".5">
            <stop offset="0" style="stop-color:#5c5c5c"/>
            <stop offset="1" style="stop-color:#494949"/>
        </linearGradient>
    </defs>
    <path d="M21.922 54h20.156c1.061 0 1.922.861 1.922 1.922v.156A1.923 1.923 0 0 1 42.078 58H21.922A1.923 1.923 0 0 1 20 56.078v-.156c0-1.061.861-1.922 1.922-1.922" style="stroke:none;fill:url(#b);stroke-miterlimit:10"/>
    <path d="M56 48H8a2 2 0 0 1-2-2V14a2 2 0 0 1 2-2h48a2 2 0 0 1 2 2v32a2 2 0 0 1-2 2" style="stroke:none;stroke-miterlimit:10;fill:url(#c);stroke-width:1;transform-origin:32px 30px"/>
</svg>
