<svg xmlns="http://www.w3.org/2000/svg" viewBox="0 0 64 64">
    <path d="M6.932 48h50.136c1.066 0 1.932.866 1.932 1.932v1.136A1.933 1.933 0 0 1 57.068 53H6.932A1.933 1.933 0 0 1 5 51.068v-1.136C5 48.866 5.866 48 6.932 48" style="stroke:none;stroke-miterlimit:10;fill:gray"/>
    <defs>
        <linearGradient id="a" x1="0" x2="1" y1="0" y2=".714">
            <stop offset="0" style="stop-color:#5c5c5c"/>
            <stop offset="1" style="stop-color:#494949"/>
        </linearGradient>
        <linearGradient id="c" x1="32" x2="32" y1="12" y2="48" gradientTransform="rotate(-55.031 7.86 41.934)scale(1 1.79856)" gradientUnits="userSpaceOnUse">
            <stop offset="0" style="stop-color:#7dd3fc"/>
            <stop offset="1" style="stop-color:#60a5fa"/>
        </linearGradient>
    </defs>
    <path d="M8 10h48c2.208 0 4 1.792 4 4v32c0 2.208-1.792 4-4 4H8c-2.208 0-4-1.792-4-4V14c0-2.208 1.792-4 4-4" style="stroke:none;fill:url(#a);stroke-miterlimit:10"/>
    <defs>
        <linearGradient id="b" x1="0" x2="1" y1=".5" y2=".5">
            <stop offset="0" style="stop-color:#5c5c5c"/>
            <stop offset="1" style="stop-color:#494949"/>
        </linearGradient>
    </defs>
    <path d="M4 51h56a2 2 0 0 1 0 4H4a2 2 0 0 1 0-4" style="stroke:none;fill:url(#b);stroke-miterlimit:10"/>
    <path d="M56 48H8a2 2 0 0 1-2-2V14a2 2 0 0 1 2-2h48a2 2 0 0 1 2 2v32a2 2 0 0 1-2 2" style="stroke:none;stroke-miterlimit:10;transform-origin:32px 30px;fill:url(#c)"/>
</svg>
