<svg xmlns="http://www.w3.org/2000/svg" viewBox="0 0 64 64">
    <defs>
        <linearGradient id="a">
            <stop offset="0" style="stop-color:#e9e9e9;stop-opacity:1"/>
            <stop offset="1" style="stop-color:#d0d0d0;stop-opacity:1"/>
        </linearGradient>
        <linearGradient id="c" x1="11" x2="11" y1="4" y2="18" gradientTransform="translate(.571 .571)scale(2.85714)" gradientUnits="userSpaceOnUse" href="#a"/>
        <linearGradient id="b" x1="7.937" x2="7.937" y1="15.081" y2="1.852" gradientTransform="translate(0 .031)scale(3.7796)" gradientUnits="userSpaceOnUse">
            <stop offset="0" stop-color="#298f38"/>
            <stop offset="1" stop-color="#20df5f"/>
        </linearGradient>
    </defs>
    <rect width="56" height="56" x="4" y="4" fill="url(#b)" rx="12" style="stroke-width:1"/>
    <path d="M17 4v6.172l4 4V4Zm6 0v12.168l3.5 3.504.672-.672H26V4Zm5 0v14.172l3.176-3.176H31V4Zm5 0v9.172l3-3V4Zm5 0v7L27.914 21.09 29 22.176l12-12V4Zm5 0v7L29.563 24.434l-.567-.563-.562.567L26.5 22.5l-1.937 1.934-.567-.563-.562.567L9.996 11V6.035A12.9 12.9 0 0 0 6.152 9.79v7.137L4 19.078v2.156l3.23 3.227h9.586l-7.468-7.469A1.503 1.503 0 0 1 7.996 15.5a1.501 1.501 0 1 1 2.977.29l8.672 8.67h28.507l7.54-8.616h4.253q-.052-.54-.144-1.074h-4.11v-4.31l-8.617 9.692h-3.23l8.617-9.691V5.17A12.9 12.9 0 0 0 48 4.036V11L34.566 24.434l-1.418-1.41 12.848-12.852V4Zm-28 .148a13 13 0 0 0-3 .832v5.192l12 12 1.086-1.086L23 19h-2v-2.004L15.004 11Zm-.23 33.23L4 45.997v.969c0 .73.074 1.441.188 2.137l6.273-4.18v2.152l-5.836 3.89.152.415H8.31v5.246a12.8 12.8 0 0 0 6.46 3.137v-11.61l6.461-5.386h3.23L18 48.152V59.97h4v-5.106l13.438-13.43L36 42l.566-.566 1.934 1.933 1.934-1.933L41 42l.566-.566L55 54.867v2.34a12.8 12.8 0 0 0 2.254-2.258L45.152 42.844l1.414-1.41L58.38 53.246a13 13 0 0 0 1.46-4.32l-7.378-9.39h-2.156l-2.153-2.157h-12.95l.238.238-12.464 12.461q.029.145.027.29a1.5 1.5 0 1 1-1.649-1.493l11.489-11.492ZM36 43.696 24 55.7v4.274h3v-5.106l5.996-5.996v-2H35l2.082-2.086Zm5 0-1.086 1.086L50 54.867v4.742a13 13 0 0 0 3-1.113v-2.8Zm-2.5 2.5-3.5 3.5V59.97h3V46.867h1.172Zm1.5 1.5V59.97h3v-9.102h.172Zm-7 4.008-4 4v4.274h3.996Zm12 1v7.274h2.004q.504 0 .996-.047v-4.227Zm0 0" style="fill-opacity:.1"/>
    <rect width="40" height="40" x="12" y="13" rx="8" style="opacity:.2;fill:#000;stroke-width:5.71428"/>
    <rect width="40" height="40" x="12" y="12" rx="8" style="opacity:1;fill:url(#c);stroke-width:5.71428"/>
    <path d="M19 19v1h14v-1zm0 3v1h16v-1zm0 3v1h11v-1z" style="opacity:.3;fill:#000;fill-opacity:1;stroke-width:8.21582;stroke-linecap:round;stroke-linejoin:round"/>
</svg>
