<svg xmlns="http://www.w3.org/2000/svg" width="64" height="64" viewBox="0 0 64 64">
    <path fill="#f5f5f5" d="M15.999 3.97h32.002C54.623 3.97 60 9.347 60 15.969v32.002c0 6.622-5.377 11.999-11.999 11.999H15.999C9.377 59.97 4 54.593 4 47.971V15.969C4 9.347 9.377 3.97 15.999 3.97"/>
    <linearGradient id="a" x1=".5" x2=".5" y1="0" y2="1" gradientTransform="matrix(56 0 0 56 4 3.97)" gradientUnits="userSpaceOnUse">
        <stop offset="0%" stop-opacity=".1" style="stop-color:#fff"/>
        <stop offset="100%" stop-opacity=".2" style="stop-color:#000"/>
    </linearGradient>
    <path fill="url(#a)" d="M15.999 3.97h32.002C54.623 3.97 60 9.347 60 15.969v32.002c0 6.622-5.377 11.999-11.999 11.999H15.999C9.377 59.97 4 54.593 4 47.971V15.969C4 9.347 9.377 3.97 15.999 3.97"/>
    <path fill="#fff" d="M13 32c0 10.493 8.507 19 19 19s19-8.507 19-19-8.507-19-19-19-19 8.507-19 19" opacity=".6"/>
    <path fill="#1e40af" d="M32 26a6 6 0 0 1 6 6h14c0-11.046-8.954-20-20-20z" opacity=".9"/>
    <path fill="#1e40af" d="M12 32a19.93 19.93 0 0 0 5.863 14.137l9.895-9.895c.04.041.086.077.129.117A5.96 5.96 0 0 1 26 32a6 6 0 0 1 6-6V12c-11.046 0-20 8.954-20 20" opacity=".6"/>
    <path fill="#1e40af" d="M17.86 46.14A19.93 19.93 0 0 0 32 52c11.046 0 20-8.954 20-20H38a6 6 0 0 1-10.242 4.242z" opacity=".3"/>
</svg>
