<svg xmlns="http://www.w3.org/2000/svg" xmlns:xlink="http://www.w3.org/1999/xlink" viewBox="0 0 64 64">
    <defs>
        <linearGradient id="b">
            <stop offset="0" style="stop-color:#acacac;stop-opacity:1"/>
            <stop offset="1" style="stop-color:#939393;stop-opacity:1"/>
        </linearGradient>
        <linearGradient id="c">
            <stop offset="0" style="stop-color:#0f0;stop-opacity:1"/>
            <stop offset="1" style="stop-color:#00cd00;stop-opacity:1"/>
        </linearGradient>
        <linearGradient id="e">
            <stop offset="0" style="stop-color:#0f0;stop-opacity:1"/>
            <stop offset="1" style="stop-color:#0f0;stop-opacity:0"/>
        </linearGradient>
        <linearGradient id="d">
            <stop offset="0" style="stop-color:#e6e6e6;stop-opacity:1"/>
            <stop offset="1" style="stop-color:#b9b9b9;stop-opacity:1"/>
        </linearGradient>
        <linearGradient id="a">
            <stop offset="0" style="stop-color:#c5c5c5;stop-opacity:1"/>
            <stop offset="1" style="stop-color:#e2e2e2;stop-opacity:1"/>
        </linearGradient>
        <linearGradient xlink:href="#a" id="f" x1="10" x2="27.04" y1="4" y2="23.015" gradientTransform="translate(0 7)" gradientUnits="userSpaceOnUse"/>
        <linearGradient xlink:href="#b" id="g" x1="44.652" x2="45.613" y1="67.744" y2="40" gradientTransform="translate(-2 -1)" gradientUnits="userSpaceOnUse"/>
        <linearGradient xlink:href="#c" id="i" x1="46" x2="50" y1="44" y2="48" gradientTransform="translate(3 -1)" gradientUnits="userSpaceOnUse"/>
        <linearGradient xlink:href="#d" id="k" x1="44.042" x2="45.907" y1="60.386" y2="28" gradientTransform="translate(-2 -1)" gradientUnits="userSpaceOnUse"/>
        <linearGradient xlink:href="#a" id="j" x1="16" x2="30.043" y1="20" y2="32" gradientTransform="translate(-.043 -5)" gradientUnits="userSpaceOnUse"/>
        <linearGradient xlink:href="#c" id="m" x1="46" x2="50" y1="44" y2="48" gradientTransform="translate(3 -13)" gradientUnits="userSpaceOnUse"/>
        <radialGradient xlink:href="#e" id="h" cx="48" cy="46" r="3" fx="48" fy="46" gradientTransform="translate(3 -1)" gradientUnits="userSpaceOnUse"/>
        <radialGradient xlink:href="#e" id="l" cx="48" cy="45.9" r="3" fx="48" fy="45.9" gradientTransform="matrix(1 0 0 1.03323 3 -14.525)" gradientUnits="userSpaceOnUse"/>
    </defs>
    <path d="M16 25h32c2.216 0 3.084 1.982 4 4l6 13.225-51.957.185L12 29c.9-2.025 1.784-4 4-4" style="fill:url(#f);stroke-linecap:round;stroke-linejoin:round"/>
    <rect width="52" height="12" x="6" y="39" ry="4" style="fill:url(#g);fill-opacity:1;stroke-linecap:round;stroke-linejoin:round"/>
    <rect width="48" height="8" x="8" y="41" ry="2" style="fill:#4d4d4d;fill-opacity:1;stroke-linecap:round;stroke-linejoin:round"/>
    <circle cx="51" cy="45" r="3" style="fill:url(#h);fill-opacity:1;stroke-linecap:round;stroke-linejoin:round"/>
    <circle cx="51" cy="45" r="2" style="fill:url(#i);fill-opacity:1;stroke-linecap:round;stroke-linejoin:round"/>
    <path d="M15.957 15h32c2.216 0 2.916 1.175 4 3l6 12.225L6 30.41 11.957 18c.96-1.998 1.784-3 4-3" style="fill:url(#j);stroke-linecap:round;stroke-linejoin:round"/>
    <rect width="52" height="12" x="6" y="27" ry="4" style="opacity:1;fill:url(#k);fill-opacity:1;stroke-linecap:round;stroke-linejoin:round"/>
    <rect width="48" height="8" x="8" y="29" ry="2" style="opacity:1;fill:#4d4d4d;fill-opacity:1;stroke-linecap:round;stroke-linejoin:round"/>
    <ellipse cx="51" cy="32.9" rx="3" ry="3.1" style="opacity:1;fill:url(#l);fill-opacity:1;stroke-linecap:round;stroke-linejoin:round"/>
    <circle cx="51" cy="33" r="2" style="opacity:1;fill:url(#m);fill-opacity:1;stroke-linecap:round;stroke-linejoin:round"/>
</svg>
