<svg xmlns="http://www.w3.org/2000/svg" width="64" height="64" viewBox="0 0 64 64">
    <defs>
        <linearGradient id="a" x1=".5" x2=".5" y1="1" y2="0">
            <stop offset="0%" style="stop-color:#a1a1a1"/>
            <stop offset="100%" style="stop-color:#dedede"/>
        </linearGradient>
    </defs>
    <rect width="56" height="56" x="4" y="4" ry="12" style="fill:url(#a)"/>
    <path fill="#fff" d="M13 32c0 10.493 8.507 19 19 19s19-8.507 19-19-8.507-19-19-19-19 8.507-19 19" opacity=".6"/>
    <path fill="#1e40af" d="M32 26a6 6 0 0 1 6 6h14c0-11.046-8.954-20-20-20z" opacity=".9"/>
    <path fill="#1e40af" d="M12 32a19.93 19.93 0 0 0 5.863 14.137l9.895-9.895c.04.041.086.077.129.117A5.96 5.96 0 0 1 26 32a6 6 0 0 1 6-6V12c-11.046 0-20 8.954-20 20" opacity=".6"/>
    <path fill="#1e40af" d="M17.86 46.14A19.93 19.93 0 0 0 32 52c11.046 0 20-8.954 20-20H38a6 6 0 0 1-10.242 4.242z" opacity=".3"/>
    <path fill="#fff" d="M46 53.464a4 4 0 0 0 4-6.928L30.678 40z"/>
</svg>
