<svg xmlns="http://www.w3.org/2000/svg" xmlns:xlink="http://www.w3.org/1999/xlink" viewBox="0 0 64 64">
    <defs>
        <clipPath id="a">
            <path d="M0 0h64v64H0z"/>
        </clipPath>
        <clipPath id="c">
            <path d="M0 0h64v64H0z"/>
        </clipPath>
        <g id="e" clip-path="url(#a)">
            <path fill="#3d3846" d="M28 54h8c.55 0 1 .45 1 1s-.45 1-1 1h-8c-.55 0-1-.45-1-1s.45-1 1-1m0 0"/>
        </g>
        <g id="h" clip-path="url(#c)" mask="url(#d)">
            <use xlink:href="#e"/>
        </g>
        <linearGradient id="g" x1="48" x2="464" y1="204" y2="204" gradientTransform="matrix(.10577 0 0 .125 4.923 28.5)" gradientUnits="userSpaceOnUse">
            <stop offset="0" stop-color="#3d3846"/>
            <stop offset=".045" stop-color="#5e5c64"/>
            <stop offset=".091" stop-color="#3d3846"/>
            <stop offset=".909" stop-color="#3d3846"/>
            <stop offset=".955" stop-color="#5e5c64"/>
            <stop offset="1" stop-color="#3d3846"/>
        </linearGradient>
        <filter id="f" width="100%" height="100%" x="0%" y="0%">
            <feColorMatrix color-interpolation-filters="sRGB" values="0 0 0 0 1 0 0 0 0 1 0 0 0 0 1 0 0 0 1 0"/>
        </filter>
        <mask id="d">
            <g filter="url(#f)">
                <use xlink:href="#b"/>
            </g>
        </mask>
    </defs>
    <path fill="url(#g)" d="M14 18h36c2.21 0 4 1.79 4 4v34c0 2.21-1.79 4-4 4H14c-2.21 0-4-1.79-4-4V22c0-2.21 1.79-4 4-4m0 0"/>
    <path fill="#5e5c64" d="M14 4h36c2.21 0 4 1.79 4 4v46c0 2.21-1.79 4-4 4H14c-2.21 0-4-1.79-4-4V8c0-2.21 1.79-4 4-4m0 0"/>
    <path fill="#deddda" d="M16 8h32a2 2 0 0 1 2 2v40a2 2 0 0 1-2 2H16a2 2 0 0 1-2-2V10a2 2 0 0 1 2-2m0 0"/>
    <path fill="#c0bfbc" d="M15 39v11c0 .555.445 1 1 1h32c.555 0 .969-.45 1-1v-9s-5-3-14.39-2.797C28.007 38.348 22 44 15 39m0 0"/>
    <path fill="#3d3846" d="M16 7c-1.11 0-2 .89-2 2v1c0-1.11.89-2 2-2h32c1.11 0 2 .89 2 2V9c0-1.11-.89-2-2-2Zm0 0"/>
    <path fill="#c0bfbc" d="M37.61 21.297a4.75 4.75 0 0 1-5.239 4.215 4.75 4.75 0 0 1-4.215-5.235 4.754 4.754 0 1 1 9.453 1.02m-3.64 4.672-.192 1.285c.008.281-.035.562-.12.84-.477.097-.962.12-1.442.066-.164-.297-.164-.601-.172-.898l-.277-1.461.164.074.246 1.383c.523-.043.926-.043 1.48-.035l.172-1.22Zm0 0"/>
    <path fill="#c0bfbc" d="M33.965 26.012a6 6 0 0 1-2.164-.098c-.293-.414-.688-.676-1.164-.941l2.172-.399 2.351.39c-.719.434-1.031.622-1.195 1.048m-.938.636a.22.22 0 0 1-.05.165.23.23 0 0 1-.157.078.21.21 0 0 1-.164-.051.24.24 0 0 1-.082-.152.23.23 0 0 1 .207-.247.227.227 0 0 1 .246.207m-.203.278a.346.346 0 0 1 .375.316.35.35 0 0 1-.316.38.35.35 0 0 1-.367-.321.35.35 0 0 1 .308-.375m-.265-.227-.207.067.117.011-.067.07.098-.027-.05.114.144-.149-.024-.039Zm.492-.043.215.035-.118.028.082.058-.101-.011.066.101-.164-.12.016-.04Zm15.36-.21a3.247 3.247 0 1 1-6.481-.415 3.247 3.247 0 0 1 6.48.414m-2.344 3.293-.09.883a1.8 1.8 0 0 1-.058.578 3.3 3.3 0 0 1-.977.09c-.12-.2-.132-.402-.148-.61l-.234-.988.222.036.211.933c.356-.043.434-.031.809-.047l.086-.836Zm0 0"/>
    <path fill="#c0bfbc" d="M46.066 29.77c-.488.09-.988.09-1.476 0-.215-.278-.492-.442-.824-.61l1.472-.336 1.61.192c-.477.32-.684.457-.782.754m-.558.859c.02.16-.024.297-.094.305-.07.011-.14-.118-.156-.278-.02-.164.023-.3.09-.308.07-.008.14.117.16.28m-19.793-2.847a2.66 2.66 0 0 1-1.55 2.207 2.67 2.67 0 0 1-2.685-.285 2.65 2.65 0 0 1-1.046-2.484 2.654 2.654 0 0 1 2.918-2.364 2.66 2.66 0 0 1 2.363 2.926m0 0"/>
    <path fill="#c0bfbc" d="m23.68 30.39-.102.723c0 .157-.02.313-.07.465-.262.059-.535.07-.805.043-.09-.168-.09-.336-.094-.504l-.16-.816.16.039.137.77c.297-.024.402-.012.711-.008l.094-.68Zm0 0"/>
    <path fill="#c0bfbc" d="M23.68 30.418a3.4 3.4 0 0 1-1.211-.05c-.164-.231-.38-.38-.649-.528l1.215-.223 1.313.215c-.403.242-.575.352-.668.586m-.485.684c.008.132-.035.242-.09.246s-.113-.102-.117-.235c-.011-.133.028-.246.086-.25.059 0 .11.106.121.239m0 0"/>
    <use xlink:href="#h"/>
</svg>
