<svg xmlns="http://www.w3.org/2000/svg" viewBox="0 0 64 64">
    <path d="M15.999 3.97h32.002C54.623 3.97 60 9.347 60 15.969v32.002c0 6.622-5.377 11.999-11.999 11.999H15.999C9.377 59.97 4 54.593 4 47.971V15.969C4 9.347 9.377 3.97 15.999 3.97" style="fill:#f5f5f5"/>
    <path d="M15.999 3.97h32.002C54.623 3.97 60 9.347 60 15.969v32.002c0 6.622-5.377 11.999-11.999 11.999H15.999C9.377 59.97 4 54.593 4 47.971V15.969C4 9.347 9.377 3.97 15.999 3.97" style="fill:url(#a)"/>
    <path d="M20 22v-.001a3.016 3.016 0 0 1 3.002-3.002 3.016 3.016 0 0 1 3.002 3.002 3.016 3.016 0 0 1-3.002 3.002h-.001A3.017 3.017 0 0 1 20 22m8.999 0A3.017 3.017 0 0 1 32 18.999c1.646.001 3 1.355 3.001 3.001A3.017 3.017 0 0 1 32 25.001 3.017 3.017 0 0 1 28.999 22m8.999 0a3.016 3.016 0 0 1 3.001-2.925A3.016 3.016 0 0 1 44 22a3.016 3.016 0 0 1-3.001 2.925A3.016 3.016 0 0 1 37.998 22M20 30.001V30a3.016 3.016 0 0 1 3.002-3.002A3.016 3.016 0 0 1 26.004 30a3.016 3.016 0 0 1-3.002 3.002h-.001A3.017 3.017 0 0 1 20 30.001m8.999 0A3.017 3.017 0 0 1 32 27c1.646.001 3 1.355 3.001 3.001A3.017 3.017 0 0 1 32 33.002a3.017 3.017 0 0 1-3.001-3.001m8.999 0a3.016 3.016 0 0 1 3.001-2.925A3.016 3.016 0 0 1 44 30.001a3.016 3.016 0 0 1-3.001 2.925 3.016 3.016 0 0 1-3.001-2.925M20 37.998a3.016 3.016 0 0 1 3.002-3.002 3.016 3.016 0 0 1 3.002 3.002A3.016 3.016 0 0 1 23.002 41h-.001A3.017 3.017 0 0 1 20 37.998m8.999 0A3.017 3.017 0 0 1 32 34.997c1.646.001 3 1.355 3.001 3.001A3.017 3.017 0 0 1 32 40.999a3.017 3.017 0 0 1-3.001-3.001m8.999 0a3.016 3.016 0 0 1 3.001-2.925A3.016 3.016 0 0 1 44 37.998a3.016 3.016 0 0 1-3.001 2.925 3.016 3.016 0 0 1-3.001-2.925m-8.999 8.001A3.017 3.017 0 0 1 32 42.998c1.646.001 3 1.355 3.001 3.001A3.017 3.017 0 0 1 32 49a3.017 3.017 0 0 1-3.001-3.001" style="fill:#808080"/>
    <defs>
        <linearGradient id="a" x1="0" x2="1" y1="0" y2="0" gradientTransform="matrix(0 56 -56 0 32 3.97)" gradientUnits="userSpaceOnUse">
            <stop offset="0" style="stop-color:#fff;stop-opacity:.1"/>
            <stop offset="1" style="stop-color:#000;stop-opacity:.1"/>
        </linearGradient>
    </defs>
</svg>
