<svg xmlns="http://www.w3.org/2000/svg" viewBox="0 0 64 64">
    <defs>
        <linearGradient id="a" x1="16" x2="16" y1="30" y2="2" gradientTransform="scale(2)" gradientUnits="userSpaceOnUse">
            <stop offset="0" style="stop-color:#d1d5db"/>
            <stop offset="1" style="stop-color:#e5e7eb"/>
        </linearGradient>
    </defs>
    <rect width="56" height="56" x="4" y="4" ry="12" style="stroke-width:2;fill:url(#a)"/>
    <path d="M20 22v-.001a3.016 3.016 0 0 1 3.002-3.002 3.016 3.016 0 0 1 3.002 3.002 3.016 3.016 0 0 1-3.002 3.002h-.001A3.017 3.017 0 0 1 20 22m8.999 0A3.017 3.017 0 0 1 32 18.999c1.646.001 3 1.355 3.001 3.001A3.017 3.017 0 0 1 32 25.001 3.017 3.017 0 0 1 28.999 22m8.999 0a3.016 3.016 0 0 1 3.001-2.925A3.016 3.016 0 0 1 44 22a3.016 3.016 0 0 1-3.001 2.925A3.016 3.016 0 0 1 37.998 22M20 30.001V30a3.016 3.016 0 0 1 3.002-3.002A3.016 3.016 0 0 1 26.004 30a3.016 3.016 0 0 1-3.002 3.002h-.001A3.017 3.017 0 0 1 20 30.001m8.999 0A3.017 3.017 0 0 1 32 27c1.646.001 3 1.355 3.001 3.001A3.017 3.017 0 0 1 32 33.002a3.017 3.017 0 0 1-3.001-3.001m8.999 0a3.016 3.016 0 0 1 3.001-2.925A3.016 3.016 0 0 1 44 30.001a3.016 3.016 0 0 1-3.001 2.925 3.016 3.016 0 0 1-3.001-2.925M20 37.998a3.016 3.016 0 0 1 3.002-3.002 3.016 3.016 0 0 1 3.002 3.002A3.016 3.016 0 0 1 23.002 41h-.001A3.017 3.017 0 0 1 20 37.998m8.999 0A3.017 3.017 0 0 1 32 34.997c1.646.001 3 1.355 3.001 3.001A3.017 3.017 0 0 1 32 40.999a3.017 3.017 0 0 1-3.001-3.001m8.999 0a3.016 3.016 0 0 1 3.001-2.925A3.016 3.016 0 0 1 44 37.998a3.016 3.016 0 0 1-3.001 2.925 3.016 3.016 0 0 1-3.001-2.925m-8.999 8.001A3.017 3.017 0 0 1 32 42.998c1.646.001 3 1.355 3.001 3.001A3.017 3.017 0 0 1 32 49a3.017 3.017 0 0 1-3.001-3.001" style="fill:#6b7280"/>
</svg>
