<svg xmlns="http://www.w3.org/2000/svg" viewBox="0 0 64 64">
    <defs>
        <linearGradient id="a" x1="0" x2="128" y1="88" y2="88" gradientTransform="matrix(.47759 0 0 .47758 1.381 4.513)" gradientUnits="userSpaceOnUse">
            <stop offset="0" stop-color="#3d3846"/>
            <stop offset=".109" stop-color="#9a9996"/>
            <stop offset=".235" stop-color="#5e5c64"/>
            <stop offset=".766" stop-color="#5e5c64"/>
            <stop offset=".891" stop-color="#9a9996"/>
            <stop offset="1" stop-color="#3d3846"/>
        </linearGradient>
        <linearGradient id="b" x1="38" x2="50" y1="248" y2="248" gradientTransform="matrix(0 -.66785 -.66785 0 207.133 70.376)" gradientUnits="userSpaceOnUse">
            <stop offset="0" stop-color="#9a9996"/>
            <stop offset="1" stop-color="#9a9996" stop-opacity="0"/>
        </linearGradient>
        <linearGradient id="c" x1="38" x2="50" y1="248" y2="248" gradientTransform="matrix(0 -.66785 -.66785 0 187.617 70.376)" gradientUnits="userSpaceOnUse">
            <stop offset="0" stop-color="#9a9996"/>
            <stop offset="1" stop-color="#9a9996" stop-opacity="0"/>
        </linearGradient>
    </defs>
    <path fill="none" stroke="#77767b" stroke-linejoin="round" stroke-width="32" d="m25.873 220.093-9.872 47.905 35.4-43.996" transform="matrix(-.47759 0 0 .47758 62.513 -77.632)"/>
    <path fill="none" stroke="#77767b" stroke-linejoin="round" stroke-width="32" d="M90.874 86.095 81 134l35.408-43.996" transform="matrix(.47759 0 0 .47758 -29.662 -13.637)"/>
    <path fill="url(#a)" d="m30.254 32.824-15.277 18.98a7.65 7.65 0 0 1-7.692 2.645 7.65 7.65 0 0 1-5.715-5.785l-.03.156a7.65 7.65 0 0 0 4.226 8.45 7.645 7.645 0 0 0 9.21-2.118l16.91-21.015Zm3.387 0-1.63 1.313 16.907 21.015a7.645 7.645 0 0 0 9.21 2.118 7.65 7.65 0 0 0 4.227-8.45l-.03-.156a7.65 7.65 0 0 1-5.716 5.785 7.65 7.65 0 0 1-7.691-2.644Zm0 0"/>
    <path fill="#5e5c64" d="M27.172 27.914c0 5.805-4.703 10.508-10.508 10.508S6.156 33.719 6.156 27.914s4.707-10.508 10.508-10.508 10.508 4.707 10.508 10.508m0 0"/>
    <path fill="#5e5c64" d="M30.035 42.719c0 4.218-3.422 7.644-7.64 7.644a7.643 7.643 0 0 1 0-15.285 7.64 7.64 0 0 1 7.64 7.64m19.106 0a7.646 7.646 0 0 1-7.645 7.645c-4.215 0-7.637-3.422-7.637-7.644a7.641 7.641 0 0 1 15.282 0m0 0"/>
    <path fill="#5e5c64" d="M23.352 36.031h17.191v7.645H23.348Zm0 0"/>
    <path fill="#5e5c64" d="M57.738 27.914c0 5.805-4.707 10.508-10.508 10.508s-10.507-4.703-10.507-10.508 4.703-10.508 10.507-10.508c5.805 0 10.508 4.707 10.508 10.508m0 0"/>
    <path fill="#deddda" d="M23.352 22.66h17.191v20.06H23.348Zm0 0"/>
    <path fill="#deddda" d="M30.035 41.762a7.643 7.643 0 0 1-7.64 7.644 7.641 7.641 0 1 1 7.64-7.645m19.106 0a7.644 7.644 0 0 1-7.645 7.645 7.64 7.64 0 0 1 0-15.281c4.223 0 7.645 3.422 7.645 7.637m0 0"/>
    <path fill="#deddda" d="M16.664 16c-5.8 0-10.508 4.7-10.508 10.492 0 5.797 4.707 10.496 10.508 10.496v.48H47.23v-.48c5.801 0 10.508-4.699 10.508-10.496C57.738 20.7 53.031 16 47.23 16Zm0 0"/>
    <path fill="#3d3846" d="M16 20c-.555 0-1 .445-1 1v3h-3c-.555 0-1 .445-1 1v2c0 .555.445 1 1 1h3v3c0 .555.445 1 1 1h2c.555 0 1-.445 1-1v-3h3c.555 0 1-.445 1-1v-2c0-.555-.445-1-1-1h-3v-3c0-.555-.445-1-1-1Zm0 0"/>
    <path fill="#5e5c64" d="M16 19c-.555 0-1 .445-1 1v3h-3c-.555 0-1 .445-1 1v2c0 .555.445 1 1 1h3v3c0 .555.445 1 1 1h2c.555 0 1-.445 1-1v-3h3c.555 0 1-.445 1-1v-2c0-.555-.445-1-1-1h-3v-3c0-.555-.445-1-1-1Zm0 0"/>
    <path fill="#c01c28" d="M54 27v1c0 1.66-1.34 3-3 3s-3-1.34-3-3v-1Zm0 0"/>
    <path fill="#ed333b" d="M48 27a3 3 0 1 0 6.002-.002A3 3 0 0 0 48 27m0 0"/>
    <path fill="#1a5fb4" d="M46 23v1c0 1.66-1.34 3-3 3s-3-1.34-3-3v-1Zm0 0"/>
    <path fill="#3584e4" d="M40 23a3 3 0 1 0 6.002-.002A3 3 0 0 0 40 23m0 0"/>
    <path fill="#3d3846" d="M46.516 41.992a5.009 5.009 0 1 1-10.02 0 5.01 5.01 0 0 1 5.012-5.008 5.01 5.01 0 0 1 5.008 5.008m0 0"/>
    <path fill="#5e5c64" d="M46.516 40.988a5.009 5.009 0 1 1-10.02 0 5.01 5.01 0 0 1 5.012-5.004 5.005 5.005 0 0 1 5.008 5.004m0 0"/>
    <path fill="url(#b)" d="M41.508 36.984A4.01 4.01 0 0 0 38 38.977a4 4 0 0 0 0 4.03 4 4 0 0 0 3.508 1.99 4 4 0 0 0 4.004-4.009 4 4 0 0 0-4.004-4.004m0 0"/>
    <path fill="#3d3846" d="M27 41.992a5.008 5.008 0 1 1-10.016 0 5.009 5.009 0 0 1 10.016 0m0 0"/>
    <path fill="#5e5c64" d="M27 40.988a5.008 5.008 0 1 1-10.015.008A5.008 5.008 0 0 1 27 40.988m0 0"/>
    <path fill="url(#c)" d="M21.988 36.984a4.004 4.004 0 0 0-4.004 4.004 4.003 4.003 0 0 0 4.004 4.008 3.98 3.98 0 0 0 2.836-1.172 3.98 3.98 0 0 0 1.172-2.836 4.003 4.003 0 0 0-4.008-4.004m0 0"/>
</svg>
