<svg xmlns="http://www.w3.org/2000/svg" viewBox="0 0 64 64">
    <defs>
        <linearGradient id="a" x1="16" x2="16" y1="30" y2="2" gradientTransform="scale(2)" gradientUnits="userSpaceOnUse">
            <stop offset="0" style="stop-color:#d1d5db"/>
            <stop offset="1" style="stop-color:#e5e7eb"/>
        </linearGradient>
    </defs>
    <rect width="56" height="56" x="4" y="4" ry="12" style="stroke-width:2;fill:url(#a)"/>
    <path d="M13.819 18A1.815 1.815 0 0 0 12 19.819v3.636c0 1.006.811 1.818 1.819 1.818h3.636a1.816 1.816 0 0 0 1.818-1.818v-3.636A1.815 1.815 0 0 0 17.455 18zm10.908 0a1.814 1.814 0 0 0-1.818 1.819v3.636c0 1.006.81 1.818 1.818 1.818h3.637a1.814 1.814 0 0 0 1.817-1.818v-3.636c0-1.008-.81-1.819-1.817-1.819zm10.909 0a1.814 1.814 0 0 0-1.817 1.819v3.636c0 1.006.81 1.818 1.817 1.818h3.637a1.816 1.816 0 0 0 1.818-1.818v-3.636A1.815 1.815 0 0 0 39.273 18zm10.908 0a1.815 1.815 0 0 0-1.817 1.819v3.636c0 1.006.812 1.818 1.817 1.818h3.637A1.815 1.815 0 0 0 52 23.455v-3.636A1.815 1.815 0 0 0 50.181 18zM13.819 28.909c-1.008 0-1.819.81-1.819 1.818v3.637c0 1.007.811 1.817 1.819 1.817h3.636c1.006 0 1.818-.81 1.818-1.817v-3.637a1.814 1.814 0 0 0-1.818-1.818zm10.908 0c-1.008 0-1.818.81-1.818 1.818v3.637c0 1.007.81 1.817 1.818 1.817h3.637c1.007 0 1.817-.81 1.817-1.817v-3.637c0-1.008-.81-1.818-1.817-1.818zm10.909 0c-1.007 0-1.817.81-1.817 1.818v3.637c0 1.007.81 1.817 1.817 1.817h3.637c1.006 0 1.818-.81 1.818-1.817v-3.637a1.814 1.814 0 0 0-1.818-1.818zm10.908 0c-1.005 0-1.817.81-1.817 1.818v3.637c0 1.007.812 1.817 1.817 1.817h3.637c1.008 0 1.819-.81 1.819-1.817v-3.637a1.814 1.814 0 0 0-1.819-1.818zm-25.453 10.91c-1.007 0-1.818.81-1.818 1.817v3.637c0 1.006.811 1.818 1.818 1.818h21.818a1.815 1.815 0 0 0 1.818-1.818v-3.637a1.813 1.813 0 0 0-1.818-1.817z" style="fill-opacity:1;stroke-width:2;stroke-linecap:round;stroke-linejoin:round;fill:#71717a"/>
</svg>
