<svg xmlns="http://www.w3.org/2000/svg" width="64" height="64" viewBox="0 0 64 64">
    <linearGradient id="a" x1=".288" x2="1" y1="0" y2=".789" gradientTransform="matrix(60 0 0 60 2 2)" gradientUnits="userSpaceOnUse">
        <stop offset="0%" style="stop-color:#ccc"/>
        <stop offset="50%" style="stop-color:#f5f5f5"/>
        <stop offset="100%" style="stop-color:#ccc"/>
    </linearGradient>
    <path fill="url(#a)" fill-rule="evenodd" d="M2 32C2 15.443 15.443 2 32 2s30 13.443 30 30-13.443 30-30 30S2 48.557 2 32m24 0c0-3.311 2.689-6 6-6s6 2.689 6 6-2.689 6-6 6-6-2.689-6-6"/>
    <path fill="#1f2937" d="M32 20c-6.627 0-12 5.373-12 12s5.373 12 12 12 12-5.373 12-12-5.373-12-12-12m0 6a6 6 0 1 1 0 12 6 6 0 0 1 0-12" opacity=".3"/>
    <g opacity=".8">
        <linearGradient id="b" x1=".572" x2="1.013" y1=".549" y2=".44" gradientTransform="matrix(-12.342 -.366 .522 -19.386 43.571 62.453)" gradientUnits="userSpaceOnUse">
            <stop offset="0%" style="stop-color:#e6cde2"/>
            <stop offset="100%" stop-opacity="0" style="stop-color:#e6cde2"/>
        </linearGradient>
        <path fill="url(#b)" d="m43.644 59.735-6.683-16.879a11.9 11.9 0 0 1-5.079.979l-.141-.005-.512 18.249c4.398.242 8.319-.786 12.415-2.344"/>
    </g>
    <g opacity=".8">
        <linearGradient id="c" x1=".529" x2=".869" y1=".528" y2=".393" gradientTransform="matrix(-15.212 0 0 -20.173 50.019 61.43)" gradientUnits="userSpaceOnUse">
            <stop offset="0%" style="stop-color:#c1cbe4"/>
            <stop offset="100%" stop-opacity="0" style="stop-color:#c1cbe4"/>
        </linearGradient>
        <path fill="url(#c)" d="M50.019 55.963 39.647 41.257a12.1 12.1 0 0 1-4.703 2.24l-.137.031 3.636 17.902c4.323-.882 7.96-2.915 11.576-5.467"/>
    </g>
    <g opacity=".8">
        <linearGradient id="d" x1=".487" x2=".726" y1=".541" y2=".351" gradientTransform="matrix(-17.903 0 0 -19.72 55.809 58.564)" gradientUnits="userSpaceOnUse">
            <stop offset="0%" style="stop-color:#c4ebdd"/>
            <stop offset="100%" stop-opacity="0" style="stop-color:#c4ebdd"/>
        </linearGradient>
        <path fill="url(#d)" d="M55.809 50.086 42.021 38.844a12.6 12.6 0 0 1-3.991 3.441l-.124.067 8.006 16.212c3.958-2.027 7.033-5.03 9.897-8.478"/>
    </g>
    <g opacity=".8">
        <linearGradient id="e" x1=".527" x2=".703" y1=".637" y2=".423" gradientTransform="matrix(-19.12 0 0 -17.416 59.729 54.037)" gradientUnits="userSpaceOnUse">
            <stop offset="0%" style="stop-color:#ebeec7"/>
            <stop offset="100%" stop-opacity="0" style="stop-color:#ebeec7"/>
        </linearGradient>
        <path fill="url(#e)" d="M59.729 43.13c-10.737-3.522-11.748-11.047-19.12-2.756l11.836 13.663c3.324-3.033 5.367-6.799 7.284-10.907"/>
    </g>
    <g opacity=".8">
        <linearGradient id="f" x1=".483" x2=".412" y1=".544" y2=".765" gradientTransform="matrix(-18.511 0 0 -13.542 61.229 47.656)" gradientUnits="userSpaceOnUse">
            <stop offset="0%" style="stop-color:#fcd9cd"/>
            <stop offset="100%" stop-opacity="0" style="stop-color:#fcd9cd"/>
        </linearGradient>
        <path fill="url(#f)" d="M57.45 47.656c1.771-2.752 2.855-5.713 3.779-8.867l-16.968-4.675c-.322 1.199-.775 2.38-1.449 3.486-.026.043-.068.106-.094.148z"/>
    </g>
    <g opacity=".8">
        <linearGradient id="g" x1=".572" x2="1.013" y1=".549" y2=".44" gradientTransform="matrix(12.342 .366 -.522 19.386 20.429 1.662)" gradientUnits="userSpaceOnUse">
            <stop offset="0%" style="stop-color:#e6cde2"/>
            <stop offset="100%" stop-opacity="0" style="stop-color:#e6cde2"/>
        </linearGradient>
        <path fill="url(#g)" d="m20.356 4.38 6.683 16.879a11.9 11.9 0 0 1 5.22-.975l.512-18.249c-4.398-.241-8.319.786-12.415 2.345"/>
    </g>
    <g opacity=".8">
        <linearGradient id="h" x1=".529" x2=".869" y1=".528" y2=".393" gradientTransform="matrix(15.212 0 0 20.173 13.981 2.684)" gradientUnits="userSpaceOnUse">
            <stop offset="0%" style="stop-color:#c1cbe4"/>
            <stop offset="100%" stop-opacity="0" style="stop-color:#c1cbe4"/>
        </linearGradient>
        <path fill="url(#h)" d="m13.981 8.151 10.372 14.706a12.1 12.1 0 0 1 4.703-2.239l.137-.032-3.636-17.902c-4.323.882-7.96 2.916-11.576 5.467"/>
    </g>
    <g opacity=".8">
        <linearGradient id="i" x1=".487" x2=".726" y1=".541" y2=".351" gradientTransform="matrix(17.903 0 0 19.72 8.191 5.55)" gradientUnits="userSpaceOnUse">
            <stop offset="0%" style="stop-color:#c4ebdd"/>
            <stop offset="100%" stop-opacity="0" style="stop-color:#c4ebdd"/>
        </linearGradient>
        <path fill="url(#i)" d="m8.191 14.028 13.788 11.243a12.6 12.6 0 0 1 3.991-3.441l.124-.068L18.088 5.55c-3.958 2.027-7.033 5.031-9.897 8.478"/>
    </g>
    <g opacity=".8">
        <linearGradient id="j" x1=".527" x2=".703" y1=".637" y2=".423" gradientTransform="matrix(19.12 0 0 17.416 4.271 10.078)" gradientUnits="userSpaceOnUse">
            <stop offset="0%" style="stop-color:#ebeec7"/>
            <stop offset="100%" stop-opacity="0" style="stop-color:#ebeec7"/>
        </linearGradient>
        <path fill="url(#j)" d="M4.271 20.984c10.737 3.523 11.748 11.047 19.12 2.756L11.555 10.078c-3.324 3.033-5.367 6.798-7.284 10.906"/>
    </g>
    <g opacity=".8">
        <linearGradient id="k" x1=".483" x2=".412" y1=".544" y2=".765" gradientTransform="matrix(18.511 0 0 13.542 2.771 16.458)" gradientUnits="userSpaceOnUse">
            <stop offset="0%" style="stop-color:#fcd9cd"/>
            <stop offset="100%" stop-opacity="0" style="stop-color:#fcd9cd"/>
        </linearGradient>
        <path fill="url(#k)" d="M6.55 16.458c-1.771 2.753-2.855 5.713-3.779 8.867L19.739 30c.322-1.199.775-2.38 1.449-3.486l.094-.147z"/>
    </g>
</svg>
