<svg xmlns="http://www.w3.org/2000/svg" viewBox="0 0 64 64">
    <defs>
        <linearGradient id="d" x1="287.89" x2="325.21" y1="471.55" y2="471.55" gradientTransform="matrix(0 -.85714 -.88889 0 437.149 294.919)" gradientUnits="userSpaceOnUse">
            <stop offset="0" stop-color="#2a2c2f"/>
            <stop offset="1" stop-color="#424649"/>
        </linearGradient>
        <linearGradient id="b" x1="7.937" x2="7.937" y1="15.081" y2="1.852" gradientTransform="translate(0 .031)scale(3.7796)" gradientUnits="userSpaceOnUse">
            <stop offset="0" stop-color="#298f38"/>
            <stop offset="1" stop-color="#20df5f"/>
        </linearGradient>
        <mask id="c">
            <g filter="url(#a)">
                <path fill-opacity=".25" d="M-6.4-6.4h76.8v76.8H-6.4z"/>
            </g>
        </mask>
        <mask id="f">
            <g filter="url(#a)">
                <path fill-opacity=".25" d="M-6.4-6.4h76.8v76.8H-6.4z"/>
            </g>
        </mask>
        <clipPath id="e">
            <path d="M0 0h64v64H0z"/>
        </clipPath>
        <filter id="a" width="100%" height="100%" x="0%" y="0%">
            <feColorMatrix color-interpolation-filters="sRGB" values="0 0 0 0 1 0 0 0 0 1 0 0 0 0 1 0 0 0 1 0"/>
        </filter>
    </defs>
    <rect width="56" height="56" x="4" y="4" fill="url(#b)" rx="12" style="stroke-width:1"/>
    <path d="M17 4v6.172l4 4V4Zm6 0v12.168l3.5 3.504.672-.672H26V4Zm5 0v14.172l3.176-3.176H31V4Zm5 0v9.172l3-3V4Zm5 0v7L27.914 21.09 29 22.176l12-12V4Zm5 0v7L29.563 24.434l-.567-.563-.562.567L26.5 22.5l-1.937 1.934-.567-.563-.562.567L9.996 11V6.035A12.9 12.9 0 0 0 6.152 9.79v7.137L4 19.078v2.156l3.23 3.227h9.586l-7.468-7.469A1.503 1.503 0 0 1 7.996 15.5a1.501 1.501 0 1 1 2.977.29l8.672 8.67h28.507l7.54-8.616h4.253q-.052-.54-.144-1.074h-4.11v-4.31l-8.617 9.692h-3.23l8.617-9.691V5.17A12.9 12.9 0 0 0 48 4.036V11L34.566 24.434l-1.418-1.41 12.848-12.852V4Zm-28 .148a13 13 0 0 0-3 .832v5.192l12 12 1.086-1.086L23 19h-2v-2.004L15.004 11Zm-.23 33.23L4 45.997v.969c0 .73.074 1.441.188 2.137l6.273-4.18v2.152l-5.836 3.89.152.415H8.31v5.246a12.8 12.8 0 0 0 6.46 3.137v-11.61l6.461-5.386h3.23L18 48.152V59.97h4v-5.106l13.438-13.43L36 42l.566-.566 1.934 1.933 1.934-1.933L41 42l.566-.566L55 54.867v2.34a12.8 12.8 0 0 0 2.254-2.258L45.152 42.844l1.414-1.41L58.38 53.246a13 13 0 0 0 1.46-4.32l-7.378-9.39h-2.156l-2.153-2.157h-12.95l.238.238-12.464 12.461q.029.145.027.29a1.5 1.5 0 1 1-1.649-1.493l11.489-11.492ZM36 43.696 24 55.7v4.274h3v-5.106l5.996-5.996v-2H35l2.082-2.086Zm5 0-1.086 1.086L50 54.867v4.742a13 13 0 0 0 3-1.113v-2.8Zm-2.5 2.5-3.5 3.5V59.97h3V46.867h1.172Zm1.5 1.5V59.97h3v-9.102h.172Zm-7 4.008-4 4v4.274h3.996Zm12 1v7.274h2.004q.504 0 .996-.047v-4.227Zm0 0" style="fill-opacity:.1"/>
    <g mask="url(#c)">
        <use href="#h"/>
    </g>
    <path fill="url(#d)" d="M48 44.965v-26a3 3 0 0 0-3-3H19.004a3 3 0 0 0-3 3v26a3 3 0 0 0 3 3.004H45c1.656 0 3-1.344 3-3.004m0 0"/>
    <path fill="#f55" d="M21 21h8v1h-8Zm0 0"/>
    <path fill="#fff" d="M21 23h3v1h-3Zm4 0h3.996v1H25Zm9 17v1h-3v1h13.004v-1H43v-1h-1v1h-2v-1h-1v1h-1v-1h-1v1h-2v-1Zm0 0"/>
    <path fill="#fff" fill-opacity=".776" d="M16.2 13.781v-.8h.8v.8Zm.8-.8v-.801h.8v.8Zm.8 0h.802v.8H17.8Zm.802 0v-.801h.8v.8Zm.8 0h.797v.8h-.797Zm.797 0v-.801H21v.8Zm.801 0h.8v.8H21Zm.8 0v-.801h.802v.8Zm.802 0h.8v.8h-.8Zm.8 0v-.801h.797v.8Zm.797 0H25v.8h-.8Zm.801 0v-.801h.8v.8Zm.8 0h.802v.8H25.8Zm.802 0v-.801h.8v.8Zm.8 0h.797v.8h-.797Zm.797 0v-.801H29v.8Zm0 0"/>
    <path fill="#fff" fill-opacity=".776" fill-rule="evenodd" d="m13 13.8 1.602-1.6H13Zm0 0"/>
    <path fill="#fff" fill-opacity=".776" d="M48.203 13.781v-.8h-.8v.8Zm-.8-.8v-.801h-.801v.8Zm-.801 0H45.8v.8h.8Zm-.801 0v-.801H45v.8Zm-.801 0h-.797v.8H45Zm-.797 0v-.801h-.8v.8Zm-.8 0h-.801v.8h.8Zm-.801 0v-.801H41.8v.8Zm-.801 0H41v.8h.8Zm-.801 0v-.801h-.797v.8Zm-.797 0h-.8v.8h.8Zm-.8 0v-.801h-.801v.8Zm-.801 0H37.8v.8h.8Zm-.801 0v-.801H37v.8Zm-.801 0h-.8v.8h.8Zm-.8 0v-.801h-.798v.8Zm-24 18.398h.8v.8h-.8Zm.8.8h.8v.801H13Zm0 .801v.801h-.8v-.8Zm0 .801h.8v.801H13Zm0 .801v.797h-.8v-.797Zm0 .797h.8v.8H13Zm0 .8v.801h-.8v-.8Zm0 .801h.8v.801H13Zm0 .801v.801h-.8v-.8Zm0 .801h.8v.797H13Zm0 .797v.8h-.8v-.8Zm0 .8h.8v.801H13Zm0 .801v.801h-.8v-.8Zm0 .801h.8v.801H13Zm0 .801v.8h-.8v-.8Zm0 .8h.8v.798H13Zm.793-19.984v-.796h-.797v.796Zm-.797-.796V21.8h-.8v.8Zm0-.801h.797V21h-.797Zm0-.801v-.8h-.8v.8Zm0-.8h.797v-.802h-.797Zm0-.802v-.796h-.8v.796Zm0-.796h.797V17.8h-.797Zm0-.801V17h-.8v.8Zm0-.801h.797v-.8h-.797Zm0 0"/>
    <g clip-path="url(#e)" mask="url(#f)">
        <path d="M15.695 51A2.675 2.675 0 0 0 13 53.691v5.59c1.29.442 2.637.672 4 .688h13.004a2 2 0 0 1 1.996-2 2 2 0 0 1 2 2.004h13.004A13 13 0 0 0 51 59.34v-5.65a2.68 2.68 0 0 0-.79-1.906A2.66 2.66 0 0 0 48.306 51Zm0 0"/>
    </g>
    <path fill="#cfcf1c" d="M17 53.867a1 1 0 0 0-.707.293.97.97 0 0 0-.293.707v5.008a12 12 0 0 0 1 .098h1v-5.106a1 1 0 0 0-1-1m5 0a1 1 0 0 0-1 1v5.106h2.004v-5.106a1 1 0 0 0-1.004-1m5 0a1 1 0 0 0-1 1v5.106h2.004v-5.106a1 1 0 0 0-1.004-1m10 0a1 1 0 0 0-1 1v5.106h2v-5.106a1 1 0 0 0-1-1m5 0a1 1 0 0 0-1 1v5.106h2v-5.106a1 1 0 0 0-1-1m5 0a1 1 0 0 0-1 1v5.106h1.004q.498-.002.996-.04v-5.066a1 1 0 0 0-1-1"/>
</svg>
