<svg xmlns="http://www.w3.org/2000/svg" viewBox="0 0 64 64">
    <defs>
        <linearGradient id="a" x1="16" x2="16" y1="30" y2="2" gradientTransform="scale(2)" gradientUnits="userSpaceOnUse">
            <stop offset="0" style="stop-color:#d1d5db"/>
            <stop offset="1" style="stop-color:#e5e7eb"/>
        </linearGradient>
    </defs>
    <rect width="56" height="56" x="4" y="4" ry="12" style="stroke-width:2;fill:url(#a)"/>
    <path d="M32.004 14c-3.488 0-6.298 2.755-6.298 6.178v13.18c0 3.422 2.81 6.178 6.298 6.178S38.3 36.78 38.3 33.357V20.178c0-3.423-2.808-6.178-6.296-6.178m9.85 14.791a1.14 1.14 0 0 0-.804.337c-.212.213-.328.5-.322.798v3.843c0 2.904-1.063 4.86-2.65 6.166s-3.764 1.949-5.98 1.89c-2.215-.057-4.436-.817-6.07-2.175-1.633-1.357-2.717-3.274-2.757-5.897v-3.827a1.1 1.1 0 0 0-.332-.803 1.153 1.153 0 0 0-1.617.01c-.21.212-.325.497-.321.793v3.857c.048 3.23 1.482 5.834 3.564 7.564 1.78 1.479 4.008 2.345 6.3 2.611v3.615H26.39c-.685 0-1.237.542-1.237 1.215A1.226 1.226 0 0 0 26.373 50h11.244c.685 0 1.238-.54 1.238-1.212 0-.673-.553-1.215-1.238-1.215h-4.482v-3.548c2.325-.136 4.606-.904 6.407-2.387C41.626 39.922 43 37.232 43 33.768v-3.842a1.1 1.1 0 0 0-.329-.806 1.15 1.15 0 0 0-.818-.329z" style="fill-rule:nonzero;fill:#6b7280"/>
</svg>
