<svg xmlns="http://www.w3.org/2000/svg" viewBox="0 0 64 64">
    <defs>
        <linearGradient id="a" x1="16" x2="16" y1="30" y2="2" gradientTransform="scale(2)" gradientUnits="userSpaceOnUse">
            <stop offset="0" style="stop-color:#d1d5db"/>
            <stop offset="1" style="stop-color:#e5e7eb"/>
        </linearGradient>
    </defs>
    <rect width="56" height="56" x="4" y="4" ry="12" style="stroke-width:2;fill:url(#a)"/>
    <linearGradient id="b" x1="0" x2="0" y1="0" y2="1" gradientTransform="matrix(36 0 0 32 14 18)" gradientUnits="userSpaceOnUse">
        <stop offset="0" style="stop-color:#363636"/>
        <stop offset="1" style="stop-color:#5a5a5a"/>
    </linearGradient>
    <path fill="url(#b)" d="M18 18c-2.216 0-4 1.784-4 4v20c0 2.216 1.784 4 4 4h6v2c0 1.108.892 2 2 2h12c1.108 0 2-.892 2-2v-2h6c2.216 0 4-1.784 4-4V22c0-2.216-1.784-4-4-4z"/>
    <linearGradient id="c" x1="1" x2="1" y1="1" y2="0" gradientTransform="matrix(20 0 0 8 22 20)" gradientUnits="userSpaceOnUse">
        <stop offset="0" style="stop-color:#f0b63e"/>
        <stop offset="1" style="stop-color:#e2981b"/>
    </linearGradient>
    <path fill="url(#c)" d="M22 20v8h2v-8zm6 0v8h2v-8zm6 0v8h2v-8zm6 0v8h2v-8z"/>
</svg>
