<svg xmlns="http://www.w3.org/2000/svg" viewBox="0 0 64 64">
    <defs>
        <linearGradient id="a" x1="16" x2="16" y1="30" y2="2" gradientTransform="scale(2)" gradientUnits="userSpaceOnUse">
            <stop offset="0" style="stop-color:#d1d5db"/>
            <stop offset="1" style="stop-color:#e5e7eb"/>
        </linearGradient>
    </defs>
    <rect width="56" height="56" x="4" y="4" ry="12" style="stroke-width:2;fill:url(#a)"/>
    <path d="M32.018 18a22.95 22.95 0 0 0-18.331 9.143.917.917 0 1 0 1.466 1.104c8.448-11.214 25.282-11.214 33.728 0a.92.92 0 0 0 1.468-1.104A22.95 22.95 0 0 0 32.018 18m0 7.345a15.61 15.61 0 0 0-12.787 6.657.92.92 0 0 0 .226 1.28.916.916 0 0 0 1.277-.226 13.773 13.773 0 0 1 22.567 0 .918.918 0 1 0 1.503-1.054 15.61 15.61 0 0 0-12.786-6.657m0 7.345a8.27 8.27 0 0 0-6.769 3.527.918.918 0 0 0 1.504 1.053 6.43 6.43 0 0 1 5.265-2.743 6.43 6.43 0 0 1 5.264 2.743.919.919 0 0 0 1.504-1.053 8.26 8.26 0 0 0-6.768-3.527m0 7.346c-2.121 0-3.446 2.294-2.386 4.132a2.75 2.75 0 0 0 2.386 1.377c2.119 0 3.445-2.295 2.385-4.132a2.75 2.75 0 0 0-2.385-1.377" style="paint-order:fill;stroke:#0284c7;fill:#0284c7"/>
</svg>
