<svg xmlns="http://www.w3.org/2000/svg" viewBox="0 0 64 64">
    <defs>
        <linearGradient id="b" x1="16" x2="16" y1="30" y2="2" gradientTransform="scale(2)" gradientUnits="userSpaceOnUse" href="#a"/>
        <linearGradient id="a">
            <stop offset="0" style="stop-color:#0091f9"/>
            <stop offset="1" style="stop-color:#41bbff"/>
        </linearGradient>
    </defs>
    <rect width="56" height="56" x="4" y="4" rx="12" style="stroke-width:2;fill:url(#b)"/>
    <path d="M23 10c-2.216 0-4 1.784-4 4v36c0 2.216 1.784 4 4 4h18c2.216 0 4-1.784 4-4V14c0-2.216-1.784-4-4-4zm5 39h8c.554 0 1 .446 1 1s-.446 1-1 1h-8c-.554 0-1-.446-1-1s.446-1 1-1" style="fill:#fff;stroke-width:2;stroke-linejoin:round"/>
</svg>
