<svg xmlns="http://www.w3.org/2000/svg" width="64" height="64" viewBox="0 0 64 64">
    <path fill="#94a3b8" d="m8 14 3.48 40.023C11.767 57.322 14.689 60 18 60h28c3.311 0 6.233-2.678 6.52-5.977L56 14z"/>
    <linearGradient id="a" x1=".5" x2=".5" y1="0" y2="1" gradientTransform="matrix(48 0 0 46 8 14)" gradientUnits="userSpaceOnUse">
        <stop offset="0%" stop-opacity=".3" style="stop-color:#fff"/>
        <stop offset="100%" stop-opacity=".2" style="stop-color:#fff"/>
    </linearGradient>
    <path fill="url(#a)" d="m8 14 3.48 40.023C11.767 57.322 14.689 60 18 60h28c3.311 0 6.233-2.678 6.52-5.977L56 14z"/>
    <linearGradient id="b" x1="-.022" x2="1.017" y1="0" y2="0" gradientTransform="matrix(48 0 0 46 8 14)" gradientUnits="userSpaceOnUse">
        <stop offset="0%" stop-opacity=".2" style="stop-color:#000"/>
        <stop offset="25%" stop-opacity="0" style="stop-color:#000"/>
        <stop offset="75%" stop-opacity="0" style="stop-color:#000"/>
        <stop offset="100%" stop-opacity=".2" style="stop-color:#000"/>
    </linearGradient>
    <path fill="url(#b)" d="m8 14 3.48 40.023C11.767 57.322 14.689 60 18 60h28c3.311 0 6.233-2.678 6.52-5.977L56 14z"/>
    <g style="opacity:.5">
        <path d="M42.251 23.002 42.122 23a1.094 1.094 0 0 0-1.103 1.045l-1.028 25.876a1.03 1.03 0 0 0 1.018 1.077l.129.002a1.094 1.094 0 0 0 1.103-1.045l1.028-25.876a1.03 1.03 0 0 0-1.018-1.077m-20.502 0 .129-.002a1.094 1.094 0 0 1 1.103 1.045l1.028 25.876a1.03 1.03 0 0 1-1.018 1.077l-.129.002a1.094 1.094 0 0 1-1.103-1.045l-1.028-25.876a1.03 1.03 0 0 1 1.018-1.077" style="stroke:none;fill:#64748b;stroke-miterlimit:10"/>
    </g>
    <defs>
        <linearGradient id="c" x1=".5" x2=".497" y1="0" y2=".73">
            <stop offset="0%" style="stop-color:#94a3b8"/>
            <stop offset="100%" style="stop-color:#64748b"/>
        </linearGradient>
    </defs>
    <path d="M22.854 8h18.292a2.856 2.856 0 0 1 0 5.71H22.854a2.856 2.856 0 0 1 0-5.71" style="stroke:none;fill:url(#c);stroke-miterlimit:10"/>
    <linearGradient id="d" x1=".5" x2=".5" y1="0" y2="1" gradientTransform="matrix(48 0 0 1.692 8 14.308)" gradientUnits="userSpaceOnUse">
        <stop offset="0%" stop-opacity=".3" style="stop-color:#000"/>
        <stop offset="100%" stop-opacity="0" style="stop-color:#000"/>
    </linearGradient>
    <path fill="url(#d)" d="M8 14.308h48V16H8z"/>
    <linearGradient id="f" x1=".5" x2=".5" y1="0" y2="1" gradientTransform="matrix(48 0 0 4.308 8 10)" gradientUnits="userSpaceOnUse">
        <stop offset="0%" style="stop-color:#cbd5e1"/>
        <stop offset="100%" style="stop-color:#94a3b8"/>
    </linearGradient>
    <path fill="url(#f)" d="M14 10h36c3.311 0 6 1.93 6 4.308H8C8 11.93 10.689 10 14 10"/>
    <linearGradient id="g" x1="-.022" x2="1.017" y1="0" y2="0" gradientTransform="matrix(48 0 0 4.308 8 10)" gradientUnits="userSpaceOnUse">
        <stop offset="0%" stop-opacity=".3" style="stop-color:#000"/>
        <stop offset="25%" stop-opacity="0" style="stop-color:#fff"/>
        <stop offset="75%" stop-opacity="0" style="stop-color:#fff"/>
        <stop offset="100%" stop-opacity=".3" style="stop-color:#000"/>
    </linearGradient>
    <path fill="url(#g)" fill-opacity=".5" d="M14 10h36c3.311 0 6 1.93 6 4.308H8C8 11.93 10.689 10 14 10"/>
</svg>
