<svg xmlns="http://www.w3.org/2000/svg" width="64" height="64" viewBox="0 0 64 64">
    <path fill="#9cf" d="m12 14.151 9.322-7.2c1.276-.985 3.506-1.248 4.976-.585l17.281 7.785"/>
    <linearGradient id="a" x1=".5" x2=".5" y1="1.013" y2="-.017" gradientTransform="matrix(-31.579 0 0 8.986 43.579 5.166)" gradientUnits="userSpaceOnUse">
        <stop offset="0%" stop-opacity=".2" style="stop-color:#000"/>
        <stop offset="100%" stop-opacity="0" style="stop-color:#000"/>
    </linearGradient>
    <path fill="url(#a)" fill-opacity=".8" d="m12 14.151 9.322-7.2c1.276-.985 3.506-1.248 4.976-.585l17.281 7.785"/>
    <path fill-opacity=".2" d="m12 14.151 9.322-7.2c1.276-.985 3.506-1.248 4.976-.585l17.281 7.785"/>
    <path fill="#9cf" d="m28.842 14.151 7.05-6.155c1.079-.943 2.973-1.143 4.226-.447L52 14.151"/>
    <linearGradient id="b" x1=".5" x2=".5" y1="1.013" y2="-.017" gradientTransform="matrix(-23.158 0 0 7.864 52 6.288)" gradientUnits="userSpaceOnUse">
        <stop offset="0%" stop-opacity=".2" style="stop-color:#000"/>
        <stop offset="100%" stop-opacity="0" style="stop-color:#000"/>
    </linearGradient>
    <path fill="url(#b)" fill-opacity=".8" d="m28.842 14.151 7.05-6.155c1.079-.943 2.973-1.143 4.226-.447L52 14.151"/>
    <path fill="#94a3b8" d="m8.087 14.996 3.393 39.027C11.767 57.322 14.689 60 18 60h28c3.311 0 6.233-2.678 6.52-5.977l3.393-39.027A.9.9 0 0 0 55 14H9a.9.9 0 0 0-.913.996"/>
    <linearGradient id="c" x1=".5" x2=".5" y1="0" y2="1" gradientTransform="matrix(48 0 0 46 8 14)" gradientUnits="userSpaceOnUse">
        <stop offset="0%" stop-opacity=".3" style="stop-color:#fff"/>
        <stop offset="100%" stop-opacity=".2" style="stop-color:#fff"/>
    </linearGradient>
    <path fill="url(#c)" d="m8.087 14.996 3.393 39.027C11.767 57.322 14.689 60 18 60h28c3.311 0 6.233-2.678 6.52-5.977l3.393-39.027A.9.9 0 0 0 55 14H9a.9.9 0 0 0-.913.996"/>
    <linearGradient id="d" x1="-.022" x2="1.017" y1="0" y2="0" gradientTransform="matrix(48 0 0 46 8 14)" gradientUnits="userSpaceOnUse">
        <stop offset="0%" stop-opacity=".2" style="stop-color:#000"/>
        <stop offset="25%" stop-opacity="0" style="stop-color:#000"/>
        <stop offset="75%" stop-opacity="0" style="stop-color:#000"/>
        <stop offset="100%" stop-opacity=".2" style="stop-color:#000"/>
    </linearGradient>
    <path fill="url(#d)" d="m8.087 14.996 3.393 39.027C11.767 57.322 14.689 60 18 60h28c3.311 0 6.233-2.678 6.52-5.977l3.393-39.027A.9.9 0 0 0 55 14H9a.9.9 0 0 0-.913.996"/>
    <g style="opacity:.5">
        <path d="M42.251 23.002 42.122 23a1.094 1.094 0 0 0-1.103 1.045l-1.028 25.876a1.03 1.03 0 0 0 1.018 1.077l.129.002a1.094 1.094 0 0 0 1.103-1.045l1.028-25.876a1.03 1.03 0 0 0-1.018-1.077m-20.502 0 .129-.002a1.094 1.094 0 0 1 1.103 1.045l1.028 25.876a1.03 1.03 0 0 1-1.018 1.077l-.129.002a1.094 1.094 0 0 1-1.103-1.045l-1.028-25.876a1.03 1.03 0 0 1 1.018-1.077" style="stroke:none;fill:#64748b;stroke-miterlimit:10"/>
    </g>
    <g opacity=".2">
        <path fill="#036" d="M50 14c-15.835 2.494-21.027 12.093-25.548 7.995Q19.93 17.897 14 14z"/>
        <path fill-opacity=".5" d="M50 14c-15.835 2.494-21.027 12.093-25.548 7.995Q19.93 17.897 14 14z"/>
    </g>
    <path fill="#9cf" d="M50 14c-15.835 1.996-21.027 9.675-25.548 6.396Q19.93 17.118 14 14z"/>
    <linearGradient id="f" x1=".5" x2=".5" y1="0" y2="1" gradientTransform="matrix(36 0 0 7.2 14 14)" gradientUnits="userSpaceOnUse">
        <stop offset="0%" stop-opacity=".9" style="stop-color:#fff"/>
        <stop offset="100%" style="stop-color:#fff"/>
    </linearGradient>
    <path fill="url(#f)" d="M50 14c-15.835 1.996-21.027 9.675-25.548 6.396Q19.93 17.118 14 14z"/>
</svg>
