<svg xmlns="http://www.w3.org/2000/svg" xmlns:xlink="http://www.w3.org/1999/xlink" viewBox="0 0 24 24">
    <defs>
        <path id="a" d="M7 5a1 1 0 0 0-1 1v8H5V9.5l-2 2c-.5.5-.5 1-.25 1.5l2 4h9.5L16 13.5V10a1 1 0 0 0-1-1v2h-1V8a1 1 0 0 0-1-1h-1v3h-1V7a1 1 0 0 0-1-1H9v4H8V6a1 1 0 0 0-1-1" class="left(-1,23)"/>
        <path id="b" d="M16 13v3h-3.5A3.5 3 0 0 0 9 19a3.5 3 0 0 0 2.82 2.94c-.42-.39-.82-.77-.82-1.44a1.5 1.5 0 0 1 1.5-1.5H16v3l5-4.5z" class="left(1,-6)"/>
    </defs>
    <g style="fill:none;stroke:#009;stroke-width:2;stroke-linejoin:round;opacity:.2">
        <use xlink:href="#a" x="1" y="1"/>
        <use xlink:href="#b" x="1" y="1"/>
    </g>
    <use xlink:href="#a" style="fill:#000;stroke:#000;stroke-width:2;stroke-linejoin:round;stroke-opacity:.8"/>
    <use xlink:href="#a" style="fill:#fff"/>
    <use xlink:href="#b" style="fill:#000;stroke:#000;stroke-width:2;stroke-linejoin:round;stroke-opacity:.8"/>
    <use xlink:href="#b" style="fill:#fff"/>
    <circle id="hot" cx="10" cy="10" r="1" class="left(-1,23)" style="fill:red"/>
</svg>
