<svg xmlns="http://www.w3.org/2000/svg" viewBox="0 0 24 24">
    <defs>
        <mask id="b" class="anim" maskUnits="userSpaceOnUse">
            <path fill="#fff" d="M11.947 6.737V12H13V6.737z" style="stroke-width:1"/>
            <path fill="#fff" d="m11.137 6.966.823 5.199L13 12l-.823-5.198z" style="stroke-width:1"/>
            <path fill="#f8f8f8" d="m10.373 7.32 1.626 5.005L13 12l-1.626-5.005z" style="stroke-width:1"/>
            <path fill="#f1f1f1" d="m9.673 7.788 2.389 4.69L13 12l-2.389-4.689z" style="stroke-width:1"/>
            <path fill="#eaeaea" d="m9.055 8.361 3.093 4.258L13 12 9.906 7.742z" style="stroke-width:1"/>
            <path fill="#e3e3e3" d="m8.534 9.023 3.721 3.722L13 12 9.278 8.278z" style="stroke-width:1"/>
            <path fill="#dcdcdc" d="m8.123 9.758 4.258 3.094L13 12 8.742 8.906z" style="stroke-width:1"/>
            <path fill="#d5d5d5" d="m7.833 10.548 4.689 2.39L13 12 8.311 9.611z" style="stroke-width:1"/>
            <path fill="#cdcdcd" d="m7.669 11.375 5.006 1.626L13 12l-5.005-1.626z" style="stroke-width:1"/>
            <path fill="#c6c6c6" d="m7.637 12.217 5.198.823L13 12l-5.198-.823z" style="stroke-width:1"/>
            <path fill="#bfbfbf" d="M7.737 13.053H13V12H7.737z" style="stroke-width:1"/>
            <path fill="#b8b8b8" d="m7.966 13.863 5.199-.823L13 12l-5.198.823z" style="stroke-width:1"/>
            <path fill="#b1b1b1" d="m8.32 14.627 5.005-1.626L13 12l-5.005 1.626z" style="stroke-width:1"/>
            <path fill="#aaa" d="m8.788 15.327 4.69-2.389L13 12l-4.689 2.389z" style="stroke-width:1"/>
            <path fill="#a3a3a3" d="m9.361 15.945 4.258-3.093L13 12l-4.258 3.094z" style="stroke-width:1"/>
            <path fill="#9c9c9c" d="m10.023 16.466 3.722-3.721L13 12l-3.722 3.722z" style="stroke-width:1"/>
            <path fill="#959595" d="m10.758 16.877 3.094-4.258L13 12l-3.094 4.258z" style="stroke-width:1"/>
            <path fill="#8e8e8e" d="m11.548 17.167 2.39-4.689L13 12l-2.389 4.689z" style="stroke-width:1"/>
            <path fill="#878787" d="m12.375 17.331 1.626-5.006L13 12l-1.626 5.005z" style="stroke-width:1"/>
            <path fill="gray" d="m13.217 17.363.823-5.198L13 12l-.823 5.198z" style="stroke-width:1"/>
            <path fill="#787878" d="M14.053 17.263V12H13v5.263z" style="stroke-width:1"/>
            <path fill="#717171" d="m14.863 17.034-.823-5.199L13 12l.823 5.198z" style="stroke-width:1"/>
            <path fill="#6a6a6a" d="m15.627 16.68-1.626-5.005L13 12l1.626 5.005z" style="stroke-width:1"/>
            <path fill="#636363" d="m16.327 16.212-2.389-4.69L13 12l2.389 4.689z" style="stroke-width:1"/>
            <path fill="#5c5c5c" d="m16.945 15.639-3.093-4.258L13 12l3.094 4.258z" style="stroke-width:1"/>
            <path fill="#555" d="m17.466 14.977-3.721-3.722L13 12l3.722 3.722z" style="stroke-width:1"/>
            <path fill="#4e4e4e" d="m17.877 14.242-4.258-3.094L13 12l4.258 3.094z" style="stroke-width:1"/>
            <path fill="#474747" d="m18.167 13.452-4.689-2.39L13 12l4.689 2.389z" style="stroke-width:1"/>
            <path fill="#404040" d="m18.331 12.625-5.006-1.626L13 12l5.005 1.626z" style="stroke-width:1"/>
            <path fill="#393939" d="m18.363 11.783-5.198-.823L13 12l5.198.823z" style="stroke-width:1"/>
            <path fill="#323232" d="M18.263 10.947H13V12h5.263z" style="stroke-width:1"/>
            <path fill="#2a2a2a" d="m18.034 10.137-5.199.823L13 12l5.198-.823z" style="stroke-width:1"/>
            <path fill="#232323" d="m17.68 9.373-5.005 1.626L13 12l5.005-1.626z" style="stroke-width:1"/>
            <path fill="#1c1c1c" d="m17.212 8.673-4.69 2.389L13 12l4.689-2.389z" style="stroke-width:1"/>
            <path fill="#151515" d="m16.639 8.055-4.258 3.093L13 12l4.258-3.094z" style="stroke-width:1"/>
            <path fill="#0e0e0e" d="m15.977 7.534-3.722 3.721L13 12l3.722-3.722z" style="stroke-width:1"/>
            <path fill="#070707" d="m15.242 7.123-3.094 4.258L13 12l3.094-4.258z" style="stroke-width:1"/>
            <path d="m14.452 6.833-2.39 4.689L13 12l2.389-4.689z" style="stroke-width:1"/>
            <circle cx="13" cy="7.921" r=".921" style="fill:#fff;stroke-width:1"/>
            <circle cx="13" cy="12" r="3.158" style="stroke-width:1"/>
        </mask>
    </defs>
    <path d="M6.153 16.193c-.845.418-1.654.906-2.418 1.459-.96.703-1.738.306-1.735-.882l.025-12.068c.008-2.975 1.621-3.588 3.6-1.366l8.033 9.006c.79.886.472 1.686-.715 1.781q-1.071.085-2.759.541c-1.692.453-2.671.847-4.031 1.529" clip-path="url(#a)" style="paint-order:stroke;stroke-width:2;stroke:#009;fill:none;stroke-opacity:.2"/>
    <path d="M5.153 15.193c-.845.418-1.654.906-2.418 1.459-.96.703-1.738.306-1.735-.882l.025-12.068C1.033.727 2.646.114 4.625 2.336l8.033 9.006c.79.886.472 1.686-.715 1.781q-1.071.085-2.759.541c-1.692.453-2.671.847-4.031 1.529" clip-path="url(#a)" style="paint-order:stroke;stroke-width:2;stroke-opacity:.7;fill:#fff;stroke:#000"/>
    <circle cx="14" cy="13" r="7" style="fill:#009;fill-opacity:.2;stroke-width:1;stroke-linejoin:round"/>
    <circle cx="13" cy="12" r="6" class="left(1,-6)" style="stroke-width:2;stroke:#000;paint-order:stroke;fill:#fff;stroke-opacity:.8"/>
    <circle cx="13" cy="12" r="5" class="left(1,-6)" mask="url(#b)" style="fill:#1a1b1c;stroke-width:1"/>
    <circle id="hot" cx="2" cy="2" r="1" style="fill:red"/>
</svg>
